<svg xmlns="http://www.w3.org/2000/svg" xmlns:xlink="http://www.w3.org/1999/xlink" width="514.963" height="255.948" viewBox="0 0 514.963 255.948">
  <defs>
    <clipPath id="clip-path">
      <rect id="Rectangle_14" data-name="Rectangle 14" width="34.099" height="34.099" fill="none"/>
    </clipPath>
    <clipPath id="clip-path-2">
      <rect id="Rectangle_11" data-name="Rectangle 11" width="24.052" height="24.052" fill="none"/>
    </clipPath>
    <clipPath id="clip-path-4">
      <rect id="Rectangle_21" data-name="Rectangle 21" width="38.217" height="38.217" fill="none"/>
    </clipPath>
    <clipPath id="clip-path-10">
      <rect id="Rectangle_36" data-name="Rectangle 36" width="38.156" height="38.156" fill="none"/>
    </clipPath>
    <clipPath id="clip-path-12">
      <rect id="Rectangle_44" data-name="Rectangle 44" width="19.401" height="19.401" fill="none"/>
    </clipPath>
  </defs>
  <g id="Group_5689" data-name="Group 5689" transform="translate(-25 -24.552)">
    <g id="control-plane-node" transform="translate(-19 -75)">
      <rect id="Rectangle_1" data-name="Rectangle 1" width="198.555" height="34.1" transform="translate(150.944 99.716)" fill="#d9e8ff"/>
      <path id="Path_105" data-name="Path 105" d="M5.879-2.51l.947.239A3.189,3.189,0,0,1,5.754-.491,2.953,2.953,0,0,1,3.862.122,3.4,3.4,0,0,1,1.98-.349a2.942,2.942,0,0,1-1.1-1.365A4.869,4.869,0,0,1,.5-3.633,4.218,4.218,0,0,1,.925-5.583,2.927,2.927,0,0,1,2.141-6.848,3.552,3.552,0,0,1,3.877-7.28a2.935,2.935,0,0,1,1.807.547A2.84,2.84,0,0,1,6.7-5.2l-.933.22a2.212,2.212,0,0,0-.723-1.138A1.926,1.926,0,0,0,3.857-6.47a2.314,2.314,0,0,0-1.379.4A2.089,2.089,0,0,0,1.7-5.012a4.276,4.276,0,0,0-.225,1.375,4.368,4.368,0,0,0,.266,1.594,1.982,1.982,0,0,0,.828,1.018,2.321,2.321,0,0,0,1.216.337,2.037,2.037,0,0,0,1.348-.459A2.349,2.349,0,0,0,5.879-2.51Zm1.675-.083a2.673,2.673,0,0,1,.8-2.134A2.413,2.413,0,0,1,9.985-5.3a2.327,2.327,0,0,1,1.748.7,2.666,2.666,0,0,1,.679,1.936,3.43,3.43,0,0,1-.3,1.575,2.126,2.126,0,0,1-.874.891A2.545,2.545,0,0,1,9.985.117a2.331,2.331,0,0,1-1.76-.7A2.789,2.789,0,0,1,7.554-2.593Zm.9,0A2.209,2.209,0,0,0,8.892-1.1a1.393,1.393,0,0,0,1.094.5,1.385,1.385,0,0,0,1.089-.5,2.261,2.261,0,0,0,.435-1.519,2.142,2.142,0,0,0-.437-1.458,1.39,1.39,0,0,0-1.086-.5,1.4,1.4,0,0,0-1.094.493A2.2,2.2,0,0,0,8.457-2.593ZM13.442,0V-5.186h.791v.737a1.864,1.864,0,0,1,1.65-.854,2.165,2.165,0,0,1,.862.168,1.356,1.356,0,0,1,.588.442,1.7,1.7,0,0,1,.273.649,5.033,5.033,0,0,1,.049.854V0h-.879V-3.154a2.368,2.368,0,0,0-.1-.8.845.845,0,0,0-.364-.425,1.157,1.157,0,0,0-.613-.159,1.424,1.424,0,0,0-.969.356,1.758,1.758,0,0,0-.408,1.353V0Zm7.48-.786.127.776a3.26,3.26,0,0,1-.664.078,1.5,1.5,0,0,1-.742-.151.848.848,0,0,1-.371-.4,3.147,3.147,0,0,1-.107-1.038V-4.5h-.645v-.684h.645V-6.47L20.039-7v1.812h.884V-4.5h-.884V-1.47a1.532,1.532,0,0,0,.046.483.366.366,0,0,0,.151.171.585.585,0,0,0,.3.063A2.859,2.859,0,0,0,20.923-.786Zm.85.786V-5.186h.791V-4.4a2.145,2.145,0,0,1,.559-.728.976.976,0,0,1,.564-.176,1.714,1.714,0,0,1,.9.283l-.3.815a1.258,1.258,0,0,0-.645-.19.837.837,0,0,0-.518.173.939.939,0,0,0-.327.481,3.423,3.423,0,0,0-.146,1.025V0Zm3.013-2.593a2.673,2.673,0,0,1,.8-2.134A2.413,2.413,0,0,1,27.217-5.3a2.327,2.327,0,0,1,1.748.7,2.666,2.666,0,0,1,.679,1.936,3.43,3.43,0,0,1-.3,1.575,2.126,2.126,0,0,1-.874.891,2.545,2.545,0,0,1-1.252.317,2.331,2.331,0,0,1-1.76-.7A2.789,2.789,0,0,1,24.785-2.593Zm.9,0A2.209,2.209,0,0,0,26.123-1.1a1.393,1.393,0,0,0,1.094.5,1.385,1.385,0,0,0,1.089-.5,2.261,2.261,0,0,0,.435-1.519A2.142,2.142,0,0,0,28.3-4.08a1.39,1.39,0,0,0-1.086-.5,1.4,1.4,0,0,0-1.094.493A2.2,2.2,0,0,0,25.688-2.593ZM30.654,0V-7.158h.879V0Zm5.132,0V-7.158h2.7a6.52,6.52,0,0,1,1.089.068,2.157,2.157,0,0,1,.884.334,1.755,1.755,0,0,1,.574.691,2.193,2.193,0,0,1,.217.977,2.2,2.2,0,0,1-.581,1.545,2.787,2.787,0,0,1-2.1.632H36.733V0Zm.947-3.755h1.851a1.963,1.963,0,0,0,1.3-.342,1.218,1.218,0,0,0,.386-.962,1.294,1.294,0,0,0-.227-.769,1.061,1.061,0,0,0-.6-.422,4.047,4.047,0,0,0-.884-.063H36.733ZM42.324,0V-7.158H43.2V0Zm5.625-.64a3.273,3.273,0,0,1-.94.586,2.716,2.716,0,0,1-.969.171A1.885,1.885,0,0,1,44.727-.3a1.378,1.378,0,0,1-.459-1.067,1.419,1.419,0,0,1,.173-.7,1.435,1.435,0,0,1,.454-.505,2.135,2.135,0,0,1,.632-.288,6.28,6.28,0,0,1,.781-.132,8.033,8.033,0,0,0,1.567-.3q0-.181,0-.229a.97.97,0,0,0-.249-.757,1.471,1.471,0,0,0-1-.3,1.552,1.552,0,0,0-.916.217,1.328,1.328,0,0,0-.437.769l-.859-.117A2.129,2.129,0,0,1,44.8-4.6a1.691,1.691,0,0,1,.776-.522A3.463,3.463,0,0,1,46.758-5.3a3.115,3.115,0,0,1,1.079.156,1.422,1.422,0,0,1,.61.393,1.382,1.382,0,0,1,.273.6,4.949,4.949,0,0,1,.044.811v1.172a12.439,12.439,0,0,0,.056,1.55A1.956,1.956,0,0,0,49.043,0h-.918A1.864,1.864,0,0,1,47.949-.64ZM47.876-2.6a6.448,6.448,0,0,1-1.436.332,3.32,3.32,0,0,0-.767.176.764.764,0,0,0-.347.286.75.75,0,0,0-.122.417.749.749,0,0,0,.266.586,1.145,1.145,0,0,0,.779.234,1.813,1.813,0,0,0,.9-.222,1.368,1.368,0,0,0,.581-.608,2.123,2.123,0,0,0,.142-.879ZM50.127,0V-5.186h.791v.737a1.864,1.864,0,0,1,1.65-.854,2.165,2.165,0,0,1,.862.168,1.356,1.356,0,0,1,.588.442,1.7,1.7,0,0,1,.273.649,5.033,5.033,0,0,1,.049.854V0h-.879V-3.154a2.368,2.368,0,0,0-.1-.8A.845.845,0,0,0,53-4.382a1.157,1.157,0,0,0-.613-.159,1.424,1.424,0,0,0-.969.356,1.758,1.758,0,0,0-.408,1.353V0Zm9.111-1.67.908.112a2.216,2.216,0,0,1-.8,1.235,2.393,2.393,0,0,1-1.484.439,2.372,2.372,0,0,1-1.8-.7A2.738,2.738,0,0,1,55.4-2.549a2.865,2.865,0,0,1,.674-2.031A2.281,2.281,0,0,1,57.817-5.3a2.217,2.217,0,0,1,1.7.708A2.813,2.813,0,0,1,60.176-2.6q0,.078,0,.234H56.3a1.993,1.993,0,0,0,.483,1.309,1.439,1.439,0,0,0,1.084.454A1.345,1.345,0,0,0,58.7-.859,1.685,1.685,0,0,0,59.238-1.67ZM56.353-3.091h2.9a1.757,1.757,0,0,0-.332-.981,1.347,1.347,0,0,0-1.089-.508,1.4,1.4,0,0,0-1.018.405A1.6,1.6,0,0,0,56.353-3.091ZM64.131,0V-7.158H65.1l3.76,5.62v-5.62h.908V0H68.8l-3.76-5.625V0Zm6.792-2.593a2.673,2.673,0,0,1,.8-2.134A2.413,2.413,0,0,1,73.354-5.3a2.327,2.327,0,0,1,1.748.7,2.666,2.666,0,0,1,.679,1.936,3.43,3.43,0,0,1-.3,1.575,2.126,2.126,0,0,1-.874.891,2.545,2.545,0,0,1-1.252.317,2.331,2.331,0,0,1-1.76-.7A2.789,2.789,0,0,1,70.923-2.593Zm.9,0A2.209,2.209,0,0,0,72.261-1.1a1.393,1.393,0,0,0,1.094.5,1.385,1.385,0,0,0,1.089-.5,2.261,2.261,0,0,0,.435-1.519,2.142,2.142,0,0,0-.437-1.458,1.39,1.39,0,0,0-1.086-.5,1.4,1.4,0,0,0-1.094.493A2.2,2.2,0,0,0,71.826-2.593ZM80.176,0V-.654a1.613,1.613,0,0,1-1.45.771,2.033,2.033,0,0,1-1.14-.342,2.248,2.248,0,0,1-.806-.955,3.3,3.3,0,0,1-.286-1.409A3.687,3.687,0,0,1,76.753-4a2.041,2.041,0,0,1,.776-.969A2.076,2.076,0,0,1,78.687-5.3a1.729,1.729,0,0,1,.835.2,1.746,1.746,0,0,1,.6.515V-7.158h.874V0ZM77.4-2.588a2.252,2.252,0,0,0,.42,1.489,1.266,1.266,0,0,0,.991.493,1.243,1.243,0,0,0,.979-.471,2.172,2.172,0,0,0,.4-1.438,2.439,2.439,0,0,0-.41-1.562,1.262,1.262,0,0,0-1.011-.5,1.218,1.218,0,0,0-.979.479A2.362,2.362,0,0,0,77.4-2.588Zm8.525.918.908.112a2.216,2.216,0,0,1-.8,1.235,2.393,2.393,0,0,1-1.484.439,2.372,2.372,0,0,1-1.8-.7,2.738,2.738,0,0,1-.667-1.965,2.865,2.865,0,0,1,.674-2.031A2.281,2.281,0,0,1,84.5-5.3a2.217,2.217,0,0,1,1.7.708A2.813,2.813,0,0,1,86.86-2.6q0,.078,0,.234H82.988a1.993,1.993,0,0,0,.483,1.309,1.439,1.439,0,0,0,1.084.454,1.345,1.345,0,0,0,.825-.254A1.685,1.685,0,0,0,85.923-1.67ZM83.037-3.091h2.9a1.757,1.757,0,0,0-.332-.981,1.347,1.347,0,0,0-1.089-.508,1.4,1.4,0,0,0-1.018.405A1.6,1.6,0,0,0,83.037-3.091Z" transform="translate(161.136 120.016)" fill="#231f20"/>
      <rect id="Rectangle_4" data-name="Rectangle 4" width="232.656" height="159.896" transform="translate(116.844 100.052)" fill="none" stroke="#326ce5" stroke-miterlimit="10" stroke-width="1"/>
      <g id="Group_10" data-name="Group 10" transform="translate(116.844 99.717)">
        <rect id="Rectangle_12" data-name="Rectangle 12" width="34.1" height="34.1" transform="translate(0 -0.001)" fill="#326ce5"/>
        <g id="Group_9" data-name="Group 9" transform="translate(0 0)">
          <g id="Group_8" data-name="Group 8" clip-path="url(#clip-path)">
            <path id="Path_34" data-name="Path 34" d="M30.175,36.569H12.118a1.658,1.658,0,0,1-1.656-1.657V27.148a1.658,1.658,0,0,1,1.656-1.656H30.175a1.658,1.658,0,0,1,1.656,1.656v7.764a1.658,1.658,0,0,1-1.656,1.657M12.118,25.948a1.2,1.2,0,0,0-1.2,1.2v7.764a1.2,1.2,0,0,0,1.2,1.2H30.175a1.2,1.2,0,0,0,1.2-1.2V27.148a1.2,1.2,0,0,0-1.2-1.2Z" transform="translate(-4.097 -9.983)" fill="#fff"/>
            <line id="Line_1" data-name="Line 1" x2="20.913" transform="translate(6.593 21.121)" fill="#526cb4"/>
            <rect id="Rectangle_13" data-name="Rectangle 13" width="20.913" height="0.608" transform="translate(6.593 20.817)" fill="#fff"/>
            <path id="Path_35" data-name="Path 35" d="M37.735,30.563H32.1a.3.3,0,1,1,0-.608h5.634a.3.3,0,0,1,0,.608" transform="translate(-12.451 -11.73)" fill="#fff"/>
            <path id="Path_36" data-name="Path 36" d="M37.735,39.157H32.1a.3.3,0,1,1,0-.608h5.634a.3.3,0,1,1,0,.608" transform="translate(-12.451 -15.096)" fill="#fff"/>
            <path id="Path_37" data-name="Path 37" d="M14.751,29.409A1.049,1.049,0,1,1,15.8,30.458a1.049,1.049,0,0,1-1.049-1.049" transform="translate(-5.776 -11.106)" fill="#fff"/>
            <path id="Path_38" data-name="Path 38" d="M14.492,38.374a1.049,1.049,0,1,1,1.049,1.049,1.049,1.049,0,0,1-1.049-1.049" transform="translate(-5.675 -14.616)" fill="#fff"/>
            <path id="Path_39" data-name="Path 39" d="M25.96,8.977H24.748V7.385h.193a.225.225,0,0,0,0-.45H24.1a.225.225,0,0,0,0,.45H24.3V8.977H23.064a.768.768,0,0,0-.768.767v.316h-.374a.713.713,0,0,0-.118,1.417l.574,2.7a.713.713,0,0,0,.267,1.375h.527v.318a.769.769,0,0,0,.544.734v1.623a.225.225,0,1,0,.45,0v-1.59h2.379v1.59a.225.225,0,1,0,.45,0V16.605a.769.769,0,0,0,.544-.734v-.318h.526a.713.713,0,0,0,.266-1.375l.574-2.7a.713.713,0,0,0-.118-1.417h-.375V9.744a.767.767,0,0,0-.767-.767H25.96Zm.612,5.149.374-2.639h1.5l-.561,2.639Zm-.454,0H24.59l-.373-2.639h2.274Zm-2.355-2.639.373,2.639H22.827l-.56-2.639Zm3.325,4.384a.319.319,0,0,1-.319.318H23.94a.319.319,0,0,1-.319-.318v-.318h3.467Zm.976-.767H22.645a.264.264,0,1,1,0-.527h5.42a.264.264,0,1,1,0,.527Zm-1.7-4.593h2.42a.263.263,0,1,1,0,.527H21.922a.263.263,0,1,1,0-.527h4.445Zm-2.025-.45h-1.6V9.744a.317.317,0,0,1,.318-.316h4.581a.317.317,0,0,1,.318.316v.316H24.342Z" transform="translate(-8.305 -2.716)" fill="#fff"/>
            <line id="Line_2" data-name="Line 2" x2="0.001" transform="translate(17.05 7.794)" fill="#fff"/>
          </g>
        </g>
      </g>
    </g>
    <g id="pod" transform="translate(3 19)">
      <g id="Group_60" data-name="Group 60" transform="translate(406.795 152.339)">
        <rect id="Rectangle_43" data-name="Rectangle 43" width="64.38" height="24.053" transform="translate(2.475)" fill="#d9e8ff"/>
        <g id="Group_6" data-name="Group 6" transform="translate(0 0)">
          <rect id="Rectangle_10" data-name="Rectangle 10" width="24.053" height="24.053" fill="#326ce5"/>
          <g id="Group_5" data-name="Group 5" transform="translate(0 0)">
            <g id="Group_4" data-name="Group 4" clip-path="url(#clip-path-2)">
              <path id="Path_18" data-name="Path 18" d="M19.122,25.536h-.029a8.511,8.511,0,0,1-1.281-.147.215.215,0,1,1,.082-.421,8.136,8.136,0,0,0,1.229.141.217.217,0,0,1,.21.218.212.212,0,0,1-.211.211m1.269-.126a.214.214,0,0,1-.041-.425,6.288,6.288,0,0,0,1.182-.359.214.214,0,0,1,.164.4,6.7,6.7,0,0,1-1.263.383.2.2,0,0,1-.042,0m-3.766-.372a.219.219,0,0,1-.078-.015,6.613,6.613,0,0,1-1.176-.6.215.215,0,0,1,.233-.36,6.124,6.124,0,0,0,1.1.56.215.215,0,0,1-.078.415m6.114-.6a.215.215,0,0,1-.119-.393,6.322,6.322,0,0,0,.954-.784.215.215,0,0,1,.3.3,6.767,6.767,0,0,1-1.019.838.216.216,0,0,1-.12.036m-8.245-.777a.214.214,0,0,1-.151-.063,6.339,6.339,0,0,1-.833-1.027.215.215,0,0,1,.36-.234,5.9,5.9,0,0,0,.776.957.215.215,0,0,1-.152.366m10.042-1.021a.215.215,0,0,1-.179-.334,6.308,6.308,0,0,0,.582-1.089.215.215,0,1,1,.4.164,6.777,6.777,0,0,1-.622,1.163.215.215,0,0,1-.179.1M13.105,21.532a.214.214,0,0,1-.2-.136,6.94,6.94,0,0,1-.365-1.266.214.214,0,1,1,.421-.08,6.6,6.6,0,0,0,.342,1.189.214.214,0,0,1-.2.293m12.4-1.242a.2.2,0,0,1-.042,0,.214.214,0,0,1-.169-.252,6.331,6.331,0,0,0,.12-1.229.227.227,0,0,1,.215-.229.2.2,0,0,1,.215.2V18.8a6.786,6.786,0,0,1-.128,1.313.215.215,0,0,1-.21.173M12.632,19.026a.209.209,0,0,1-.215-.208V18.8a7.13,7.13,0,0,1,.119-1.3.214.214,0,1,1,.421.078,6.735,6.735,0,0,0-.111,1.22.22.22,0,0,1-.215.221M25.5,17.72a.215.215,0,0,1-.21-.172,6.3,6.3,0,0,0-.363-1.181.214.214,0,1,1,.4-.166,6.736,6.736,0,0,1,.388,1.261.215.215,0,0,1-.168.253.245.245,0,0,1-.043,0M13.1,16.531a.214.214,0,0,1-.2-.293,6.589,6.589,0,0,1,.6-1.176.215.215,0,0,1,.36.233,6.19,6.19,0,0,0-.56,1.1.214.214,0,0,1-.2.136m11.426-1.156a.213.213,0,0,1-.178-.094,6.424,6.424,0,0,0-.788-.951.215.215,0,0,1,.3-.3,6.826,6.826,0,0,1,.841,1.016.214.214,0,0,1-.058.3.212.212,0,0,1-.12.037M14.474,14.4a.215.215,0,0,1-.152-.366,6.283,6.283,0,0,1,1.025-.834.215.215,0,0,1,.235.36,5.836,5.836,0,0,0-.955.777.215.215,0,0,1-.152.064m8.242-.813a.212.212,0,0,1-.119-.036,6.3,6.3,0,0,0-1.09-.579.214.214,0,1,1,.163-.4,6.746,6.746,0,0,1,1.165.618.215.215,0,0,1-.118.394M16.6,13.008a.215.215,0,0,1-.079-.414,7.3,7.3,0,0,1,1.263-.369.215.215,0,0,1,.084.421,6.856,6.856,0,0,0-1.189.347.209.209,0,0,1-.079.015m3.766-.388a.231.231,0,0,1-.042,0,6.348,6.348,0,0,0-1.208-.116.224.224,0,0,1-.225-.211.205.205,0,0,1,.2-.217l.006.215.009-.215h.006a6.8,6.8,0,0,1,1.3.123.215.215,0,0,1-.041.425" transform="translate(-7.088 -6.891)" fill="#fff"/>
              <path id="Path_19" data-name="Path 19" d="M22.236,23.986h-2.35a.549.549,0,0,1-.549-.549v-2.35a.549.549,0,0,1,.549-.549h2.35a.549.549,0,0,1,.549.549v2.35a.549.549,0,0,1-.549.549" transform="translate(-11.039 -11.724)" fill="#fff"/>
              <path id="Path_20" data-name="Path 20" d="M22.756,21.967h-1.9a.215.215,0,1,1,0-.429h1.9a.215.215,0,0,1,0,.429" transform="translate(-11.784 -12.295)" fill="#326ce5"/>
              <path id="Path_21" data-name="Path 21" d="M22.756,23.661h-1.9a.215.215,0,1,1,0-.429h1.9a.215.215,0,0,1,0,.429" transform="translate(-11.784 -13.262)" fill="#326ce5"/>
              <path id="Path_22" data-name="Path 22" d="M22.756,25.308h-1.9a.215.215,0,1,1,0-.429h1.9a.215.215,0,0,1,0,.429" transform="translate(-11.784 -14.202)" fill="#326ce5"/>
              <path id="Path_23" data-name="Path 23" d="M22.756,27h-1.9a.215.215,0,1,1,0-.429h1.9a.215.215,0,0,1,0,.429" transform="translate(-11.784 -15.169)" fill="#326ce5"/>
              <path id="Path_24" data-name="Path 24" d="M32.161,23.986h-2.35a.549.549,0,0,1-.549-.549v-2.35a.549.549,0,0,1,.549-.549h2.35a.549.549,0,0,1,.549.549v2.35a.549.549,0,0,1-.549.549" transform="translate(-16.704 -11.724)" fill="#fff"/>
              <path id="Path_25" data-name="Path 25" d="M32.681,21.967h-1.9a.215.215,0,1,1,0-.429h1.9a.215.215,0,0,1,0,.429" transform="translate(-17.45 -12.295)" fill="#326ce5"/>
              <path id="Path_26" data-name="Path 26" d="M32.681,23.661h-1.9a.215.215,0,1,1,0-.429h1.9a.215.215,0,0,1,0,.429" transform="translate(-17.45 -13.262)" fill="#326ce5"/>
              <path id="Path_27" data-name="Path 27" d="M32.681,25.308h-1.9a.215.215,0,1,1,0-.429h1.9a.215.215,0,0,1,0,.429" transform="translate(-17.45 -14.202)" fill="#326ce5"/>
              <path id="Path_28" data-name="Path 28" d="M32.681,27h-1.9a.215.215,0,1,1,0-.429h1.9a.215.215,0,0,1,0,.429" transform="translate(-17.45 -15.169)" fill="#326ce5"/>
              <path id="Path_29" data-name="Path 29" d="M26.793,33.292h-2.35a.549.549,0,0,1-.549-.549v-2.35a.549.549,0,0,1,.549-.549h2.35a.549.549,0,0,1,.549.549v2.35a.549.549,0,0,1-.549.549" transform="translate(-13.64 -17.037)" fill="#fff"/>
              <path id="Path_30" data-name="Path 30" d="M27.313,31.273h-1.9a.215.215,0,1,1,0-.429h1.9a.215.215,0,1,1,0,.429" transform="translate(-14.385 -17.608)" fill="#326ce5"/>
              <path id="Path_31" data-name="Path 31" d="M27.313,32.967h-1.9a.215.215,0,1,1,0-.429h1.9a.215.215,0,1,1,0,.429" transform="translate(-14.385 -18.575)" fill="#326ce5"/>
              <path id="Path_32" data-name="Path 32" d="M27.313,34.614h-1.9a.215.215,0,1,1,0-.429h1.9a.215.215,0,1,1,0,.429" transform="translate(-14.385 -19.515)" fill="#326ce5"/>
              <path id="Path_33" data-name="Path 33" d="M27.313,36.308h-1.9a.215.215,0,1,1,0-.429h1.9a.215.215,0,1,1,0,.429" transform="translate(-14.385 -20.482)" fill="#326ce5"/>
            </g>
          </g>
        </g>
        <text id="Pod-2" data-name="Pod" transform="translate(30.787 15.526)" font-size="10" font-family="ArialMT, Arial"><tspan x="0" y="0">Pod</tspan></text>
      </g>
      <rect id="Rectangle_42" data-name="Rectangle 42" width="66.855" height="88.322" transform="translate(406.795 152.526)" fill="none" stroke="#326ce5" stroke-miterlimit="10" stroke-width="1"/>
    </g>
    <g id="work-node">
      <rect id="Rectangle_6" data-name="Rectangle 6" width="161.218" height="34.1" transform="translate(378.245 25.052)" fill="#d9e8ff"/>
      <path id="Path_120" data-name="Path 120" d="M2.021,0,.122-7.158h.972L2.183-2.466q.176.737.3,1.465.273-1.147.322-1.323L4.17-7.158H5.313L6.338-3.535A19.2,19.2,0,0,1,6.895-1q.137-.679.356-1.558l1.123-4.6h.952L7.363,0H6.45L4.941-5.454q-.19-.684-.225-.84-.112.493-.21.84L2.988,0ZM9.41-2.593a2.673,2.673,0,0,1,.8-2.134A2.413,2.413,0,0,1,11.841-5.3a2.327,2.327,0,0,1,1.748.7,2.666,2.666,0,0,1,.679,1.936,3.43,3.43,0,0,1-.3,1.575,2.126,2.126,0,0,1-.874.891,2.545,2.545,0,0,1-1.252.317,2.331,2.331,0,0,1-1.76-.7A2.789,2.789,0,0,1,9.41-2.593Zm.9,0A2.209,2.209,0,0,0,10.748-1.1a1.393,1.393,0,0,0,1.094.5,1.385,1.385,0,0,0,1.089-.5,2.261,2.261,0,0,0,.435-1.519,2.142,2.142,0,0,0-.437-1.458,1.39,1.39,0,0,0-1.086-.5,1.4,1.4,0,0,0-1.094.493A2.2,2.2,0,0,0,10.313-2.593ZM15.289,0V-5.186h.791V-4.4a2.145,2.145,0,0,1,.559-.728A.976.976,0,0,1,17.2-5.3a1.714,1.714,0,0,1,.9.283l-.3.815a1.258,1.258,0,0,0-.645-.19.837.837,0,0,0-.518.173.939.939,0,0,0-.327.481,3.423,3.423,0,0,0-.146,1.025V0Zm3.345,0V-7.158h.879v4.082l2.08-2.109H22.73L20.748-3.262,22.93,0H21.846L20.132-2.651l-.62.6V0Zm8.545-1.67.908.112a2.216,2.216,0,0,1-.8,1.235,2.393,2.393,0,0,1-1.484.439,2.372,2.372,0,0,1-1.8-.7,2.738,2.738,0,0,1-.667-1.965,2.865,2.865,0,0,1,.674-2.031A2.281,2.281,0,0,1,25.757-5.3a2.217,2.217,0,0,1,1.7.708A2.813,2.813,0,0,1,28.116-2.6q0,.078,0,.234H24.244a1.993,1.993,0,0,0,.483,1.309,1.439,1.439,0,0,0,1.084.454,1.345,1.345,0,0,0,.825-.254A1.685,1.685,0,0,0,27.178-1.67ZM24.293-3.091h2.9a1.757,1.757,0,0,0-.332-.981,1.347,1.347,0,0,0-1.089-.508,1.4,1.4,0,0,0-1.018.405A1.6,1.6,0,0,0,24.293-3.091ZM29.18,0V-5.186h.791V-4.4a2.145,2.145,0,0,1,.559-.728.976.976,0,0,1,.564-.176,1.714,1.714,0,0,1,.9.283l-.3.815a1.258,1.258,0,0,0-.645-.19.837.837,0,0,0-.518.173.939.939,0,0,0-.327.481,3.423,3.423,0,0,0-.146,1.025V0ZM35.4,0V-7.158h.972l3.76,5.62v-5.62h.908V0h-.972l-3.76-5.625V0Zm6.792-2.593a2.673,2.673,0,0,1,.8-2.134A2.413,2.413,0,0,1,44.625-5.3a2.327,2.327,0,0,1,1.748.7,2.666,2.666,0,0,1,.679,1.936,3.43,3.43,0,0,1-.3,1.575,2.126,2.126,0,0,1-.874.891,2.545,2.545,0,0,1-1.252.317,2.331,2.331,0,0,1-1.76-.7A2.789,2.789,0,0,1,42.193-2.593Zm.9,0A2.209,2.209,0,0,0,43.531-1.1a1.393,1.393,0,0,0,1.094.5,1.385,1.385,0,0,0,1.089-.5,2.261,2.261,0,0,0,.435-1.519,2.142,2.142,0,0,0-.437-1.458,1.39,1.39,0,0,0-1.086-.5,1.4,1.4,0,0,0-1.094.493A2.2,2.2,0,0,0,43.1-2.593ZM51.446,0V-.654A1.613,1.613,0,0,1,50,.117a2.034,2.034,0,0,1-1.14-.342,2.248,2.248,0,0,1-.806-.955,3.3,3.3,0,0,1-.286-1.409A3.687,3.687,0,0,1,48.023-4a2.041,2.041,0,0,1,.776-.969A2.076,2.076,0,0,1,49.957-5.3a1.729,1.729,0,0,1,.835.2,1.746,1.746,0,0,1,.6.515V-7.158h.874V0ZM48.668-2.588a2.252,2.252,0,0,0,.42,1.489,1.266,1.266,0,0,0,.991.493,1.243,1.243,0,0,0,.979-.471,2.172,2.172,0,0,0,.4-1.438,2.439,2.439,0,0,0-.41-1.562,1.262,1.262,0,0,0-1.011-.5,1.218,1.218,0,0,0-.979.479A2.362,2.362,0,0,0,48.668-2.588Zm8.525.918.908.112a2.216,2.216,0,0,1-.8,1.235,2.393,2.393,0,0,1-1.484.439,2.372,2.372,0,0,1-1.8-.7,2.738,2.738,0,0,1-.667-1.965,2.865,2.865,0,0,1,.674-2.031A2.281,2.281,0,0,1,55.772-5.3a2.217,2.217,0,0,1,1.7.708A2.813,2.813,0,0,1,58.131-2.6q0,.078,0,.234H54.258a1.993,1.993,0,0,0,.483,1.309,1.439,1.439,0,0,0,1.084.454,1.345,1.345,0,0,0,.825-.254A1.685,1.685,0,0,0,57.193-1.67ZM54.307-3.091h2.9a1.757,1.757,0,0,0-.332-.981,1.347,1.347,0,0,0-1.089-.508,1.4,1.4,0,0,0-1.018.405A1.6,1.6,0,0,0,54.307-3.091Z" transform="translate(390.073 45.521)" fill="#231f20"/>
      <rect id="Rectangle_7" data-name="Rectangle 7" width="194.902" height="254.948" transform="translate(344.561 25.052)" fill="none" stroke="#326ce5" stroke-miterlimit="10" stroke-width="1"/>
      <g id="Group_13" data-name="Group 13" transform="translate(344.145 25.052)">
        <rect id="Rectangle_15" data-name="Rectangle 15" width="34.1" height="34.1" fill="#326ce5"/>
        <g id="Group_12" data-name="Group 12" transform="translate(0 0.001)">
          <g id="Group_11" data-name="Group 11" clip-path="url(#clip-path)">
            <path id="Path_40" data-name="Path 40" d="M30.176,36.568H12.119a1.658,1.658,0,0,1-1.657-1.656V27.148a1.658,1.658,0,0,1,1.657-1.656H30.176a1.657,1.657,0,0,1,1.655,1.656v7.764a1.657,1.657,0,0,1-1.655,1.656M12.119,25.948a1.2,1.2,0,0,0-1.2,1.2v7.764a1.2,1.2,0,0,0,1.2,1.2H30.176a1.2,1.2,0,0,0,1.2-1.2V27.148a1.2,1.2,0,0,0-1.2-1.2Z" transform="translate(-4.097 -9.983)" fill="#fff"/>
            <line id="Line_3" data-name="Line 3" x2="20.913" transform="translate(6.593 21.121)" fill="#526cb4"/>
            <rect id="Rectangle_16" data-name="Rectangle 16" width="20.913" height="0.608" transform="translate(6.593 20.817)" fill="#fff"/>
            <path id="Path_41" data-name="Path 41" d="M37.736,30.563H32.1a.3.3,0,1,1,0-.608h5.634a.3.3,0,0,1,0,.608" transform="translate(-12.451 -11.73)" fill="#fff"/>
            <path id="Path_42" data-name="Path 42" d="M19.43,16.218l.984-.35a.807.807,0,0,0,.458-1.107l-.448-.942L21.5,12.744l.943.448a.807.807,0,0,0,1.107-.458l.35-.984h1.52l.35.984a.807.807,0,0,0,1.107.458l.942-.448,1.075,1.075-.448.942a.807.807,0,0,0,.458,1.107l.984.35v1.52l-.984.35a.807.807,0,0,0-.458,1.107l.448.942-1.075,1.076-.942-.448a.807.807,0,0,0-1.107.458l-.35.984H23.9l-.35-.984a.807.807,0,0,0-1.107-.458l-.943.448-1.075-1.076.448-.942a.807.807,0,0,0-.458-1.107l-.984-.35Z" transform="translate(-7.609 -4.601)" fill="#326ce5"/>
            <path id="Path_43" data-name="Path 43" d="M25.438,22.315H23.489l-.422-1.186a.5.5,0,0,0-.282-.3.493.493,0,0,0-.408.01l-1.136.54-1.38-1.379.541-1.137a.5.5,0,0,0-.286-.689l-1.185-.422v-1.95l1.185-.422A.5.5,0,0,0,20.4,14.7l-.541-1.137,1.38-1.379,1.136.54a.5.5,0,0,0,.69-.286l.422-1.186h1.949l.421,1.186a.5.5,0,0,0,.69.285l1.137-.54,1.378,1.379-.54,1.137a.5.5,0,0,0,.286.689L30,15.808v1.95l-1.186.422a.5.5,0,0,0-.285.689l.541,1.137-1.379,1.379-1.137-.54a.5.5,0,0,0-.69.285Zm-1.52-.608h1.091l.277-.781a1.111,1.111,0,0,1,1.524-.631l.748.356.772-.771-.356-.749a1.111,1.111,0,0,1,.63-1.524l.782-.278V16.237l-.781-.277a1.111,1.111,0,0,1-.631-1.524l.356-.749-.772-.771-.748.356a1.111,1.111,0,0,1-1.524-.631l-.277-.782H23.918l-.278.782a1.111,1.111,0,0,1-1.524.631l-.748-.356-.771.771.355.749a1.111,1.111,0,0,1-.63,1.524l-.781.277v1.091l.781.278a1.111,1.111,0,0,1,.63,1.524l-.355.749.771.771.748-.356a1.111,1.111,0,0,1,1.524.631Z" transform="translate(-7.413 -4.406)" fill="#fff"/>
            <path id="Path_44" data-name="Path 44" d="M26.652,20.924a2.13,2.13,0,1,1,2.13-2.13,2.132,2.132,0,0,1-2.13,2.13m0-3.652a1.522,1.522,0,1,0,1.522,1.522,1.523,1.523,0,0,0-1.522-1.522" transform="translate(-9.603 -6.526)" fill="#fff"/>
            <path id="Path_45" data-name="Path 45" d="M37.736,39.157H32.1a.3.3,0,1,1,0-.608h5.634a.3.3,0,0,1,0,.608" transform="translate(-12.451 -15.096)" fill="#fff"/>
            <path id="Path_46" data-name="Path 46" d="M14.751,29.409A1.049,1.049,0,1,1,15.8,30.458a1.049,1.049,0,0,1-1.049-1.049" transform="translate(-5.776 -11.106)" fill="#fff"/>
            <path id="Path_47" data-name="Path 47" d="M14.492,38.374a1.049,1.049,0,1,1,1.049,1.049,1.049,1.049,0,0,1-1.049-1.049" transform="translate(-5.675 -14.616)" fill="#fff"/>
          </g>
        </g>
      </g>
    </g>
    <g id="controller-manager" transform="translate(-19 -75)">
      <path id="Path_104" data-name="Path 104" d="M-15.8-2.51l.947.239A3.189,3.189,0,0,1-15.92-.491a2.953,2.953,0,0,1-1.892.613,3.4,3.4,0,0,1-1.882-.471,2.942,2.942,0,0,1-1.1-1.365,4.869,4.869,0,0,1-.378-1.919,4.218,4.218,0,0,1,.427-1.951,2.927,2.927,0,0,1,1.216-1.265A3.552,3.552,0,0,1-17.8-7.28a2.935,2.935,0,0,1,1.807.547A2.84,2.84,0,0,1-14.971-5.2l-.933.22a2.212,2.212,0,0,0-.723-1.138,1.926,1.926,0,0,0-1.191-.356,2.314,2.314,0,0,0-1.379.4,2.089,2.089,0,0,0-.779,1.062A4.276,4.276,0,0,0-20.2-3.638a4.368,4.368,0,0,0,.266,1.594,1.982,1.982,0,0,0,.828,1.018,2.321,2.321,0,0,0,1.216.337,2.037,2.037,0,0,0,1.348-.459A2.349,2.349,0,0,0-15.8-2.51Zm1.675-.083a2.673,2.673,0,0,1,.8-2.134A2.413,2.413,0,0,1-11.689-5.3a2.327,2.327,0,0,1,1.748.7,2.666,2.666,0,0,1,.679,1.936,3.43,3.43,0,0,1-.3,1.575,2.126,2.126,0,0,1-.874.891,2.545,2.545,0,0,1-1.252.317,2.331,2.331,0,0,1-1.76-.7A2.789,2.789,0,0,1-14.121-2.593Zm.9,0A2.209,2.209,0,0,0-12.783-1.1a1.393,1.393,0,0,0,1.094.5A1.385,1.385,0,0,0-10.6-1.1a2.261,2.261,0,0,0,.435-1.519A2.142,2.142,0,0,0-10.6-4.08a1.39,1.39,0,0,0-1.086-.5,1.4,1.4,0,0,0-1.094.493A2.2,2.2,0,0,0-13.218-2.593ZM-8.232,0V-5.186h.791v.737A1.864,1.864,0,0,1-5.791-5.3a2.165,2.165,0,0,1,.862.168,1.356,1.356,0,0,1,.588.442,1.7,1.7,0,0,1,.273.649,5.033,5.033,0,0,1,.049.854V0H-4.9V-3.154a2.368,2.368,0,0,0-.1-.8.845.845,0,0,0-.364-.425,1.157,1.157,0,0,0-.613-.159,1.424,1.424,0,0,0-.969.356,1.758,1.758,0,0,0-.408,1.353V0Zm7.48-.786.127.776a3.26,3.26,0,0,1-.664.078,1.5,1.5,0,0,1-.742-.151.848.848,0,0,1-.371-.4A3.147,3.147,0,0,1-2.51-1.519V-4.5h-.645v-.684h.645V-6.47L-1.636-7v1.812h.884V-4.5h-.884V-1.47a1.532,1.532,0,0,0,.046.483.366.366,0,0,0,.151.171.585.585,0,0,0,.3.063A2.859,2.859,0,0,0-.752-.786ZM.1,0V-5.186H.889V-4.4a2.145,2.145,0,0,1,.559-.728A.976.976,0,0,1,2.012-5.3a1.714,1.714,0,0,1,.9.283l-.3.815a1.258,1.258,0,0,0-.645-.19.837.837,0,0,0-.518.173.939.939,0,0,0-.327.481A3.423,3.423,0,0,0,.977-2.715V0ZM3.11-2.593a2.673,2.673,0,0,1,.8-2.134A2.413,2.413,0,0,1,5.542-5.3a2.327,2.327,0,0,1,1.748.7,2.666,2.666,0,0,1,.679,1.936,3.43,3.43,0,0,1-.3,1.575A2.126,2.126,0,0,1,6.794-.2,2.545,2.545,0,0,1,5.542.117a2.331,2.331,0,0,1-1.76-.7A2.789,2.789,0,0,1,3.11-2.593Zm.9,0A2.209,2.209,0,0,0,4.448-1.1a1.393,1.393,0,0,0,1.094.5,1.385,1.385,0,0,0,1.089-.5,2.261,2.261,0,0,0,.435-1.519A2.142,2.142,0,0,0,6.628-4.08a1.39,1.39,0,0,0-1.086-.5,1.4,1.4,0,0,0-1.094.493A2.2,2.2,0,0,0,4.014-2.593ZM8.979,0V-7.158h.879V0ZM11.2,0V-7.158h.879V0Zm5.791-1.67.908.112a2.216,2.216,0,0,1-.8,1.235A2.393,2.393,0,0,1,15.62.117a2.372,2.372,0,0,1-1.8-.7,2.738,2.738,0,0,1-.667-1.965,2.865,2.865,0,0,1,.674-2.031A2.281,2.281,0,0,1,15.571-5.3a2.217,2.217,0,0,1,1.7.708A2.813,2.813,0,0,1,17.93-2.6q0,.078,0,.234H14.058a1.993,1.993,0,0,0,.483,1.309,1.439,1.439,0,0,0,1.084.454,1.345,1.345,0,0,0,.825-.254A1.685,1.685,0,0,0,16.992-1.67ZM14.106-3.091H17a1.757,1.757,0,0,0-.332-.981,1.347,1.347,0,0,0-1.089-.508,1.4,1.4,0,0,0-1.018.405A1.6,1.6,0,0,0,14.106-3.091ZM18.994,0V-5.186h.791V-4.4a2.145,2.145,0,0,1,.559-.728.976.976,0,0,1,.564-.176,1.714,1.714,0,0,1,.9.283l-.3.815a1.258,1.258,0,0,0-.645-.19.837.837,0,0,0-.518.173.939.939,0,0,0-.327.481,3.423,3.423,0,0,0-.146,1.025V0ZM-18.992,11V3.842h1.426l1.694,5.068q.234.708.342,1.06.122-.391.381-1.147l1.714-4.98h1.274V11h-.913V5.009L-15.154,11h-.854l-2.07-6.094V11Zm11.631-.64a3.273,3.273,0,0,1-.94.586,2.716,2.716,0,0,1-.969.171,1.885,1.885,0,0,1-1.313-.417,1.378,1.378,0,0,1-.459-1.067,1.419,1.419,0,0,1,.173-.7,1.435,1.435,0,0,1,.454-.505,2.135,2.135,0,0,1,.632-.288A6.28,6.28,0,0,1-9,8.012a8.033,8.033,0,0,0,1.567-.3q0-.181,0-.229a.97.97,0,0,0-.249-.757,1.471,1.471,0,0,0-1-.3,1.552,1.552,0,0,0-.916.217,1.328,1.328,0,0,0-.437.769l-.859-.117a2.129,2.129,0,0,1,.386-.891,1.691,1.691,0,0,1,.776-.522A3.463,3.463,0,0,1-8.552,5.7a3.115,3.115,0,0,1,1.079.156,1.422,1.422,0,0,1,.61.393,1.382,1.382,0,0,1,.273.6,4.949,4.949,0,0,1,.044.811V8.827a12.438,12.438,0,0,0,.056,1.55A1.956,1.956,0,0,0-6.267,11h-.918A1.864,1.864,0,0,1-7.361,10.36ZM-7.434,8.4a6.448,6.448,0,0,1-1.436.332,3.32,3.32,0,0,0-.767.176.764.764,0,0,0-.347.286.75.75,0,0,0-.122.417.749.749,0,0,0,.266.586,1.145,1.145,0,0,0,.779.234,1.813,1.813,0,0,0,.9-.222A1.368,1.368,0,0,0-7.576,9.6a2.123,2.123,0,0,0,.142-.879ZM-5.183,11V5.814h.791v.737A1.864,1.864,0,0,1-2.742,5.7a2.165,2.165,0,0,1,.862.168,1.356,1.356,0,0,1,.588.442,1.7,1.7,0,0,1,.273.649,5.033,5.033,0,0,1,.049.854V11h-.879V7.846a2.368,2.368,0,0,0-.1-.8.845.845,0,0,0-.364-.425,1.157,1.157,0,0,0-.613-.159,1.424,1.424,0,0,0-.969.356A1.758,1.758,0,0,0-4.3,8.168V11Zm8.945-.64a3.273,3.273,0,0,1-.94.586,2.716,2.716,0,0,1-.969.171A1.885,1.885,0,0,1,.54,10.7,1.378,1.378,0,0,1,.081,9.633a1.419,1.419,0,0,1,.173-.7,1.435,1.435,0,0,1,.454-.505,2.135,2.135,0,0,1,.632-.288,6.28,6.28,0,0,1,.781-.132,8.033,8.033,0,0,0,1.567-.3q0-.181,0-.229a.97.97,0,0,0-.249-.757,1.471,1.471,0,0,0-1-.3,1.552,1.552,0,0,0-.916.217,1.328,1.328,0,0,0-.437.769L.232,7.294A2.129,2.129,0,0,1,.618,6.4a1.691,1.691,0,0,1,.776-.522A3.463,3.463,0,0,1,2.571,5.7a3.115,3.115,0,0,1,1.079.156,1.422,1.422,0,0,1,.61.393,1.382,1.382,0,0,1,.273.6,4.949,4.949,0,0,1,.044.811V8.827a12.438,12.438,0,0,0,.056,1.55A1.956,1.956,0,0,0,4.856,11H3.938A1.864,1.864,0,0,1,3.762,10.36ZM3.689,8.4a6.448,6.448,0,0,1-1.436.332,3.32,3.32,0,0,0-.767.176.764.764,0,0,0-.347.286.777.777,0,0,0,.144,1,1.145,1.145,0,0,0,.779.234,1.813,1.813,0,0,0,.9-.222A1.368,1.368,0,0,0,3.547,9.6a2.123,2.123,0,0,0,.142-.879Zm2.09,3.032.854.127a.814.814,0,0,0,.3.576,1.463,1.463,0,0,0,.894.244,1.569,1.569,0,0,0,.942-.244,1.2,1.2,0,0,0,.449-.684,5.614,5.614,0,0,0,.063-1.128A1.808,1.808,0,0,1,7.844,11a1.957,1.957,0,0,1-1.655-.771A2.971,2.971,0,0,1,5.6,8.378a3.444,3.444,0,0,1,.269-1.37,2.149,2.149,0,0,1,.779-.969,2.1,2.1,0,0,1,1.2-.342,1.859,1.859,0,0,1,1.514.742V5.814h.811V10.3a4.251,4.251,0,0,1-.247,1.716,1.8,1.8,0,0,1-.781.8A2.708,2.708,0,0,1,7.83,13.1a2.481,2.481,0,0,1-1.5-.417A1.412,1.412,0,0,1,5.779,11.43Zm.728-3.115A2.25,2.25,0,0,0,6.912,9.8a1.337,1.337,0,0,0,2.031,0,2.176,2.176,0,0,0,.41-1.462,2.126,2.126,0,0,0-.422-1.436,1.306,1.306,0,0,0-1.018-.483,1.269,1.269,0,0,0-1,.476A2.114,2.114,0,0,0,6.506,8.314ZM15.051,9.33l.908.112a2.216,2.216,0,0,1-.8,1.235,2.393,2.393,0,0,1-1.484.439,2.372,2.372,0,0,1-1.8-.7,2.738,2.738,0,0,1-.667-1.965,2.865,2.865,0,0,1,.674-2.031A2.281,2.281,0,0,1,13.63,5.7a2.217,2.217,0,0,1,1.7.708A2.813,2.813,0,0,1,15.989,8.4q0,.078,0,.234H12.117A1.993,1.993,0,0,0,12.6,9.94a1.439,1.439,0,0,0,1.084.454,1.345,1.345,0,0,0,.825-.254A1.685,1.685,0,0,0,15.051,9.33ZM12.166,7.909h2.9a1.757,1.757,0,0,0-.332-.981A1.347,1.347,0,0,0,13.64,6.42a1.4,1.4,0,0,0-1.018.405A1.6,1.6,0,0,0,12.166,7.909ZM17.053,11V5.814h.791V6.6a2.145,2.145,0,0,1,.559-.728.976.976,0,0,1,.564-.176,1.714,1.714,0,0,1,.9.283l-.3.815a1.258,1.258,0,0,0-.645-.19.837.837,0,0,0-.518.173.939.939,0,0,0-.327.481,3.423,3.423,0,0,0-.146,1.025V11Z" transform="translate(151 241)"/>
      <g id="Group_16" data-name="Group 16" transform="translate(131.549 188.344)">
        <rect id="Rectangle_18" data-name="Rectangle 18" width="38.217" height="38.217" transform="translate(0 0)" fill="#326ce5"/>
        <g id="Group_15" data-name="Group 15" transform="translate(0 0.001)">
          <g id="Group_14" data-name="Group 14" transform="translate(0 0)" clip-path="url(#clip-path-4)">
            <path id="Path_48" data-name="Path 48" d="M18.25,32.126H10.693a1.371,1.371,0,0,1-1.371-1.371V14.714a1.371,1.371,0,0,1,1.371-1.371H18.25a1.371,1.371,0,0,1,1.371,1.371V30.755a1.371,1.371,0,0,1-1.371,1.371" transform="translate(-2.966 -4.245)" fill="#fff"/>
            <path id="Path_49" data-name="Path 49" d="M35.878,31.223H26.669a.341.341,0,0,1,0-.682h9.209a4.761,4.761,0,1,0,0-9.522H34.225a.341.341,0,1,1,0-.682h1.653a5.443,5.443,0,1,1,0,10.885" transform="translate(-8.376 -6.47)" fill="#fff"/>
            <path id="Path_50" data-name="Path 50" d="M34.546,21.02H32.369a.341.341,0,1,1,0-.682h2.177a.341.341,0,1,1,0,.682" transform="translate(-10.189 -6.47)" fill="#fff"/>
            <path id="Path_51" data-name="Path 51" d="M29.1,21.02h-2.43a.341.341,0,0,1,0-.682H29.1a.341.341,0,1,1,0,.682" transform="translate(-8.376 -6.47)" fill="#fff"/>
            <rect id="Rectangle_19" data-name="Rectangle 19" width="2.406" height="2.674" transform="translate(15.887 12.872)" fill="#fff"/>
            <rect id="Rectangle_20" data-name="Rectangle 20" width="2.406" height="2.674" transform="translate(15.887 23.075)" fill="#fff"/>
            <path id="Path_52" data-name="Path 52" d="M13.517,16.825A1.215,1.215,0,1,1,12.3,15.61a1.215,1.215,0,0,1,1.215,1.215" transform="translate(-3.527 -4.966)" fill="#326ce5"/>
            <path id="Path_53" data-name="Path 53" d="M19.62,22.568H16.01a.341.341,0,1,1,0-.682h3.61a.341.341,0,1,1,0,.682" transform="translate(-4.985 -6.963)" fill="#326ce5"/>
            <path id="Path_54" data-name="Path 54" d="M19.62,24.9H16.01a.341.341,0,1,1,0-.682h3.61a.341.341,0,1,1,0,.682" transform="translate(-4.985 -7.704)" fill="#326ce5"/>
            <path id="Path_55" data-name="Path 55" d="M34.2,21.514a.341.341,0,0,1-.241-.582l.687-.687-.687-.687a.341.341,0,0,1,.483-.482l1.168,1.169-1.168,1.169a.342.342,0,0,1-.241.1" transform="translate(-10.772 -6.037)" fill="#fff"/>
          </g>
        </g>
      </g>
      <path id="Path_96" data-name="Path 96" d="M63,176.772V161.293" transform="translate(87 6.958)" fill="none" stroke="#000" stroke-width="1"/>
      <path id="Polygon_4" data-name="Polygon 4" d="M3,0,6,5H0Z" transform="translate(147 167)"/>
      <path id="Polygon_3" data-name="Polygon 3" d="M3,0,6,5H0Z" transform="translate(153 187) rotate(180)"/>
    </g>
    <g id="scheduler" transform="translate(-19 -75)">
      <path id="Path_123" data-name="Path 123" d="M-22.065-2.3l.894-.078a1.973,1.973,0,0,0,.3.881,1.613,1.613,0,0,0,.72.557,2.727,2.727,0,0,0,1.1.212A2.633,2.633,0,0,0-18.1-.889a1.328,1.328,0,0,0,.618-.442,1.025,1.025,0,0,0,.2-.613.932.932,0,0,0-.2-.588,1.447,1.447,0,0,0-.645-.422A12.6,12.6,0,0,0-19.395-3.3a6.512,6.512,0,0,1-1.382-.447,1.938,1.938,0,0,1-.764-.667,1.633,1.633,0,0,1-.251-.891,1.819,1.819,0,0,1,.308-1.013,1.9,1.9,0,0,1,.9-.715,3.408,3.408,0,0,1,1.313-.244,3.588,3.588,0,0,1,1.4.256,2.025,2.025,0,0,1,.935.754,2.167,2.167,0,0,1,.352,1.128l-.908.068a1.465,1.465,0,0,0-.5-1.025,1.929,1.929,0,0,0-1.248-.347,2,2,0,0,0-1.252.315.945.945,0,0,0-.393.759.814.814,0,0,0,.278.635,3.771,3.771,0,0,0,1.428.51,9.447,9.447,0,0,1,1.584.457,2.17,2.17,0,0,1,.923.73,1.778,1.778,0,0,1,.3,1.018,1.947,1.947,0,0,1-.327,1.077,2.154,2.154,0,0,1-.94.786,3.275,3.275,0,0,1-1.379.281,4.119,4.119,0,0,1-1.628-.283,2.281,2.281,0,0,1-1.03-.852A2.416,2.416,0,0,1-22.065-2.3Zm10.264.4.864.112a2.241,2.241,0,0,1-.725,1.4A2.112,2.112,0,0,1-13.1.117a2.226,2.226,0,0,1-1.711-.7,2.823,2.823,0,0,1-.647-1.995,3.61,3.61,0,0,1,.278-1.47,1.941,1.941,0,0,1,.847-.945A2.514,2.514,0,0,1-13.091-5.3a2.152,2.152,0,0,1,1.382.427,1.959,1.959,0,0,1,.688,1.213l-.854.132a1.419,1.419,0,0,0-.432-.786,1.118,1.118,0,0,0-.75-.264,1.364,1.364,0,0,0-1.079.476A2.26,2.26,0,0,0-14.551-2.6a2.336,2.336,0,0,0,.4,1.519,1.3,1.3,0,0,0,1.045.474,1.232,1.232,0,0,0,.864-.317A1.575,1.575,0,0,0-11.8-1.9ZM-10.186,0V-7.158h.879V-4.59A1.963,1.963,0,0,1-7.754-5.3a2.094,2.094,0,0,1,1,.227,1.333,1.333,0,0,1,.608.627,2.892,2.892,0,0,1,.183,1.162V0h-.879V-3.286a1.358,1.358,0,0,0-.286-.959,1.062,1.062,0,0,0-.808-.3,1.425,1.425,0,0,0-.735.2,1.144,1.144,0,0,0-.491.549,2.523,2.523,0,0,0-.146.957V0Zm9.111-1.67.908.112a2.216,2.216,0,0,1-.8,1.235A2.393,2.393,0,0,1-2.446.117a2.372,2.372,0,0,1-1.8-.7,2.738,2.738,0,0,1-.667-1.965A2.865,2.865,0,0,1-4.243-4.58,2.281,2.281,0,0,1-2.5-5.3a2.217,2.217,0,0,1,1.7.708A2.813,2.813,0,0,1-.137-2.6q0,.078,0,.234H-4.009A1.993,1.993,0,0,0-3.525-1.06a1.439,1.439,0,0,0,1.084.454,1.345,1.345,0,0,0,.825-.254A1.685,1.685,0,0,0-1.074-1.67ZM-3.96-3.091h2.9A1.757,1.757,0,0,0-1.4-4.072,1.347,1.347,0,0,0-2.485-4.58,1.4,1.4,0,0,0-3.5-4.175,1.6,1.6,0,0,0-3.96-3.091ZM4.3,0V-.654a1.613,1.613,0,0,1-1.45.771,2.034,2.034,0,0,1-1.14-.342,2.248,2.248,0,0,1-.806-.955A3.3,3.3,0,0,1,.62-2.588,3.687,3.687,0,0,1,.879-4a2.041,2.041,0,0,1,.776-.969A2.076,2.076,0,0,1,2.813-5.3a1.729,1.729,0,0,1,.835.2,1.746,1.746,0,0,1,.6.515V-7.158h.874V0ZM1.523-2.588A2.252,2.252,0,0,0,1.943-1.1a1.266,1.266,0,0,0,.991.493,1.243,1.243,0,0,0,.979-.471,2.172,2.172,0,0,0,.4-1.438,2.439,2.439,0,0,0-.41-1.562,1.262,1.262,0,0,0-1.011-.5,1.218,1.218,0,0,0-.979.479A2.362,2.362,0,0,0,1.523-2.588ZM9.9,0V-.762A1.9,1.9,0,0,1,8.252.117,2.1,2.1,0,0,1,7.4-.059,1.411,1.411,0,0,1,6.8-.5a1.656,1.656,0,0,1-.271-.652,4.463,4.463,0,0,1-.054-.82V-5.186h.879V-2.31a5.125,5.125,0,0,0,.054.928.917.917,0,0,0,.352.544,1.089,1.089,0,0,0,.664.2,1.447,1.447,0,0,0,.742-.2,1.127,1.127,0,0,0,.491-.552A2.769,2.769,0,0,0,9.8-2.407V-5.186h.879V0Zm2.144,0V-7.158h.879V0Zm5.791-1.67.908.112a2.216,2.216,0,0,1-.8,1.235A2.393,2.393,0,0,1,16.46.117a2.372,2.372,0,0,1-1.8-.7,2.738,2.738,0,0,1-.667-1.965,2.865,2.865,0,0,1,.674-2.031A2.281,2.281,0,0,1,16.411-5.3a2.217,2.217,0,0,1,1.7.708A2.813,2.813,0,0,1,18.77-2.6q0,.078,0,.234H14.9a1.993,1.993,0,0,0,.483,1.309,1.439,1.439,0,0,0,1.084.454,1.345,1.345,0,0,0,.825-.254A1.685,1.685,0,0,0,17.832-1.67ZM14.946-3.091h2.9a1.757,1.757,0,0,0-.332-.981,1.347,1.347,0,0,0-1.089-.508,1.4,1.4,0,0,0-1.018.405A1.6,1.6,0,0,0,14.946-3.091ZM19.834,0V-5.186h.791V-4.4a2.145,2.145,0,0,1,.559-.728.976.976,0,0,1,.564-.176,1.714,1.714,0,0,1,.9.283l-.3.815a1.258,1.258,0,0,0-.645-.19.837.837,0,0,0-.518.173.939.939,0,0,0-.327.481,3.423,3.423,0,0,0-.146,1.025V0Z" transform="translate(210.849 241)"/>
      <g id="Group_19" data-name="Group 19" transform="translate(190.59 188.344)">
        <rect id="Rectangle_22" data-name="Rectangle 22" width="38.217" height="38.217" transform="translate(0 0)" fill="#326ce5"/>
        <g id="Group_18" data-name="Group 18" transform="translate(0 0.001)">
          <g id="Group_17" data-name="Group 17" transform="translate(0 0)" clip-path="url(#clip-path-4)">
            <path id="Path_56" data-name="Path 56" d="M26.41,43.366a.341.341,0,0,1-.076-.673,4.43,4.43,0,0,0,1.764-.855.341.341,0,1,1,.426.532,5.106,5.106,0,0,1-2.037.987.329.329,0,0,1-.076.009M24.3,43.359a.326.326,0,0,1-.072-.008,5.06,5.06,0,0,1-2.058-.943.341.341,0,1,1,.418-.538,4.4,4.4,0,0,0,1.784.815.341.341,0,0,1-.072.674M21.07,40.824a.342.342,0,0,1-.31-.2,5.36,5.36,0,0,1-.485-2.207.34.34,0,0,1,.339-.343.376.376,0,0,1,.343.339,4.665,4.665,0,0,0,.423,1.924.342.342,0,0,1-.166.453.346.346,0,0,1-.143.031m8.557-.032a.333.333,0,0,1-.148-.034.341.341,0,0,1-.16-.455,4.371,4.371,0,0,0,.435-1.912.365.365,0,0,1,.341-.368.319.319,0,0,1,.341.314v.055a5.043,5.043,0,0,1-.5,2.208.34.34,0,0,1-.307.194m-8.58-4.1a.34.34,0,0,1-.311-.481,4.785,4.785,0,0,1,1.387-1.8.341.341,0,0,1,.425.533,4.116,4.116,0,0,0-1.19,1.545.34.34,0,0,1-.311.2m8.557-.066a.34.34,0,0,1-.3-.19,4.486,4.486,0,0,0-1.241-1.521.341.341,0,0,1,.421-.537A5.149,5.149,0,0,1,29.91,36.13a.341.341,0,0,1-.305.493m-5.359-2.507a.341.341,0,0,1-.076-.673,6.271,6.271,0,0,1,1.158-.149,4.628,4.628,0,0,1,1.1.117.341.341,0,0,1-.145.666,4.454,4.454,0,0,0-.944-.1,5.618,5.618,0,0,0-1.019.131.327.327,0,0,1-.076.009" transform="translate(-6.45 -10.592)" fill="#fff"/>
            <path id="Path_57" data-name="Path 57" d="M28.293,41.844H24.559a.873.873,0,0,1-.873-.873V37.237a.873.873,0,0,1,.873-.872h3.734a.873.873,0,0,1,.873.872v3.734a.873.873,0,0,1-.873.873" transform="translate(-7.535 -11.569)" fill="#fff"/>
            <path id="Path_58" data-name="Path 58" d="M28.35,38.046H25.333a.341.341,0,0,1,0-.682H28.35a.341.341,0,1,1,0,.682" transform="translate(-7.951 -11.887)" fill="#326ce5"/>
            <path id="Path_59" data-name="Path 59" d="M28.35,39.741H25.333a.341.341,0,1,1,0-.682H28.35a.341.341,0,1,1,0,.682" transform="translate(-7.951 -12.426)" fill="#326ce5"/>
            <path id="Path_60" data-name="Path 60" d="M28.35,41.388H25.333a.341.341,0,0,1,0-.682H28.35a.341.341,0,1,1,0,.682" transform="translate(-7.951 -12.95)" fill="#326ce5"/>
            <path id="Path_61" data-name="Path 61" d="M28.35,43.082H25.333a.341.341,0,0,1,0-.682H28.35a.341.341,0,1,1,0,.682" transform="translate(-7.951 -13.489)" fill="#326ce5"/>
            <path id="Path_62" data-name="Path 62" d="M36.6,12.312H8.3a.341.341,0,0,1,0-.682H36.6a.341.341,0,0,1,0,.682" transform="translate(-2.532 -3.7)" fill="#fff"/>
            <rect id="Rectangle_23" data-name="Rectangle 23" width="8.373" height="3.142" transform="translate(14.86 6.93)" fill="#326ce5"/>
            <path id="Path_63" data-name="Path 63" d="M30.008,13.487H21.635a.341.341,0,0,1-.341-.341V10a.341.341,0,0,1,.341-.341h8.373a.341.341,0,0,1,.341.341v3.143a.341.341,0,0,1-.341.341M21.976,12.8h7.691v-2.46H21.976Z" transform="translate(-6.774 -3.074)" fill="#fff"/>
            <path id="Path_64" data-name="Path 64" d="M24.291,25.566a.338.338,0,0,1-.215-.077L22.3,24.036V20.784l3.394-3.092V14.569a.341.341,0,0,1,.682,0v3.424L22.98,21.086v2.627l1.527,1.248a.341.341,0,0,1-.215.6" transform="translate(-7.094 -4.527)" fill="#fff"/>
            <path id="Path_65" data-name="Path 65" d="M29.3,27.093a.341.341,0,0,1-.216-.6l1.6-1.313V22.62l-3.3-3a.341.341,0,1,1,.458-.5l3.52,3.2V25.5l-1.848,1.517a.336.336,0,0,1-.216.078" transform="translate(-8.677 -6.054)" fill="#fff"/>
            <path id="Path_66" data-name="Path 66" d="M28.583,22.392H24.69a.341.341,0,1,1,0-.682h3.893a.341.341,0,0,1,0,.682" transform="translate(-7.746 -6.907)" fill="#fff"/>
            <path id="Path_67" data-name="Path 67" d="M27.617,25.738a.341.341,0,0,1-.341-.341V22.156a.341.341,0,0,1,.682,0V25.4a.341.341,0,0,1-.341.341" transform="translate(-8.677 -6.94)" fill="#fff"/>
          </g>
        </g>
      </g>
      <path id="Path_97" data-name="Path 97" d="M63,183.729V161.293" transform="translate(147)" fill="none" stroke="#000" stroke-width="1"/>
      <path id="Polygon_6" data-name="Polygon 6" d="M3,0,6,5H0Z" transform="translate(207 160)"/>
      <path id="Polygon_5" data-name="Polygon 5" d="M3,0,6,5H0Z" transform="translate(213 187) rotate(180)"/>
    </g>
    <g id="kublet" transform="translate(-19 -75)">
      <path id="Path_122" data-name="Path 122" d="M-16.226,0V-7.158h.947v3.55l3.555-3.55h1.284l-3,2.9L-10.308,0h-1.25l-2.549-3.623L-15.278-2.48V0Zm10,0V-.762A1.9,1.9,0,0,1-7.876.117a2.1,2.1,0,0,1-.857-.176A1.411,1.411,0,0,1-9.324-.5a1.656,1.656,0,0,1-.271-.652,4.463,4.463,0,0,1-.054-.82V-5.186h.879V-2.31a5.125,5.125,0,0,0,.054.928.917.917,0,0,0,.352.544,1.089,1.089,0,0,0,.664.2,1.447,1.447,0,0,0,.742-.2,1.127,1.127,0,0,0,.491-.552,2.769,2.769,0,0,0,.144-1.013V-5.186h.879V0Zm2.974,0h-.815V-7.158h.879V-4.6a1.739,1.739,0,0,1,1.421-.7,2.176,2.176,0,0,1,.906.193,1.85,1.85,0,0,1,.7.542,2.62,2.62,0,0,1,.432.842A3.473,3.473,0,0,1,.425-2.671,2.962,2.962,0,0,1-.234-.61,2.062,2.062,0,0,1-1.816.117a1.651,1.651,0,0,1-1.44-.767Zm-.01-2.632a2.691,2.691,0,0,0,.254,1.348A1.266,1.266,0,0,0-1.89-.605a1.264,1.264,0,0,0,1-.5A2.274,2.274,0,0,0-.474-2.6a2.314,2.314,0,0,0-.4-1.5,1.227,1.227,0,0,0-.974-.483,1.264,1.264,0,0,0-1,.5A2.2,2.2,0,0,0-3.267-2.632Zm8.311.962.908.112a2.216,2.216,0,0,1-.8,1.235A2.393,2.393,0,0,1,3.672.117a2.372,2.372,0,0,1-1.8-.7A2.738,2.738,0,0,1,1.2-2.549,2.865,2.865,0,0,1,1.875-4.58,2.281,2.281,0,0,1,3.623-5.3a2.217,2.217,0,0,1,1.7.708A2.813,2.813,0,0,1,5.981-2.6q0,.078,0,.234H2.109A1.993,1.993,0,0,0,2.593-1.06a1.439,1.439,0,0,0,1.084.454A1.345,1.345,0,0,0,4.5-.859,1.685,1.685,0,0,0,5.044-1.67ZM2.158-3.091h2.9a1.757,1.757,0,0,0-.332-.981A1.347,1.347,0,0,0,3.633-4.58a1.4,1.4,0,0,0-1.018.405A1.6,1.6,0,0,0,2.158-3.091ZM7.036,0V-7.158h.879V0Zm5.791-1.67.908.112a2.216,2.216,0,0,1-.8,1.235,2.393,2.393,0,0,1-1.484.439,2.372,2.372,0,0,1-1.8-.7,2.738,2.738,0,0,1-.667-1.965A2.865,2.865,0,0,1,9.658-4.58,2.281,2.281,0,0,1,11.406-5.3a2.217,2.217,0,0,1,1.7.708A2.813,2.813,0,0,1,13.765-2.6q0,.078,0,.234H9.893a1.993,1.993,0,0,0,.483,1.309,1.439,1.439,0,0,0,1.084.454,1.345,1.345,0,0,0,.825-.254A1.685,1.685,0,0,0,12.827-1.67ZM9.941-3.091h2.9a1.757,1.757,0,0,0-.332-.981,1.347,1.347,0,0,0-1.089-.508,1.4,1.4,0,0,0-1.018.405A1.6,1.6,0,0,0,9.941-3.091Zm6.816,2.3.127.776a3.26,3.26,0,0,1-.664.078,1.5,1.5,0,0,1-.742-.151.848.848,0,0,1-.371-.4A3.147,3.147,0,0,1,15-1.519V-4.5h-.645v-.684H15V-6.47L15.874-7v1.812h.884V-4.5h-.884V-1.47a1.532,1.532,0,0,0,.046.483.366.366,0,0,0,.151.171.585.585,0,0,0,.3.063A2.859,2.859,0,0,0,16.758-.786Z" transform="translate(265.245 241)"/>
      <g id="Group_28" data-name="Group 28" transform="translate(246.136 188.345)">
        <rect id="Rectangle_29" data-name="Rectangle 29" width="38.217" height="38.217" transform="translate(0 -0.001)" fill="#326ce5"/>
        <g id="Group_27" data-name="Group 27" transform="translate(0 0)">
          <g id="Group_26" data-name="Group 26" clip-path="url(#clip-path-4)">
            <path id="Path_85" data-name="Path 85" d="M24.632,35.158h0a5.583,5.583,0,0,1-5.583-5.583V21.489a5.583,5.583,0,1,1,11.166,0v8.086a5.583,5.583,0,0,1-5.583,5.583" transform="translate(-6.06 -5.06)" fill="#fff"/>
            <path id="Path_86" data-name="Path 86" d="M27.922,20.562a1.812,1.812,0,1,1-1.812-1.812,1.812,1.812,0,0,1,1.812,1.812" transform="translate(-7.73 -5.965)" fill="#326ce5"/>
            <rect id="Rectangle_30" data-name="Rectangle 30" width="1.492" height="1.492" transform="translate(15.821 18.905)" fill="#326ce5"/>
            <rect id="Rectangle_31" data-name="Rectangle 31" width="1.492" height="1.492" transform="translate(19.446 18.905)" fill="#326ce5"/>
            <rect id="Rectangle_32" data-name="Rectangle 32" width="1.492" height="1.492" transform="translate(15.821 22.279)" fill="#326ce5"/>
            <rect id="Rectangle_33" data-name="Rectangle 33" width="1.492" height="1.492" transform="translate(19.446 22.279)" fill="#326ce5"/>
          </g>
        </g>
      </g>
      <path id="Path_98" data-name="Path 98" d="M63,183.729V161.293" transform="translate(201)" fill="none" stroke="#000" stroke-width="1"/>
      <path id="Polygon_8" data-name="Polygon 8" d="M3,0,6,5H0Z" transform="translate(261 160)"/>
      <path id="Polygon_7" data-name="Polygon 7" d="M3,0,6,5H0Z" transform="translate(267 187) rotate(180)"/>
    </g>
    <g id="etcd" transform="translate(-19 -75)">
      <path id="Path_121" data-name="Path 121" d="M-5.242-1.67l.908.112a2.216,2.216,0,0,1-.8,1.235A2.393,2.393,0,0,1-6.614.117a2.372,2.372,0,0,1-1.8-.7,2.738,2.738,0,0,1-.667-1.965A2.865,2.865,0,0,1-8.411-4.58,2.281,2.281,0,0,1-6.663-5.3a2.217,2.217,0,0,1,1.7.708A2.813,2.813,0,0,1-4.3-2.6q0,.078,0,.234H-8.176A1.993,1.993,0,0,0-7.693-1.06a1.439,1.439,0,0,0,1.084.454,1.345,1.345,0,0,0,.825-.254A1.685,1.685,0,0,0-5.242-1.67ZM-8.127-3.091h2.9a1.757,1.757,0,0,0-.332-.981A1.347,1.347,0,0,0-6.653-4.58a1.4,1.4,0,0,0-1.018.405A1.6,1.6,0,0,0-8.127-3.091Zm6.816,2.3.127.776a3.26,3.26,0,0,1-.664.078A1.5,1.5,0,0,1-2.59-.083a.848.848,0,0,1-.371-.4,3.147,3.147,0,0,1-.107-1.038V-4.5h-.645v-.684h.645V-6.47L-2.195-7v1.812h.884V-4.5h-.884V-1.47a1.532,1.532,0,0,0,.046.483A.366.366,0,0,0-2-.815a.585.585,0,0,0,.3.063A2.859,2.859,0,0,0-1.311-.786ZM2.932-1.9l.864.112a2.241,2.241,0,0,1-.725,1.4A2.112,2.112,0,0,1,1.638.117a2.226,2.226,0,0,1-1.711-.7A2.823,2.823,0,0,1-.72-2.573a3.61,3.61,0,0,1,.278-1.47,1.941,1.941,0,0,1,.847-.945A2.514,2.514,0,0,1,1.643-5.3a2.152,2.152,0,0,1,1.382.427,1.959,1.959,0,0,1,.688,1.213l-.854.132a1.419,1.419,0,0,0-.432-.786,1.118,1.118,0,0,0-.75-.264A1.364,1.364,0,0,0,.6-4.1,2.26,2.26,0,0,0,.183-2.6a2.336,2.336,0,0,0,.4,1.519,1.3,1.3,0,0,0,1.045.474,1.232,1.232,0,0,0,.864-.317A1.575,1.575,0,0,0,2.932-1.9ZM7.913,0V-.654a1.613,1.613,0,0,1-1.45.771,2.034,2.034,0,0,1-1.14-.342,2.248,2.248,0,0,1-.806-.955,3.3,3.3,0,0,1-.286-1.409A3.687,3.687,0,0,1,4.49-4a2.041,2.041,0,0,1,.776-.969A2.076,2.076,0,0,1,6.423-5.3a1.729,1.729,0,0,1,.835.2,1.746,1.746,0,0,1,.6.515V-7.158h.874V0ZM5.134-2.588A2.252,2.252,0,0,0,5.554-1.1a1.266,1.266,0,0,0,.991.493,1.243,1.243,0,0,0,.979-.471,2.172,2.172,0,0,0,.4-1.438,2.439,2.439,0,0,0-.41-1.562,1.262,1.262,0,0,0-1.011-.5,1.218,1.218,0,0,0-.979.479A2.362,2.362,0,0,0,5.134-2.588Z" transform="translate(315.642 241)"/>
      <g id="Group_35" data-name="Group 35" transform="translate(297 188.345)">
        <rect id="Rectangle_37" data-name="Rectangle 37" width="38.217" height="38.217" transform="translate(0 -0.001)" fill="#326ce5"/>
        <g id="Group_34" data-name="Group 34" transform="translate(0 0)">
          <g id="Group_33" data-name="Group 33" clip-path="url(#clip-path-4)">
            <path id="Path_94" data-name="Path 94" d="M32.829,24.064c-.089.007-.179.011-.274.011a3.578,3.578,0,0,1-1.574-.368,14.557,14.557,0,0,0,.212-2.785,14.466,14.466,0,0,0-1.8-2.136,3.584,3.584,0,0,1,1.27-1.361l.233-.144-.181-.2A9.488,9.488,0,0,0,27.4,14.658l-.252-.11-.064.267a3.574,3.574,0,0,1-.9,1.632,14.378,14.378,0,0,0-2.6-1.071,14.442,14.442,0,0,0-2.593,1.068,3.57,3.57,0,0,1-.9-1.628l-.064-.267-.252.109a9.583,9.583,0,0,0-3.315,2.417l-.181.2.233.144a3.576,3.576,0,0,1,1.267,1.354,14.582,14.582,0,0,0-1.8,2.128,14.6,14.6,0,0,0,.207,2.8,3.563,3.563,0,0,1-1.565.363c-.1,0-.187,0-.275-.01l-.273-.021.025.273a9.436,9.436,0,0,0,1.275,3.9l.138.236.209-.177a3.57,3.57,0,0,1,1.689-.792,14.423,14.423,0,0,0,1.446,2.355,14.613,14.613,0,0,0,2.74.674,3.568,3.568,0,0,1-.228,1.87l-.1.254.267.059a9.585,9.585,0,0,0,2.053.227L25.64,32.7l.268-.059-.1-.254a3.563,3.563,0,0,1-.227-1.871,14.613,14.613,0,0,0,2.73-.672,14.5,14.5,0,0,0,1.448-2.357,3.591,3.591,0,0,1,1.7.792l.209.177.138-.235a9.408,9.408,0,0,0,1.274-3.9l.025-.273ZM26.521,27.4a11.059,11.059,0,0,1-5.877,0,11.4,11.4,0,0,1-1.258-2.65,11.248,11.248,0,0,1-.53-2.907A11.235,11.235,0,0,1,23.583,18.4a11.376,11.376,0,0,1,2.593,1.409,11.252,11.252,0,0,1,2.139,2.041A11.326,11.326,0,0,1,26.521,27.4m-2.136-4.681a1.241,1.241,0,1,0,1.241-1.24A1.241,1.241,0,0,0,24.385,22.719Zm-1.6,0a1.24,1.24,0,1,1-1.241-1.24A1.241,1.241,0,0,1,22.782,22.719Z" transform="translate(-4.478 -4.628)" fill="#fff"/>
          </g>
        </g>
      </g>
      <path id="Path_99" data-name="Path 99" d="M63,183.729V161.293" transform="translate(252)" fill="none" stroke="#000" stroke-width="1"/>
      <path id="Polygon_10" data-name="Polygon 10" d="M3,0,6,5H0Z" transform="translate(312 160)"/>
      <path id="Polygon_9" data-name="Polygon 9" d="M3,0,6,5H0Z" transform="translate(318 187) rotate(180)"/>
    </g>
    <g id="kublet-2" data-name="kublet">
      <g id="Group_49" data-name="Group 49" transform="translate(53.546 88)">
        <path id="Path_115" data-name="Path 115" d="M-15.8-2.51l.947.239a3.189,3.189,0,0,1-1.072,1.78,2.953,2.953,0,0,1-1.892.613A3.4,3.4,0,0,1-19.7-.349a2.942,2.942,0,0,1-1.1-1.365,4.869,4.869,0,0,1-.378-1.919,4.218,4.218,0,0,1,.427-1.951,2.927,2.927,0,0,1,1.216-1.265A3.552,3.552,0,0,1-17.8-7.28,2.935,2.935,0,0,1-16-6.733,2.84,2.84,0,0,1-14.976-5.2l-.933.22a2.212,2.212,0,0,0-.723-1.138,1.926,1.926,0,0,0-1.191-.356,2.314,2.314,0,0,0-1.379.4,2.089,2.089,0,0,0-.779,1.062,4.276,4.276,0,0,0-.225,1.375,4.368,4.368,0,0,0,.266,1.594,1.982,1.982,0,0,0,.828,1.018A2.321,2.321,0,0,0-17.9-.688a2.037,2.037,0,0,0,1.348-.459A2.349,2.349,0,0,0-15.8-2.51Zm1.675-.083a2.673,2.673,0,0,1,.8-2.134A2.413,2.413,0,0,1-11.694-5.3a2.327,2.327,0,0,1,1.748.7,2.666,2.666,0,0,1,.679,1.936,3.43,3.43,0,0,1-.3,1.575,2.126,2.126,0,0,1-.874.891,2.545,2.545,0,0,1-1.252.317,2.331,2.331,0,0,1-1.76-.7A2.789,2.789,0,0,1-14.126-2.593Zm.9,0A2.209,2.209,0,0,0-12.788-1.1a1.393,1.393,0,0,0,1.094.5,1.385,1.385,0,0,0,1.089-.5,2.261,2.261,0,0,0,.435-1.519,2.142,2.142,0,0,0-.437-1.458,1.39,1.39,0,0,0-1.086-.5,1.4,1.4,0,0,0-1.094.493A2.2,2.2,0,0,0-13.223-2.593ZM-8.237,0V-5.186h.791v.737A1.864,1.864,0,0,1-5.8-5.3a2.165,2.165,0,0,1,.862.168,1.356,1.356,0,0,1,.588.442,1.7,1.7,0,0,1,.273.649,5.033,5.033,0,0,1,.049.854V0H-4.9V-3.154a2.368,2.368,0,0,0-.1-.8.845.845,0,0,0-.364-.425,1.157,1.157,0,0,0-.613-.159,1.424,1.424,0,0,0-.969.356,1.758,1.758,0,0,0-.408,1.353V0Zm7.48-.786L-.63-.01a3.26,3.26,0,0,1-.664.078,1.5,1.5,0,0,1-.742-.151.848.848,0,0,1-.371-.4,3.147,3.147,0,0,1-.107-1.038V-4.5h-.645v-.684h.645V-6.47L-1.641-7v1.812h.884V-4.5h-.884V-1.47a1.532,1.532,0,0,0,.046.483.366.366,0,0,0,.151.171.585.585,0,0,0,.3.063A2.859,2.859,0,0,0-.757-.786ZM3.486-.64a3.273,3.273,0,0,1-.94.586,2.716,2.716,0,0,1-.969.171A1.885,1.885,0,0,1,.264-.3,1.378,1.378,0,0,1-.2-1.367a1.419,1.419,0,0,1,.173-.7,1.435,1.435,0,0,1,.454-.505,2.135,2.135,0,0,1,.632-.288,6.28,6.28,0,0,1,.781-.132,8.033,8.033,0,0,0,1.567-.3q0-.181,0-.229a.97.97,0,0,0-.249-.757,1.471,1.471,0,0,0-1-.3,1.552,1.552,0,0,0-.916.217,1.328,1.328,0,0,0-.437.769l-.859-.117A2.129,2.129,0,0,1,.342-4.6a1.691,1.691,0,0,1,.776-.522A3.463,3.463,0,0,1,2.295-5.3a3.115,3.115,0,0,1,1.079.156,1.422,1.422,0,0,1,.61.393,1.382,1.382,0,0,1,.273.6,4.949,4.949,0,0,1,.044.811v1.172a12.438,12.438,0,0,0,.056,1.55A1.956,1.956,0,0,0,4.58,0H3.662A1.864,1.864,0,0,1,3.486-.64ZM3.413-2.6a6.448,6.448,0,0,1-1.436.332,3.32,3.32,0,0,0-.767.176.764.764,0,0,0-.347.286.75.75,0,0,0-.122.417.749.749,0,0,0,.266.586,1.145,1.145,0,0,0,.779.234,1.813,1.813,0,0,0,.9-.222A1.368,1.368,0,0,0,3.271-1.4a2.123,2.123,0,0,0,.142-.879ZM5.669-6.147V-7.158h.879v1.011ZM5.669,0V-5.186h.879V0ZM7.886,0V-5.186h.791v.737a1.864,1.864,0,0,1,1.65-.854,2.165,2.165,0,0,1,.862.168,1.356,1.356,0,0,1,.588.442,1.7,1.7,0,0,1,.273.649,5.033,5.033,0,0,1,.049.854V0h-.879V-3.154a2.368,2.368,0,0,0-.1-.8.845.845,0,0,0-.364-.425,1.157,1.157,0,0,0-.613-.159,1.424,1.424,0,0,0-.969.356,1.758,1.758,0,0,0-.408,1.353V0ZM17-1.67l.908.112a2.216,2.216,0,0,1-.8,1.235,2.393,2.393,0,0,1-1.484.439,2.372,2.372,0,0,1-1.8-.7,2.738,2.738,0,0,1-.667-1.965,2.865,2.865,0,0,1,.674-2.031A2.281,2.281,0,0,1,15.576-5.3a2.217,2.217,0,0,1,1.7.708A2.813,2.813,0,0,1,17.935-2.6q0,.078,0,.234H14.063a1.993,1.993,0,0,0,.483,1.309,1.439,1.439,0,0,0,1.084.454,1.345,1.345,0,0,0,.825-.254A1.685,1.685,0,0,0,17-1.67ZM14.111-3.091h2.9a1.757,1.757,0,0,0-.332-.981,1.347,1.347,0,0,0-1.089-.508,1.4,1.4,0,0,0-1.018.405A1.6,1.6,0,0,0,14.111-3.091ZM19,0V-5.186h.791V-4.4a2.145,2.145,0,0,1,.559-.728.976.976,0,0,1,.564-.176,1.714,1.714,0,0,1,.9.283l-.3.815a1.258,1.258,0,0,0-.645-.19.837.837,0,0,0-.518.173.939.939,0,0,0-.327.481,3.423,3.423,0,0,0-.146,1.025V0ZM-17.832,11V3.842h3.174a4.224,4.224,0,0,1,1.455.193,1.591,1.591,0,0,1,.8.681,2.032,2.032,0,0,1,.3,1.079A1.8,1.8,0,0,1-12.6,7.079a2.5,2.5,0,0,1-1.523.664,2.457,2.457,0,0,1,.571.356,4.922,4.922,0,0,1,.786.952L-11.523,11h-1.191l-.947-1.489q-.415-.645-.684-.986a2.149,2.149,0,0,0-.481-.479,1.422,1.422,0,0,0-.432-.19,2.846,2.846,0,0,0-.527-.034h-1.1V11Zm.947-4h2.036a3.054,3.054,0,0,0,1.016-.134,1.081,1.081,0,0,0,.557-.43,1.162,1.162,0,0,0,.19-.642,1.067,1.067,0,0,0-.369-.835,1.725,1.725,0,0,0-1.165-.327h-2.266Zm9.546,4v-.762a1.9,1.9,0,0,1-1.646.879,2.1,2.1,0,0,1-.857-.176,1.411,1.411,0,0,1-.591-.442,1.656,1.656,0,0,1-.271-.652,4.463,4.463,0,0,1-.054-.82V5.814h.879V8.69a5.125,5.125,0,0,0,.054.928.917.917,0,0,0,.352.544,1.089,1.089,0,0,0,.664.2,1.447,1.447,0,0,0,.742-.2,1.127,1.127,0,0,0,.491-.552,2.769,2.769,0,0,0,.144-1.013V5.814h.879V11Zm2.163,0V5.814h.791v.737A1.864,1.864,0,0,1-2.734,5.7a2.165,2.165,0,0,1,.862.168,1.356,1.356,0,0,1,.588.442,1.7,1.7,0,0,1,.273.649,5.033,5.033,0,0,1,.049.854V11h-.879V7.846a2.368,2.368,0,0,0-.1-.8.845.845,0,0,0-.364-.425,1.157,1.157,0,0,0-.613-.159,1.424,1.424,0,0,0-.969.356A1.758,1.758,0,0,0-4.3,8.168V11Zm7.48-.786.127.776a3.26,3.26,0,0,1-.664.078,1.5,1.5,0,0,1-.742-.151.848.848,0,0,1-.371-.4A3.147,3.147,0,0,1,.547,9.481V6.5H-.1V5.814H.547V4.53L1.421,4V5.814H2.3V6.5H1.421V9.53a1.532,1.532,0,0,0,.046.483.366.366,0,0,0,.151.171.585.585,0,0,0,.3.063A2.859,2.859,0,0,0,2.3,10.214Zm.864-5.361V3.842h.879V4.853Zm0,6.147V5.814h.879V11Zm2.217,0V5.814h.786v.728a1.848,1.848,0,0,1,.649-.613A1.825,1.825,0,0,1,7.744,5.7a1.706,1.706,0,0,1,.945.239,1.28,1.28,0,0,1,.52.669,1.862,1.862,0,0,1,1.6-.908A1.579,1.579,0,0,1,12,6.125a1.826,1.826,0,0,1,.415,1.316V11h-.874V7.733a2.4,2.4,0,0,0-.085-.759.735.735,0,0,0-.31-.374.968.968,0,0,0-.527-.142,1.227,1.227,0,0,0-.908.364,1.6,1.6,0,0,0-.361,1.165V11H8.467V7.631a1.482,1.482,0,0,0-.215-.879.814.814,0,0,0-.7-.293,1.277,1.277,0,0,0-.686.2,1.108,1.108,0,0,0-.457.571A3.216,3.216,0,0,0,6.265,8.31V11Zm11.88-1.67.908.112a2.216,2.216,0,0,1-.8,1.235,2.393,2.393,0,0,1-1.484.439,2.372,2.372,0,0,1-1.8-.7,2.738,2.738,0,0,1-.667-1.965A2.865,2.865,0,0,1,14.1,6.42,2.281,2.281,0,0,1,15.845,5.7a2.217,2.217,0,0,1,1.7.708A2.813,2.813,0,0,1,18.2,8.4q0,.078,0,.234H14.331a1.993,1.993,0,0,0,.483,1.309,1.439,1.439,0,0,0,1.084.454,1.345,1.345,0,0,0,.825-.254A1.685,1.685,0,0,0,17.266,9.33ZM14.38,7.909h2.9a1.757,1.757,0,0,0-.332-.981,1.347,1.347,0,0,0-1.089-.508,1.4,1.4,0,0,0-1.018.405A1.6,1.6,0,0,0,14.38,7.909Z" transform="translate(456.833 166)"/>
        <rect id="Rectangle_25" data-name="Rectangle 25" width="38.217" height="38.217" transform="translate(437.724 113.344)" fill="#326ce5"/>
        <g id="Group_21" data-name="Group 21" transform="translate(437.724 113.344)">
          <g id="Group_20" data-name="Group 20" transform="translate(0 0)" clip-path="url(#clip-path-4)">
            <path id="Path_68" data-name="Path 68" d="M36.938,32.224H24.484a.873.873,0,0,1-.872-.873V18.9a.873.873,0,0,1,.872-.873H36.938a.873.873,0,0,1,.873.873V31.352a.873.873,0,0,1-.873.873" transform="translate(-7.512 -5.735)" fill="#fff"/>
            <path id="Path_69" data-name="Path 69" d="M35.95,22.095H28.133a.341.341,0,1,1,0-.682H35.95a.341.341,0,0,1,0,.682" transform="translate(-8.842 -6.812)" fill="#326ce5"/>
            <path id="Path_70" data-name="Path 70" d="M18.009,24.387H13.451a.545.545,0,0,1,0-1.091h4.558a.545.545,0,1,1,0,1.091" transform="translate(-4.106 -7.411)" fill="#fff"/>
            <path id="Path_71" data-name="Path 71" d="M15.713,28.175H8.652a.545.545,0,0,1,0-1.091h7.06a.545.545,0,1,1,0,1.091" transform="translate(-2.579 -8.617)" fill="#fff"/>
            <path id="Path_72" data-name="Path 72" d="M17.848,33.069H11.685a.545.545,0,1,1,0-1.091h6.162a.545.545,0,1,1,0,1.091" transform="translate(-3.544 -10.174)" fill="#fff"/>
            <path id="Path_73" data-name="Path 73" d="M35.95,26.485H28.133a.341.341,0,1,1,0-.682H35.95a.341.341,0,0,1,0,.682" transform="translate(-8.842 -8.209)" fill="#326ce5"/>
            <path id="Path_74" data-name="Path 74" d="M35.95,30.753H28.133a.341.341,0,1,1,0-.682H35.95a.341.341,0,0,1,0,.682" transform="translate(-8.842 -9.567)" fill="#326ce5"/>
            <path id="Path_75" data-name="Path 75" d="M35.95,35.144H28.133a.341.341,0,1,1,0-.682H35.95a.341.341,0,0,1,0,.682" transform="translate(-8.842 -10.964)" fill="#326ce5"/>
            <path id="Path_76" data-name="Path 76" d="M35.8,26.83l-3.828-2.224a.428.428,0,0,0-.642.37v4.448a.428.428,0,0,0,.642.37L35.8,27.569a.427.427,0,0,0,0-.739" transform="translate(-9.967 -7.81)" fill="#326ce5"/>
          </g>
        </g>
      </g>
      <g id="Group_50" data-name="Group 50" transform="translate(377.926 607.948) rotate(-90)">
        <path id="Path_100" data-name="Path 100" d="M63,183.729V161.293" transform="translate(596.5 69.453) rotate(90)" fill="none" stroke="#000" stroke-width="1"/>
        <path id="Polygon_12" data-name="Polygon 12" d="M3,0,6,5H0Z" transform="translate(436.5 129.453) rotate(90)"/>
        <path id="Polygon_11" data-name="Polygon 11" d="M3,0,6,5H0Z" transform="translate(409.5 135.453) rotate(-90)"/>
      </g>
      <g id="Group_56" data-name="Group 56" transform="translate(53.379 88)">
        <path id="Path_100-2" data-name="Path 100" d="M63,183.729V161.293" transform="translate(596.5 69.453) rotate(90)" fill="none" stroke="#000" stroke-width="1"/>
        <path id="Polygon_12-2" data-name="Polygon 12" d="M3,0,6,5H0Z" transform="translate(436.5 129.453) rotate(90)"/>
        <path id="Polygon_11-2" data-name="Polygon 11" d="M3,0,6,5H0Z" transform="translate(409.5 135.453) rotate(-90)"/>
      </g>
      <g id="Group_45" data-name="Group 45" transform="translate(-19 -75)">
        <path id="Path_116" data-name="Path 116" d="M-16.226,0V-7.158h.947v3.55l3.555-3.55h1.284l-3,2.9L-10.308,0h-1.25l-2.549-3.623L-15.278-2.48V0Zm10,0V-.762A1.9,1.9,0,0,1-7.876.117a2.1,2.1,0,0,1-.857-.176A1.411,1.411,0,0,1-9.324-.5a1.656,1.656,0,0,1-.271-.652,4.463,4.463,0,0,1-.054-.82V-5.186h.879V-2.31a5.125,5.125,0,0,0,.054.928.917.917,0,0,0,.352.544,1.089,1.089,0,0,0,.664.2,1.447,1.447,0,0,0,.742-.2,1.127,1.127,0,0,0,.491-.552,2.769,2.769,0,0,0,.144-1.013V-5.186h.879V0Zm2.974,0h-.815V-7.158h.879V-4.6a1.739,1.739,0,0,1,1.421-.7,2.176,2.176,0,0,1,.906.193,1.85,1.85,0,0,1,.7.542,2.62,2.62,0,0,1,.432.842A3.473,3.473,0,0,1,.425-2.671,2.962,2.962,0,0,1-.234-.61,2.062,2.062,0,0,1-1.816.117a1.651,1.651,0,0,1-1.44-.767Zm-.01-2.632a2.691,2.691,0,0,0,.254,1.348A1.266,1.266,0,0,0-1.89-.605a1.264,1.264,0,0,0,1-.5A2.274,2.274,0,0,0-.474-2.6a2.314,2.314,0,0,0-.4-1.5,1.227,1.227,0,0,0-.974-.483,1.264,1.264,0,0,0-1,.5A2.2,2.2,0,0,0-3.267-2.632Zm8.311.962.908.112a2.216,2.216,0,0,1-.8,1.235A2.393,2.393,0,0,1,3.672.117a2.372,2.372,0,0,1-1.8-.7A2.738,2.738,0,0,1,1.2-2.549,2.865,2.865,0,0,1,1.875-4.58,2.281,2.281,0,0,1,3.623-5.3a2.217,2.217,0,0,1,1.7.708A2.813,2.813,0,0,1,5.981-2.6q0,.078,0,.234H2.109A1.993,1.993,0,0,0,2.593-1.06a1.439,1.439,0,0,0,1.084.454A1.345,1.345,0,0,0,4.5-.859,1.685,1.685,0,0,0,5.044-1.67ZM2.158-3.091h2.9a1.757,1.757,0,0,0-.332-.981A1.347,1.347,0,0,0,3.633-4.58a1.4,1.4,0,0,0-1.018.405A1.6,1.6,0,0,0,2.158-3.091ZM7.036,0V-7.158h.879V0Zm5.791-1.67.908.112a2.216,2.216,0,0,1-.8,1.235,2.393,2.393,0,0,1-1.484.439,2.372,2.372,0,0,1-1.8-.7,2.738,2.738,0,0,1-.667-1.965A2.865,2.865,0,0,1,9.658-4.58,2.281,2.281,0,0,1,11.406-5.3a2.217,2.217,0,0,1,1.7.708A2.813,2.813,0,0,1,13.765-2.6q0,.078,0,.234H9.893a1.993,1.993,0,0,0,.483,1.309,1.439,1.439,0,0,0,1.084.454,1.345,1.345,0,0,0,.825-.254A1.685,1.685,0,0,0,12.827-1.67ZM9.941-3.091h2.9a1.757,1.757,0,0,0-.332-.981,1.347,1.347,0,0,0-1.089-.508,1.4,1.4,0,0,0-1.018.405A1.6,1.6,0,0,0,9.941-3.091Zm6.816,2.3.127.776a3.26,3.26,0,0,1-.664.078,1.5,1.5,0,0,1-.742-.151.848.848,0,0,1-.371-.4A3.147,3.147,0,0,1,15-1.519V-4.5h-.645v-.684H15V-6.47L15.874-7v1.812h.884V-4.5h-.884V-1.47a1.532,1.532,0,0,0,.046.483.366.366,0,0,0,.151.171.585.585,0,0,0,.3.063A2.859,2.859,0,0,0,16.758-.786Z" transform="translate(529.379 241)"/>
        <g id="Group_29" data-name="Group 29" transform="translate(510.271 188.345)">
          <rect id="Rectangle_29-2" data-name="Rectangle 29" width="38.217" height="38.217" transform="translate(0 -0.001)" fill="#326ce5"/>
          <g id="Group_27-2" data-name="Group 27" transform="translate(0 0)">
            <g id="Group_26-2" data-name="Group 26" clip-path="url(#clip-path-4)">
              <path id="Path_85-2" data-name="Path 85" d="M24.632,35.158h0a5.583,5.583,0,0,1-5.583-5.583V21.489a5.583,5.583,0,1,1,11.166,0v8.086a5.583,5.583,0,0,1-5.583,5.583" transform="translate(-6.06 -5.06)" fill="#fff"/>
              <path id="Path_86-2" data-name="Path 86" d="M27.922,20.562a1.812,1.812,0,1,1-1.812-1.812,1.812,1.812,0,0,1,1.812,1.812" transform="translate(-7.73 -5.965)" fill="#326ce5"/>
              <rect id="Rectangle_30-2" data-name="Rectangle 30" width="1.492" height="1.492" transform="translate(15.821 18.905)" fill="#326ce5"/>
              <rect id="Rectangle_31-2" data-name="Rectangle 31" width="1.492" height="1.492" transform="translate(19.446 18.905)" fill="#326ce5"/>
              <rect id="Rectangle_32-2" data-name="Rectangle 32" width="1.492" height="1.492" transform="translate(15.821 22.279)" fill="#326ce5"/>
              <rect id="Rectangle_33-2" data-name="Rectangle 33" width="1.492" height="1.492" transform="translate(19.446 22.279)" fill="#326ce5"/>
            </g>
          </g>
        </g>
        <path id="Path_102" data-name="Path 102" d="M63,183.729V161.293" transform="translate(466)" fill="none" stroke="#000" stroke-width="1"/>
        <path id="Polygon_16" data-name="Polygon 16" d="M3,0,6,5H0Z" transform="translate(526 160)"/>
        <path id="Polygon_15" data-name="Polygon 15" d="M3,0,6,5H0Z" transform="translate(532 187) rotate(180)"/>
      </g>
    </g>
    <g id="proxy">
      <path id="Path_118" data-name="Path 118" d="M.664-6.147V-7.158h.879v1.011ZM.664,0V-5.186h.879V0ZM2.881,1.987V-5.186h.8v.674a1.974,1.974,0,0,1,.64-.593,1.758,1.758,0,0,1,.864-.2,2.049,2.049,0,0,1,1.172.342A2.1,2.1,0,0,1,7.124-4a3.521,3.521,0,0,1,.259,1.365A3.466,3.466,0,0,1,7.1-1.2a2.153,2.153,0,0,1-.83.977A2.131,2.131,0,0,1,5.122.117a1.654,1.654,0,0,1-.789-.186A1.8,1.8,0,0,1,3.76-.537V1.987Zm.8-4.551a2.256,2.256,0,0,0,.405,1.479,1.243,1.243,0,0,0,.981.479,1.271,1.271,0,0,0,1-.5,2.351,2.351,0,0,0,.417-1.536,2.291,2.291,0,0,0-.408-1.484A1.227,1.227,0,0,0,5.1-4.614a1.266,1.266,0,0,0-.994.525A2.348,2.348,0,0,0,3.677-2.563ZM10.361-.786l.127.776a3.26,3.26,0,0,1-.664.078,1.5,1.5,0,0,1-.742-.151.848.848,0,0,1-.371-.4A3.147,3.147,0,0,1,8.6-1.519V-4.5H7.959v-.684H8.6V-6.47L9.478-7v1.812h.884V-4.5H9.478V-1.47a1.532,1.532,0,0,0,.046.483.366.366,0,0,0,.151.171.585.585,0,0,0,.3.063A2.859,2.859,0,0,0,10.361-.786ZM14.6-.64a3.273,3.273,0,0,1-.94.586A2.716,2.716,0,0,1,12.7.117,1.885,1.885,0,0,1,11.382-.3a1.378,1.378,0,0,1-.459-1.067,1.419,1.419,0,0,1,.173-.7,1.435,1.435,0,0,1,.454-.505,2.135,2.135,0,0,1,.632-.288,6.28,6.28,0,0,1,.781-.132,8.033,8.033,0,0,0,1.567-.3q0-.181,0-.229a.97.97,0,0,0-.249-.757,1.471,1.471,0,0,0-1-.3,1.552,1.552,0,0,0-.916.217,1.328,1.328,0,0,0-.437.769l-.859-.117A2.129,2.129,0,0,1,11.46-4.6a1.691,1.691,0,0,1,.776-.522A3.463,3.463,0,0,1,13.413-5.3a3.115,3.115,0,0,1,1.079.156,1.422,1.422,0,0,1,.61.393,1.382,1.382,0,0,1,.273.6,4.949,4.949,0,0,1,.044.811v1.172a12.438,12.438,0,0,0,.056,1.55A1.956,1.956,0,0,0,15.7,0H14.78A1.864,1.864,0,0,1,14.6-.64ZM14.531-2.6a6.448,6.448,0,0,1-1.436.332,3.32,3.32,0,0,0-.767.176.764.764,0,0,0-.347.286.75.75,0,0,0-.122.417.749.749,0,0,0,.266.586,1.145,1.145,0,0,0,.779.234,1.813,1.813,0,0,0,.9-.222A1.368,1.368,0,0,0,14.39-1.4a2.123,2.123,0,0,0,.142-.879ZM17.593,0h-.815V-7.158h.879V-4.6a1.739,1.739,0,0,1,1.421-.7,2.176,2.176,0,0,1,.906.193,1.85,1.85,0,0,1,.7.542,2.62,2.62,0,0,1,.432.842,3.473,3.473,0,0,1,.156,1.055A2.962,2.962,0,0,1,20.615-.61a2.062,2.062,0,0,1-1.582.728,1.651,1.651,0,0,1-1.44-.767Zm-.01-2.632a2.691,2.691,0,0,0,.254,1.348,1.266,1.266,0,0,0,1.123.679,1.264,1.264,0,0,0,1-.5,2.274,2.274,0,0,0,.42-1.492,2.314,2.314,0,0,0-.4-1.5A1.227,1.227,0,0,0,19-4.58a1.264,1.264,0,0,0-1,.5A2.2,2.2,0,0,0,17.583-2.632ZM22.324,0V-7.158H23.2V0Zm5.791-1.67.908.112a2.216,2.216,0,0,1-.8,1.235,2.393,2.393,0,0,1-1.484.439,2.372,2.372,0,0,1-1.8-.7,2.738,2.738,0,0,1-.667-1.965,2.865,2.865,0,0,1,.674-2.031A2.281,2.281,0,0,1,26.694-5.3a2.217,2.217,0,0,1,1.7.708A2.813,2.813,0,0,1,29.053-2.6q0,.078,0,.234H25.181a1.993,1.993,0,0,0,.483,1.309,1.439,1.439,0,0,0,1.084.454,1.345,1.345,0,0,0,.825-.254A1.685,1.685,0,0,0,28.115-1.67ZM25.229-3.091h2.9a1.757,1.757,0,0,0-.332-.981A1.347,1.347,0,0,0,26.7-4.58a1.4,1.4,0,0,0-1.018.405A1.6,1.6,0,0,0,25.229-3.091Zm4.546,1.543.869-.137a1.215,1.215,0,0,0,.408.8,1.421,1.421,0,0,0,.935.278,1.374,1.374,0,0,0,.9-.247.737.737,0,0,0,.293-.579A.534.534,0,0,0,32.92-1.9a3.812,3.812,0,0,0-.9-.3,8.2,8.2,0,0,1-1.34-.422,1.3,1.3,0,0,1-.566-.493,1.306,1.306,0,0,1-.193-.7,1.336,1.336,0,0,1,.159-.642,1.423,1.423,0,0,1,.432-.491,1.812,1.812,0,0,1,.559-.256,2.659,2.659,0,0,1,.759-.1,3,3,0,0,1,1.072.176,1.458,1.458,0,0,1,.681.476,1.86,1.86,0,0,1,.3.8l-.859.117a.94.94,0,0,0-.339-.625,1.241,1.241,0,0,0-.793-.225,1.437,1.437,0,0,0-.864.2.583.583,0,0,0-.259.469.485.485,0,0,0,.107.308.775.775,0,0,0,.337.234q.132.049.776.225a10.808,10.808,0,0,1,1.3.408,1.32,1.32,0,0,1,.579.461,1.288,1.288,0,0,1,.21.752,1.476,1.476,0,0,1-.256.828,1.657,1.657,0,0,1-.74.6,2.693,2.693,0,0,1-1.094.212A2.437,2.437,0,0,1,30.452-.3,1.953,1.953,0,0,1,29.775-1.548Z" transform="translate(361.245 252.513)"/>
      <g id="Group_59" data-name="Group 59" transform="translate(-12.146 88)">
        <path id="Path_100-3" data-name="Path 100" d="M63,183.729V161.293" transform="translate(596.5 69.453) rotate(90)" fill="none" stroke="#000" stroke-width="1"/>
        <path id="Polygon_12-3" data-name="Polygon 12" d="M3,0,6,5H0Z" transform="translate(436.5 129.453) rotate(90)"/>
        <path id="Polygon_11-3" data-name="Polygon 11" d="M3,0,6,5H0Z" transform="translate(409.5 135.453) rotate(-90)"/>
      </g>
      <g id="Group_52" data-name="Group 52" transform="translate(242.53 607.948) rotate(-90)">
        <path id="Path_100-4" data-name="Path 100" d="M63,183.729V161.293" transform="translate(596.5 69.453) rotate(90)" fill="none" stroke="#000" stroke-width="1"/>
        <path id="Polygon_12-4" data-name="Polygon 12" d="M3,0,6,5H0Z" transform="translate(436.5 129.453) rotate(90)"/>
        <path id="Polygon_11-4" data-name="Polygon 11" d="M3,0,6,5H0Z" transform="translate(409.5 135.453) rotate(-90)"/>
      </g>
      <g id="Group_44" data-name="Group 44" transform="translate(-97.5 -75)">
        <path id="Path_117" data-name="Path 117" d="M-12.009,0V-7.158h2.7A6.52,6.52,0,0,1-8.22-7.09a2.157,2.157,0,0,1,.884.334,1.755,1.755,0,0,1,.574.691,2.193,2.193,0,0,1,.217.977,2.2,2.2,0,0,1-.581,1.545,2.787,2.787,0,0,1-2.1.632h-1.836V0Zm.947-3.755h1.851a1.963,1.963,0,0,0,1.3-.342,1.218,1.218,0,0,0,.386-.962,1.294,1.294,0,0,0-.227-.769,1.061,1.061,0,0,0-.6-.422,4.047,4.047,0,0,0-.884-.063h-1.831ZM-5.461,0V-5.186h.791V-4.4a2.145,2.145,0,0,1,.559-.728A.976.976,0,0,1-3.547-5.3a1.714,1.714,0,0,1,.9.283l-.3.815a1.258,1.258,0,0,0-.645-.19.837.837,0,0,0-.518.173.939.939,0,0,0-.327.481,3.423,3.423,0,0,0-.146,1.025V0Zm3.013-2.593a2.673,2.673,0,0,1,.8-2.134A2.413,2.413,0,0,1-.017-5.3a2.327,2.327,0,0,1,1.748.7A2.666,2.666,0,0,1,2.41-2.666a3.43,3.43,0,0,1-.3,1.575A2.126,2.126,0,0,1,1.235-.2,2.545,2.545,0,0,1-.017.117a2.331,2.331,0,0,1-1.76-.7A2.789,2.789,0,0,1-2.449-2.593Zm.9,0A2.209,2.209,0,0,0-1.111-1.1a1.393,1.393,0,0,0,1.094.5,1.385,1.385,0,0,0,1.089-.5,2.261,2.261,0,0,0,.435-1.519A2.142,2.142,0,0,0,1.069-4.08a1.39,1.39,0,0,0-1.086-.5,1.4,1.4,0,0,0-1.094.493A2.2,2.2,0,0,0-1.545-2.593ZM2.854,0,4.749-2.7,3-5.186h1.1l.8,1.216q.225.347.361.581.215-.322.4-.571l.874-1.226h1.05L5.779-2.744,7.708,0H6.628L5.564-1.611l-.283-.435L3.918,0ZM8.4,2l-.1-.825a1.959,1.959,0,0,0,.5.078.965.965,0,0,0,.469-.1A.8.8,0,0,0,9.563.879,4.311,4.311,0,0,0,9.832.225Q9.856.151,9.91.01l-1.968-5.2h.947l1.079,3q.21.571.376,1.2a11.826,11.826,0,0,1,.361-1.182l1.108-3.022h.879L10.72.088a10.351,10.351,0,0,1-.493,1.177A1.736,1.736,0,0,1,9.69,1.9a1.269,1.269,0,0,1-.723.2A1.76,1.76,0,0,1,8.4,2Z" transform="translate(473 241)"/>
        <g id="Group_32" data-name="Group 32" transform="translate(453.404 188.345)">
          <rect id="Rectangle_35" data-name="Rectangle 35" width="38.156" height="38.156" transform="translate(0 -0.001)" fill="#326ce5"/>
          <g id="Group_31" data-name="Group 31" transform="translate(0 0)">
            <g id="Group_30" data-name="Group 30" clip-path="url(#clip-path-10)">
              <path id="Path_87" data-name="Path 87" d="M26.65,29.95,24.88,28.18a1.085,1.085,0,0,1,0-1.532l1.77-1.769a1.082,1.082,0,0,1,1.532,0l1.769,1.769a1.085,1.085,0,0,1,0,1.532L28.181,29.95a1.084,1.084,0,0,1-1.532,0" transform="translate(-7.841 -7.841)" fill="#326ce5"/>
              <path id="Path_88" data-name="Path 88" d="M27.256,30.447a1.42,1.42,0,0,1-1.006-.415L24.48,28.262a1.427,1.427,0,0,1,0-2.014l1.769-1.769a1.427,1.427,0,0,1,2.014,0l1.769,1.769a1.423,1.423,0,0,1,0,2.014l-1.769,1.769a1.421,1.421,0,0,1-1.008.415m-.525-.9a.744.744,0,0,0,1.051,0l1.769-1.769a.743.743,0,0,0,0-1.051l-1.769-1.769a.744.744,0,0,0-1.051,0L24.961,26.73a.746.746,0,0,0,0,1.051Z" transform="translate(-7.682 -7.682)" fill="#fff"/>
              <path id="Path_89" data-name="Path 89" d="M18.263,19.633H14.534a.73.73,0,0,1-.73-.729v-3.73a.73.73,0,0,1,.73-.729h3.729a.729.729,0,0,1,.729.729V18.9a.729.729,0,0,1-.729.729" transform="translate(-4.407 -4.611)" fill="#fff"/>
              <path id="Path_90" data-name="Path 90" d="M40.215,40.912H36.423a.7.7,0,0,1-.7-.7V36.422a.7.7,0,0,1,.7-.7h3.792a.7.7,0,0,1,.7.7v3.792a.7.7,0,0,1-.7.7" transform="translate(-11.404 -11.404)" fill="#fff"/>
              <path id="Path_91" data-name="Path 91" d="M27.838,29.136l-.454-.454a.6.6,0,0,1,0-.844l.454-.455a.6.6,0,0,1,.844,0l.454.455a.6.6,0,0,1,0,.844l-.454.454a.6.6,0,0,1-.844,0" transform="translate(-8.686 -8.686)" fill="#fff"/>
              <path id="Path_92" data-name="Path 92" d="M33.976,34.317a.342.342,0,0,1-.241-.1l-1.561-1.562a.34.34,0,0,1,.481-.481l1.562,1.562a.34.34,0,0,1-.241.581" transform="translate(-10.239 -10.239)" fill="#fff"/>
              <path id="Path_93" data-name="Path 93" d="M24.059,24.4a.342.342,0,0,1-.241-.1l-1.561-1.562a.34.34,0,0,1,.481-.481L24.3,23.818a.34.34,0,0,1-.241.581" transform="translate(-7.073 -7.073)" fill="#fff"/>
            </g>
          </g>
        </g>
        <path id="Path_101" data-name="Path 101" d="M63,183.729V161.293" transform="translate(409)" fill="none" stroke="#000" stroke-width="1"/>
        <path id="Polygon_14" data-name="Polygon 14" d="M3,0,6,5H0Z" transform="translate(469 160)"/>
        <path id="Polygon_13" data-name="Polygon 13" d="M3,0,6,5H0Z" transform="translate(475 187) rotate(180)"/>
      </g>
      <g id="Group_55" data-name="Group 55" transform="translate(359.136 201.345)">
        <rect id="Rectangle_40" data-name="Rectangle 40" width="38.217" height="38.217" transform="translate(0 -0.001)" fill="#326ce5"/>
        <g id="Group_54" data-name="Group 54" transform="translate(0 0)">
          <g id="Group_53" data-name="Group 53" clip-path="url(#clip-path-4)">
            <path id="Path_106" data-name="Path 106" d="M30.082,31.979H17.071a1.1,1.1,0,0,1-1.094-1.1V17.874a1.1,1.1,0,0,1,1.094-1.1H30.082a1.1,1.1,0,0,1,1.1,1.1v13.01A1.1,1.1,0,0,1,30.082,31.979Z" transform="translate(-5.083 -5.338)" fill="none" stroke="#fff" stroke-miterlimit="10" stroke-width="1"/>
            <line id="Line_5" data-name="Line 5" x2="15.2" transform="translate(10.894 14.713)" fill="none" stroke="#fff" stroke-miterlimit="10" stroke-width="2"/>
            <line id="Line_6" data-name="Line 6" x2="15.2" transform="translate(10.894 17.738)" fill="none" stroke="#fff" stroke-miterlimit="10" stroke-width="1"/>
            <line id="Line_7" data-name="Line 7" x2="15.2" transform="translate(10.894 20.712)" fill="none" stroke="#fff" stroke-miterlimit="10" stroke-width="1"/>
            <line id="Line_8" data-name="Line 8" x2="15.2" transform="translate(10.894 23.686)" fill="none" stroke="#fff" stroke-miterlimit="10" stroke-width="1"/>
            <line id="Line_9" data-name="Line 9" y2="15.334" transform="translate(15.409 11.441)" fill="none" stroke="#fff" stroke-miterlimit="10" stroke-width="1"/>
            <line id="Line_10" data-name="Line 10" y2="15.334" transform="translate(20.95 11.441)" fill="none" stroke="#fff" stroke-miterlimit="10" stroke-width="1"/>
            <path id="Path_107" data-name="Path 107" d="M34.4,39.267a7.589,7.589,0,0,1-1.129-.083,5.218,5.218,0,0,1-3.291-2.269l-.037-.076c-.355-.733-1.3-2.68.911-5.756a10.494,10.494,0,0,0,2.335-6.63.547.547,0,0,1,.149-.41.564.564,0,0,1,.408-.175A.557.557,0,0,1,34.1,24a4.918,4.918,0,0,1,.783.818,6.992,6.992,0,0,1,1.378,4.239,5.881,5.881,0,0,0,.216,1.82,1.154,1.154,0,0,0,.126.254,2.538,2.538,0,0,0,.149-1.182.78.78,0,0,1,.171-.589.466.466,0,0,1,.338-.145.731.731,0,0,1,.561.344,9.229,9.229,0,0,1,1.406,2.713,8.478,8.478,0,0,1,.451,3.16c-.074,1.184-.79,2.79-3.786,3.691a6.867,6.867,0,0,1-1.493.149Z" transform="translate(-9.366 -7.593)" fill="#fff"/>
            <path id="Path_108" data-name="Path 108" d="M33.59,24.05a.21.21,0,0,1,.136.05,4.634,4.634,0,0,1,.73.762,6.637,6.637,0,0,1,1.308,4.033A6.154,6.154,0,0,0,36,30.834c.133.354.3.528.458.528.278,0,.521-.541.478-1.591-.01-.248.058-.379.168-.379.08,0,.181.068.29.211a8.909,8.909,0,0,1,1.352,2.61,8.138,8.138,0,0,1,.435,3.03c-.144,2.322-2.75,3.152-3.544,3.39a6.658,6.658,0,0,1-1.4.135,7.232,7.232,0,0,1-1.079-.08,4.91,4.91,0,0,1-3.034-2.077c-.3-.63-1.331-2.459.843-5.488a10.8,10.8,0,0,0,2.4-6.846.216.216,0,0,1,.218-.227m0-.682a.908.908,0,0,0-.655.282.889.889,0,0,0-.243.663,10.137,10.137,0,0,1-2.267,6.406c-2.331,3.247-1.324,5.327-.945,6.11l.035.074a5.529,5.529,0,0,0,3.548,2.459,7.912,7.912,0,0,0,1.181.087A7.356,7.356,0,0,0,35.8,39.3l.02,0,.019-.006c3.184-.956,3.947-2.7,4.028-4a8.767,8.767,0,0,0-.466-3.278,9.567,9.567,0,0,0-1.461-2.819,1.044,1.044,0,0,0-.831-.478.8.8,0,0,0-.584.25.853.853,0,0,0-.075.089c0-.051,0-.1,0-.155A7.337,7.337,0,0,0,35,24.447a5.268,5.268,0,0,0-.838-.874.9.9,0,0,0-.569-.205" transform="translate(-9.205 -7.434)" fill="#326ce5"/>
            <path id="Path_109" data-name="Path 109" d="M34.685,41.914C33.3,40.549,32.73,39.3,33.5,37.574a9.107,9.107,0,0,1,1.717-2.852.214.214,0,0,1,.35.1,10.2,10.2,0,0,0,1.436,2.935,3.67,3.67,0,0,1-.157,4.1s-.2.173-1.185.173a2.463,2.463,0,0,1-.98-.113" transform="translate(-10.548 -11.028)" fill="#326ce5"/>
          </g>
        </g>
      </g>
    </g>
    <g id="container">
      <path id="Path_119" data-name="Path 119" d="M5.879-2.51l.947.239A3.189,3.189,0,0,1,5.754-.491,2.953,2.953,0,0,1,3.862.122,3.4,3.4,0,0,1,1.98-.349a2.942,2.942,0,0,1-1.1-1.365A4.869,4.869,0,0,1,.5-3.633,4.218,4.218,0,0,1,.925-5.583,2.927,2.927,0,0,1,2.141-6.848,3.552,3.552,0,0,1,3.877-7.28a2.935,2.935,0,0,1,1.807.547A2.84,2.84,0,0,1,6.7-5.2l-.933.22a2.212,2.212,0,0,0-.723-1.138A1.926,1.926,0,0,0,3.857-6.47a2.314,2.314,0,0,0-1.379.4A2.089,2.089,0,0,0,1.7-5.012a4.276,4.276,0,0,0-.225,1.375,4.368,4.368,0,0,0,.266,1.594,1.982,1.982,0,0,0,.828,1.018,2.321,2.321,0,0,0,1.216.337,2.037,2.037,0,0,0,1.348-.459A2.349,2.349,0,0,0,5.879-2.51Zm1.675-.083a2.673,2.673,0,0,1,.8-2.134A2.413,2.413,0,0,1,9.985-5.3a2.327,2.327,0,0,1,1.748.7,2.666,2.666,0,0,1,.679,1.936,3.43,3.43,0,0,1-.3,1.575,2.126,2.126,0,0,1-.874.891A2.545,2.545,0,0,1,9.985.117a2.331,2.331,0,0,1-1.76-.7A2.789,2.789,0,0,1,7.554-2.593Zm.9,0A2.209,2.209,0,0,0,8.892-1.1a1.393,1.393,0,0,0,1.094.5,1.385,1.385,0,0,0,1.089-.5,2.261,2.261,0,0,0,.435-1.519,2.142,2.142,0,0,0-.437-1.458,1.39,1.39,0,0,0-1.086-.5,1.4,1.4,0,0,0-1.094.493A2.2,2.2,0,0,0,8.457-2.593ZM13.442,0V-5.186h.791v.737a1.864,1.864,0,0,1,1.65-.854,2.165,2.165,0,0,1,.862.168,1.356,1.356,0,0,1,.588.442,1.7,1.7,0,0,1,.273.649,5.033,5.033,0,0,1,.049.854V0h-.879V-3.154a2.368,2.368,0,0,0-.1-.8.845.845,0,0,0-.364-.425,1.157,1.157,0,0,0-.613-.159,1.424,1.424,0,0,0-.969.356,1.758,1.758,0,0,0-.408,1.353V0Zm7.48-.786.127.776a3.26,3.26,0,0,1-.664.078,1.5,1.5,0,0,1-.742-.151.848.848,0,0,1-.371-.4,3.147,3.147,0,0,1-.107-1.038V-4.5h-.645v-.684h.645V-6.47L20.039-7v1.812h.884V-4.5h-.884V-1.47a1.532,1.532,0,0,0,.046.483.366.366,0,0,0,.151.171.585.585,0,0,0,.3.063A2.859,2.859,0,0,0,20.923-.786Zm4.243.146a3.273,3.273,0,0,1-.94.586,2.716,2.716,0,0,1-.969.171A1.885,1.885,0,0,1,21.943-.3a1.378,1.378,0,0,1-.459-1.067,1.419,1.419,0,0,1,.173-.7,1.435,1.435,0,0,1,.454-.505,2.135,2.135,0,0,1,.632-.288,6.28,6.28,0,0,1,.781-.132,8.033,8.033,0,0,0,1.567-.3q0-.181,0-.229a.97.97,0,0,0-.249-.757,1.471,1.471,0,0,0-1-.3,1.552,1.552,0,0,0-.916.217,1.328,1.328,0,0,0-.437.769l-.859-.117a2.129,2.129,0,0,1,.386-.891A1.691,1.691,0,0,1,22.8-5.12,3.463,3.463,0,0,1,23.975-5.3a3.115,3.115,0,0,1,1.079.156,1.422,1.422,0,0,1,.61.393,1.382,1.382,0,0,1,.273.6,4.949,4.949,0,0,1,.044.811v1.172a12.438,12.438,0,0,0,.056,1.55A1.956,1.956,0,0,0,26.26,0h-.918A1.863,1.863,0,0,1,25.166-.64ZM25.093-2.6a6.448,6.448,0,0,1-1.436.332,3.321,3.321,0,0,0-.767.176.764.764,0,0,0-.347.286.75.75,0,0,0-.122.417.749.749,0,0,0,.266.586,1.145,1.145,0,0,0,.779.234,1.813,1.813,0,0,0,.9-.222,1.368,1.368,0,0,0,.581-.608,2.123,2.123,0,0,0,.142-.879Zm2.256-3.545V-7.158h.879v1.011Zm0,6.147V-5.186h.879V0Zm2.217,0V-5.186h.791v.737a1.864,1.864,0,0,1,1.65-.854,2.165,2.165,0,0,1,.862.168,1.356,1.356,0,0,1,.588.442,1.7,1.7,0,0,1,.273.649,5.033,5.033,0,0,1,.049.854V0H32.9V-3.154a2.368,2.368,0,0,0-.1-.8.845.845,0,0,0-.364-.425,1.157,1.157,0,0,0-.613-.159,1.424,1.424,0,0,0-.969.356,1.758,1.758,0,0,0-.408,1.353V0Zm9.111-1.67.908.112a2.216,2.216,0,0,1-.8,1.235A2.393,2.393,0,0,1,37.3.117a2.372,2.372,0,0,1-1.8-.7,2.738,2.738,0,0,1-.667-1.965,2.865,2.865,0,0,1,.674-2.031A2.281,2.281,0,0,1,37.256-5.3a2.217,2.217,0,0,1,1.7.708A2.813,2.813,0,0,1,39.614-2.6q0,.078,0,.234H35.742a1.993,1.993,0,0,0,.483,1.309,1.439,1.439,0,0,0,1.084.454,1.345,1.345,0,0,0,.825-.254A1.685,1.685,0,0,0,38.677-1.67ZM35.791-3.091h2.9a1.757,1.757,0,0,0-.332-.981,1.347,1.347,0,0,0-1.089-.508,1.4,1.4,0,0,0-1.018.405A1.6,1.6,0,0,0,35.791-3.091ZM40.679,0V-5.186h.791V-4.4a2.145,2.145,0,0,1,.559-.728.976.976,0,0,1,.564-.176,1.714,1.714,0,0,1,.9.283l-.3.815a1.258,1.258,0,0,0-.645-.19.837.837,0,0,0-.518.173.939.939,0,0,0-.327.481,3.423,3.423,0,0,0-.146,1.025V0Z" transform="translate(421.573 239.901)"/>
      <g id="Group_58" data-name="Group 58" transform="translate(433.611 211.5)">
        <g id="Group_57" data-name="Group 57" transform="translate(0 0)" clip-path="url(#clip-path-12)">
          <path id="Path_110" data-name="Path 110" d="M17.934,19.4H1.466A1.466,1.466,0,0,1,0,17.934V1.466A1.466,1.466,0,0,1,1.466,0H17.934A1.466,1.466,0,0,1,19.4,1.466V17.934A1.466,1.466,0,0,1,17.934,19.4" transform="translate(0 0)" fill="#326ce5"/>
          <path id="Path_111" data-name="Path 111" d="M18.655,7.242H7.975a.745.745,0,0,1,0-1.49h10.68a.745.745,0,1,1,0,1.49" transform="translate(-3.615 -2.876)" fill="#fff"/>
          <path id="Path_112" data-name="Path 112" d="M18.655,15.424H7.975a.745.745,0,0,1,0-1.49h10.68a.745.745,0,1,1,0,1.49" transform="translate(-3.615 -6.967)" fill="#fff"/>
          <path id="Path_113" data-name="Path 113" d="M18.655,23.378H7.975a.745.745,0,0,1,0-1.49h10.68a.745.745,0,1,1,0,1.49" transform="translate(-3.615 -10.944)" fill="#fff"/>
          <path id="Path_114" data-name="Path 114" d="M18.655,31.558H7.975a.745.745,0,0,1,0-1.49h10.68a.745.745,0,1,1,0,1.49" transform="translate(-3.615 -15.034)" fill="#fff"/>
        </g>
      </g>
    </g>
    <g id="Group_479" data-name="Group 479">
      <g id="api-server">
        <g id="Group_47" data-name="Group 47">
          <rect id="Rectangle_39" data-name="Rectangle 39" width="64" height="17" transform="translate(112 73)" fill="#326ce5"/>
        </g>
        <g id="Group_36" data-name="Group 36" transform="translate(-19 -75)">
          <g id="Group_25" data-name="Group 25" transform="translate(45.127 188.345)">
            <rect id="Rectangle_27" data-name="Rectangle 27" width="38.217" height="38.217" transform="translate(0 -0.001)" fill="#326ce5"/>
            <g id="Group_24" data-name="Group 24" transform="translate(0 0)">
              <g id="Group_23" data-name="Group 23" clip-path="url(#clip-path-4)">
                <path id="Path_77" data-name="Path 77" d="M24.142,17.111a.459.459,0,0,0-.432.481V17.6c0,.036,0,.08,0,.111a3.636,3.636,0,0,0,.059.411,4.029,4.029,0,0,1,.048.784.464.464,0,0,1-.14.224l-.01.183a5.773,5.773,0,0,0-.782.12,5.559,5.559,0,0,0-2.825,1.615c-.048-.033-.132-.093-.156-.111a.343.343,0,0,1-.257-.025,4.021,4.021,0,0,1-.583-.526,3.541,3.541,0,0,0-.284-.3c-.027-.023-.067-.053-.1-.076a.51.51,0,0,0-.3-.114.415.415,0,0,0-.344.152.458.458,0,0,0,.106.638l.006,0c.029.023.063.053.09.072a3.609,3.609,0,0,0,.358.209,4.042,4.042,0,0,1,.643.452.479.479,0,0,1,.087.25l.138.123a5.6,5.6,0,0,0-.882,3.9l-.181.053a.587.587,0,0,1-.185.188,3.993,3.993,0,0,1-.775.128,3.544,3.544,0,0,0-.415.033c-.033.006-.079.018-.115.027H16.9a.434.434,0,1,0,.192.843H17.1l.008,0c.036-.008.08-.017.112-.025a3.556,3.556,0,0,0,.388-.149,4.016,4.016,0,0,1,.754-.222.48.48,0,0,1,.248.087l.189-.032a5.626,5.626,0,0,0,2.494,3.113l-.078.189a.429.429,0,0,1,.038.244,4.242,4.242,0,0,1-.391.7,3.663,3.663,0,0,0-.232.345c-.017.033-.039.083-.055.117a.434.434,0,1,0,.78.37h0c.016-.034.04-.078.053-.11a3.578,3.578,0,0,0,.125-.4,3.036,3.036,0,0,1,.335-.777.357.357,0,0,1,.187-.091l.1-.177a5.589,5.589,0,0,0,3.248.234,5.732,5.732,0,0,0,.742-.224c.027.048.078.143.093.166a.339.339,0,0,1,.22.134,4.037,4.037,0,0,1,.3.727,3.743,3.743,0,0,0,.126.4c.014.032.037.077.053.11a.435.435,0,1,0,.782-.37c-.017-.034-.04-.084-.057-.116a3.663,3.663,0,0,0-.232-.345,4.056,4.056,0,0,1-.384-.687.339.339,0,0,1,.033-.254A1.459,1.459,0,0,1,27,29.754,5.623,5.623,0,0,0,29.5,26.619l.185.032a.34.34,0,0,1,.242-.089,4.016,4.016,0,0,1,.754.222,3.556,3.556,0,0,0,.388.149c.031.009.076.016.112.025l.008,0h.006a.434.434,0,1,0,.192-.843c-.037-.008-.089-.023-.125-.029a3.7,3.7,0,0,0-.415-.033,3.993,3.993,0,0,1-.775-.128.484.484,0,0,1-.187-.188l-.175-.05a5.618,5.618,0,0,0-.9-3.891l.153-.138a.339.339,0,0,1,.081-.245,4.061,4.061,0,0,1,.643-.452,3.626,3.626,0,0,0,.359-.209c.028-.021.066-.053.1-.077A.435.435,0,1,0,29.6,20c-.029.024-.07.054-.1.077a3.675,3.675,0,0,0-.286.3,4,4,0,0,1-.583.528.489.489,0,0,1-.262.029l-.165.117a5.669,5.669,0,0,0-3.589-1.735c0-.057-.009-.162-.01-.193a.34.34,0,0,1-.142-.216,4.094,4.094,0,0,1,.049-.784,3.636,3.636,0,0,0,.059-.411c0-.035,0-.085,0-.123a.458.458,0,0,0-.432-.481M23.6,20.465l-.128,2.268-.01,0a.381.381,0,0,1-.6.292l0,0-1.86-1.319a4.459,4.459,0,0,1,2.145-1.169,4.589,4.589,0,0,1,.461-.079m1.084,0a4.49,4.49,0,0,1,2.59,1.248l-1.848,1.311-.006,0a.382.382,0,0,1-.606-.291h0Zm-4.365,2.1,1.7,1.519v.01a.381.381,0,0,1-.15.655l0,.007-2.177.628a4.455,4.455,0,0,1,.632-2.818m7.632,0a4.535,4.535,0,0,1,.651,2.811l-2.187-.63,0-.01a.381.381,0,0,1-.149-.655v0ZM23.794,24.2h.7l.432.541-.155.674-.625.3-.626-.3-.155-.675Zm2.23,1.85a.377.377,0,0,1,.088.006l0,0,2.252.381a4.46,4.46,0,0,1-1.8,2.264l-.874-2.111,0,0a.382.382,0,0,1,.331-.532Zm-3.781.009a.381.381,0,0,1,.365.3.376.376,0,0,1-.021.235l.006.009-.865,2.089a4.476,4.476,0,0,1-1.8-2.249l2.232-.378,0,0A.4.4,0,0,1,22.243,26.055Zm1.885.916a.385.385,0,0,1,.349.2h.008l1.1,1.988c-.143.048-.29.089-.44.123a4.475,4.475,0,0,1-2.44-.125l1.1-1.985h0a.383.383,0,0,1,.323-.2" transform="translate(-5.257 -5.444)" fill="#fff"/>
                <path id="Path_78" data-name="Path 78" d="M20.889,32.037a.477.477,0,0,1-.208-.047.544.544,0,0,1-.224-.728l.012-.026c.015-.032.031-.068.046-.094a1.919,1.919,0,0,1,.158-.243c.026-.035.053-.072.078-.11a4.065,4.065,0,0,0,.383-.687.357.357,0,0,0-.039-.183l-.012-.032.063-.152A5.715,5.715,0,0,1,18.7,26.683l-.146.025-.047-.027a.4.4,0,0,0-.179-.065,3.923,3.923,0,0,0-.729.216c-.045.017-.086.035-.126.052a1.842,1.842,0,0,1-.272.1c-.025.007-.059.014-.091.021l-.048.01a.518.518,0,1,1-.222-1.01l.048-.012.082-.018a1.887,1.887,0,0,1,.287-.027c.045,0,.09,0,.138-.007a3.948,3.948,0,0,0,.756-.124.528.528,0,0,0,.126-.134l.035-.046.137-.04a5.68,5.68,0,0,1,.866-3.825l-.106-.1,0-.029a.422.422,0,0,0-.065-.2,3.887,3.887,0,0,0-.619-.434c-.045-.027-.085-.048-.125-.068a1.916,1.916,0,0,1-.246-.149c-.018-.013-.04-.031-.061-.048l-.031-.025a.546.546,0,0,1-.125-.762.506.506,0,0,1,.413-.184.6.6,0,0,1,.352.132l.023.018c.026.02.055.042.075.06a1.924,1.924,0,0,1,.2.206c.029.033.059.068.091.1a4.012,4.012,0,0,0,.569.515.215.215,0,0,0,.164.016l.068-.009.027.02.1.068a5.649,5.649,0,0,1,2.817-1.586,5.9,5.9,0,0,1,.719-.115l.008-.143.024-.023a.384.384,0,0,0,.116-.18,4.026,4.026,0,0,0-.048-.751c-.007-.05-.016-.094-.024-.138a1.985,1.985,0,0,1-.036-.286c0-.027,0-.063,0-.1v-.029a.588.588,0,0,1,.167-.417.493.493,0,0,1,.35-.149.544.544,0,0,1,.517.566V17.6c0,.028,0,.057,0,.08a1.852,1.852,0,0,1-.037.284c-.008.044-.016.089-.023.136a3.96,3.96,0,0,0-.048.766A.219.219,0,0,0,24.6,19l.05.048v.035c0,.02,0,.069.005.117a5.731,5.731,0,0,1,3.518,1.7l.13-.093.054,0a.383.383,0,0,0,.191-.02A3.9,3.9,0,0,0,29.1,20.3l.02-.02c.03-.031.058-.064.087-.1a1.992,1.992,0,0,1,.2-.21c.022-.019.054-.044.082-.065l.018-.014a.624.624,0,0,1,.4-.13.487.487,0,0,1,.464.548.6.6,0,0,1-.222.392l-.038.031-.059.047a1.887,1.887,0,0,1-.245.148c-.041.022-.082.043-.123.068a3.9,3.9,0,0,0-.628.44.223.223,0,0,0-.053.157L29,21.661l-.123.112a5.688,5.688,0,0,1,.882,3.816l.134.038.03.043a.38.38,0,0,0,.134.139,3.92,3.92,0,0,0,.738.121c.061.005.106.007.151.009a1.856,1.856,0,0,1,.286.027l.08.018.049.012A.519.519,0,1,1,31.133,27l-.057-.012c-.026-.005-.053-.01-.073-.016a1.883,1.883,0,0,1-.269-.1c-.041-.018-.083-.036-.128-.053a4.012,4.012,0,0,0-.736-.218.214.214,0,0,0-.154.057l-.057.039-.035-.007-.11-.02a5.7,5.7,0,0,1-2.446,3.076.737.737,0,0,0,.035.088l.034.038-.035.074a.214.214,0,0,0-.019.167,4.013,4.013,0,0,0,.374.666c.026.038.053.075.079.11a1.805,1.805,0,0,1,.156.24c.013.023.027.055.042.084l.016.035a.544.544,0,0,1-.223.728.5.5,0,0,1-.406.008.589.589,0,0,1-.305-.293l-.015-.031c-.015-.029-.03-.059-.04-.083a1.758,1.758,0,0,1-.09-.272c-.012-.043-.024-.087-.039-.132a3.953,3.953,0,0,0-.288-.711.222.222,0,0,0-.142-.086l-.063-.02-.016-.027c-.008-.014-.031-.054-.053-.094l-.006-.01a5.822,5.822,0,0,1-.683.2,5.671,5.671,0,0,1-3.228-.211l-.08.145-.035.01a.3.3,0,0,0-.143.063,1.6,1.6,0,0,0-.227.492c-.029.087-.059.175-.093.262-.013.04-.025.085-.037.128a1.813,1.813,0,0,1-.089.271c-.01.023-.025.054-.04.083l-.022.044a.568.568,0,0,1-.5.318m.377-2.147a.435.435,0,0,1,.029.266,4.188,4.188,0,0,1-.4.726c-.029.042-.056.08-.083.117a1.786,1.786,0,0,0-.145.222c-.012.024-.027.057-.04.085l-.013.027a.349.349,0,1,0,.618.314v-.015l.026-.037c.012-.025.027-.053.035-.074a1.673,1.673,0,0,0,.081-.246c.012-.046.025-.093.04-.142.035-.09.065-.175.093-.258a1.659,1.659,0,0,1,.258-.547.375.375,0,0,1,.194-.109l.117-.211.069.027a5.5,5.5,0,0,0,3.2.23,5.565,5.565,0,0,0,.73-.22l.069-.026.077.138.034.062a.388.388,0,0,1,.234.158,4.1,4.1,0,0,1,.3.729l.007.02c.015.048.028.093.04.14a1.91,1.91,0,0,0,.081.248c.01.021.024.049.037.075l.016.032a.417.417,0,0,0,.217.21.323.323,0,0,0,.267,0,.373.373,0,0,0,.144-.5l-.018-.035c-.012-.027-.026-.056-.037-.077A1.6,1.6,0,0,0,27.4,31c-.028-.038-.056-.076-.084-.119a4.066,4.066,0,0,1-.392-.7.382.382,0,0,1,.019-.281c-.01-.022-.02-.05-.035-.089-.008-.022-.016-.042-.022-.058l-.029-.068.063-.038a5.526,5.526,0,0,0,2.455-3.088l.022-.07.073.012.152.027a.364.364,0,0,1,.268-.085,4.024,4.024,0,0,1,.762.222c.062.024.106.042.15.061a1.671,1.671,0,0,0,.245.091l.063.014.046.01a.379.379,0,0,0,.471-.248.375.375,0,0,0-.3-.425l-.051-.012-.07-.017a1.759,1.759,0,0,0-.261-.023c-.048,0-.095,0-.145-.008A4.154,4.154,0,0,1,30,25.97a.507.507,0,0,1-.215-.2l-.216-.063.01-.073a5.527,5.527,0,0,0-.886-3.832l-.042-.061.183-.165a.39.39,0,0,1,.1-.262,4.069,4.069,0,0,1,.659-.466c.047-.027.09-.05.132-.073a1.64,1.64,0,0,0,.224-.134l.053-.042.039-.032a.423.423,0,0,0,.16-.278.317.317,0,0,0-.305-.359.409.409,0,0,0-.285.094l-.02.016c-.025.02-.054.042-.074.059a1.76,1.76,0,0,0-.187.192c-.03.034-.059.068-.092.1l-.022.022a3.927,3.927,0,0,1-.575.518.5.5,0,0,1-.286.046l-.2.142-.051-.053a5.564,5.564,0,0,0-3.535-1.708l-.072-.006-.005-.073c0-.044-.007-.114-.009-.16a.384.384,0,0,1-.143-.242,4.059,4.059,0,0,1,.047-.79c.01-.07.018-.116.027-.162a1.708,1.708,0,0,0,.034-.26c0-.02,0-.044,0-.069v-.05a.374.374,0,0,0-.346-.4.324.324,0,0,0-.23.1.419.419,0,0,0-.117.3v.034c0,.029,0,.061,0,.086a1.642,1.642,0,0,0,.034.262c.008.046.016.091.024.14a4.215,4.215,0,0,1,.048.8.51.51,0,0,1-.142.254l-.014.225-.073.006a5.5,5.5,0,0,0-3.552,1.708l-.05.053-.06-.041c-.037-.025-.093-.065-.131-.092a.378.378,0,0,1-.278-.041,4.043,4.043,0,0,1-.6-.537c-.038-.04-.069-.076-.1-.112a1.747,1.747,0,0,0-.183-.188c-.018-.016-.044-.037-.068-.055l-.025-.02a.434.434,0,0,0-.252-.095.338.338,0,0,0-.274.12.374.374,0,0,0,.093.518l.039.031.054.044a1.745,1.745,0,0,0,.226.135c.041.022.083.044.126.07a4.118,4.118,0,0,1,.658.463.492.492,0,0,1,.108.269l.17.152-.04.062a5.5,5.5,0,0,0-.869,3.841l.011.074-.227.067a.565.565,0,0,1-.2.191,4.054,4.054,0,0,1-.788.132c-.062.005-.11.007-.157.009a1.686,1.686,0,0,0-.262.025l-.074.016-.038.01a.379.379,0,0,0-.312.428.375.375,0,0,0,.457.252l.041-.01c.028-.005.059-.012.081-.018a1.7,1.7,0,0,0,.249-.092c.043-.018.085-.036.132-.054a4.12,4.12,0,0,1,.772-.226.5.5,0,0,1,.277.083l.231-.04.023.07A5.544,5.544,0,0,0,21.3,29.628l.064.038Zm2.839-.451a4.537,4.537,0,0,1-1.466-.243l-.1-.033,1.176-2.118a.467.467,0,0,1,.366-.2h0a.539.539,0,0,1,.218.046.456.456,0,0,1,.182.154h0l.033.044,1.149,2.078-.1.032a4.565,4.565,0,0,1-.448.125,4.619,4.619,0,0,1-1.02.115m-1.314-.372a4.395,4.395,0,0,0,2.3.091c.113-.025.224-.055.333-.089l-1.059-1.9a.292.292,0,0,0-.133-.127.326.326,0,0,0-.138-.029.3.3,0,0,0-.25.156l-.027.045Zm3.694-.288-.932-2.249,0,0a.466.466,0,0,1,.245-.558.445.445,0,0,1,.177-.046.345.345,0,0,1,.053,0v0l.056,0,2.352.4-.034.1a4.564,4.564,0,0,1-1.837,2.307Zm-.737-2.226.816,1.972a4.393,4.393,0,0,0,1.647-2.07l-2.1-.355h0l-.057-.005a.265.265,0,0,0-.068,0h0a.281.281,0,0,0-.113.029.3.3,0,0,0-.144.384l.018.044Zm-4.019,2.218-.086-.056a4.53,4.53,0,0,1-1.831-2.291l-.035-.1,2.38-.4.005.006a.276.276,0,0,1,.041,0,.465.465,0,0,1,.439.6l0,0-.013.052Zm-1.721-2.309a4.359,4.359,0,0,0,1.642,2.054l.819-2a.288.288,0,0,0,.016-.182.3.3,0,0,0-.284-.23.165.165,0,0,0-.057.005l-.048.009,0-.005Zm4.095-.7-.7-.337-.174-.755.485-.6h.778l.483.6-.174.754Zm-.553-.455.553.265.55-.265.136-.594-.38-.477h-.614l-.381.476Zm-3.975.137-.011-.1a4.57,4.57,0,0,1,.644-2.873l.053-.087,1.811,1.619,0,.012a.465.465,0,0,1,.021.606.453.453,0,0,1-.194.143v0l-.048.02Zm.726-2.8a4.4,4.4,0,0,0-.577,2.576l2.081-.608a.3.3,0,0,0,.116-.509l-.038-.033,0-.01Zm8.339,2.789L26.3,24.768l0-.012a.466.466,0,0,1-.277-.535.453.453,0,0,1,.108-.207v0l.04-.041,1.765-1.58.053.087a4.617,4.617,0,0,1,.663,2.863Zm-2.186-.807,2.035.586a4.457,4.457,0,0,0-.6-2.567L26.32,24.06h0l-.04.041a.3.3,0,0,0,.117.508Zm-3.41-1.487a.464.464,0,0,1-.23-.06h0l-.045-.028-1.943-1.378.072-.071a4.559,4.559,0,0,1,2.186-1.191,4.768,4.768,0,0,1,.47-.08l.1-.012-.136,2.419-.012.005a.465.465,0,0,1-.461.395m-.22-.256.045.029a.3.3,0,0,0,.47-.227l.012-.055.12-2.116c-.119.017-.237.039-.352.065a4.381,4.381,0,0,0-2.03,1.075l1.734,1.229Zm2.333.249a.466.466,0,0,1-.365-.176.456.456,0,0,1-.1-.219h0l0-.05-.134-2.366.1.012a4.6,4.6,0,0,1,2.64,1.272l.073.072-1.969,1.4-.009,0a.466.466,0,0,1-.234.063m-.3-.505h0l0,.052a.291.291,0,0,0,.065.171.3.3,0,0,0,.406.055l.038-.028.007,0L27.1,21.664a4.428,4.428,0,0,0-2.366-1.141Z" transform="translate(-5.218 -5.404)" fill="#fff"/>
                <path id="Path_79" data-name="Path 79" d="M32.338,33.133H12.673a2,2,0,0,1-2-2V11.472a2,2,0,0,1,2-2H32.338a2,2,0,0,1,2,2V31.137a2,2,0,0,1-2,2M12.673,10.158a1.316,1.316,0,0,0-1.314,1.314V31.137a1.315,1.315,0,0,0,1.314,1.314H32.338a1.315,1.315,0,0,0,1.314-1.314V11.472a1.316,1.316,0,0,0-1.314-1.314Z" transform="translate(-3.397 -3.015)" fill="#fff"/>
                <path id="Path_80" data-name="Path 80" d="M34.152,12.527v-.9A1.655,1.655,0,0,0,32.5,9.976H12.832a1.655,1.655,0,0,0-1.655,1.655v.9Z" transform="translate(-3.556 -3.174)" fill="#fff"/>
                <path id="Path_81" data-name="Path 81" d="M34.333,12.709H10.677V11.472a2,2,0,0,1,2-2H32.338a2,2,0,0,1,2,2Zm-22.974-.682H33.651v-.555a1.315,1.315,0,0,0-1.313-1.314H12.673a1.315,1.315,0,0,0-1.314,1.314Z" transform="translate(-3.397 -3.015)" fill="#fff"/>
                <path id="Path_82" data-name="Path 82" d="M13.85,11.685a.65.65,0,1,1-.65-.65.65.65,0,0,1,.65.65" transform="translate(-3.993 -3.511)" fill="#326ce5"/>
                <path id="Path_83" data-name="Path 83" d="M16.556,11.685a.65.65,0,1,1-.65-.65.65.65,0,0,1,.65.65" transform="translate(-4.853 -3.511)" fill="#326ce5"/>
                <path id="Path_84" data-name="Path 84" d="M19.356,11.685a.65.65,0,1,1-.65-.65.65.65,0,0,1,.65.65" transform="translate(-5.744 -3.511)" fill="#326ce5"/>
              </g>
            </g>
          </g>
          <line id="Line_4" data-name="Line 4" x2="500" transform="translate(46.5 156.5)" fill="none" stroke="#326ce5" stroke-linecap="round" stroke-width="4"/>
          <path id="Path_124" data-name="Path 124" d="M-24.189,0l2.749-7.158h1.021L-17.49,0h-1.079L-19.4-2.168H-22.4L-23.184,0Zm2.065-2.939H-19.7l-.747-1.982q-.342-.9-.508-1.484a9.125,9.125,0,0,1-.386,1.367ZM-16.733,0V-7.158h2.7a6.52,6.52,0,0,1,1.089.068,2.157,2.157,0,0,1,.884.334,1.755,1.755,0,0,1,.574.691,2.193,2.193,0,0,1,.217.977,2.2,2.2,0,0,1-.581,1.545,2.787,2.787,0,0,1-2.1.632h-1.836V0Zm.947-3.755h1.851a1.963,1.963,0,0,0,1.3-.342,1.218,1.218,0,0,0,.386-.962,1.294,1.294,0,0,0-.227-.769,1.061,1.061,0,0,0-.6-.422,4.047,4.047,0,0,0-.884-.063h-1.831ZM-9.9,0V-7.158h.947V0Zm5.073-2.3.894-.078a1.973,1.973,0,0,0,.3.881,1.613,1.613,0,0,0,.72.557,2.727,2.727,0,0,0,1.1.212A2.633,2.633,0,0,0-.864-.889a1.328,1.328,0,0,0,.618-.442,1.025,1.025,0,0,0,.2-.613.932.932,0,0,0-.2-.588,1.447,1.447,0,0,0-.645-.422A12.6,12.6,0,0,0-2.158-3.3,6.512,6.512,0,0,1-3.54-3.75,1.938,1.938,0,0,1-4.3-4.417a1.633,1.633,0,0,1-.251-.891,1.819,1.819,0,0,1,.308-1.013,1.9,1.9,0,0,1,.9-.715A3.408,3.408,0,0,1-2.036-7.28a3.588,3.588,0,0,1,1.4.256A2.025,2.025,0,0,1,.3-6.27,2.167,2.167,0,0,1,.654-5.142l-.908.068A1.465,1.465,0,0,0-.75-6.1,1.929,1.929,0,0,0-2-6.445,2,2,0,0,0-3.25-6.13a.945.945,0,0,0-.393.759.814.814,0,0,0,.278.635,3.771,3.771,0,0,0,1.428.51A9.447,9.447,0,0,1-.352-3.77a2.17,2.17,0,0,1,.923.73,1.778,1.778,0,0,1,.3,1.018A1.947,1.947,0,0,1,.542-.945,2.154,2.154,0,0,1-.4-.159,3.275,3.275,0,0,1-1.777.122,4.119,4.119,0,0,1-3.406-.161a2.281,2.281,0,0,1-1.03-.852A2.416,2.416,0,0,1-4.829-2.3ZM5.6-1.67l.908.112a2.216,2.216,0,0,1-.8,1.235A2.393,2.393,0,0,1,4.229.117a2.372,2.372,0,0,1-1.8-.7,2.738,2.738,0,0,1-.667-1.965A2.865,2.865,0,0,1,2.432-4.58,2.281,2.281,0,0,1,4.18-5.3a2.217,2.217,0,0,1,1.7.708A2.813,2.813,0,0,1,6.538-2.6q0,.078,0,.234H2.666A1.993,1.993,0,0,0,3.149-1.06a1.439,1.439,0,0,0,1.084.454,1.345,1.345,0,0,0,.825-.254A1.685,1.685,0,0,0,5.6-1.67ZM2.715-3.091h2.9a1.757,1.757,0,0,0-.332-.981A1.347,1.347,0,0,0,4.189-4.58a1.4,1.4,0,0,0-1.018.405A1.6,1.6,0,0,0,2.715-3.091ZM7.6,0V-5.186h.791V-4.4a2.145,2.145,0,0,1,.559-.728A.976.976,0,0,1,9.517-5.3a1.714,1.714,0,0,1,.9.283l-.3.815a1.258,1.258,0,0,0-.645-.19.837.837,0,0,0-.518.173.939.939,0,0,0-.327.481,3.423,3.423,0,0,0-.146,1.025V0Zm4.78,0L10.41-5.186h.928L12.451-2.08q.181.5.332,1.045.117-.41.327-.986l1.152-3.164h.9L13.2,0Zm7.109-1.67.908.112a2.216,2.216,0,0,1-.8,1.235A2.393,2.393,0,0,1,18.12.117a2.372,2.372,0,0,1-1.8-.7,2.738,2.738,0,0,1-.667-1.965,2.865,2.865,0,0,1,.674-2.031A2.281,2.281,0,0,1,18.071-5.3a2.217,2.217,0,0,1,1.7.708A2.813,2.813,0,0,1,20.43-2.6q0,.078,0,.234H16.558a1.993,1.993,0,0,0,.483,1.309,1.439,1.439,0,0,0,1.084.454,1.345,1.345,0,0,0,.825-.254A1.685,1.685,0,0,0,19.492-1.67ZM16.606-3.091h2.9a1.757,1.757,0,0,0-.332-.981,1.347,1.347,0,0,0-1.089-.508,1.4,1.4,0,0,0-1.018.405A1.6,1.6,0,0,0,16.606-3.091ZM21.494,0V-5.186h.791V-4.4a2.145,2.145,0,0,1,.559-.728.976.976,0,0,1,.564-.176,1.714,1.714,0,0,1,.9.283l-.3.815a1.258,1.258,0,0,0-.645-.19.837.837,0,0,0-.518.173.939.939,0,0,0-.327.481,3.423,3.423,0,0,0-.146,1.025V0Z" transform="translate(163.5 160)" fill="#fff"/>
          <path id="Path_95" data-name="Path 95" d="M63,183.729V161.293" fill="none" stroke="#000" stroke-width="1"/>
          <path id="Polygon_1" data-name="Polygon 1" d="M3,0,6,5H0Z" transform="translate(60 160)"/>
          <path id="Polygon_2" data-name="Polygon 2" d="M3,0,6,5H0Z" transform="translate(66 187) rotate(180)"/>
        </g>
      </g>
      <text id="KubeCTL" transform="translate(25 155)" font-size="10" font-family="ArialMT, Arial"><tspan x="0" y="9">KubeCTL</tspan></text>
    </g>
  </g>
</svg>
