<?xml version="1.0" encoding="utf-8"?>
<!-- Generator: Adobe Illustrator 26.2.1, SVG Export Plug-In . SVG Version: 6.00 Build 0)  -->
<svg version="1.1" id="Layer_1" xmlns="http://www.w3.org/2000/svg" xmlns:xlink="http://www.w3.org/1999/xlink" x="0px" y="0px"
	 viewBox="0 0 512 512" style="enable-background:new 0 0 512 512;" xml:space="preserve">
<style type="text/css">
	.st0{fill:#326CE5;}
	.st1{fill:#FFFFFF;}
</style>
<g>
	<g>
		<rect x="0" class="st0" width="512" height="512"/>
	</g>
</g>
<g id="path3055_00000152953060747232612030000016502363116042196639_">
	<path class="st1" d="M255,117.5c-2.5,0.1-5,0.8-7.3,1.8l-99.3,47.4c-5.2,2.5-9,7.2-10.3,12.8l-24.5,106.6c-1.1,5-0.2,10.2,2.6,14.4
		c0.3,0.5,0.7,1,1.1,1.5l68.7,85.4c3.6,4.5,9.1,7.1,14.8,7.1l110.2,0c5.8,0,11.2-2.6,14.8-7.1l68.7-85.4c3.6-4.5,5-10.3,3.7-15.9
		l-24.5-106.6c-1.3-5.6-5.1-10.3-10.3-12.8l-99.3-47.4C261.4,118,258.2,117.3,255,117.5z"/>
	<path class="st1" d="M200.9,399.1c-7.2,0-13.9-3.2-18.4-8.8l-68.7-85.4c-0.5-0.6-0.9-1.2-1.3-1.8c-3.5-5.3-4.6-11.8-3.2-18
		l24.5-106.5c1.6-7,6.3-12.8,12.7-15.9l99.3-47.4c2.8-1.4,5.9-2.1,9-2.3l0,0c3.9-0.2,7.9,0.6,11.4,2.3l99.3,47.4
		c6.5,3.1,11.1,8.9,12.7,15.9L402.8,285c1.6,7-0.1,14.2-4.6,19.8l-68.7,85.4c-4.5,5.6-11.2,8.8-18.4,8.8c0,0,0,0,0,0L200.9,399.1z
		 M256,122c-0.2,0-0.5,0-0.7,0h0c-1.9,0.1-3.8,0.6-5.5,1.4l-99.3,47.4c-4,1.9-6.8,5.4-7.8,9.7l-24.5,106.5
		c-0.9,3.7-0.2,7.7,1.9,10.9c0.3,0.4,0.5,0.8,0.8,1.2l68.7,85.4c2.8,3.4,6.9,5.4,11.3,5.4l110.2,0h0c4.4,0,8.5-2,11.3-5.4l68.7-85.5
		c2.7-3.4,3.8-7.8,2.8-12.1l-24.5-106.5c-1-4.3-3.8-7.8-7.8-9.7l-99.3-47.4C260.3,122.5,258.1,122,256,122z"/>
</g>
<g>
	<g>
		<path class="st0" d="M209,306.8v7.2c0,2,1.6,3.6,3.6,3.6h86.7c2,0,3.6-1.6,3.6-3.6v-7.2H209z"/>
	</g>
	<g>
		<path class="st0" d="M274.4,237c5.6-5.9,7.9-13.9,6.5-22c-2.1-11.7-12.5-20.6-24.9-20.6c-12.5,0-22.8,9.1-24.9,20.6
			c-1.4,8.1,0.9,16.1,6.5,22c3.8,4,5.2,9.1,5.7,12.7c1.1,7.5-1.2,13.2-4.1,17.4h33.7c-2.9-4.2-5.1-9.9-4.1-17.4
			C269.3,246.1,270.6,241,274.4,237L274.4,237z"/>
	</g>
	<g>
		<path class="st0" d="M306.6,299.6H205.4c-2,0-3.6-1.6-3.6-3.6v-3.6c0-10,8.1-18.1,18.1-18.1h72.2c10,0,18.1,8.1,18.1,18.1v3.6
			C310.2,298,308.6,299.6,306.6,299.6z"/>
	</g>
</g>
</svg>
