<?xml version="1.0" encoding="utf-8"?>
<!-- Generator: Adobe Illustrator 26.2.1, SVG Export Plug-In . SVG Version: 6.00 Build 0)  -->
<svg version="1.1" id="Layer_1" xmlns="http://www.w3.org/2000/svg" xmlns:xlink="http://www.w3.org/1999/xlink" x="0px" y="0px"
	 viewBox="0 0 512 512" style="enable-background:new 0 0 512 512;" xml:space="preserve">
<style type="text/css">
	.st0{fill:#326CE5;}
	.st1{fill:#FFFFFF;}
</style>
<g>
	<g>
		<g>
			<g>
				<rect x="0" class="st0" width="512" height="512"/>
			</g>
		</g>
	</g>
	<g>
		<g>
			<g>
				<g>
					<path class="st1" d="M114,233.1l26.3-9.3c12-4.3,17.7-18,12.2-29.5l-12-25.2l28.7-28.7l25.2,12c11.5,5.5,25.3-0.2,29.5-12.2
						l9.3-26.3h40.6l9.3,26.3c4.3,12,18,17.7,29.5,12.2l25.2-12l28.7,28.7l-12,25.2c-5.5,11.5,0.2,25.3,12.2,29.5l26.3,9.3v40.6
						l-26.3,9.3c-12,4.3-17.7,18-12.2,29.5l12,25.2L338,366.4l-25.2-12c-11.5-5.5-25.3,0.2-29.5,12.2l-9.3,26.3h-40.6l-9.3-26.3
						c-4.3-12-18-17.7-29.5-12.2l-25.2,12l-28.7-28.7l12-25.2c5.5-11.5-0.2-25.3-12.2-29.5l-26.3-9.3V233.1z"/>
				</g>
			</g>
		</g>
	</g>
	<g>
		<g>
			<path class="st0" d="M245.8,275.5h-10.1l-4-10.4h-18.3l-3.8,10.4h-9.8l17.8-45.8h9.8L245.8,275.5z M228.8,257.4l-6.3-17l-6.2,17
				H228.8z"/>
		</g>
		<g>
			<path class="st0" d="M250.7,275.5v-45.8h14.8c5.6,0,9.3,0.2,11,0.7c2.6,0.7,4.8,2.2,6.6,4.5c1.8,2.3,2.7,5.3,2.7,8.9
				c0,2.8-0.5,5.2-1.5,7.1c-1,1.9-2.3,3.4-3.9,4.5c-1.6,1.1-3.2,1.8-4.8,2.2c-2.2,0.4-5.4,0.7-9.6,0.7h-6v17.3H250.7z M259.9,237.5
				v13h5c3.6,0,6.1-0.2,7.3-0.7c1.2-0.5,2.2-1.2,2.9-2.2c0.7-1,1-2.2,1-3.6c0-1.7-0.5-3-1.5-4.1c-1-1.1-2.2-1.8-3.7-2
				c-1.1-0.2-3.3-0.3-6.7-0.3H259.9z"/>
		</g>
		<g>
			<path class="st0" d="M293.1,275.5v-45.8h9.2v45.8H293.1z"/>
		</g>
	</g>
	<g>
		<g>
			<path class="st0" d="M253.6,333.4c-44.1,0-80-35.9-80-80s35.9-80,80-80s80,35.9,80,80S297.8,333.4,253.6,333.4z M253.6,182.5
				c-39.1,0-70.9,31.8-70.9,70.9s31.8,70.9,70.9,70.9s70.9-31.8,70.9-70.9S292.7,182.5,253.6,182.5z"/>
		</g>
	</g>
</g>
</svg>
