<?xml version="1.0" encoding="utf-8"?>
<!-- Generator: Adobe Illustrator 26.2.1, SVG Export Plug-In . SVG Version: 6.00 Build 0)  -->
<svg version="1.1" id="Layer_1" xmlns="http://www.w3.org/2000/svg" xmlns:xlink="http://www.w3.org/1999/xlink" x="0px" y="0px"
	 viewBox="0 0 512 512" style="enable-background:new 0 0 512 512;" xml:space="preserve">
<style type="text/css">
	.st0{fill:#FFFFFF;}
	.st1{fill:#326CE5;}
</style>
<g>
	<path class="st0" d="M340,448h-79.7c-2.5,0-4.6-2-4.6-4.6s2-4.6,4.6-4.6H340c2.5,0,4.6,2,4.6,4.6S342.6,448,340,448z"/>
</g>
<g>
	<path class="st0" d="M340,448h-79.7c-2.5,0-4.6-2-4.6-4.6c0-2.5,2-4.6,4.6-4.6H340c2.5,0,4.6,2,4.6,4.6
		C344.6,446,342.6,448,340,448z"/>
</g>
<g>
	<rect x="0" y="0" class="st1" width="512" height="512"/>
</g>
<path class="st0" d="M263,102.5c5.6,0.5,11.1,1.3,16.6,2.4c21.5,4.9,39.9,15.5,56.1,30.2c14.9,13.6,24.5,30.4,29.9,49.7
	c1.1,4.1,2.8,7.2,7.5,8c2.6,0.5,3,3.1,3.1,5.5c0,8.3,0,16.5,0,24.8c0,5.2,0,10.3,0,15.5c0,4.5-1.5,6.1-6,6.1c-2.7,0-3.8,1.5-4.4,3.7
	c-1.9,6.3-4.2,12.4-7.1,18.2c-10.5,21.5-26.7,37.6-47.2,49.5c-1,0.6-2,1.1-3,1.7c-3.2,1.8-3.3,1.9-2,5.3c1.5,3.8,4.6,6.8,8.5,8
	c3.4,1.2,7.1,1.7,10.6,2.7c1.1,0.2,2.1,0.6,3,1.2c-0.8,1.1-2,0.9-3,1.1c-4.6,0.9-9.1,2.3-13.9,2.2c-1.9,0.1-3.8-0.2-5.6-0.8
	c-1.5-0.6-2-0.1-2.3,1.4c-0.7,3.9-1.1,7.8-1.1,11.8c-0.2,7.9-0.9,15.7-1.4,23.6c-0.5,7.6-0.2,8.3,7.1,10.8c3.6,1.2,7.2,2.4,10.8,3.7
	c0.9,0.3,1.9,0.5,2.5,1.5c-0.5,0.7-1.3,0.5-1.9,0.5c-6.3,0-12.6,0.1-18.9,0c-6.7-0.1-10.3-3.6-10.8-10.3c-0.7-9.8-1.5-19.5-2.3-29.2
	c-0.1-0.5-0.2-1-0.3-1.5c-1,5.8-0.8,11.2-1.1,16.6c-0.3,6.7-0.1,13.5-0.1,20.3c0,3.4,1.1,5,4.3,6.2c4.6,1.7,9.1,3.8,14.3,3.4
	c1.8-0.1,3.5,0.8,5.1,1.7c0.4,0.2,0.9,0.4,0.9,0.9c-0.1,0.6-0.6,0.6-1.1,0.6c-8.4-0.3-16.8,0.8-25.2-0.4c-4.1-0.6-6.8-3-8.1-7.1
	c-1.2-3.9-1.4-7.9-1.7-11.9c-0.6-8-1-16-1.5-24.1c0.1-0.8-0.2-1.6-0.8-2.2c-0.4,0.7-0.6,1.6-0.4,2.5c0,12.2,0,24.4,0,36.7
	c0,5,1.6,7.4,6.3,9.1c6.1,2.2,12.5,3.8,18.8,5.4c1.4,0.4,2.9,0.6,3.1,2.5h-23.7c-0.7-0.1-1.3-0.3-2-0.4c-9-1.3-12.8-4.8-14.6-13.3
	c-0.3-1.4-0.6-2.8-0.9-4.2c-1-4.7-1.9-9.4-2.9-14.1c-0.9,1.5-1.5,3.2-1.9,4.9c-1.1,5.1-1.9,10.3-3.1,15.3c-1.5,6.3-5.7,9.8-11.9,11
	c-1.4,0.3-2.8,0.5-4.2,0.8h-23.7c0.7-2.2,2.8-2.4,4.5-2.8c6.1-1.6,12.3-2.8,18.1-5.2c2.9-1,4.8-3.6,5.1-6.7c0.7-5.6,0-11.1-0.2-16.6
	c-0.2-1.4-0.5-2.7-1-4c-0.5,0.8-0.9,1.7-0.9,2.7c-0.3,3.8-0.6,7.6-1,11.3c-0.5,5.5-3.5,9.2-8.7,10.4c-1.5,0.4-3.1,0.6-4.7,0.6
	c-7.1,0-14.3,0-21.4-0.1c-0.6,0-1.4,0.2-1.9-0.8c2.3-1.3,4.8-2.2,7.4-2.4c4.1-0.5,8.1-1.3,12-2.5c5.4-1.5,6.7-3.2,6.5-8.8
	c-0.3-11.9-1.2-23.8-0.9-35.7c0.1-2.3,0-4.7,0-7c-0.3,1.6-0.6,3.3-0.6,4.9c-0.4,11.2-1.3,22.4-2.4,33.6c-0.7,6.6-3.8,9.6-10.3,10.3
	c-5.7,0.6-11.4,0-17-0.3c-1.4-0.1-3,0.2-4.3-0.8c0.5-0.8,1.4-0.9,2-1.1c4.6-1.5,9.3-2.9,13.9-4.4c3.1-1,4.5-3,4.6-6.3c0-1,0-2,0-3
	c-0.7-9.2-1.1-18.3-1.3-27.5c-0.1-2-0.2-4.1-0.5-6.1c-0.3-2.4-1.7-3.7-3.8-3.3c-6.5,1.2-12.7-0.1-18.8-1.8c-0.8-0.2-1.7-0.1-2.3-1.1
	c1.1-0.6,2.4-1,3.6-1.2c3.3-0.7,6.5-1.5,9.6-2.7c4-1.4,7.2-4.4,8.9-8.3c1.1-2.6,0.7-4.1-1.4-5.1c-18.1-8.7-32.1-22.1-43.4-38.6
	c-6.5-9.6-11.4-20.1-14.4-31.3c-0.9-3.1-2-3.8-4.9-3.3c-3.9,0.7-5.1,0.1-6.8-3.5v-44.6c1.8-3.9,2.6-4.4,6.8-4.2c3,0.1,3.2-0.1,4-3.1
	c5.1-19.3,13.8-36.6,27.8-51c16.8-17.3,37.5-27.4,60.8-32.9c5.8-1.4,11.8-1.9,17.7-2.6H263z M365,217c0.1-4-0.2-8-0.6-12
	c-0.3-2.8-0.7-5.6-1.3-8.3c-7.6-37.9-30-64.2-64.6-80.2c-19.9-9.2-41.1-10.7-62.4-6.5c-41.6,8.1-69,33-83.7,72.3
	c-5.6,15-6.3,30.8-4.7,46.7c1.1,12,4.3,23.6,9.5,34.5c7.5,15.5,18.5,28.2,31.7,39.1c4.4,3.7,9.2,6.7,14.3,9.2c3,1.4,3.2,1.3,3.1-1.9
	c0.1-2,0-4.1-0.1-6.1c-1.6-13-1.8-26.2-2.2-39.3c0.1-1.8-0.8-3.5-2.4-4.5c-4.9-3.4-9.1-7.6-11.8-13c-6.1-12.4-4.8-30.2,10.4-41.1
	c1.7-1.3,2.8-2.4,2.5-4.8c-0.1-1.9,0-3.8,0.4-5.7c2.3-15.2,9.6-27.3,22-36.3c8.7-6.3,18.5-9.9,29.2-10c6.2-0.1,12.2,1.4,18.1,3.1
	c20.6,6,36.4,26.5,36.4,47.3c-0.2,2.8,1.1,5.6,3.4,7.2c5.9,4.7,10.5,10.6,12.1,18.2c2.8,13.8-1.1,25.4-12.5,33.7
	c-3.4,2.5-4.4,5.2-4.3,8.9c0,0.6,0,1.2,0,1.8c-0.3,6.1-0.5,12.3-0.8,18.4c-0.3,7.5-1.8,14.9-1.5,22.4c0.1,2.8,0.1,2.9,2.6,1.6
	c11.8-5.9,22.2-14.2,30.6-24.3C355.6,267.3,365.2,244.3,365,217z M218.7,257.3c13.7,0.2,24.9-10.7,25.1-24.4
	c0.2-13.7-10.7-24.9-24.4-25.1c-0.2,0-0.3,0-0.5,0c-14-0.1-25,10.5-25,24.1C193.8,246.5,204.2,257.3,218.7,257.3z M292.8,257.3
	c14.1,0,24.8-10.5,24.8-24.5c0-14-10.8-24.9-24.6-24.9c-13.6,0-24.8,11.1-24.9,24.5C268.1,246.5,278.8,257.3,292.8,257.3
	L292.8,257.3z M274,282.1c-2.7,1.6-5.2,3.5-8.1,4.9c-6.9,3.3-13.6,3.3-20.2-0.6c-2-1.2-3.9-2.6-5.9-3.8c-0.6-0.4-1.2-1.3-1.9-0.8
	c-0.6,0.4-0.1,1.3,0,1.9c0.5,2.3,0.8,4.6,1.1,7c0.3,7.2,3.7,12.7,9.5,16.8c2.9,2.2,6.6,3.1,10.1,2.4c7.2-1.5,13.1-7.9,14.4-15.6
	c0.6-3.4,0.1-7,1.4-10.3C274.6,283.3,274.4,282.6,274,282.1L274,282.1z"/>
<path class="st0" d="M161.6,219.1c-0.2-14.1,1.8-26.3,6.9-37.9c8.1-18.5,21-32.7,38.1-43.2c1.9-1.1,4.3-0.7,5.9,0.8
	c0.8,0.8,0.5,1.5,0.1,2.3c-1.3,2.8-3.4,5.1-6.1,6.5c-13.8,8.2-23.4,20.1-30.1,34.4c-5.7,11.9-8.4,25-7.9,38.2
	c0.7,16.7,5.6,32.2,15.5,45.9c1.1,1.3,1.9,2.9,2.2,4.7c0.1,1,0.7,2.2-0.4,2.9c-1.1,0.8-2.4,1-3.7,0.5c-1.2-0.5-2.3-1.3-3-2.4
	c-9.2-12.5-15.3-26.3-17-41.9C161.6,225.9,162,221.8,161.6,219.1z"/>
<path class="st0" d="M216.4,132.4c-0.1-2.6,2-4.8,4.7-4.9c0.1,0,0.1,0,0.2,0c2.7,0,5.2,2.9,5.3,6.1c0,1.8-3.9,5-6.1,4.9
	C218.1,138.5,216.4,136,216.4,132.4z"/>
<path class="st0" d="M210.5,228.1c-0.1-4.3,3.2-7.9,7.5-8.1c4.9,0,8.6,3.5,8.6,8.1c0,4.5-3.5,8-8.2,7.9
	C213.6,236.1,210.5,233,210.5,228.1z"/>
<path class="st0" d="M293.6,236.1c-4.9,0-8-3.3-7.9-8.3c0.1-4.2,3.4-7.6,7.6-7.8c4.6-0.1,8.5,3.6,8.6,8.2
	C301.8,232.7,298.3,236.1,293.6,236.1z"/>
</svg>
