<svg xmlns="http://www.w3.org/2000/svg" xmlns:xlink="http://www.w3.org/1999/xlink" width="500" zoomAndPan="magnify" viewBox="0 0 375 374.999991" height="500" preserveAspectRatio="xMidYMid meet" version="1.0"><defs><clipPath id="b370605254"><path d="M 51 8.933594 L 320 8.933594 L 320 365.933594 L 51 365.933594 Z M 51 8.933594 " clip-rule="nonzero"/></clipPath><clipPath id="db35b3ea73"><path d="M 215 8.933594 L 320 8.933594 L 320 114 L 215 114 Z M 215 8.933594 " clip-rule="nonzero"/></clipPath><clipPath id="2f1d121943"><path d="M 99.328125 127.949219 L 263.378906 127.949219 L 263.378906 292 L 99.328125 292 Z M 99.328125 127.949219 " clip-rule="nonzero"/></clipPath><clipPath id="024a461a77"><path d="M 181.355469 127.949219 C 136.050781 127.949219 99.328125 164.671875 99.328125 209.972656 C 99.328125 255.277344 136.050781 292 181.355469 292 C 226.65625 292 263.378906 255.277344 263.378906 209.972656 C 263.378906 164.671875 226.65625 127.949219 181.355469 127.949219 Z M 181.355469 127.949219 " clip-rule="nonzero"/></clipPath><clipPath id="a5ae30831c"><path d="M 110.550781 130.507812 L 252.15625 130.507812 L 252.15625 301.820312 L 110.550781 301.820312 Z M 110.550781 130.507812 " clip-rule="nonzero"/></clipPath></defs><path fill="#ffffff" d="M 304.433594 361.054688 L 66.390625 361.054688 L 59.554688 344.597656 L 59.554688 19.394531 L 217.277344 21.625 L 317.125 110.875 L 311.40625 351.011719 Z M 304.433594 361.054688 " fill-opacity="1" fill-rule="nonzero"/><g clip-path="url(#b370605254)"><path fill="#326ce5" d="M 311.828125 98.183594 L 237.496094 98.183594 C 233.453125 98.183594 230.105469 94.835938 230.105469 90.792969 L 230.105469 16.324219 C 230.105469 12.28125 226.761719 8.933594 222.714844 8.933594 L 73.78125 8.933594 C 61.507812 8.933594 51.46875 18.976562 51.46875 31.246094 L 51.46875 343.621094 C 51.46875 355.894531 61.507812 365.933594 73.78125 365.933594 L 296.90625 365.933594 C 309.175781 365.933594 319.21875 355.894531 319.21875 343.621094 L 319.21875 105.574219 C 319.21875 101.53125 315.871094 98.183594 311.828125 98.183594 Z M 304.433594 343.621094 C 304.433594 347.664062 301.089844 351.011719 297.042969 351.011719 L 73.917969 351.011719 C 69.875 351.011719 66.527344 347.664062 66.527344 343.621094 L 66.527344 31.246094 C 66.527344 27.203125 69.875 23.855469 73.917969 23.855469 L 215.183594 23.855469 L 215.183594 90.792969 C 215.183594 103.066406 225.226562 113.105469 237.496094 113.105469 L 304.433594 113.105469 Z M 304.433594 343.621094 " fill-opacity="1" fill-rule="nonzero"/></g><g clip-path="url(#db35b3ea73)"><path fill="#326ce5" d="M 317.125 100.414062 L 227.875 11.164062 C 224.945312 8.238281 220.207031 8.238281 217.417969 11.164062 C 214.628906 14.09375 214.488281 18.835938 217.417969 21.625 L 306.667969 110.875 C 308.0625 112.269531 310.011719 113.105469 311.964844 113.105469 C 313.917969 113.105469 315.730469 112.410156 317.265625 110.875 C 319.914062 107.945312 319.914062 103.203125 317.125 100.414062 Z M 317.125 100.414062 " fill-opacity="1" fill-rule="nonzero"/></g><path fill="#326ce5" d="M 185.621094 274.871094 C 182.554688 274.871094 180.042969 272.359375 180.042969 269.292969 C 180.042969 266.226562 182.554688 263.714844 185.621094 263.714844 C 195.382812 263.714844 205.003906 261.066406 213.371094 256.183594 C 216.023438 254.652344 219.507812 255.488281 221.042969 258.136719 C 222.578125 260.785156 221.738281 264.273438 219.089844 265.808594 C 208.769531 271.804688 197.335938 274.871094 185.621094 274.871094 Z M 154.941406 266.921875 C 153.964844 266.921875 153.128906 266.644531 152.292969 266.226562 C 141.972656 260.507812 133.464844 252.140625 127.75 241.820312 C 126.214844 239.171875 127.191406 235.683594 129.839844 234.289062 C 132.488281 232.757812 135.976562 233.734375 137.371094 236.382812 C 142.25 245.027344 148.945312 251.722656 157.589844 256.464844 C 160.242188 257.996094 161.21875 261.34375 159.824219 263.992188 C 158.707031 265.945312 156.894531 266.921875 154.941406 266.921875 Z M 238.472656 244.191406 C 237.496094 244.191406 236.523438 243.914062 235.683594 243.496094 C 233.035156 241.960938 232.058594 238.472656 233.59375 235.824219 C 238.472656 227.457031 240.984375 217.835938 240.984375 208.074219 C 240.984375 205.003906 243.496094 202.078125 246.5625 202.078125 C 249.628906 202.078125 252.140625 204.167969 252.140625 207.238281 L 246.5625 207.238281 L 252.140625 207.792969 C 252.140625 219.648438 249.074219 231.222656 243.214844 241.261719 C 242.238281 243.214844 240.425781 244.191406 238.472656 244.191406 Z M 124.679688 213.789062 C 121.613281 213.789062 119.101562 211.421875 119.101562 208.351562 L 119.101562 207.933594 C 119.101562 196.21875 121.890625 184.785156 127.328125 174.882812 C 128.722656 172.234375 132.210938 171.117188 134.859375 172.652344 C 137.511719 174.1875 138.625 177.53125 137.089844 180.183594 C 132.628906 188.550781 130.257812 198.03125 130.257812 207.933594 C 130.257812 211.140625 127.75 213.789062 124.679688 213.789062 Z M 238.054688 182.554688 C 236.101562 182.554688 234.289062 181.578125 233.3125 179.765625 C 228.292969 171.398438 221.183594 164.425781 212.816406 159.683594 C 210.164062 158.148438 209.1875 154.800781 210.722656 152.152344 C 212.257812 149.503906 215.605469 148.527344 218.253906 150.0625 C 228.433594 155.777344 236.941406 164.144531 242.9375 174.1875 C 244.46875 176.835938 243.632812 180.320312 240.984375 181.855469 C 240.007812 182.273438 239.03125 182.554688 238.054688 182.554688 Z M 154.246094 160.660156 C 152.292969 160.660156 150.480469 159.683594 149.363281 157.871094 C 147.828125 155.21875 148.804688 151.734375 151.457031 150.339844 C 161.078125 144.902344 172.234375 141.832031 184.503906 141.414062 C 187.433594 141.136719 190.222656 143.644531 190.363281 146.714844 C 190.503906 149.78125 188.132812 152.429688 185.0625 152.570312 C 174.464844 152.988281 164.980469 155.5 157.035156 160.101562 C 156.195312 160.519531 155.21875 160.660156 154.246094 160.660156 Z M 154.246094 160.660156 " fill-opacity="1" fill-rule="nonzero"/><path fill="#326ce5" d="M 203.054688 240.007812 L 167.769531 240.007812 C 159.824219 240.007812 153.546875 233.59375 153.546875 225.785156 L 153.546875 190.503906 C 153.546875 182.554688 159.960938 176.277344 167.769531 176.277344 L 203.054688 176.277344 C 211 176.277344 217.277344 182.691406 217.277344 190.503906 L 217.277344 225.785156 C 217.277344 233.59375 211 240.007812 203.054688 240.007812 Z M 203.054688 240.007812 " fill-opacity="1" fill-rule="nonzero"/><path fill="#ffffff" d="M 203.890625 202.914062 L 167.632812 202.914062 C 164.5625 202.914062 162.054688 200.402344 162.054688 197.335938 C 162.054688 194.265625 164.5625 191.757812 167.632812 191.757812 L 203.890625 191.757812 C 206.957031 191.757812 209.46875 194.265625 209.46875 197.335938 C 209.46875 200.402344 206.957031 202.914062 203.890625 202.914062 Z M 203.890625 202.914062 " fill-opacity="1" fill-rule="nonzero"/><path fill="#ffffff" d="M 203.890625 223.414062 L 167.632812 223.414062 C 164.5625 223.414062 162.054688 220.902344 162.054688 217.835938 C 162.054688 214.765625 164.5625 212.257812 167.632812 212.257812 L 203.890625 212.257812 C 206.957031 212.257812 209.46875 214.765625 209.46875 217.835938 C 209.46875 220.902344 206.957031 223.414062 203.890625 223.414062 Z M 203.890625 223.414062 " fill-opacity="1" fill-rule="nonzero"/><g clip-path="url(#2f1d121943)"><g clip-path="url(#024a461a77)"><path fill="#ffffff" d="M 99.328125 127.949219 L 263.378906 127.949219 L 263.378906 292 L 99.328125 292 Z M 99.328125 127.949219 " fill-opacity="1" fill-rule="nonzero"/></g></g><g clip-path="url(#a5ae30831c)"><path fill="#326ce5" d="M 219.742188 279.003906 L 211.246094 299.175781 L 195.023438 268.042969 L 195.292969 267.75 L 200.953125 261.601562 L 212.441406 263.917969 C 212.953125 264.019531 213.46875 263.757812 213.6875 263.285156 L 218.617188 252.609375 L 224.199219 251.945312 L 224.625 251.894531 L 241.121094 283.605469 Z M 151.460938 299.191406 L 142.96875 279.011719 L 121.5625 283.621094 L 130.121094 267.1875 L 138.085938 251.894531 L 138.507812 251.945312 L 144.089844 252.609375 L 148.984375 263.28125 C 149.203125 263.757812 149.71875 264.023438 150.230469 263.917969 L 161.75 261.601562 L 167.410156 267.746094 L 167.683594 268.042969 Z M 214.949219 233.339844 C 206.9375 241.789062 196.019531 246.898438 184.398438 247.644531 C 183.375 247.734375 182.355469 247.765625 181.339844 247.765625 C 180.316406 247.765625 179.296875 247.734375 178.308594 247.644531 C 153.890625 246.03125 134.898438 225.769531 134.867188 201.300781 C 134.867188 175.683594 155.722656 154.828125 181.339844 154.828125 C 206.984375 154.816406 227.789062 175.59375 227.804688 201.242188 C 227.808594 213.195312 223.207031 224.691406 214.949219 233.335938 Z M 251.820312 210.828125 L 246.484375 201.300781 L 251.820312 191.804688 C 252.414062 190.742188 252.203125 189.40625 251.308594 188.582031 L 243.28125 181.179688 L 245.429688 170.488281 C 245.667969 169.292969 245.054688 168.089844 243.949219 167.578125 L 234.042969 163.035156 L 232.765625 152.207031 C 232.621094 150.996094 231.671875 150.042969 230.460938 149.902344 L 219.628906 148.625 L 215.054688 138.714844 C 214.542969 137.609375 213.34375 137 212.152344 137.238281 L 201.484375 139.359375 L 194.082031 131.355469 C 193.253906 130.460938 191.925781 130.253906 190.867188 130.847656 L 181.339844 136.183594 L 171.84375 130.847656 C 170.78125 130.253906 169.453125 130.460938 168.625 131.355469 L 161.21875 139.359375 L 150.519531 137.234375 C 149.328125 137 148.125 137.613281 147.617188 138.71875 L 143.074219 148.625 L 132.242188 149.902344 C 131.035156 150.042969 130.082031 150.996094 129.941406 152.207031 L 128.664062 163.035156 L 118.757812 167.578125 C 117.652344 168.085938 117.039062 169.289062 117.273438 170.484375 L 119.398438 181.179688 L 111.394531 188.585938 C 110.503906 189.414062 110.292969 190.742188 110.890625 191.804688 L 116.222656 201.300781 L 110.886719 210.828125 C 110.292969 211.886719 110.503906 213.21875 111.394531 214.042969 L 119.394531 221.445312 L 117.273438 232.113281 C 117.039062 233.304688 117.648438 234.503906 118.753906 235.015625 L 128.660156 239.589844 L 129.941406 250.421875 C 130.082031 251.632812 131.035156 252.585938 132.246094 252.726562 L 134.546875 252.996094 L 119.230469 282.40625 C 118.5625 283.695312 119.058594 285.28125 120.347656 285.953125 C 120.890625 286.234375 121.519531 286.320312 122.117188 286.191406 L 141.390625 282.042969 L 149.039062 300.210938 C 149.433594 301.152344 150.335938 301.777344 151.355469 301.820312 C 151.390625 301.820312 151.425781 301.820312 151.460938 301.820312 C 152.441406 301.820312 153.34375 301.273438 153.792969 300.40625 L 168.851562 271.492188 C 169.691406 272.203125 170.882812 272.316406 171.84375 271.78125 L 181.339844 266.445312 L 190.867188 271.78125 C 191.824219 272.316406 193.015625 272.203125 193.851562 271.492188 L 208.910156 300.394531 C 209.367188 301.261719 210.261719 301.808594 211.242188 301.808594 C 211.28125 301.808594 211.316406 301.808594 211.351562 301.804688 C 212.371094 301.765625 213.273438 301.136719 213.667969 300.199219 L 221.320312 282.03125 L 240.566406 286.175781 C 241.988281 286.484375 243.386719 285.582031 243.691406 284.160156 C 243.820312 283.5625 243.738281 282.9375 243.453125 282.394531 L 228.160156 252.996094 L 230.457031 252.726562 C 231.667969 252.585938 232.621094 251.632812 232.765625 250.421875 L 234.042969 239.589844 L 243.953125 235.015625 C 245.058594 234.503906 245.667969 233.300781 245.429688 232.109375 L 243.28125 221.445312 L 251.308594 214.046875 C 252.203125 213.21875 252.414062 211.890625 251.820312 210.828125 " fill-opacity="1" fill-rule="nonzero"/></g><path fill="#326ce5" d="M 178.171875 209.332031 C 177.921875 214.25 176.539062 218.011719 174.03125 220.613281 C 171.519531 223.21875 167.972656 224.519531 163.390625 224.519531 C 158.796875 224.519531 155.140625 222.777344 152.421875 219.285156 C 149.710938 215.785156 148.359375 211.042969 148.359375 205.050781 L 148.359375 196.722656 C 148.359375 190.753906 149.75 186.042969 152.53125 182.582031 C 155.320312 179.113281 159.125 177.378906 163.9375 177.378906 C 168.363281 177.378906 171.789062 178.707031 174.21875 181.363281 C 176.644531 184.019531 177.960938 187.816406 178.171875 192.753906 L 172.34375 192.753906 C 172.09375 189.015625 171.304688 186.347656 169.984375 184.753906 C 168.660156 183.152344 166.644531 182.347656 163.9375 182.347656 C 160.800781 182.347656 158.390625 183.574219 156.703125 186.019531 C 155.023438 188.46875 154.1875 192.058594 154.1875 196.785156 L 154.1875 205.207031 C 154.1875 209.855469 154.96875 213.417969 156.53125 215.894531 C 158.101562 218.375 160.390625 219.613281 163.390625 219.613281 C 166.398438 219.613281 168.566406 218.871094 169.890625 217.378906 C 171.210938 215.878906 172.03125 213.199219 172.34375 209.332031 Z M 178.171875 209.332031 " fill-opacity="1" fill-rule="nonzero"/><path fill="#326ce5" d="M 207.386719 211.925781 L 191.886719 211.925781 L 188.324219 223.894531 L 182.402344 223.894531 L 197.183594 178.003906 L 202.121094 178.003906 L 216.933594 223.894531 L 211.011719 223.894531 Z M 193.402344 206.941406 L 205.902344 206.941406 L 199.636719 186.066406 Z M 193.402344 206.941406 " fill-opacity="1" fill-rule="nonzero"/></svg>