<?xml version="1.0" encoding="utf-8"?>
<!-- Generator: Adobe Illustrator 26.2.1, SVG Export Plug-In . SVG Version: 6.00 Build 0)  -->
<svg version="1.1" id="Layer_1" xmlns="http://www.w3.org/2000/svg" xmlns:xlink="http://www.w3.org/1999/xlink" x="0px" y="0px"
	 viewBox="0 0 512 512" style="enable-background:new 0 0 512 512;" xml:space="preserve">
<style type="text/css">
	.st0{fill:#326CE5;}
	.st1{fill:#FFFFFF;}
</style>
<g>
	<g>
		<rect x="0" class="st0" width="512" height="512"/>
	</g>
</g>
<g>
	<g>
		<path class="st1" d="M204.8,373.5H103.5c-10.1,0-18.4-8.2-18.4-18.4V140.3c0-10.1,8.2-18.4,18.4-18.4h101.2
			c10.1,0,18.4,8.2,18.4,18.4v214.9C223.2,365.3,214.9,373.5,204.8,373.5z"/>
	</g>
	<g>
		<path class="st1" d="M368.5,331.6H245.1c-2.5,0-4.6-2-4.6-4.6s2-4.6,4.6-4.6h123.4c35.2,0,63.8-28.6,63.8-63.8
			s-28.6-63.8-63.8-63.8h-22.1c-2.5,0-4.6-2-4.6-4.6c0-2.5,2-4.6,4.6-4.6h22.1c40.2,0,72.9,32.7,72.9,72.9S408.7,331.6,368.5,331.6z
			"/>
	</g>
	<g>
		<path class="st1" d="M326.3,194.9h-29.2c-2.5,0-4.6-2-4.6-4.6c0-2.5,2-4.6,4.6-4.6h29.2c2.5,0,4.6,2,4.6,4.6
			C330.9,192.9,328.8,194.9,326.3,194.9z"/>
	</g>
	<g>
		<path class="st1" d="M277.6,194.9h-32.6c-2.5,0-4.6-2-4.6-4.6c0-2.5,2-4.6,4.6-4.6h32.6c2.5,0,4.6,2,4.6,4.6
			C282.2,192.9,280.2,194.9,277.6,194.9z"/>
	</g>
	<g>
		<rect x="212.8" y="172.4" class="st1" width="32.2" height="35.8"/>
	</g>
	<g>
		<rect x="212.8" y="309.1" class="st1" width="32.2" height="35.8"/>
	</g>
	<g>
		<path class="st1" d="M276,190.4"/>
	</g>
	<g>
		<circle class="st0" cx="117.6" cy="158.9" r="16.3"/>
	</g>
	<g>
		<path class="st0" d="M196.1,209.1h-48.4c-2.5,0-4.6-2-4.6-4.6s2-4.6,4.6-4.6h48.4c2.5,0,4.6,2,4.6,4.6S198.6,209.1,196.1,209.1z"
			/>
	</g>
	<g>
		<path class="st0" d="M196.1,230.3h-48.4c-2.5,0-4.6-2-4.6-4.6c0-2.5,2-4.6,4.6-4.6h48.4c2.5,0,4.6,2,4.6,4.6
			C200.6,228.3,198.6,230.3,196.1,230.3z"/>
	</g>
	<g>
		<path class="st1" d="M313.9,207.4c-1.2,0-2.3-0.4-3.2-1.3c-1.8-1.8-1.8-4.7,0-6.5l9.2-9.2l-9.2-9.2c-1.8-1.8-1.8-4.7,0-6.5
			s4.7-1.8,6.5,0l15.7,15.7L317.1,206C316.2,206.9,315.1,207.4,313.9,207.4z"/>
	</g>
</g>
<g>
	<g>
		<g>
			<path class="st1" d="M271.5,401.9H153.8c-16,0-29.3-13-29.3-29.3c0-12.2,8-23.3,20-27.5l4.2-1.5l-0.3-4.4
				c-0.6-10.4,4.1-20.1,12.7-26c9.1-6.2,20.2-6.7,30.3-2.1l5.3,2.4l2.5-5.3c6.7-14.4,21.3-23.7,37.2-23.7
				c22.7,0,41.1,18.4,41.1,41.1c0,6.7-1.4,10.8-3,16.1c4.4,2.3,5.1,2.7,6.6,3.2c12.1,4.2,20.3,15.3,20.3,27.6
				C301.3,388.7,287.9,401.9,271.5,401.9z"/>
			<path class="st0" d="M271.5,406.4H153.8c-18.7,0-33.9-15.2-33.9-33.9c0-14.2,9.3-26.9,23-31.8l0.9-0.3l-0.1-1
				c-0.7-12,4.7-23.2,14.6-30c10.2-7,22.9-7.9,34.8-2.5l1.2,0.5l0.5-1.2c7.5-16,23.7-26.4,41.4-26.4c25.2,0,45.6,20.5,45.6,45.6
				c0,5.7-1,9.8-2.1,13.8c1.2,0.7,1.8,0.9,2.6,1.2c14,4.8,23.4,17.6,23.4,31.9C305.8,391.2,290.4,406.4,271.5,406.4z M177.6,312.6
				c-5,0-9.8,1.5-14,4.3c-7.2,5-11.2,13.2-10.7,21.9l0.5,7.8l-7.4,2.6c-10.1,3.6-16.9,12.9-16.9,23.2c0,13.7,11.1,24.8,24.8,24.8
				h117.8c13.9,0,25.2-11.1,25.2-24.8c0-10.4-6.9-19.8-17.2-23.3c-1.4-0.5-2.2-0.9-5.3-2.5L269,344l1.5-5.1
				c1.4-4.6,2.4-7.9,2.4-13.3c0-20.1-16.4-36.5-36.5-36.5c-14.1,0-27.1,8.3-33.1,21.1l-4.4,9.4l-9.4-4.3
				C185.5,313.5,181.5,312.6,177.6,312.6z"/>
		</g>
	</g>
</g>
</svg>
