<svg xmlns="http://www.w3.org/2000/svg" xmlns:xlink="http://www.w3.org/1999/xlink" width="500" zoomAndPan="magnify" viewBox="0 0 375 374.999991" height="500" preserveAspectRatio="xMidYMid meet" version="1.0"><defs><clipPath id="c1bee834c0"><path d="M 163.566406 52.644531 L 243.003906 52.644531 L 243.003906 132.078125 L 163.566406 132.078125 Z M 163.566406 52.644531 " clip-rule="nonzero"/></clipPath><clipPath id="01bded6b54"><path d="M 203.285156 52.644531 C 181.347656 52.644531 163.566406 70.425781 163.566406 92.359375 C 163.566406 114.296875 181.347656 132.078125 203.285156 132.078125 C 225.21875 132.078125 243.003906 114.296875 243.003906 92.359375 C 243.003906 70.425781 225.21875 52.644531 203.285156 52.644531 Z M 203.285156 52.644531 " clip-rule="nonzero"/></clipPath><clipPath id="0f343d0c9b"><path d="M 163.566406 52.644531 L 242.996094 52.644531 L 242.996094 132.074219 L 163.566406 132.074219 Z M 163.566406 52.644531 " clip-rule="nonzero"/></clipPath><clipPath id="2d7f0191aa"><path d="M 203.28125 52.644531 C 181.347656 52.644531 163.566406 70.425781 163.566406 92.359375 C 163.566406 114.292969 181.347656 132.074219 203.28125 132.074219 C 225.214844 132.074219 242.996094 114.292969 242.996094 92.359375 C 242.996094 70.425781 225.214844 52.644531 203.28125 52.644531 Z M 203.28125 52.644531 " clip-rule="nonzero"/></clipPath><clipPath id="85a7d9df62"><path d="M 250.449219 109.5625 L 329.886719 109.5625 L 329.886719 189 L 250.449219 189 Z M 250.449219 109.5625 " clip-rule="nonzero"/></clipPath><clipPath id="1e0f800ef3"><path d="M 290.167969 109.5625 C 268.234375 109.5625 250.449219 127.347656 250.449219 149.28125 C 250.449219 171.21875 268.234375 189 290.167969 189 C 312.105469 189 329.886719 171.21875 329.886719 149.28125 C 329.886719 127.347656 312.105469 109.5625 290.167969 109.5625 Z M 290.167969 109.5625 " clip-rule="nonzero"/></clipPath><clipPath id="98f7442c82"><path d="M 250.449219 109.5625 L 329.878906 109.5625 L 329.878906 188.992188 L 250.449219 188.992188 Z M 250.449219 109.5625 " clip-rule="nonzero"/></clipPath><clipPath id="830fc8b6d9"><path d="M 290.164062 109.5625 C 268.230469 109.5625 250.449219 127.34375 250.449219 149.277344 C 250.449219 171.214844 268.230469 188.992188 290.164062 188.992188 C 312.097656 188.992188 329.878906 171.214844 329.878906 149.277344 C 329.878906 127.34375 312.097656 109.5625 290.164062 109.5625 Z M 290.164062 109.5625 " clip-rule="nonzero"/></clipPath><clipPath id="eaf7e0505f"><path d="M 220.597656 60.28125 L 300.03125 60.28125 L 300.03125 139.714844 L 220.597656 139.714844 Z M 220.597656 60.28125 " clip-rule="nonzero"/></clipPath><clipPath id="72682148bf"><path d="M 260.3125 60.28125 C 238.378906 60.28125 220.597656 78.0625 220.597656 99.996094 C 220.597656 121.933594 238.378906 139.714844 260.3125 139.714844 C 282.25 139.714844 300.03125 121.933594 300.03125 99.996094 C 300.03125 78.0625 282.25 60.28125 260.3125 60.28125 Z M 260.3125 60.28125 " clip-rule="nonzero"/></clipPath><clipPath id="25e120d381"><path d="M 220.597656 60.28125 L 300.027344 60.28125 L 300.027344 139.710938 L 220.597656 139.710938 Z M 220.597656 60.28125 " clip-rule="nonzero"/></clipPath><clipPath id="a981ff7812"><path d="M 260.3125 60.28125 C 238.378906 60.28125 220.597656 78.0625 220.597656 99.996094 C 220.597656 121.929688 238.378906 139.710938 260.3125 139.710938 C 282.246094 139.710938 300.027344 121.929688 300.027344 99.996094 C 300.027344 78.0625 282.246094 60.28125 260.3125 60.28125 Z M 260.3125 60.28125 " clip-rule="nonzero"/></clipPath><clipPath id="d59736571e"><path d="M 227.796875 227.453125 L 307.230469 227.453125 L 307.230469 306.890625 L 227.796875 306.890625 Z M 227.796875 227.453125 " clip-rule="nonzero"/></clipPath><clipPath id="b27db45e8f"><path d="M 267.511719 227.453125 C 245.578125 227.453125 227.796875 245.234375 227.796875 267.171875 C 227.796875 289.105469 245.578125 306.890625 267.511719 306.890625 C 289.449219 306.890625 307.230469 289.105469 307.230469 267.171875 C 307.230469 245.234375 289.449219 227.453125 267.511719 227.453125 Z M 267.511719 227.453125 " clip-rule="nonzero"/></clipPath><clipPath id="c14ad65cf3"><path d="M 227.796875 227.453125 L 307.226562 227.453125 L 307.226562 306.882812 L 227.796875 306.882812 Z M 227.796875 227.453125 " clip-rule="nonzero"/></clipPath><clipPath id="c5aea4544c"><path d="M 267.511719 227.453125 C 245.578125 227.453125 227.796875 245.234375 227.796875 267.167969 C 227.796875 289.101562 245.578125 306.882812 267.511719 306.882812 C 289.445312 306.882812 307.226562 289.101562 307.226562 267.167969 C 307.226562 245.234375 289.445312 227.453125 267.511719 227.453125 Z M 267.511719 227.453125 " clip-rule="nonzero"/></clipPath><clipPath id="6844f4fa34"><path d="M 44.015625 172.488281 L 123.449219 172.488281 L 123.449219 251.925781 L 44.015625 251.925781 Z M 44.015625 172.488281 " clip-rule="nonzero"/></clipPath><clipPath id="f7d9393f0e"><path d="M 83.734375 172.488281 C 61.796875 172.488281 44.015625 190.269531 44.015625 212.207031 C 44.015625 234.140625 61.796875 251.925781 83.734375 251.925781 C 105.667969 251.925781 123.449219 234.140625 123.449219 212.207031 C 123.449219 190.269531 105.667969 172.488281 83.734375 172.488281 Z M 83.734375 172.488281 " clip-rule="nonzero"/></clipPath><clipPath id="e939c211aa"><path d="M 44.015625 172.488281 L 123.445312 172.488281 L 123.445312 251.917969 L 44.015625 251.917969 Z M 44.015625 172.488281 " clip-rule="nonzero"/></clipPath><clipPath id="f848f2fb20"><path d="M 83.730469 172.488281 C 61.796875 172.488281 44.015625 190.269531 44.015625 212.203125 C 44.015625 234.136719 61.796875 251.917969 83.730469 251.917969 C 105.664062 251.917969 123.445312 234.136719 123.445312 212.203125 C 123.445312 190.269531 105.664062 172.488281 83.730469 172.488281 Z M 83.730469 172.488281 " clip-rule="nonzero"/></clipPath><clipPath id="b45af78589"><path d="M 113.4375 251.925781 L 192.871094 251.925781 L 192.871094 331.359375 L 113.4375 331.359375 Z M 113.4375 251.925781 " clip-rule="nonzero"/></clipPath><clipPath id="7fdeb12dcb"><path d="M 153.152344 251.925781 C 131.21875 251.925781 113.4375 269.707031 113.4375 291.640625 C 113.4375 313.578125 131.21875 331.359375 153.152344 331.359375 C 175.089844 331.359375 192.871094 313.578125 192.871094 291.640625 C 192.871094 269.707031 175.089844 251.925781 153.152344 251.925781 Z M 153.152344 251.925781 " clip-rule="nonzero"/></clipPath><clipPath id="f15ebd9d64"><path d="M 113.4375 251.925781 L 192.867188 251.925781 L 192.867188 331.355469 L 113.4375 331.355469 Z M 113.4375 251.925781 " clip-rule="nonzero"/></clipPath><clipPath id="7246bf97aa"><path d="M 153.152344 251.925781 C 131.214844 251.925781 113.4375 269.707031 113.4375 291.640625 C 113.4375 313.574219 131.214844 331.355469 153.152344 331.355469 C 175.085938 331.355469 192.867188 313.574219 192.867188 291.640625 C 192.867188 269.707031 175.085938 251.925781 153.152344 251.925781 Z M 153.152344 251.925781 " clip-rule="nonzero"/></clipPath><clipPath id="6bd7a1cfaf"><path d="M 59.285156 227.453125 L 138.71875 227.453125 L 138.71875 306.890625 L 59.285156 306.890625 Z M 59.285156 227.453125 " clip-rule="nonzero"/></clipPath><clipPath id="f2160e047b"><path d="M 99 227.453125 C 77.066406 227.453125 59.285156 245.234375 59.285156 267.171875 C 59.285156 289.105469 77.066406 306.890625 99 306.890625 C 120.9375 306.890625 138.71875 289.105469 138.71875 267.171875 C 138.71875 245.234375 120.9375 227.453125 99 227.453125 Z M 99 227.453125 " clip-rule="nonzero"/></clipPath><clipPath id="fe5883ea8b"><path d="M 59.285156 227.453125 L 138.714844 227.453125 L 138.714844 306.882812 L 59.285156 306.882812 Z M 59.285156 227.453125 " clip-rule="nonzero"/></clipPath><clipPath id="ba1d0d2167"><path d="M 99 227.453125 C 77.066406 227.453125 59.285156 245.234375 59.285156 267.167969 C 59.285156 289.101562 77.066406 306.882812 99 306.882812 C 120.933594 306.882812 138.714844 289.101562 138.714844 267.167969 C 138.714844 245.234375 120.933594 227.453125 99 227.453125 Z M 99 227.453125 " clip-rule="nonzero"/></clipPath><clipPath id="f520bd4021"><path d="M 171.015625 249.132812 L 250.449219 249.132812 L 250.449219 328.566406 L 171.015625 328.566406 Z M 171.015625 249.132812 " clip-rule="nonzero"/></clipPath><clipPath id="abb7f00b03"><path d="M 210.734375 249.132812 C 188.796875 249.132812 171.015625 266.914062 171.015625 288.851562 C 171.015625 310.785156 188.796875 328.566406 210.734375 328.566406 C 232.667969 328.566406 250.449219 310.785156 250.449219 288.851562 C 250.449219 266.914062 232.667969 249.132812 210.734375 249.132812 Z M 210.734375 249.132812 " clip-rule="nonzero"/></clipPath><clipPath id="d271511fba"><path d="M 171.015625 249.132812 L 250.445312 249.132812 L 250.445312 328.5625 L 171.015625 328.5625 Z M 171.015625 249.132812 " clip-rule="nonzero"/></clipPath><clipPath id="ba74ba6bd5"><path d="M 210.730469 249.132812 C 188.796875 249.132812 171.015625 266.914062 171.015625 288.847656 C 171.015625 310.78125 188.796875 328.5625 210.730469 328.5625 C 232.664062 328.5625 250.445312 310.78125 250.445312 288.847656 C 250.445312 266.914062 232.664062 249.132812 210.730469 249.132812 Z M 210.730469 249.132812 " clip-rule="nonzero"/></clipPath><clipPath id="67719bbd4c"><path d="M 258.8125 164.886719 L 338.25 164.886719 L 338.25 244.324219 L 258.8125 244.324219 Z M 258.8125 164.886719 " clip-rule="nonzero"/></clipPath><clipPath id="2a41545d54"><path d="M 298.53125 164.886719 C 276.597656 164.886719 258.8125 182.671875 258.8125 204.605469 C 258.8125 226.542969 276.597656 244.324219 298.53125 244.324219 C 320.46875 244.324219 338.25 226.542969 338.25 204.605469 C 338.25 182.671875 320.46875 164.886719 298.53125 164.886719 Z M 298.53125 164.886719 " clip-rule="nonzero"/></clipPath><clipPath id="4ee0ebe7d6"><path d="M 258.8125 164.886719 L 338.242188 164.886719 L 338.242188 244.316406 L 258.8125 244.316406 Z M 258.8125 164.886719 " clip-rule="nonzero"/></clipPath><clipPath id="b8486f9f43"><path d="M 298.527344 164.886719 C 276.59375 164.886719 258.8125 182.667969 258.8125 204.601562 C 258.8125 226.539062 276.59375 244.316406 298.527344 244.316406 C 320.464844 244.316406 338.242188 226.539062 338.242188 204.601562 C 338.242188 182.667969 320.464844 164.886719 298.527344 164.886719 Z M 298.527344 164.886719 " clip-rule="nonzero"/></clipPath><clipPath id="4de249e56f"><path d="M 58.535156 80.535156 L 137.96875 80.535156 L 137.96875 159.96875 L 58.535156 159.96875 Z M 58.535156 80.535156 " clip-rule="nonzero"/></clipPath><clipPath id="82e0e74958"><path d="M 98.25 80.535156 C 76.316406 80.535156 58.535156 98.316406 58.535156 120.253906 C 58.535156 142.1875 76.316406 159.96875 98.25 159.96875 C 120.1875 159.96875 137.96875 142.1875 137.96875 120.253906 C 137.96875 98.316406 120.1875 80.535156 98.25 80.535156 Z M 98.25 80.535156 " clip-rule="nonzero"/></clipPath><clipPath id="da989664d1"><path d="M 58.535156 80.535156 L 137.964844 80.535156 L 137.964844 159.964844 L 58.535156 159.964844 Z M 58.535156 80.535156 " clip-rule="nonzero"/></clipPath><clipPath id="b5ec4773d0"><path d="M 98.25 80.535156 C 76.316406 80.535156 58.535156 98.316406 58.535156 120.25 C 58.535156 142.183594 76.316406 159.964844 98.25 159.964844 C 120.183594 159.964844 137.964844 142.183594 137.964844 120.25 C 137.964844 98.316406 120.183594 80.535156 98.25 80.535156 Z M 98.25 80.535156 " clip-rule="nonzero"/></clipPath><clipPath id="8820740f5d"><path d="M 106.183594 47.234375 L 185.621094 47.234375 L 185.621094 126.671875 L 106.183594 126.671875 Z M 106.183594 47.234375 " clip-rule="nonzero"/></clipPath><clipPath id="1822b69083"><path d="M 145.902344 47.234375 C 123.96875 47.234375 106.183594 65.015625 106.183594 86.953125 C 106.183594 108.886719 123.96875 126.671875 145.902344 126.671875 C 167.839844 126.671875 185.621094 108.886719 185.621094 86.953125 C 185.621094 65.015625 167.839844 47.234375 145.902344 47.234375 Z M 145.902344 47.234375 " clip-rule="nonzero"/></clipPath><clipPath id="8c20bc95fb"><path d="M 106.183594 47.234375 L 185.613281 47.234375 L 185.613281 126.664062 L 106.183594 126.664062 Z M 106.183594 47.234375 " clip-rule="nonzero"/></clipPath><clipPath id="7f0be1c023"><path d="M 145.898438 47.234375 C 123.964844 47.234375 106.183594 65.015625 106.183594 86.949219 C 106.183594 108.882812 123.964844 126.664062 145.898438 126.664062 C 167.832031 126.664062 185.613281 108.882812 185.613281 86.949219 C 185.613281 65.015625 167.832031 47.234375 145.898438 47.234375 Z M 145.898438 47.234375 " clip-rule="nonzero"/></clipPath><clipPath id="f9ee5bd39e"><path d="M 27.828125 126.671875 L 107.265625 126.671875 L 107.265625 206.105469 L 27.828125 206.105469 Z M 27.828125 126.671875 " clip-rule="nonzero"/></clipPath><clipPath id="e8ea0e95d1"><path d="M 67.546875 126.671875 C 45.609375 126.671875 27.828125 144.453125 27.828125 166.386719 C 27.828125 188.324219 45.609375 206.105469 67.546875 206.105469 C 89.480469 206.105469 107.265625 188.324219 107.265625 166.386719 C 107.265625 144.453125 89.480469 126.671875 67.546875 126.671875 Z M 67.546875 126.671875 " clip-rule="nonzero"/></clipPath><clipPath id="860dfb7024"><path d="M 27.828125 126.671875 L 107.257812 126.671875 L 107.257812 206.101562 L 27.828125 206.101562 Z M 27.828125 126.671875 " clip-rule="nonzero"/></clipPath><clipPath id="379dde667b"><path d="M 67.542969 126.671875 C 45.609375 126.671875 27.828125 144.453125 27.828125 166.386719 C 27.828125 188.320312 45.609375 206.101562 67.542969 206.101562 C 89.476562 206.101562 107.257812 188.320312 107.257812 166.386719 C 107.257812 144.453125 89.476562 126.671875 67.542969 126.671875 Z M 67.542969 126.671875 " clip-rule="nonzero"/></clipPath><clipPath id="51f35d45ee"><path d="M 112.644531 176.53125 L 214.488281 176.53125 L 214.488281 278.375 L 112.644531 278.375 Z M 112.644531 176.53125 " clip-rule="nonzero"/></clipPath><clipPath id="57adab647c"><path d="M 163.566406 176.53125 C 135.445312 176.53125 112.644531 199.332031 112.644531 227.453125 C 112.644531 255.574219 135.445312 278.375 163.566406 278.375 C 191.6875 278.375 214.488281 255.574219 214.488281 227.453125 C 214.488281 199.332031 191.6875 176.53125 163.566406 176.53125 Z M 163.566406 176.53125 " clip-rule="nonzero"/></clipPath><clipPath id="8144ef95d8"><path d="M 112.644531 176.53125 L 214.480469 176.53125 L 214.480469 278.367188 L 112.644531 278.367188 Z M 112.644531 176.53125 " clip-rule="nonzero"/></clipPath><clipPath id="ca28ba13a2"><path d="M 163.5625 176.53125 C 135.441406 176.53125 112.644531 199.328125 112.644531 227.449219 C 112.644531 255.570312 135.441406 278.367188 163.5625 278.367188 C 191.683594 278.367188 214.480469 255.570312 214.480469 227.449219 C 214.480469 199.328125 191.683594 176.53125 163.5625 176.53125 Z M 163.5625 176.53125 " clip-rule="nonzero"/></clipPath><clipPath id="4424c86af5"><path d="M 91.03125 115.46875 L 192.871094 115.46875 L 192.871094 217.308594 L 91.03125 217.308594 Z M 91.03125 115.46875 " clip-rule="nonzero"/></clipPath><clipPath id="a1e3e7b768"><path d="M 141.949219 115.46875 C 113.828125 115.46875 91.03125 138.265625 91.03125 166.386719 C 91.03125 194.511719 113.828125 217.308594 141.949219 217.308594 C 170.074219 217.308594 192.871094 194.511719 192.871094 166.386719 C 192.871094 138.265625 170.074219 115.46875 141.949219 115.46875 Z M 141.949219 115.46875 " clip-rule="nonzero"/></clipPath><clipPath id="70a792d598"><path d="M 91.03125 115.46875 L 192.867188 115.46875 L 192.867188 217.304688 L 91.03125 217.304688 Z M 91.03125 115.46875 " clip-rule="nonzero"/></clipPath><clipPath id="d710cddccc"><path d="M 141.949219 115.46875 C 113.828125 115.46875 91.03125 138.265625 91.03125 166.386719 C 91.03125 194.507812 113.828125 217.304688 141.949219 217.304688 C 170.070312 217.304688 192.867188 194.507812 192.867188 166.386719 C 192.867188 138.265625 170.070312 115.46875 141.949219 115.46875 Z M 141.949219 115.46875 " clip-rule="nonzero"/></clipPath><clipPath id="21097e5a4f"><path d="M 148.609375 87.15625 L 250.449219 87.15625 L 250.449219 189 L 148.609375 189 Z M 148.609375 87.15625 " clip-rule="nonzero"/></clipPath><clipPath id="bc66c53ab4"><path d="M 199.53125 87.15625 C 171.40625 87.15625 148.609375 109.957031 148.609375 138.078125 C 148.609375 166.203125 171.40625 189 199.53125 189 C 227.652344 189 250.449219 166.203125 250.449219 138.078125 C 250.449219 109.957031 227.652344 87.15625 199.53125 87.15625 Z M 199.53125 87.15625 " clip-rule="nonzero"/></clipPath><clipPath id="fea2df5edd"><path d="M 148.609375 87.15625 L 250.445312 87.15625 L 250.445312 188.992188 L 148.609375 188.992188 Z M 148.609375 87.15625 " clip-rule="nonzero"/></clipPath><clipPath id="449d5641e7"><path d="M 199.527344 87.15625 C 171.40625 87.15625 148.609375 109.953125 148.609375 138.074219 C 148.609375 166.195312 171.40625 188.992188 199.527344 188.992188 C 227.648438 188.992188 250.445312 166.195312 250.445312 138.074219 C 250.445312 109.953125 227.648438 87.15625 199.527344 87.15625 Z M 199.527344 87.15625 " clip-rule="nonzero"/></clipPath><clipPath id="4005645469"><path d="M 185.621094 125.609375 L 287.460938 125.609375 L 287.460938 227.453125 L 185.621094 227.453125 Z M 185.621094 125.609375 " clip-rule="nonzero"/></clipPath><clipPath id="42590d00eb"><path d="M 236.542969 125.609375 C 208.417969 125.609375 185.621094 148.410156 185.621094 176.53125 C 185.621094 204.65625 208.417969 227.453125 236.542969 227.453125 C 264.664062 227.453125 287.460938 204.65625 287.460938 176.53125 C 287.460938 148.410156 264.664062 125.609375 236.542969 125.609375 Z M 236.542969 125.609375 " clip-rule="nonzero"/></clipPath><clipPath id="6c4b13d61b"><path d="M 185.621094 125.609375 L 287.457031 125.609375 L 287.457031 227.445312 L 185.621094 227.445312 Z M 185.621094 125.609375 " clip-rule="nonzero"/></clipPath><clipPath id="94eb477cca"><path d="M 236.539062 125.609375 C 208.417969 125.609375 185.621094 148.40625 185.621094 176.527344 C 185.621094 204.648438 208.417969 227.445312 236.539062 227.445312 C 264.660156 227.445312 287.457031 204.648438 287.457031 176.527344 C 287.457031 148.40625 264.660156 125.609375 236.539062 125.609375 Z M 236.539062 125.609375 " clip-rule="nonzero"/></clipPath><clipPath id="f3c57950b1"><path d="M 165.671875 176.53125 L 267.511719 176.53125 L 267.511719 278.375 L 165.671875 278.375 Z M 165.671875 176.53125 " clip-rule="nonzero"/></clipPath><clipPath id="8aeeaab0fa"><path d="M 216.59375 176.53125 C 188.46875 176.53125 165.671875 199.332031 165.671875 227.453125 C 165.671875 255.574219 188.46875 278.375 216.59375 278.375 C 244.714844 278.375 267.511719 255.574219 267.511719 227.453125 C 267.511719 199.332031 244.714844 176.53125 216.59375 176.53125 Z M 216.59375 176.53125 " clip-rule="nonzero"/></clipPath><clipPath id="920e348ce1"><path d="M 165.671875 176.53125 L 267.507812 176.53125 L 267.507812 278.367188 L 165.671875 278.367188 Z M 165.671875 176.53125 " clip-rule="nonzero"/></clipPath><clipPath id="a19a2ea39e"><path d="M 216.589844 176.53125 C 188.46875 176.53125 165.671875 199.328125 165.671875 227.449219 C 165.671875 255.570312 188.46875 278.367188 216.589844 278.367188 C 244.710938 278.367188 267.507812 255.570312 267.507812 227.449219 C 267.507812 199.328125 244.710938 176.53125 216.589844 176.53125 Z M 216.589844 176.53125 " clip-rule="nonzero"/></clipPath><clipPath id="5b41c2463e"><path d="M 116.890625 106.117188 L 257.046875 106.117188 L 257.046875 249 L 116.890625 249 Z M 116.890625 106.117188 " clip-rule="nonzero"/></clipPath><clipPath id="74d2cd78a6"><path d="M 186.96875 106.117188 C 148.265625 106.117188 116.890625 138.085938 116.890625 177.523438 C 116.890625 216.960938 148.265625 248.933594 186.96875 248.933594 C 225.671875 248.933594 257.046875 216.960938 257.046875 177.523438 C 257.046875 138.085938 225.671875 106.117188 186.96875 106.117188 Z M 186.96875 106.117188 " clip-rule="nonzero"/></clipPath><clipPath id="1cf64487c0"><path d="M 73.210938 166.1875 L 298 166.1875 L 298 267.753906 L 73.210938 267.753906 Z M 73.210938 166.1875 " clip-rule="nonzero"/></clipPath><clipPath id="34ad10908d"><path d="M 194.621094 263.945312 L 296.464844 174.125 C 297.878906 172.878906 298.371094 170.886719 297.707031 169.121094 C 297.039062 167.355469 295.351562 166.1875 293.464844 166.1875 L 77.777344 166.1875 C 75.890625 166.1875 74.203125 167.355469 73.535156 169.121094 C 72.867188 170.886719 73.363281 172.878906 74.777344 174.125 L 176.621094 263.945312 C 181.765625 268.480469 189.476562 268.480469 194.621094 263.945312 Z M 194.621094 263.945312 " clip-rule="nonzero"/></clipPath><clipPath id="137e750ebe"><path d="M 126.390625 112.300781 L 246.390625 112.300781 L 246.390625 262.300781 L 126.390625 262.300781 Z M 126.390625 112.300781 " clip-rule="nonzero"/></clipPath></defs><rect x="-37.5" width="450" fill="#ffffff" y="-37.499999" height="449.999989" fill-opacity="1"/><rect x="-37.5" width="450" fill="#ffffff" y="-37.499999" height="449.999989" fill-opacity="1"/><rect x="-37.5" width="450" fill="#326ce5" y="-37.499999" height="449.999989" fill-opacity="1"/><g clip-path="url(#c1bee834c0)"><g clip-path="url(#01bded6b54)"><path fill="#326ce5" d="M 163.566406 52.644531 L 243.003906 52.644531 L 243.003906 132.078125 L 163.566406 132.078125 Z M 163.566406 52.644531 " fill-opacity="1" fill-rule="nonzero"/></g></g><g clip-path="url(#0f343d0c9b)"><g clip-path="url(#2d7f0191aa)"><path stroke-linecap="butt" transform="matrix(0.75, 0, 0, 0.75, 163.56657, 52.643094)" fill="none" stroke-linejoin="miter" d="M 52.95291 0.00191614 C 23.708117 0.00191614 -0.000218012 23.710251 -0.000218012 52.955045 C -0.000218012 82.199838 23.708117 105.908173 52.95291 105.908173 C 82.197704 105.908173 105.906039 82.199838 105.906039 52.955045 C 105.906039 23.710251 82.197704 0.00191614 52.95291 0.00191614 Z M 52.95291 0.00191614 " stroke="#ffffff" stroke-width="14" stroke-opacity="1" stroke-miterlimit="4"/></g></g><g clip-path="url(#85a7d9df62)"><g clip-path="url(#1e0f800ef3)"><path fill="#326ce5" d="M 250.449219 109.5625 L 329.886719 109.5625 L 329.886719 189 L 250.449219 189 Z M 250.449219 109.5625 " fill-opacity="1" fill-rule="nonzero"/></g></g><g clip-path="url(#98f7442c82)"><g clip-path="url(#830fc8b6d9)"><path stroke-linecap="butt" transform="matrix(0.75, 0, 0, 0.75, 250.450358, 109.564169)" fill="none" stroke-linejoin="miter" d="M 52.951609 -0.00222507 C 23.706815 -0.00222507 -0.00151961 23.70611 -0.00151961 52.950903 C -0.00151961 82.200905 23.706815 105.904032 52.951609 105.904032 C 82.196402 105.904032 105.904737 82.200905 105.904737 52.950903 C 105.904737 23.70611 82.196402 -0.00222507 52.951609 -0.00222507 Z M 52.951609 -0.00222507 " stroke="#ffffff" stroke-width="14" stroke-opacity="1" stroke-miterlimit="4"/></g></g><g clip-path="url(#eaf7e0505f)"><g clip-path="url(#72682148bf)"><path fill="#326ce5" d="M 220.597656 60.28125 L 300.03125 60.28125 L 300.03125 139.714844 L 220.597656 139.714844 Z M 220.597656 60.28125 " fill-opacity="1" fill-rule="nonzero"/></g></g><g clip-path="url(#25e120d381)"><g clip-path="url(#a981ff7812)"><path stroke-linecap="butt" transform="matrix(0.75, 0, 0, 0.75, 220.596259, 60.279788)" fill="none" stroke-linejoin="miter" d="M 52.954992 0.00194928 C 23.710198 0.00194928 0.00186325 23.710284 0.00186325 52.955078 C 0.00186325 82.199871 23.710198 105.908206 52.954992 105.908206 C 82.199785 105.908206 105.90812 82.199871 105.90812 52.955078 C 105.90812 23.710284 82.199785 0.00194928 52.954992 0.00194928 Z M 52.954992 0.00194928 " stroke="#ffffff" stroke-width="14" stroke-opacity="1" stroke-miterlimit="4"/></g></g><g clip-path="url(#d59736571e)"><g clip-path="url(#b27db45e8f)"><path fill="#326ce5" d="M 227.796875 227.453125 L 307.230469 227.453125 L 307.230469 306.890625 L 227.796875 306.890625 Z M 227.796875 227.453125 " fill-opacity="1" fill-rule="nonzero"/></g></g><g clip-path="url(#c14ad65cf3)"><g clip-path="url(#c5aea4544c)"><path stroke-linecap="butt" transform="matrix(0.75, 0, 0, 0.75, 227.795733, 227.453159)" fill="none" stroke-linejoin="miter" d="M 52.954651 -0.0000459519 C 23.709858 -0.0000459519 0.00152301 23.708289 0.00152301 52.953083 C 0.00152301 82.197876 23.709858 105.906211 52.954651 105.906211 C 82.199445 105.906211 105.90778 82.197876 105.90778 52.953083 C 105.90778 23.708289 82.199445 -0.0000459519 52.954651 -0.0000459519 Z M 52.954651 -0.0000459519 " stroke="#ffffff" stroke-width="14" stroke-opacity="1" stroke-miterlimit="4"/></g></g><g clip-path="url(#6844f4fa34)"><g clip-path="url(#f7d9393f0e)"><path fill="#326ce5" d="M 44.015625 172.488281 L 123.449219 172.488281 L 123.449219 251.925781 L 44.015625 251.925781 Z M 44.015625 172.488281 " fill-opacity="1" fill-rule="nonzero"/></g></g><g clip-path="url(#e939c211aa)"><g clip-path="url(#f848f2fb20)"><path stroke-linecap="butt" transform="matrix(0.75, 0, 0, 0.75, 44.015092, 172.488608)" fill="none" stroke-linejoin="miter" d="M 52.953839 -0.000435498 C 23.709046 -0.000435498 0.000710654 23.707899 0.000710654 52.952693 C 0.000710654 82.197487 23.709046 105.905821 52.953839 105.905821 C 82.198633 105.905821 105.906968 82.197487 105.906968 52.952693 C 105.906968 23.707899 82.198633 -0.000435498 52.953839 -0.000435498 Z M 52.953839 -0.000435498 " stroke="#ffffff" stroke-width="14" stroke-opacity="1" stroke-miterlimit="4"/></g></g><g clip-path="url(#b45af78589)"><g clip-path="url(#7fdeb12dcb)"><path fill="#326ce5" d="M 113.4375 251.925781 L 192.871094 251.925781 L 192.871094 331.359375 L 113.4375 331.359375 Z M 113.4375 251.925781 " fill-opacity="1" fill-rule="nonzero"/></g></g><g clip-path="url(#f15ebd9d64)"><g clip-path="url(#7246bf97aa)"><path stroke-linecap="butt" transform="matrix(0.75, 0, 0, 0.75, 113.435563, 251.924427)" fill="none" stroke-linejoin="miter" d="M 52.955712 0.00180612 C 23.70571 0.00180612 0.00258313 23.710141 0.00258313 52.954935 C 0.00258313 82.199728 23.70571 105.908063 52.955712 105.908063 C 82.200505 105.908063 105.90884 82.199728 105.90884 52.954935 C 105.90884 23.710141 82.200505 0.00180612 52.955712 0.00180612 Z M 52.955712 0.00180612 " stroke="#ffffff" stroke-width="14" stroke-opacity="1" stroke-miterlimit="4"/></g></g><g clip-path="url(#6bd7a1cfaf)"><g clip-path="url(#f2160e047b)"><path fill="#326ce5" d="M 59.285156 227.453125 L 138.71875 227.453125 L 138.71875 306.890625 L 59.285156 306.890625 Z M 59.285156 227.453125 " fill-opacity="1" fill-rule="nonzero"/></g></g><g clip-path="url(#fe5883ea8b)"><g clip-path="url(#ba1d0d2167)"><path stroke-linecap="butt" transform="matrix(0.75, 0, 0, 0.75, 59.283783, 227.453159)" fill="none" stroke-linejoin="miter" d="M 52.954959 -0.0000459519 C 23.710166 -0.0000459519 0.00183099 23.708289 0.00183099 52.953083 C 0.00183099 82.197876 23.710166 105.906211 52.954959 105.906211 C 82.199753 105.906211 105.908088 82.197876 105.908088 52.953083 C 105.908088 23.708289 82.199753 -0.0000459519 52.954959 -0.0000459519 Z M 52.954959 -0.0000459519 " stroke="#ffffff" stroke-width="14" stroke-opacity="1" stroke-miterlimit="4"/></g></g><g clip-path="url(#f520bd4021)"><g clip-path="url(#abb7f00b03)"><path fill="#326ce5" d="M 171.015625 249.132812 L 250.449219 249.132812 L 250.449219 328.566406 L 171.015625 328.566406 Z M 171.015625 249.132812 " fill-opacity="1" fill-rule="nonzero"/></g></g><g clip-path="url(#d271511fba)"><g clip-path="url(#ba74ba6bd5)"><path stroke-linecap="butt" transform="matrix(0.75, 0, 0, 0.75, 171.014554, 249.131878)" fill="none" stroke-linejoin="miter" d="M 52.954556 0.00124595 C 23.709763 0.00124595 0.00142791 23.709581 0.00142791 52.954374 C 0.00142791 82.199168 23.709763 105.907503 52.954556 105.907503 C 82.19935 105.907503 105.907685 82.199168 105.907685 52.954374 C 105.907685 23.709581 82.19935 0.00124595 52.954556 0.00124595 Z M 52.954556 0.00124595 " stroke="#ffffff" stroke-width="14" stroke-opacity="1" stroke-miterlimit="4"/></g></g><g clip-path="url(#67719bbd4c)"><g clip-path="url(#2a41545d54)"><path fill="#326ce5" d="M 258.8125 164.886719 L 338.25 164.886719 L 338.25 244.324219 L 258.8125 244.324219 Z M 258.8125 164.886719 " fill-opacity="1" fill-rule="nonzero"/></g></g><g clip-path="url(#4ee0ebe7d6)"><g clip-path="url(#b8486f9f43)"><path stroke-linecap="butt" transform="matrix(0.75, 0, 0, 0.75, 258.814178, 164.888603)" fill="none" stroke-linejoin="miter" d="M 52.950891 -0.00251203 C 23.706098 -0.00251203 -0.00223721 23.705823 -0.00223721 52.950616 C -0.00223721 82.200618 23.706098 105.903745 52.950891 105.903745 C 82.200893 105.903745 105.90402 82.200618 105.90402 52.950616 C 105.90402 23.705823 82.200893 -0.00251203 52.950891 -0.00251203 Z M 52.950891 -0.00251203 " stroke="#ffffff" stroke-width="14" stroke-opacity="1" stroke-miterlimit="4"/></g></g><g clip-path="url(#4de249e56f)"><g clip-path="url(#82e0e74958)"><path fill="#326ce5" d="M 58.535156 80.535156 L 137.96875 80.535156 L 137.96875 159.96875 L 58.535156 159.96875 Z M 58.535156 80.535156 " fill-opacity="1" fill-rule="nonzero"/></g></g><g clip-path="url(#da989664d1)"><g clip-path="url(#b5ec4773d0)"><path stroke-linecap="butt" transform="matrix(0.75, 0, 0, 0.75, 58.533783, 80.534781)" fill="none" stroke-linejoin="miter" d="M 52.954959 0.000500185 C 23.710166 0.000500185 0.00183093 23.708835 0.00183093 52.953629 C 0.00183093 82.198422 23.710166 105.906757 52.954959 105.906757 C 82.199753 105.906757 105.908088 82.198422 105.908088 52.953629 C 105.908088 23.708835 82.199753 0.000500185 52.954959 0.000500185 Z M 52.954959 0.000500185 " stroke="#ffffff" stroke-width="14" stroke-opacity="1" stroke-miterlimit="4"/></g></g><g clip-path="url(#8820740f5d)"><g clip-path="url(#1822b69083)"><path fill="#326ce5" d="M 106.183594 47.234375 L 185.621094 47.234375 L 185.621094 126.671875 L 106.183594 126.671875 Z M 106.183594 47.234375 " fill-opacity="1" fill-rule="nonzero"/></g></g><g clip-path="url(#8c20bc95fb)"><g clip-path="url(#7f0be1c023)"><path stroke-linecap="butt" transform="matrix(0.75, 0, 0, 0.75, 106.185034, 47.234877)" fill="none" stroke-linejoin="miter" d="M 52.951209 -0.000669198 C 23.706415 -0.000669198 -0.0019197 23.707666 -0.0019197 52.952459 C -0.0019197 82.197253 23.706415 105.905588 52.951209 105.905588 C 82.196002 105.905588 105.904337 82.197253 105.904337 52.952459 C 105.904337 23.707666 82.196002 -0.000669198 52.951209 -0.000669198 Z M 52.951209 -0.000669198 " stroke="#ffffff" stroke-width="14" stroke-opacity="1" stroke-miterlimit="4"/></g></g><g clip-path="url(#f9ee5bd39e)"><g clip-path="url(#e8ea0e95d1)"><path fill="#326ce5" d="M 27.828125 126.671875 L 107.265625 126.671875 L 107.265625 206.105469 L 27.828125 206.105469 Z M 27.828125 126.671875 " fill-opacity="1" fill-rule="nonzero"/></g></g><g clip-path="url(#860dfb7024)"><g clip-path="url(#379dde667b)"><path stroke-linecap="butt" transform="matrix(0.75, 0, 0, 0.75, 27.828758, 126.6707)" fill="none" stroke-linejoin="miter" d="M 52.952284 0.00156602 C 23.707491 0.00156602 -0.000844257 23.709901 -0.000844257 52.954695 C -0.000844257 82.199488 23.707491 105.907823 52.952284 105.907823 C 82.197078 105.907823 105.905413 82.199488 105.905413 52.954695 C 105.905413 23.709901 82.197078 0.00156602 52.952284 0.00156602 Z M 52.952284 0.00156602 " stroke="#ffffff" stroke-width="14" stroke-opacity="1" stroke-miterlimit="4"/></g></g><g clip-path="url(#51f35d45ee)"><g clip-path="url(#57adab647c)"><path fill="#326ce5" d="M 112.644531 176.53125 L 214.488281 176.53125 L 214.488281 278.375 L 112.644531 278.375 Z M 112.644531 176.53125 " fill-opacity="1" fill-rule="nonzero"/></g></g><g clip-path="url(#8144ef95d8)"><g clip-path="url(#ca28ba13a2)"><path stroke-linecap="butt" transform="matrix(0.75, 0, 0, 0.75, 112.645603, 176.532176)" fill="none" stroke-linejoin="miter" d="M 67.889201 -0.00123414 C 30.394407 -0.00123414 -0.0014286 30.394601 -0.0014286 67.889395 C -0.0014286 105.384189 30.394407 135.780025 67.889201 135.780025 C 105.383995 135.780025 135.77983 105.384189 135.77983 67.889395 C 135.77983 30.394601 105.383995 -0.00123414 67.889201 -0.00123414 Z M 67.889201 -0.00123414 " stroke="#ffffff" stroke-width="14" stroke-opacity="1" stroke-miterlimit="4"/></g></g><g clip-path="url(#4424c86af5)"><g clip-path="url(#a1e3e7b768)"><path fill="#326ce5" d="M 91.03125 115.46875 L 192.871094 115.46875 L 192.871094 217.308594 L 91.03125 217.308594 Z M 91.03125 115.46875 " fill-opacity="1" fill-rule="nonzero"/></g></g><g clip-path="url(#70a792d598)"><g clip-path="url(#d710cddccc)"><path stroke-linecap="butt" transform="matrix(0.75, 0, 0, 0.75, 91.029433, 115.467626)" fill="none" stroke-linejoin="miter" d="M 67.893052 0.00149864 C 30.398258 0.00149864 0.00242277 30.397334 0.00242277 67.892128 C 0.00242277 105.386922 30.398258 135.782758 67.893052 135.782758 C 105.387846 135.782758 135.783682 105.386922 135.783682 67.892128 C 135.783682 30.397334 105.387846 0.00149864 67.893052 0.00149864 Z M 67.893052 0.00149864 " stroke="#ffffff" stroke-width="14" stroke-opacity="1" stroke-miterlimit="4"/></g></g><g clip-path="url(#21097e5a4f)"><g clip-path="url(#bc66c53ab4)"><path fill="#326ce5" d="M 148.609375 87.15625 L 250.449219 87.15625 L 250.449219 189 L 148.609375 189 Z M 148.609375 87.15625 " fill-opacity="1" fill-rule="nonzero"/></g></g><g clip-path="url(#fea2df5edd)"><g clip-path="url(#449d5641e7)"><path stroke-linecap="butt" transform="matrix(0.75, 0, 0, 0.75, 148.608422, 87.158037)" fill="none" stroke-linejoin="miter" d="M 67.8919 -0.00238224 C 30.397106 -0.00238224 0.00127074 30.393453 0.00127074 67.888247 C 0.00127074 105.383041 30.397106 135.778877 67.8919 135.778877 C 105.386694 135.778877 135.78253 105.383041 135.78253 67.888247 C 135.78253 30.393453 105.386694 -0.00238224 67.8919 -0.00238224 Z M 67.8919 -0.00238224 " stroke="#ffffff" stroke-width="14" stroke-opacity="1" stroke-miterlimit="4"/></g></g><g clip-path="url(#4005645469)"><g clip-path="url(#42590d00eb)"><path fill="#326ce5" d="M 185.621094 125.609375 L 287.460938 125.609375 L 287.460938 227.453125 L 185.621094 227.453125 Z M 185.621094 125.609375 " fill-opacity="1" fill-rule="nonzero"/></g></g><g clip-path="url(#6c4b13d61b)"><g clip-path="url(#94eb477cca)"><path stroke-linecap="butt" transform="matrix(0.75, 0, 0, 0.75, 185.620862, 125.611209)" fill="none" stroke-linejoin="miter" d="M 67.890939 -0.00244474 C 30.396144 -0.00244474 0.000309119 30.393391 0.000309119 67.888185 C 0.000309119 105.382979 30.396144 135.778814 67.890939 135.778814 C 105.385733 135.778814 135.781568 105.382979 135.781568 67.888185 C 135.781568 30.393391 105.385733 -0.00244474 67.890939 -0.00244474 Z M 67.890939 -0.00244474 " stroke="#ffffff" stroke-width="14" stroke-opacity="1" stroke-miterlimit="4"/></g></g><g clip-path="url(#f3c57950b1)"><g clip-path="url(#8aeeaab0fa)"><path fill="#326ce5" d="M 165.671875 176.53125 L 267.511719 176.53125 L 267.511719 278.375 L 165.671875 278.375 Z M 165.671875 176.53125 " fill-opacity="1" fill-rule="nonzero"/></g></g><g clip-path="url(#920e348ce1)"><g clip-path="url(#a19a2ea39e)"><path stroke-linecap="butt" transform="matrix(0.75, 0, 0, 0.75, 165.671698, 176.532176)" fill="none" stroke-linejoin="miter" d="M 67.890865 -0.00123414 C 30.396071 -0.00123414 0.000235439 30.394601 0.000235439 67.889395 C 0.000235439 105.384189 30.396071 135.780025 67.890865 135.780025 C 105.385659 135.780025 135.781494 105.384189 135.781494 67.889395 C 135.781494 30.394601 105.385659 -0.00123414 67.890865 -0.00123414 Z M 67.890865 -0.00123414 " stroke="#ffffff" stroke-width="14" stroke-opacity="1" stroke-miterlimit="4"/></g></g><g clip-path="url(#5b41c2463e)"><g clip-path="url(#74d2cd78a6)"><path fill="#ffffff" d="M 116.890625 106.117188 L 257.046875 106.117188 L 257.046875 249.011719 L 116.890625 249.011719 Z M 116.890625 106.117188 " fill-opacity="1" fill-rule="nonzero"/></g></g><g clip-path="url(#1cf64487c0)"><g clip-path="url(#34ad10908d)"><path fill="#fbfcfe" d="M 65.777344 166.1875 L 305.65625 166.1875 L 305.65625 271.882812 L 65.777344 271.882812 Z M 65.777344 166.1875 " fill-opacity="1" fill-rule="nonzero"/></g></g><path fill="#326ce5" d="M 204.390625 158.800781 L 196.890625 158.800781 L 196.890625 175.300781 L 204.390625 175.300781 C 207.390625 175.300781 210.390625 173.050781 210.390625 167.800781 C 210.390625 163.300781 208.890625 158.800781 204.390625 158.800781 Z M 204.390625 158.800781 " fill-opacity="1" fill-rule="nonzero"/><g clip-path="url(#137e750ebe)"><path fill="#326ce5" d="M 186.390625 112.300781 C 153.390625 112.300781 126.390625 139.300781 126.390625 172.300781 C 126.390625 217.300781 186.390625 262.300781 186.390625 262.300781 C 186.390625 262.300781 246.390625 217.300781 246.390625 172.300781 C 246.390625 139.300781 219.390625 112.300781 186.390625 112.300781 Z M 174.390625 202.300781 L 163.890625 202.300781 L 163.890625 149.800781 L 174.390625 149.800781 Z M 204.390625 183.550781 L 196.890625 183.550781 L 196.890625 202.300781 L 186.390625 202.300781 L 186.390625 149.800781 L 204.390625 149.800781 C 214.890625 149.800781 221.640625 157.300781 221.640625 167.050781 C 221.640625 176.050781 216.390625 183.550781 204.390625 183.550781 Z M 204.390625 183.550781 " fill-opacity="1" fill-rule="nonzero"/></g></svg>