<?xml version="1.0" encoding="utf-8"?>
<!-- Generator: Adobe Illustrator 26.2.1, SVG Export Plug-In . SVG Version: 6.00 Build 0)  -->
<svg version="1.1" id="Layer_1" xmlns="http://www.w3.org/2000/svg" xmlns:xlink="http://www.w3.org/1999/xlink" x="0px" y="0px"
	 viewBox="0 0 256 256" style="enable-background:new 0 0 256 256;" xml:space="preserve">
<style type="text/css">
	.st0{fill:#326CE5;}
	.st1{fill:#FFFFFF;}
</style>
<g id="path3055_00000119110978571964278830000007952254078645782184_">
	<path class="st0" d="M127.5,19c-2,0.1-3.9,0.6-5.7,1.4L43.6,57.8c-4.1,2-7.1,5.7-8.1,10.1l-19.3,83.9c-0.9,3.9-0.2,8,2,11.4
		c0.3,0.4,0.5,0.8,0.8,1.2l54.1,67.3c2.8,3.5,7.1,5.6,11.7,5.6l86.8,0c4.5,0,8.8-2,11.7-5.6l54.1-67.3c2.8-3.5,3.9-8.1,2.9-12.5
		L221,67.9c-1-4.4-4-8.1-8.1-10.1l-78.2-37.3C132.5,19.4,130,18.9,127.5,19z"/>
</g>
<g>
	<g>
		<g>
			<path class="st1" d="M190.5,131.3c-0.4,7-2.6,13.1-6.7,18.2c-8.1,10.1-23.7,15.9-43.8,16.5c-0.1,0-3.7,0.4-9.7,0.4
				c-3.1,0-6.9-0.1-11.2-0.4l-2.8-0.2c-0.3,0.4-0.6,0.8-1,1.1c-1.2,1.1-2.8,1.7-4.5,1.7c-0.4,0-0.7,0-1.1-0.1l-18-3.2
				c-1.8-0.3-2.9-1-3.7-1.9l-3.9-1.8c-2.1-0.9-8.2-4.5-11.3-14c-1.8,1.7-4.4,4.4-7.8,8.9c-7.5,9.7-1.5,18.2,6.2,21.1l19.2,7.2
				c16.2,6,34.2,5.1,49.7-2.5l6-3l7.9-5.4c2.4-1.7,5.2-2.8,8-3.5c19.6-5.1,33.1-15.4,33.1-27.3C195.1,138.9,193.5,135,190.5,131.3z"
				/>
		</g>
	</g>
	<g>
		<g>
			<path class="st1" d="M103,86.8c4.7-6.7,11-11.4,16.1-15.8c-16.3,3.9-33.2,13-40.5,33.3c-14.9,41.6,3.1,51.5,5.8,52.8
				c-0.4-1.3-0.4-2.7-0.3-3.6C85.1,118.3,94.9,98.2,103,86.8z"/>
		</g>
	</g>
	<g>
		<g>
			<path class="st1" d="M186.8,118.2c-3.3-17.8-13.9-34.4-29-42.1l-2.2,0.5c-0.4,0.1-38.2,10-36.6,82.6c0,0.7-0.1,1.4-0.3,2
				c12.5,0.8,20.7,0,20.7,0C166.7,160.5,192.7,149.5,186.8,118.2z"/>
		</g>
	</g>
	<g>
		<path class="st1" d="M114.6,159.3c-1.6-75.8,38.5-85,38.5-85c-5.1-5.6-10.6-6.8-13.4-6.8c-20.8,0-49.5,26.2-51.3,87
			c-0.1,3.4-0.3,5.6,3.1,6.1l18,3.2C112.3,164.3,114.7,162.1,114.6,159.3z"/>
	</g>
</g>
<g id="path3055_00000084519076220118368250000008029945589903339433_">
	<path class="st0" d="M85.9,252.5v-7.2l21.5,0v7.2L85.9,252.5z M128.9,252.4v-7.2l21.5,0v7.2L128.9,252.4z M176.2,252.4h-4.4v-7.2
		h4.4c4,0,7.7-1.8,10.2-4.8l1.4-1.8l5.6,4.5l-1.4,1.8C188.2,249.7,182.4,252.4,176.2,252.4z M63.8,244.3l-13.5-16.7L56,223
		l13.5,16.7L63.8,244.3z M206.9,226.4l-5.6-4.5l13.5-16.8l5.6,4.5L206.9,226.4z M36.9,210.8L23.4,194l5.6-4.5l13.5,16.7L36.9,210.8z
		 M233.8,192.9l-5.6-4.5l13.5-16.8l5.6,4.5L233.8,192.9z M10,177.3l-5.6-6.9c-2.8-3.5-4.4-8-4.4-12.5c0-0.6,0-1.2,0.1-1.9l7.2,0.7
		c0,0.4-0.1,0.8-0.1,1.2c0,2.9,1,5.8,2.8,8l5.6,6.9L10,177.3z M248.9,155.5l3.5-0.7l-3.6,0.2l-4.7-20.3l7-1.6l4.8,21.1L248.9,155.5z
		 M11.9,136.2l-7-1.6l4.8-20.9l7,1.6L11.9,136.2z M239.3,113.8l-4.8-20.9l7-1.6l4.8,20.9L239.3,113.8z M21.5,94.3l-7-1.6l4.8-20.9
		l7,1.6L21.5,94.3z M229.7,71.9l-2.3-9.8c-0.7-2.9-2.4-5.5-4.7-7.3L227,49c3.7,2.8,6.3,6.9,7.4,11.4l2.3,9.8L229.7,71.9z M32.8,55.5
		l-4.9-5.3c1.5-1.3,3.1-2.4,4.9-3.3l15-7.2l3.1,6.5l-15,7.2C34.7,53.9,33.7,54.6,32.8,55.5z M204.1,45.6l-19.4-9.3l3.1-6.5l19.4,9.3
		L204.1,45.6z M70.3,36.9l-3.1-6.5l19.4-9.3l3.1,6.5L70.3,36.9z M165.3,27l-19.4-9.3l3.1-6.5l19.4,9.3L165.3,27z M109.1,18.4
		l-3.1-6.5l13.4-6.4c2.4-1.2,5-1.8,7.7-2l0.6,7.2l-0.2,0c-1.7,0.1-3.4,0.5-5,1.3L109.1,18.4z"/>
</g>
</svg>
