<?xml version="1.0" encoding="utf-8"?>
<!-- Generator: Adobe Illustrator 26.2.1, SVG Export Plug-In . SVG Version: 6.00 Build 0)  -->
<svg version="1.1" id="Layer_1" xmlns="http://www.w3.org/2000/svg" xmlns:xlink="http://www.w3.org/1999/xlink" x="0px" y="0px"
	 viewBox="0 0 256 256" style="enable-background:new 0 0 256 256;" xml:space="preserve">
<style type="text/css">
	.st0{fill:#326CE5;}
	.st1{fill:#FFFFFF;}
</style>
<g id="path3055_00000083770755203819117840000007807924303560556988_">
	<path class="st0" d="M127.5,19c-2,0.1-3.9,0.6-5.7,1.4L43.6,57.8c-4.1,2-7.1,5.7-8.1,10.1l-19.3,83.9c-0.9,3.9-0.2,8,2,11.4
		c0.3,0.4,0.5,0.8,0.8,1.2l54.1,67.3c2.8,3.5,7.1,5.6,11.7,5.6l86.8,0c4.5,0,8.8-2,11.7-5.6l54.1-67.3c2.8-3.5,3.9-8.1,2.9-12.5
		L221,67.9c-1-4.4-4-8.1-8.1-10.1l-78.2-37.3C132.5,19.4,130,18.9,127.5,19z"/>
</g>
<g id="path3055_00000006676092900438765940000011310390705739904160_">
	<path class="st0" d="M85.9,252.5v-7.2l21.5,0v7.2L85.9,252.5z M128.9,252.4v-7.2l21.5,0v7.2L128.9,252.4z M176.3,252.4h-4.3v-7.2
		h4.3c4,0,7.7-1.8,10.2-4.8l1.4-1.8l5.6,4.5l-1.4,1.8C188.2,249.7,182.4,252.4,176.3,252.4z M63.8,244.3l-13.5-16.7L56,223
		l13.5,16.7L63.8,244.3z M206.9,226.4l-5.6-4.5l13.5-16.8l5.6,4.5L206.9,226.4z M36.9,210.8l-13.5-16.7l5.6-4.5l13.5,16.7
		L36.9,210.8z M233.9,192.9l-5.6-4.5l13.5-16.7l5.6,4.5L233.9,192.9z M10,177.3l-5.6-6.9c-2.8-3.5-4.4-8-4.4-12.5
		c0-0.6,0-1.2,0.1-1.9l7.2,0.7c0,0.4-0.1,0.8-0.1,1.2c0,2.9,1,5.8,2.8,8l5.6,6.9L10,177.3z M248.9,155.6l3.5-0.7l-3.6,0.1l-4.7-20.3
		l7-1.6l4.8,21.1L248.9,155.6z M11.9,136.2l-7-1.6l4.8-20.9l7,1.6L11.9,136.2z M239.3,113.8l-4.8-20.9l7-1.6l4.8,20.9L239.3,113.8z
		 M21.5,94.3l-7-1.6l4.8-20.9l7,1.6L21.5,94.3z M229.7,71.9l-2.3-9.8c-0.7-2.9-2.4-5.5-4.7-7.3L227,49c3.7,2.8,6.3,6.9,7.4,11.4
		l2.3,9.8L229.7,71.9z M32.8,55.5l-4.9-5.3c1.5-1.3,3.1-2.4,4.9-3.3l15-7.2l3.1,6.5l-15,7.2C34.7,53.9,33.7,54.6,32.8,55.5z
		 M204.1,45.6l-19.4-9.3l3.1-6.5l19.4,9.3L204.1,45.6z M70.3,36.9l-3.1-6.5l19.4-9.3l3.1,6.5L70.3,36.9z M165.3,27l-19.4-9.3
		l3.1-6.5l19.4,9.3L165.3,27z M109.1,18.4l-3.1-6.5l13.4-6.4c2.4-1.2,5-1.8,7.7-2l0.6,7.2l-0.2,0c-1.7,0.1-3.4,0.5-5,1.3L109.1,18.4
		z"/>
</g>
<g>
	<g>
		<g>
			<g>
				<path class="st1" d="M180.2,80.7c-11-11-28.9-11-40,0l-23.6,23.6c-11.4,11.4-10.4,29.6,0,40c1.7,1.7,3.7,3.1,5.7,4.3l4.3-4.3
					c2.8-2.8,1.8-6.1,1.8-8.5c-0.6-0.4-1.2-0.9-1.8-1.5c-5.3-5.3-5.6-14.4,0-20c0.8-0.8,23.1-23.1,23.6-23.6c5.5-5.5,14.5-5.5,20,0
					s5.5,14.5,0,20l-15.6,15.6c0.5,2.5,3.2,8.4,1.8,18.2c0.1-0.1,0.1-0.1,0.2-0.2l23.6-23.6C191.2,109.6,191.2,91.7,180.2,80.7z"/>
			</g>
		</g>
	</g>
	<g>
		<g>
			<g>
				<path class="st1" d="M141.6,119.3c-1.7-1.7-3.7-3.1-5.7-4.3l-4.3,4.3c-2.8,2.8-1.8,6.1-1.8,8.5c0.6,0.4,1.2,0.9,1.8,1.5
					c5.3,5.3,5.6,14.4,0,20c-0.8,0.8-25,25-25.4,25.4c-5.5,5.5-14.5,5.5-20,0c-5.5-5.5-5.5-14.5,0-20l17.4-17.4
					c-0.5-2.5-3.2-8.4-1.8-18.2c-0.1,0.1-0.1,0.1-0.2,0.2l-25.4,25.4c-11,11-11,28.9,0,40c11,11,28.9,11,40,0l25.4-25.4
					C152.8,148,152.2,129.9,141.6,119.3z"/>
			</g>
		</g>
	</g>
</g>
</svg>
