<?xml version="1.0" encoding="utf-8"?>
<!-- Generator: Adobe Illustrator 26.2.1, SVG Export Plug-In . SVG Version: 6.00 Build 0)  -->
<svg version="1.1" id="Layer_1" xmlns="http://www.w3.org/2000/svg" xmlns:xlink="http://www.w3.org/1999/xlink" x="0px" y="0px"
	 viewBox="0 0 512 512" style="enable-background:new 0 0 512 512;" xml:space="preserve">
<style type="text/css">
	.st0{fill:#326CE5;}
	.st1{fill:#FFFFFF;}
</style>
<g>
	<g>
		<g>
			<rect x="0" class="st0" width="512" height="512"/>
		</g>
	</g>
	<g id="g3052_00000127037952029048423530000006794400211746877346_">
		<g id="path3055_00000075152118705634497100000009725147986405139122_">
			<path class="st1" d="M251.9,60.4c-3.3,0.2-6.5,1-9.5,2.4l-129.6,61.9c-6.8,3.2-11.7,9.4-13.4,16.7l-32,139.1
				c-1.5,6.5-0.3,13.3,3.4,18.8c0.4,0.7,0.9,1.3,1.4,2l89.7,111.5c4.7,5.8,11.8,9.2,19.4,9.2l143.8,0c7.5,0,14.7-3.4,19.4-9.2
				l89.6-111.5c4.7-5.8,6.5-13.5,4.8-20.8l-32-139.1c-1.7-7.3-6.6-13.4-13.4-16.7L263.9,62.8C260.2,61,256,60.2,251.9,60.4z"/>
		</g>
		<g id="path3059_00000031921291405734773660000012851196061929861779_">
			<path class="st0" d="M253.2,107.7c-4.3,0-7.8,3.9-7.8,8.6c0,0.1,0,0.1,0,0.2c0,0.6,0,1.4,0,2c0.1,2.7,0.7,4.8,1.1,7.4
				c0.7,5.4,1.2,9.9,0.9,14.1c-0.3,1.6-1.5,3-2.5,4l-0.2,3.3c-4.7,0.4-9.3,1.1-14,2.2c-20.1,4.6-37.5,14.9-50.7,28.9
				c-0.9-0.6-2.4-1.7-2.8-2c-1.4,0.2-2.8,0.6-4.6-0.4c-3.5-2.3-6.6-5.6-10.5-9.4c-1.8-1.9-3-3.6-5.1-5.4c-0.5-0.4-1.2-1-1.7-1.4
				c-1.6-1.3-3.5-2-5.4-2c-2.4-0.1-4.7,0.9-6.2,2.7c-2.7,3.3-1.8,8.5,1.9,11.4c0,0,0.1,0.1,0.1,0.1c0.5,0.4,1.1,0.9,1.6,1.3
				c2.2,1.6,4.2,2.5,6.4,3.8c4.6,2.9,8.5,5.2,11.5,8.1c1.2,1.3,1.4,3.5,1.6,4.5l2.5,2.2c-13.3,20-19.5,44.8-15.8,70l-3.2,0.9
				c-0.9,1.1-2.1,2.8-3.3,3.4c-4,1.3-8.5,1.7-13.9,2.3c-2.5,0.2-4.7,0.1-7.4,0.6c-0.6,0.1-1.4,0.3-2.1,0.5c0,0,0,0-0.1,0
				c0,0-0.1,0-0.1,0c-4.6,1.1-7.5,5.3-6.6,9.4c0.9,4.1,5.4,6.7,10,5.7c0,0,0.1,0,0.1,0c0.1,0,0.1,0,0.1,0c0.6-0.1,1.4-0.3,2-0.4
				c2.7-0.7,4.6-1.8,7-2.7c5.1-1.8,9.4-3.4,13.5-4c1.7-0.1,3.6,1.1,4.5,1.6l3.4-0.6c7.8,24.1,24.1,43.6,44.7,55.8l-1.4,3.4
				c0.5,1.3,1.1,3.1,0.7,4.4c-1.5,3.9-4.1,8-7,12.6c-1.4,2.1-2.9,3.8-4.2,6.2c-0.3,0.6-0.7,1.5-1,2.1c-2,4.3-0.5,9.2,3.3,11
				c3.9,1.9,8.6-0.1,10.7-4.4c0,0,0,0,0,0c0,0,0,0,0,0c0.3-0.6,0.7-1.4,1-2c1.1-2.5,1.5-4.7,2.2-7.1c2.1-5.2,3.2-10.6,6-13.9
				c0.8-0.9,2-1.3,3.3-1.6l1.8-3.2c18,6.9,38.1,8.8,58.3,4.2c4.6-1,9-2.4,13.3-4c0.5,0.9,1.4,2.6,1.7,3c1.3,0.4,2.8,0.7,4,2.4
				c2.1,3.6,3.6,7.9,5.3,13c0.8,2.4,1.2,4.6,2.3,7.1c0.3,0.6,0.7,1.4,1,2c2.1,4.3,6.9,6.2,10.7,4.4c3.8-1.8,5.3-6.8,3.3-11
				c-0.3-0.6-0.7-1.5-1-2.1c-1.3-2.4-2.7-4.1-4.2-6.2c-2.9-4.6-5.4-8.4-6.9-12.3c-0.6-2,0.1-3.3,0.6-4.6c-0.3-0.3-0.9-2.2-1.3-3.1
				c21.5-12.7,37.3-32.9,44.7-56.2c1,0.2,2.7,0.5,3.3,0.6c1.2-0.8,2.2-1.8,4.3-1.6c4.1,0.6,8.4,2.1,13.5,4c2.4,0.9,4.3,2,7,2.7
				c0.6,0.2,1.4,0.3,2,0.4c0.1,0,0.1,0,0.1,0c0,0,0.1,0,0.1,0c4.6,1,9.1-1.5,10-5.7c0.9-4.1-2-8.3-6.6-9.4c-0.7-0.2-1.6-0.4-2.3-0.5
				c-2.7-0.5-4.9-0.4-7.4-0.6c-5.4-0.6-9.9-1-13.9-2.3c-1.6-0.6-2.8-2.6-3.3-3.4l-3.1-0.9c1.6-11.7,1.2-24-1.6-36.2
				c-2.8-12.3-7.8-23.6-14.5-33.6c0.8-0.7,2.3-2.1,2.8-2.5c0.1-1.4,0-2.9,1.5-4.4c3-2.9,6.9-5.2,11.5-8.1c2.2-1.3,4.2-2.1,6.4-3.8
				c0.5-0.4,1.2-1,1.7-1.4c3.7-3,4.6-8.1,1.9-11.4c-2.7-3.3-7.8-3.7-11.6-0.7c-0.5,0.4-1.2,1-1.7,1.4c-2.1,1.8-3.4,3.6-5.1,5.4
				c-3.8,3.9-7,7.1-10.5,9.5c-1.5,0.9-3.7,0.6-4.7,0.5l-2.9,2.1c-16.8-17.6-39.7-28.9-64.4-31.1c-0.1-1-0.2-2.9-0.2-3.5
				c-1-1-2.2-1.8-2.5-3.9c-0.3-4.2,0.2-8.7,0.9-14.1c0.4-2.5,1-4.6,1.1-7.4c0-0.6,0-1.5,0-2.2C260.9,111.6,257.5,107.7,253.2,107.7
				L253.2,107.7z M243.5,167.9l-2.3,40.7l-0.2,0.1c-0.2,3.6-3.1,6.5-6.8,6.5c-1.5,0-2.9-0.5-4-1.3l-0.1,0l-33.4-23.6
				c10.3-10.1,23.4-17.5,38.5-21C238,168.7,240.7,168.2,243.5,167.9z M262.9,167.9c17.6,2.2,34,10.2,46.5,22.4l-33.1,23.5l-0.1,0
				c-2.9,2.1-7.1,1.6-9.4-1.3c-0.9-1.2-1.4-2.6-1.5-4l0,0L262.9,167.9z M184.6,205.4l30.5,27.2l0,0.2c2.7,2.4,3.2,6.5,0.9,9.4
				c-0.9,1.2-2.2,2-3.5,2.3l0,0.1l-39,11.3C171.3,237.8,175.6,220.2,184.6,205.4z M321.5,205.5c4.5,7.3,8,15.5,10,24.4
				c2,8.8,2.5,17.5,1.7,26L294,244.6l0-0.2c-3.5-1-5.7-4.5-4.9-8.1c0.3-1.5,1.1-2.7,2.2-3.6l0-0.1L321.5,205.5L321.5,205.5z
				 M246.9,234.8h12.5l7.8,9.7l-2.8,12.1l-11.2,5.4l-11.2-5.4l-2.8-12.1L246.9,234.8z M286.9,268c0.5,0,1.1,0,1.6,0.1l0.1-0.1
				l40.4,6.8c-5.9,16.6-17.2,31-32.3,40.6L281,277.6l0-0.1c-1.4-3.3,0-7.3,3.3-8.9C285.2,268.2,286.1,268,286.9,268L286.9,268z
				 M219.1,268.1c3.1,0,5.8,2.2,6.6,5.3c0.3,1.5,0.2,2.9-0.4,4.2l0.1,0.1l-15.5,37.5c-14.5-9.3-26.1-23.2-32.2-40.3l40-6.8l0.1,0.1
				C218.2,268.2,218.7,268.1,219.1,268.1L219.1,268.1z M252.9,284.5c1.1,0,2.2,0.2,3.2,0.7c1.4,0.7,2.4,1.7,3.1,2.9h0.1l19.7,35.7
				c-2.6,0.9-5.2,1.6-7.9,2.2c-15.1,3.4-30.1,2.4-43.8-2.3l19.7-35.6h0C248.3,286,250.6,284.6,252.9,284.5z"/>
		</g>
	</g>
</g>
</svg>
