<?xml version="1.0" encoding="utf-8"?>
<!-- Generator: Adobe Illustrator 26.2.1, SVG Export Plug-In . SVG Version: 6.00 Build 0)  -->
<svg version="1.1" id="Layer_1" xmlns="http://www.w3.org/2000/svg" xmlns:xlink="http://www.w3.org/1999/xlink" x="0px" y="0px"
	 viewBox="0 0 512 512" style="enable-background:new 0 0 512 512;" xml:space="preserve">
<style type="text/css">
	.st0{fill:#326CE5;}
	.st1{fill:#FFFFFF;}
</style>
<g>
	<g>
		<rect x="0" class="st0" width="512" height="512"/>
	</g>
</g>
<g>
	<g>
		<g>
			
				<rect x="245.1" y="235.9" transform="matrix(0.7071 -0.7071 0.7071 0.7071 -87.3541 270.0005)" class="st1" width="74.2" height="9.1"/>
		</g>
		<g>
			<g>
				<polygon class="st1" points="315.3,226.7 322.4,200.3 296,207.4 				"/>
			</g>
		</g>
	</g>
	<g>
		<g id="g3052_00000134946913429449074290000007509890132912215972_">
			<g id="path3055_00000105386727955412300650000004701140412225647002_">
				<path class="st1" d="M202.6,235.4c-1.3,0.1-2.5,0.4-3.7,0.9l-50.2,24c-2.6,1.3-4.5,3.6-5.2,6.5l-12.4,53.9
					c-0.6,2.5-0.1,5.1,1.3,7.3c0.2,0.3,0.4,0.5,0.5,0.8l34.8,43.2c1.8,2.3,4.6,3.6,7.5,3.6l55.7,0c2.9,0,5.7-1.3,7.5-3.6l34.7-43.2
					c1.8-2.3,2.5-5.2,1.9-8.1l-12.4-53.9c-0.7-2.8-2.6-5.2-5.2-6.5l-50.2-24C205.8,235.6,204.2,235.3,202.6,235.4z"/>
			</g>
			<g id="path3059_00000038384946736486241180000017141180126428656030_">
				<path class="st0" d="M203,253.7c-1.7,0-3,1.5-3,3.3c0,0,0,0.1,0,0.1c0,0.3,0,0.6,0,0.8c0,1.1,0.3,1.9,0.4,2.9
					c0.3,2.1,0.5,3.8,0.3,5.5c-0.1,0.6-0.6,1.2-1,1.6l-0.1,1.3c-1.8,0.1-3.6,0.4-5.4,0.8c-7.8,1.8-14.5,5.8-19.6,11.2
					c-0.3-0.2-0.9-0.6-1.1-0.8c-0.5,0.1-1.1,0.2-1.8-0.2c-1.3-0.9-2.6-2.2-4.1-3.7c-0.7-0.7-1.2-1.4-2-2.1c-0.2-0.2-0.5-0.4-0.7-0.5
					c-0.6-0.5-1.4-0.8-2.1-0.8c-0.9,0-1.8,0.3-2.4,1.1c-1,1.3-0.7,3.3,0.7,4.4c0,0,0,0,0,0c0.2,0.2,0.4,0.4,0.6,0.5
					c0.9,0.6,1.6,1,2.5,1.5c1.8,1.1,3.3,2,4.5,3.1c0.5,0.5,0.5,1.4,0.6,1.7l1,0.9c-5.2,7.8-7.5,17.3-6.1,27.1l-1.3,0.4
					c-0.3,0.4-0.8,1.1-1.3,1.3c-1.5,0.5-3.3,0.7-5.4,0.9c-1,0.1-1.8,0-2.9,0.2c-0.2,0-0.6,0.1-0.8,0.2c0,0,0,0,0,0c0,0,0,0,0,0
					c-1.8,0.4-2.9,2.1-2.5,3.7c0.4,1.6,2.1,2.6,3.9,2.2c0,0,0,0,0,0c0,0,0,0,0.1,0c0.2-0.1,0.6-0.1,0.8-0.2c1-0.3,1.8-0.7,2.7-1
					c2-0.7,3.6-1.3,5.2-1.5c0.7-0.1,1.4,0.4,1.7,0.6l1.3-0.2c3,9.3,9.3,16.9,17.3,21.6l-0.5,1.3c0.2,0.5,0.4,1.2,0.3,1.7
					c-0.6,1.5-1.6,3.1-2.7,4.9c-0.6,0.8-1.1,1.5-1.6,2.4c-0.1,0.2-0.3,0.6-0.4,0.8c-0.8,1.7-0.2,3.6,1.3,4.3c1.5,0.7,3.3,0,4.1-1.7
					c0,0,0,0,0,0c0,0,0,0,0,0c0.1-0.2,0.3-0.5,0.4-0.8c0.4-1,0.6-1.8,0.9-2.8c0.8-2,1.2-4.1,2.3-5.4c0.3-0.4,0.8-0.5,1.3-0.6
					l0.7-1.2c7,2.7,14.8,3.4,22.6,1.6c1.8-0.4,3.5-0.9,5.2-1.6c0.2,0.3,0.5,1,0.6,1.2c0.5,0.2,1.1,0.3,1.5,0.9
					c0.8,1.4,1.4,3.1,2.1,5.1c0.3,0.9,0.4,1.8,0.9,2.8c0.1,0.2,0.3,0.5,0.4,0.8c0.8,1.7,2.7,2.4,4.2,1.7c1.5-0.7,2.1-2.6,1.3-4.3
					c-0.1-0.2-0.3-0.6-0.4-0.8c-0.5-0.9-1.1-1.6-1.6-2.4c-1.1-1.8-2.1-3.3-2.7-4.8c-0.2-0.8,0-1.3,0.2-1.8c-0.1-0.1-0.4-0.9-0.5-1.2
					c8.3-4.9,14.4-12.7,17.3-21.8c0.4,0.1,1.1,0.2,1.3,0.2c0.5-0.3,0.9-0.7,1.7-0.6c1.6,0.2,3.3,0.8,5.2,1.5c0.9,0.4,1.7,0.8,2.7,1
					c0.2,0.1,0.5,0.1,0.8,0.2c0,0,0,0,0.1,0c0,0,0,0,0,0c1.8,0.4,3.5-0.6,3.9-2.2c0.4-1.6-0.8-3.2-2.5-3.7c-0.3-0.1-0.6-0.2-0.9-0.2
					c-1-0.2-1.9-0.1-2.9-0.2c-2.1-0.2-3.8-0.4-5.4-0.9c-0.6-0.2-1.1-1-1.3-1.3l-1.2-0.4c0.6-4.6,0.5-9.3-0.6-14
					c-1.1-4.8-3-9.2-5.6-13c0.3-0.3,0.9-0.8,1.1-1c0-0.5,0-1.1,0.6-1.7c1.2-1.1,2.7-2,4.5-3.1c0.9-0.5,1.6-0.8,2.5-1.5
					c0.2-0.1,0.5-0.4,0.7-0.5c1.4-1.2,1.8-3.1,0.7-4.4s-3-1.4-4.5-0.3c-0.2,0.2-0.5,0.4-0.7,0.5c-0.8,0.7-1.3,1.4-2,2.1
					c-1.5,1.5-2.7,2.8-4.1,3.7c-0.6,0.3-1.4,0.2-1.8,0.2l-1.1,0.8c-6.5-6.8-15.4-11.2-25-12.1c0-0.4-0.1-1.1-0.1-1.3
					c-0.4-0.4-0.9-0.7-1-1.5c-0.1-1.6,0.1-3.4,0.3-5.5c0.1-1,0.4-1.8,0.4-2.9c0-0.2,0-0.6,0-0.9C206.1,255.2,204.7,253.7,203,253.7
					L203,253.7z M199.3,277l-0.9,15.8l-0.1,0c-0.1,1.4-1.2,2.5-2.6,2.5c-0.6,0-1.1-0.2-1.6-0.5l0,0l-12.9-9.2
					c4-3.9,9.1-6.8,14.9-8.1C197.2,277.3,198.2,277.2,199.3,277z M206.8,277c6.8,0.8,13.2,3.9,18,8.7l-12.8,9.1l0,0
					c-1.1,0.8-2.7,0.6-3.6-0.5c-0.4-0.5-0.6-1-0.6-1.5l0,0L206.8,277z M176.5,291.6l11.8,10.6l0,0.1c1.1,0.9,1.2,2.5,0.3,3.6
					c-0.4,0.5-0.9,0.8-1.4,0.9l0,0.1l-15.1,4.4C171.3,304.1,173,297.3,176.5,291.6z M229.5,291.6c1.8,2.8,3.1,6,3.9,9.5
					c0.8,3.4,1,6.8,0.7,10.1l-15.2-4.4l0-0.1c-1.4-0.4-2.2-1.8-1.9-3.1c0.1-0.6,0.4-1.1,0.8-1.4l0,0L229.5,291.6L229.5,291.6z
					 M200.6,303h4.8l3,3.8l-1.1,4.7l-4.3,2.1l-4.4-2.1l-1.1-4.7L200.6,303z M216.1,315.8c0.2,0,0.4,0,0.6,0l0,0l15.7,2.6
					c-2.3,6.4-6.7,12-12.5,15.7l-6.1-14.7l0,0c-0.6-1.3,0-2.8,1.3-3.4C215.4,315.9,215.8,315.8,216.1,315.8L216.1,315.8z
					 M189.8,315.9c1.2,0,2.3,0.8,2.5,2.1c0.1,0.6,0.1,1.1-0.1,1.6l0,0.1l-6,14.5c-5.6-3.6-10.1-9-12.5-15.6l15.5-2.6l0,0
					C189.5,315.9,189.7,315.9,189.8,315.9L189.8,315.9z M203,322.3c0.4,0,0.8,0.1,1.2,0.3c0.5,0.3,0.9,0.7,1.2,1.1h0.1l7.6,13.8
					c-1,0.3-2,0.6-3.1,0.9c-5.8,1.3-11.7,0.9-17-0.9l7.6-13.8h0C201.2,322.8,202,322.3,203,322.3z"/>
			</g>
		</g>
	</g>
	<g id="path3055_00000059275964629704099150000017963850240783371708_">
		<path class="st1" d="M201.4,399.1V390l27.7,0v9.1L201.4,399.1z M256.9,399.1V390l27.7,0v9.1L256.9,399.1z M312.5,399l-0.6-9.1
			c4.1-0.2,7.9-2.2,10.4-5.3l7.4-9.3l7.1,5.7l-7.4,9.3C325.3,395.5,319.2,398.6,312.5,399z M176.1,382.4l-17.4-21.6l7.1-5.7
			l17.4,21.6L176.1,382.4z M354.3,359.4l-7.1-5.7l17.4-21.6l7.1,5.7L354.3,359.4z M141.4,339.2L124,317.6l7.1-5.7l17.4,21.6
			L141.4,339.2z M389,316.3l-7.1-5.7l9.2-11.4c2-2.5,3.1-5.7,3.1-8.9l9.1-0.4c0,5.7-1.8,10.9-5.1,15L389,316.3z M108.7,291.9
			c0-0.5-0.1-1.1-0.1-1.6c0-1.7,0.2-3.5,0.6-5.2l5-21.6l8.9,2l-5,21.6c-0.2,1-0.4,2.1-0.4,3.2l0,1L108.7,291.9z M388.5,263.8
			l-6.2-27l8.9-2.1l6.2,27L388.5,263.8z M129.3,238.5l-8.9-2l6.2-27l8.9,2L129.3,238.5z M376.1,209.8l-6.2-27l8.9-2.1l6.2,27
			L376.1,209.8z M141.7,184.5l-8.9-2.1l0.9-3.9c1.6-7,6.3-12.8,12.7-15.9l6.1-2.9l3.9,8.2l-6.1,2.9c-4,1.9-6.8,5.4-7.8,9.7
			L141.7,184.5z M353.9,167.2l-25-11.9l3.9-8.2l25,11.9L353.9,167.2z M181.5,156l-3.9-8.2l25-11.9l3.9,8.2L181.5,156z M303.9,143.3
			l-25-11.9l3.9-8.2l25,11.9L303.9,143.3z M231.5,132.1l-3.9-8.2l18.2-8.7c2.8-1.4,5.9-2.1,9-2.3l0.7,9.1l-0.3,0
			c-1.9,0.1-3.8,0.6-5.5,1.4L231.5,132.1z"/>
	</g>
</g>
</svg>
