<?xml version="1.0" encoding="utf-8"?>
<!-- Generator: Adobe Illustrator 26.2.1, SVG Export Plug-In . SVG Version: 6.00 Build 0)  -->
<svg version="1.1" id="Layer_1" xmlns="http://www.w3.org/2000/svg" xmlns:xlink="http://www.w3.org/1999/xlink" x="0px" y="0px"
	 viewBox="0 0 512 512" style="enable-background:new 0 0 512 512;" xml:space="preserve">
<style type="text/css">
	.st0{fill:#326CE5;}
	.st1{fill:none;stroke:#FFFFFF;stroke-width:2;stroke-linecap:round;stroke-miterlimit:10;}
	.st2{fill:#FFFFFF;}
</style>
<g>
	<g>
		<g>
			<rect class="st0" width="512" height="512"/>
		</g>
	</g>
	<g>
		<path class="st1" d="M131.3,253.4"/>
	</g>
	<g>
		<path class="st1" d="M380.7,253.4"/>
	</g>
	<g>
		<path class="st2" d="M256,220.6c-62.8,0-129.5-16.3-129.5-46.6c0-30.3,66.7-46.6,129.5-46.6s129.5,16.3,129.5,46.6
			C385.5,204.2,318.8,220.6,256,220.6z M256,136.9c-70.7,0-120,19.5-120,37s49.3,37,120,37c70.7,0,120-19.5,120-37
			S326.7,136.9,256,136.9z"/>
	</g>
	<g>
		<path class="st2" d="M380.7,174c0,23.1-55.8,41.8-124.7,41.8S131.3,197.1,131.3,174v150.1c0,23.1,55.8,41.8,124.7,41.8
			s124.7-18.7,124.7-41.8V174z"/>
		<path class="st2" d="M256,370.7c-62.8,0-129.5-16.3-129.5-46.6V174h9.5c0,17.5,49.3,37,120,37c70.7,0,120-19.5,120-37h9.5v150.1
			C385.5,354.4,318.8,370.7,256,370.7z M136,192.5v131.7c0,17.5,49.3,37,120,37c70.7,0,120-19.5,120-37V192.5
			c-20.6,18.4-71.5,28.1-120,28.1C207.5,220.6,156.7,210.8,136,192.5z"/>
	</g>
	<g>
		<path class="st0" d="M182.6,335c-0.4,0-0.9-0.1-1.3-0.2c-9.3-2.6-17.4-5.6-24.2-9c-2.4-1.2-3.3-4-2.2-6.4c1.2-2.4,4.1-3.3,6.4-2.2
			c6.3,3.1,13.9,5.9,22.6,8.4c2.5,0.7,4,3.3,3.3,5.9C186.6,333.6,184.7,335,182.6,335z"/>
	</g>
	<g>
		<path class="st0" d="M256,342.7c-15.9,0-31.5-1-46.1-2.9c-2.6-0.3-4.5-2.7-4.1-5.4c0.3-2.6,2.8-4.5,5.4-4.1
			c14.3,1.9,29.4,2.8,44.9,2.8c35.3,0,68.9-5.1,92.1-13.9c2.4-0.9,5.2,0.3,6.2,2.8c0.9,2.5-0.3,5.2-2.7,6.2
			C327.3,337.4,292.4,342.7,256,342.7z"/>
	</g>
	<g>
		<path class="st0" d="M182.6,246.1c-0.4,0-0.9-0.1-1.3-0.2c-9.2-2.6-17.4-5.6-24.2-9c-2.4-1.2-3.3-4-2.2-6.4
			c1.2-2.4,4.1-3.3,6.4-2.2c6.3,3.1,13.9,5.9,22.6,8.4c2.5,0.7,4,3.3,3.3,5.9C186.6,244.7,184.7,246.1,182.6,246.1z"/>
	</g>
	<g>
		<path class="st0" d="M256,253.8c-15.9,0-31.4-1-46.1-2.9c-2.6-0.3-4.4-2.7-4.1-5.4c0.3-2.6,2.8-4.5,5.4-4.1
			c14.3,1.9,29.4,2.8,44.9,2.8c35.3,0,68.9-5.1,92.1-13.9c2.4-0.9,5.2,0.3,6.2,2.8c0.9,2.5-0.3,5.2-2.7,6.2
			C327.3,248.5,292.4,253.8,256,253.8z"/>
	</g>
	<g>
		<path class="st0" d="M230.3,284c-0.1,0-0.2,0-0.3,0c-6.9-0.5-13.7-1.2-20.1-2c-2.6-0.3-4.5-2.7-4.1-5.4c0.3-2.6,2.8-4.4,5.4-4.1
			c6.3,0.8,12.8,1.5,19.6,2c2.6,0.2,4.6,2.5,4.4,5.1C234.9,282.1,232.8,284,230.3,284z"/>
	</g>
	<g>
		<path class="st0" d="M256,284.9c-2.6,0-4.8-2.1-4.8-4.8s2.1-4.8,4.8-4.8c35.3,0,68.9-5.1,92.1-13.9c2.4-0.9,5.2,0.3,6.2,2.8
			c0.9,2.5-0.3,5.2-2.7,6.2C327.3,279.6,292.4,284.9,256,284.9z"/>
	</g>
	<g>
		<path class="st0" d="M230.3,311.6c-0.1,0-0.2,0-0.3,0c-6.9-0.5-13.7-1.2-20.1-2c-2.6-0.3-4.5-2.7-4.1-5.4c0.3-2.6,2.8-4.5,5.4-4.1
			c6.3,0.8,12.8,1.5,19.6,2c2.6,0.2,4.6,2.5,4.4,5.1C234.9,309.7,232.8,311.6,230.3,311.6z"/>
	</g>
	<g>
		<path class="st0" d="M256,312.5c-2.6,0-4.8-2.1-4.8-4.8s2.1-4.8,4.8-4.8c35.3,0,68.9-5.1,92.1-13.9c2.4-0.9,5.2,0.3,6.2,2.8
			c0.9,2.5-0.3,5.2-2.7,6.2C327.3,307.2,292.4,312.5,256,312.5z"/>
	</g>
</g>
</svg>
