<?xml version="1.0" encoding="utf-8"?>
<!-- Generator: Adobe Illustrator 26.2.1, SVG Export Plug-In . SVG Version: 6.00 Build 0)  -->
<svg version="1.1" id="Layer_1" xmlns="http://www.w3.org/2000/svg" xmlns:xlink="http://www.w3.org/1999/xlink" x="0px" y="0px"
	 viewBox="0 0 512 512" style="enable-background:new 0 0 512 512;" xml:space="preserve">
<style type="text/css">
	.st0{fill:#326CE5;}
	.st1{fill:#FFFFFF;}
	.st2{fill:#526CB4;}
</style>
<g>
	<g>
		<rect x="0" class="st0" width="512" height="512"/>
	</g>
	<g>
		<path class="st1" d="M391.6,399.2H120.4c-13.7,0-24.9-11.2-24.9-24.9V257.7c0-13.7,11.2-24.9,24.9-24.9h271.1
			c13.7,0,24.9,11.2,24.9,24.9v116.6C416.4,388,405.3,399.2,391.6,399.2z M120.4,239.7c-9.9,0-18,8.1-18,18v116.6
			c0,9.9,8.1,18,18,18h271.1c9.9,0,18-8.1,18-18V257.7c0-9.9-8.1-18-18-18H120.4z"/>
	</g>
	<g>
		<line class="st2" x1="99" y1="317.1" x2="413" y2="317.1"/>
		<rect x="99" y="312.6" class="st1" width="314" height="9.1"/>
	</g>
	<g>
		<path class="st1" d="M379.6,282.8H295c-2.5,0-4.6-2-4.6-4.6s2-4.6,4.6-4.6h84.6c2.5,0,4.6,2,4.6,4.6S382.2,282.8,379.6,282.8z"/>
	</g>
	<g>
		<path class="st1" d="M379.6,361.3H295c-2.5,0-4.6-2-4.6-4.6s2-4.6,4.6-4.6h84.6c2.5,0,4.6,2,4.6,4.6S382.2,361.3,379.6,361.3z"/>
	</g>
	<g>
		<circle class="st1" cx="150.5" cy="274.8" r="15.8"/>
	</g>
	<g>
		<circle class="st1" cx="148.1" cy="356.7" r="15.8"/>
	</g>
	<g>
		<g>
			<g>
				<path class="st1" d="M265.1,94h-18.2V70.1h2.9c1.9,0,3.4-1.5,3.4-3.4s-1.5-3.4-3.4-3.4h-12.6c-1.9,0-3.4,1.5-3.4,3.4
					s1.5,3.4,3.4,3.4h2.9V94h-18.5c-6.4,0-11.5,5.2-11.5,11.5v4.8h-5.6c-5.9,0-10.7,4.8-10.7,10.7c0,5.3,3.9,9.7,9,10.6l8.6,40.6
					c-3.9,1.6-6.7,5.4-6.7,9.9c0,5.9,4.8,10.7,10.7,10.7h7.9v4.8c0,5.2,3.4,9.6,8.2,11v24.4c0,1.9,1.5,3.4,3.4,3.4
					c1.9,0,3.4-1.5,3.4-3.4V209h35.7v23.9c0,1.9,1.5,3.4,3.4,3.4s3.4-1.5,3.4-3.4v-24.4c4.7-1.4,8.2-5.8,8.2-11v-4.8h7.9
					c5.9,0,10.7-4.8,10.7-10.7c0-4.5-2.8-8.3-6.7-9.9l8.6-40.6c5.1-0.8,9-5.3,9-10.6c0-5.9-4.8-10.7-10.7-10.7l0,0h-5.6v-4.8
					c0-6.3-5.2-11.5-11.5-11.5h-18.5L265.1,94z M274.3,171.3l5.6-39.6h22.5l-8.4,39.6H274.3z M267.5,171.3h-22.9l-5.6-39.6h34.2
					L267.5,171.3z M232.1,131.7l5.6,39.6h-19.7l-8.4-39.6H232.1z M282,197.5c0,2.6-2.1,4.8-4.8,4.8h-42.5c-2.6,0-4.8-2.1-4.8-4.8
					v-4.8h52V197.5z M296.7,186h-81.4c-2.2,0-4-1.8-4-4c0-2.2,1.8-4,4-4c0,0,0,0,0,0c0,0,0,0,0,0h81.3c0,0,0,0,0,0c0,0,0,0,0,0
					c2.2,0,4,1.8,4,4C300.7,184.2,298.9,186,296.7,186L296.7,186z M271.2,117h36.3c2.2,0,4,1.8,4,4s-1.8,4-4,4H204.5
					c-2.2,0-4-1.8-4-4s1.8-4,4-4h36.3H271.2z M240.8,110.3h-24v-4.8c0-2.6,2.1-4.8,4.8-4.8h68.8c2.6,0,4.8,2.1,4.8,4.8v4.8h-24
					H240.8z"/>
			</g>
			<g>
				<path class="st1" d="M256,117L256,117"/>
			</g>
		</g>
	</g>
</g>
</svg>
