<?xml version="1.0" encoding="utf-8"?>
<!-- Generator: Adobe Illustrator 26.2.1, SVG Export Plug-In . SVG Version: 6.00 Build 0)  -->
<svg version="1.1" id="Layer_1" xmlns="http://www.w3.org/2000/svg" xmlns:xlink="http://www.w3.org/1999/xlink" x="0px" y="0px"
	 viewBox="0 0 512 512" style="enable-background:new 0 0 512 512;" xml:space="preserve">
<style type="text/css">
	.st0{fill:#326CE5;}
	.st1{fill:#FFFFFF;}
</style>
<g>
	<g>
		<rect x="0" class="st0" width="512" height="512"/>
	</g>
</g>
<g>
	<path class="st1" d="M367.7,116.9H224.6V79.7h-70.9v37.2h-21.4c-11.8,0-21.4,9.6-21.4,21.4v235.4c0,11.8,9.6,21.4,21.4,21.4h131.6
		v37.2h70.9v-37.2h32.9c11.8,0,21.4-9.6,21.4-21.4V138.3C389,126.5,379.5,116.9,367.7,116.9z"/>
</g>
<g>
	<path class="st1" d="M228.5,73.1h-79.7c-2.5,0-4.6-2-4.6-4.6c0-2.5,2-4.6,4.6-4.6h79.7c2.5,0,4.6,2,4.6,4.6
		C233,71,231,73.1,228.5,73.1z"/>
</g>
<g>
	<path class="st1" d="M340,448h-79.7c-2.5,0-4.6-2-4.6-4.6s2-4.6,4.6-4.6H340c2.5,0,4.6,2,4.6,4.6S342.6,448,340,448z"/>
</g>
<g>
	<g>
		<path class="st0" d="M341.9,283.2L303,255.3l38.8-27.9c0.8-0.6,1.4-1.7,1.4-2.9c0-1.2-0.6-2.4-1.4-2.9L256,160.2
			c-0.8-0.6-1.9-0.6-2.7,0l-85.8,61.6c-0.8,0.6-1.4,1.7-1.4,2.9v61.6c0,1.2,0.6,2.4,1.4,2.9l85.8,61.6c0.5,0.3,0.9,0.5,1.4,0.5
			c0.5,0,0.9-0.2,1.4-0.5l85.8-61.6c0.8-0.6,1.4-1.7,1.4-2.9C343.3,285,342.7,283.9,341.9,283.2L341.9,283.2z M287.2,258.9l-12-8.8
			l32.8-24.6l0.8-0.8l0.3-0.2l-16.8-12.3l12.4-9.3l30.1,21.5l-6.9,5.2L287.2,258.9z M238.8,178.5l12.1,8.8l-47.1,35.3l-13-9.5
			l3.6-2.7C194.3,210.3,238.8,178.5,238.8,178.5z M301.1,200.3l-12.4,9.3l-46.3-33.8l12.3-8.8L301.1,200.3z M258.3,237.9l30.4-22.8
			l13.1,9.5l-30.4,22.8C271.4,247.4,258.3,237.9,258.3,237.9z M267.7,250.1l-12.9,9.7l-47.4-34.6l47-35.3l30.7,22.4l-34,25.6
			C251.1,237.9,267.7,250.1,267.7,250.1z M187,215.8l13.1,9.5l-12.2,9.2l-13.2-9.4C174.7,225,187,215.8,187,215.8z M191.6,237.1
			l12.1-9.1l47.5,34.6l-11.6,8.8L191.6,237.1z M271.5,252.9l11.9,8.7l-28.7,20.7l-11.3-8.1L271.5,252.9L271.5,252.9z M171.5,230.5
			l34.6,24.8l-34.6,24.8C171.5,280.2,171.5,230.5,171.5,230.5z M254.7,343.8l-80.3-57.6l37.4-26.8l41.5,29.7
			c0.5,0.3,0.9,0.5,1.4,0.5h0.1l0.4,0.3l2-1.5l40.5-29.1l37.4,26.8L254.7,343.8z"/>
	</g>
	<g>
		<path class="st0" d="M254.7,353.5c-0.8,0-1.7-0.3-2.6-0.8l-86-61.7c-1.4-1-2.4-2.8-2.4-4.8v-61.6c0-2,0.9-3.8,2.4-4.8l85.8-61.5
			c1.7-1.1,3.7-1.1,5.3,0l85.9,61.5c1.4,1,2.4,2.8,2.4,4.8c0,2-0.9,3.8-2.4,4.8l-36.1,26l36.3,26c1.4,1.1,2.2,2.8,2.4,4.7
			c0,2.1-0.9,4-2.4,5l-85.8,61.5C256.4,353.2,255.5,353.5,254.7,353.5z M254.7,162l-85.9,61.6c-0.2,0.2-0.5,0.6-0.5,1.1v61.6
			c0,0.5,0.2,0.9,0.4,1l85.9,61.6l86-61.6c0.2-0.2,0.5-0.6,0.5-1.1c0-0.5-0.3-1-0.6-1.2l-41.3-29.7l41.4-29.7
			c0.2-0.2,0.5-0.6,0.5-1.1c0-0.5-0.2-0.9-0.4-1L254.7,162z M254.7,346.6l-84.3-60.4l41.3-29.6l43.1,30.7l0.9-0.7l41.9-30.1
			l41.3,29.6L254.7,346.6z M178.3,286.2l76.4,54.8l76.4-54.9l-33.5-24l-42.5,30.6l-1.3-0.9c-0.6-0.1-1.2-0.4-1.8-0.7l-40.4-28.9
			L178.3,286.2z M254.7,285.1l-15-10.8l0,0l-51.9-37.2h0l-16.9-12.1l16.1-12.1l0,0l5.9-4.5l45.6-32.7l0,0l16.2-11.6l50.2,36l0,0
			l33.8,24.1l-9.4,7.1l-42.1,30.3l0,0L254.7,285.1z M247.2,274.1l7.5,5.4l24.8-17.9l-8-5.8L247.2,274.1z M195.5,237.1l44.1,31.6
			l7.8-5.9l-43.6-31.8L195.5,237.1z M211.2,225.2l43.5,31.8l9.1-6.9l-16.6-12.3l34-25.6l-26.8-19.6L211.2,225.2z M279,250.1l8.2,6
			l43.7-31.6l-26.2-18.7l-8.6,6.5l17,12.4l-3.6,2.6L279,250.1z M262.1,237.8l9.3,6.7l26.6-20l-9.3-6.7L262.1,237.8z M178.6,225
			l9.3,6.7l8.4-6.3l-9.3-6.7L178.6,225z M194.5,213l9.2,6.7l43.3-32.4l-8.2-6L194.5,213z M246.3,175.9l42.3,30.9l8.5-6.4l-42.5-30.5
			L246.3,175.9z M169.2,284.6v-58.6l40.9,29.3L169.2,284.6z M173.8,235v40.8l28.4-20.4L173.8,235z"/>
	</g>
</g>
</svg>
