<?xml version="1.0" encoding="utf-8"?>
<!-- Generator: Adobe Illustrator 26.2.1, SVG Export Plug-In . SVG Version: 6.00 Build 0)  -->
<svg version="1.1" id="Layer_1" xmlns="http://www.w3.org/2000/svg" xmlns:xlink="http://www.w3.org/1999/xlink" x="0px" y="0px"
	 viewBox="0 0 512 512" style="enable-background:new 0 0 512 512;" xml:space="preserve">
<style type="text/css">
	.st0{fill:#326CE5;}
	.st1{fill:#FFFFFF;}
</style>
<g>
	<g>
		<rect x="0" class="st0" width="512" height="512"/>
	</g>
	<g>
		<g>
			<g>
				<g>
					<path class="st1" d="M394.2,354.9H227.4c-6.5,0-11.7-5.2-11.7-11.7V176.4c0-6.5,5.2-11.7,11.7-11.7h166.8
						c6.5,0,11.7,5.2,11.7,11.7v166.8C405.9,349.7,400.7,354.9,394.2,354.9z"/>
				</g>
				<g>
					<path class="st0" d="M363.2,204.7H258.5c-2.5,0-4.6-2-4.6-4.6c0-2.5,2-4.6,4.6-4.6h104.7c2.5,0,4.6,2,4.6,4.6
						C367.7,202.7,365.7,204.7,363.2,204.7z"/>
				</g>
				<g>
					<path class="st1" d="M186.3,227.4h-61.1c-4,0-7.3-3.3-7.3-7.3c0-4,3.3-7.3,7.3-7.3h61.1c4,0,7.3,3.3,7.3,7.3
						C193.6,224.2,190.3,227.4,186.3,227.4z"/>
				</g>
				<g>
					<path class="st1" d="M175.9,262H81.4c-4,0-7.3-3.3-7.3-7.3s3.3-7.3,7.3-7.3h94.6c4,0,7.3,3.3,7.3,7.3S180,262,175.9,262z"/>
				</g>
				<g>
					<path class="st1" d="M191.6,306.7h-82.5c-4,0-7.3-3.3-7.3-7.3c0-4,3.3-7.3,7.3-7.3h82.5c4,0,7.3,3.3,7.3,7.3
						C198.9,303.5,195.7,306.7,191.6,306.7z"/>
				</g>
				<g>
					<path class="st0" d="M363.2,244.8H258.5c-2.5,0-4.6-2-4.6-4.6c0-2.5,2-4.6,4.6-4.6h104.7c2.5,0,4.6,2,4.6,4.6
						C367.7,242.8,365.7,244.8,363.2,244.8z"/>
				</g>
				<g>
					<path class="st0" d="M363.2,283.8H258.5c-2.5,0-4.6-2-4.6-4.6s2-4.6,4.6-4.6h104.7c2.5,0,4.6,2,4.6,4.6
						S365.7,283.8,363.2,283.8z"/>
				</g>
				<g>
					<path class="st0" d="M363.2,323.9H258.5c-2.5,0-4.6-2-4.6-4.6s2-4.6,4.6-4.6h104.7c2.5,0,4.6,2,4.6,4.6
						S365.7,323.9,363.2,323.9z"/>
				</g>
			</g>
		</g>
		<g>
			<path class="st0" d="M346.1,254.8L294.8,225c-3.8-2.2-8.6,0.5-8.6,5v59.6c0,4.4,4.8,7.2,8.6,5l51.3-29.8
				C349.9,262.5,349.9,257,346.1,254.8z"/>
		</g>
	</g>
</g>
</svg>
