<?xml version="1.0" encoding="utf-8"?>
<!-- Generator: Adobe Illustrator 26.2.1, SVG Export Plug-In . SVG Version: 6.00 Build 0)  -->
<svg version="1.1" id="Layer_1" xmlns="http://www.w3.org/2000/svg" xmlns:xlink="http://www.w3.org/1999/xlink" x="0px" y="0px"
	 viewBox="0 0 512 512" style="enable-background:new 0 0 512 512;" xml:space="preserve">
<style type="text/css">
	.st0{fill:#FFFFFF;}
	.st1{fill:#326CE5;}
</style>
<g>
	<path class="st0" d="M340,448h-79.7c-2.5,0-4.6-2-4.6-4.6s2-4.6,4.6-4.6H340c2.5,0,4.6,2,4.6,4.6S342.6,448,340,448z"/>
</g>
<g>
	<g>
		<rect x="0" class="st1" width="512" height="512"/>
	</g>
</g>
<g>
	<path class="st0" d="M367.7,116.9H224.6V79.7h-70.9v37.2h-21.4c-11.8,0-21.4,9.6-21.4,21.4v235.4c0,11.8,9.6,21.4,21.4,21.4h131.6
		v37.2h70.9v-37.2h32.9c11.8,0,21.4-9.6,21.4-21.4V138.3C389,126.5,379.5,116.9,367.7,116.9z"/>
</g>
<g>
	<path class="st0" d="M228.5,73.1h-79.7c-2.5,0-4.6-2-4.6-4.6c0-2.5,2-4.6,4.6-4.6h79.7c2.5,0,4.6,2,4.6,4.6
		C233,71,231,73.1,228.5,73.1z"/>
</g>
<g>
	<path class="st0" d="M340,448h-79.7c-2.5,0-4.6-2-4.6-4.6c0-2.5,2-4.6,4.6-4.6H340c2.5,0,4.6,2,4.6,4.6
		C344.6,446,342.6,448,340,448z"/>
</g>
<g>
	<g>
		<rect x="187.9" y="167.5" class="st1" width="124.2" height="177"/>
	</g>
	<g>
		<polygon class="st0" points="266.6,217.3 266.6,248 209.1,248 209.1,326.5 290.8,326.5 290.8,266.9 290.8,248 290.8,217.3 		"/>
	</g>
	<g>
		<rect x="233.4" y="266.9" class="st1" width="33.2" height="37.5"/>
	</g>
</g>
</svg>
