<?xml version="1.0" encoding="utf-8"?>
<!-- Generator: Adobe Illustrator 26.2.1, SVG Export Plug-In . SVG Version: 6.00 Build 0)  -->
<svg version="1.1" id="Layer_1" xmlns="http://www.w3.org/2000/svg" xmlns:xlink="http://www.w3.org/1999/xlink" x="0px" y="0px"
	 viewBox="0 0 512 512" style="enable-background:new 0 0 512 512;" xml:space="preserve">
<style type="text/css">
	.st0{fill:#326CE5;}
	.st1{fill:#FFFFFF;}
</style>
<g>
	<g>
		<rect x="0" class="st0" width="512" height="512"/>
	</g>
</g>
<g>
	<g>
		<path class="st1" d="M204.8,373.5H103.5c-10.1,0-18.4-8.2-18.4-18.4V140.3c0-10.1,8.2-18.4,18.4-18.4h101.2
			c10.1,0,18.4,8.2,18.4,18.4v214.9C223.2,365.3,214.9,373.5,204.8,373.5z"/>
	</g>
	<g>
		<path class="st1" d="M368.4,331.6H245.1c-2.5,0-4.6-2-4.6-4.6s2-4.6,4.6-4.6h123.4c35.2,0,63.8-28.6,63.8-63.8
			s-28.6-63.8-63.8-63.8h-22.1c-2.5,0-4.6-2-4.6-4.6c0-2.5,2-4.6,4.6-4.6h22.1c40.2,0,72.9,32.7,72.9,72.9S408.7,331.6,368.4,331.6z
			"/>
	</g>
	<g>
		<path class="st1" d="M326.3,194.9h-29.2c-2.5,0-4.6-2-4.6-4.6c0-2.5,2-4.6,4.6-4.6h29.2c2.5,0,4.6,2,4.6,4.6
			C330.9,192.9,328.8,194.9,326.3,194.9z"/>
	</g>
	<g>
		<path class="st1" d="M277.6,194.9h-32.6c-2.5,0-4.6-2-4.6-4.6c0-2.5,2-4.6,4.6-4.6h32.6c2.5,0,4.6,2,4.6,4.6
			C282.2,192.9,280.2,194.9,277.6,194.9z"/>
	</g>
	<g>
		<rect x="212.8" y="172.4" class="st1" width="32.2" height="35.8"/>
	</g>
	<g>
		<rect x="212.8" y="309.1" class="st1" width="32.2" height="35.8"/>
	</g>
	<g>
		<path class="st1" d="M276,190.4"/>
	</g>
	<g>
		<circle class="st0" cx="117.6" cy="158.9" r="16.3"/>
	</g>
	<g>
		<path class="st0" d="M196.1,209.1h-48.4c-2.5,0-4.6-2-4.6-4.6s2-4.6,4.6-4.6h48.4c2.5,0,4.6,2,4.6,4.6S198.6,209.1,196.1,209.1z"
			/>
	</g>
	<g>
		<path class="st0" d="M196.1,230.3h-48.4c-2.5,0-4.6-2-4.6-4.6c0-2.5,2-4.6,4.6-4.6h48.4c2.5,0,4.6,2,4.6,4.6
			C200.6,228.3,198.6,230.3,196.1,230.3z"/>
	</g>
	<g>
		<path class="st1" d="M313.9,207.4c-1.2,0-2.3-0.4-3.2-1.3c-1.8-1.8-1.8-4.7,0-6.5l9.2-9.2l-9.2-9.2c-1.8-1.8-1.8-4.7,0-6.5
			s4.7-1.8,6.5,0l15.7,15.7L317.1,206C316.2,206.9,315.1,207.4,313.9,207.4z"/>
	</g>
</g>
</svg>
