<?xml version="1.0" encoding="utf-8"?>
<!-- Generator: Adobe Illustrator 26.2.1, SVG Export Plug-In . SVG Version: 6.00 Build 0)  -->
<svg version="1.1" id="Layer_1" xmlns="http://www.w3.org/2000/svg" xmlns:xlink="http://www.w3.org/1999/xlink" x="0px" y="0px"
	 viewBox="0 0 512 512" style="enable-background:new 0 0 512 512;" xml:space="preserve">
<style type="text/css">
	.st0{fill:#326CE5;}
	.st1{fill:#FFFFFF;}
</style>
<g>
	<g>
		<rect x="0" class="st0" width="512" height="512"/>
	</g>
</g>
<g>
	<path class="st1" d="M367.7,116.9H224.6V79.7h-70.9v37.2h-21.4c-11.8,0-21.4,9.6-21.4,21.4v235.4c0,11.8,9.6,21.4,21.4,21.4h131.6
		v37.2h70.9v-37.2h32.9c11.8,0,21.4-9.6,21.4-21.4V138.3C389,126.5,379.5,116.9,367.7,116.9z"/>
</g>
<g>
	<path class="st1" d="M228.5,73.1h-79.7c-2.5,0-4.6-2-4.6-4.6s2-4.6,4.6-4.6h79.7c2.5,0,4.6,2,4.6,4.6S231,73.1,228.5,73.1z"/>
</g>
<g>
	<path class="st1" d="M340,448h-79.7c-2.5,0-4.6-2-4.6-4.6s2-4.6,4.6-4.6H340c2.5,0,4.6,2,4.6,4.6S342.6,448,340,448z"/>
</g>
<g>
	<g>
		<g>
			<path class="st0" d="M343.2,231l-51.1-63.7c-0.4-0.5-1-0.8-1.6-0.8h0l-81.6,0.3c-0.6,0-1.2,0.3-1.6,0.8l-50.7,64
				c-0.4,0.5-0.5,1.1-0.4,1.7l18.4,79.6c0.1,0.6,0.5,1.1,1.1,1.4l73.6,35.2c0.6,0.3,1.2,0.3,1.8,0l73.4-35.7c0.6-0.3,1-0.8,1.1-1.4
				l17.9-79.7C343.8,232.1,343.6,231.5,343.2,231L343.2,231z M323.7,312l-73.4,35.7l-73.6-35.2l-18.4-79.6l50.7-64l81.6-0.3
				l51.1,63.7L323.7,312z"/>
		</g>
		<g>
			<path class="st0" d="M250.3,352.5c-0.7,0-1.4-0.2-2.1-0.5l-73.6-35.2c-1.3-0.6-2.3-1.8-2.6-3.3l-18.4-79.6c-0.3-1.5,0-3,0.9-4.1
				l50.7-64c0.9-1.2,2.3-1.8,3.8-1.8l81.6-0.3c1.5,0,2.9,0.7,3.8,1.8l51.1,63.7c0.9,1.2,1.3,2.7,0.9,4.1L328.5,313
				c-0.3,1.5-1.3,2.7-2.6,3.3L252.5,352C251.8,352.3,251,352.5,250.3,352.5z M179.2,310.4l71.1,34l70.9-34.5l17.3-77l-49.3-61.6
				l-78.8,0.2l-49,61.9L179.2,310.4z"/>
		</g>
	</g>
	<g>
		<g>
			<path class="st0" d="M209,168.8l-50.7,64l18.4,79.6l73.6,35.2l73.4-35.7l17.9-79.7l-51.1-63.7L209,168.8z M322,310.6l-71.7,34.8
				L178.4,311l-18-77.7l49.5-62.5l79.7-0.2l49.8,62.2L322,310.6z"/>
		</g>
		<g>
			<path class="st0" d="M250.3,350.8l-76.1-36.4l-19-82.3l52.4-66.2l84.4-0.3l52.8,65.9l-18.5,82.4L250.3,350.8z M180.9,309
				l69.4,33.2l69.2-33.6l16.9-75.1l-48.1-60l-76.9,0.2L163.6,234L180.9,309z"/>
		</g>
	</g>
	<g>
		<g>
			<path class="st0" d="M244.5,198.1l-3.7-1.6l-7.8,17.5l2.4,4.6L244.5,198.1L244.5,198.1z M200.7,273l-0.7,4l16.9,3l3.9-3.4
				L200.7,273z M202.9,225l-3.6,1.9l8.9,16.7l5.1,1C213.4,244.5,202.9,225,202.9,225z M230.4,305.1l2.5,3.1l14.9-12v-5.2
				L230.4,305.1L230.4,305.1z M276.5,302.2l4,0.1l0.6-19.2l-3.9-3.4L276.5,302.2z M305,262.9l2.6-3.1l-14.7-12.3l-5.1,1L305,262.9z
				 M269.3,220.6l21.9-4.8l-0.9-3.9l-18.7,4.1L269.3,220.6L269.3,220.6z"/>
		</g>
		<g>
			<path class="st0" d="M232.6,312.3l-6.1-7.6l24.3-19.7v12.5L232.6,312.3z M283.3,305.3l-9.8-0.3l1-31.3l9.5,8.2L283.3,305.3z
				 M217.8,283l-21.1-3.8l1.7-9.6l28.8,5.2L217.8,283z M305.3,267l-23.9-20.1l12.3-2.4l17.9,15.1L305.3,267z M218.7,248.5l-12.3-2.4
				l-10.9-20.4l8.6-4.6L218.7,248.5z M235.5,225.2l-5.7-11.2l9.5-21.3l8.9,4L235.5,225.2z M264.1,224.7l5.6-11.2l22.9-5l2.1,9.5
				L264.1,224.7z"/>
		</g>
	</g>
	<g>
		<g>
			<path class="st0" d="M275.4,247.9l-0.7,3.1l13.1-2.5l-0.7-0.6l2.6-3.1l3.2,2.7l31.9-6.2l-0.8-4l-31.7,6.1l8.9-16.7l-3.6-1.9
				l-10.4,19.6l-11.8,2.3C275.5,247.1,275.5,247.5,275.4,247.9L275.4,247.9z M239.5,229.2l1.2,0l-5.4-10.6l-0.4,0.9l-3.7-1.6
				l1.7-3.8l-14.7-29l-3.6,1.8l14.6,28.8l-18.5-3.9l-0.8,3.9l21.7,4.6l5.5,10.7l0.8-1C238.3,229.5,238.9,229.2,239.5,229.2
				L239.5,229.2z M229.5,269.1l-8.7,7.5l2.9,0.5l-0.7,4l-6.1-1.1l-24.8,21.4l2.6,3.1l24.6-21.3l0.6,19.2l4-0.1l-0.8-22.4l10-8.6
				l-2.9-1.4C230,269.6,229.7,269.4,229.5,269.1L229.5,269.1z M250.1,279c-0.3,0-0.6-0.1-0.9-0.2l-1.3-0.6v12.9l0.8-0.6l2.5,3.1
				l-3.3,2.7v32.5h4v-32.3l14.7,11.9l2.5-3.1l-17.2-13.9v-12.9l-1,0.5C250.7,278.9,250.4,279,250.1,279L250.1,279z M224.7,246.7
				l-11.3-2.2l0.6,1.1l-3.6,1.9l-2.1-3.9l-31.7-6.1l-0.8,4l31.9,6.2L193,259.9l2.6,3.1l17.2-14.4l12.4,2.4l-0.7-2.9
				C224.4,247.6,224.5,247.1,224.7,246.7L224.7,246.7z M267.6,216.9l4.1-0.9l14.6-29l-3.6-1.8L268.2,214l-7.8-17.2l-3.7,1.7
				l9.1,20.2l-5.3,10.5c0.5,0,1.1,0.3,1.4,0.7l1.7,2.1l5.7-11.3l-0.9,0.2L267.6,216.9z M269.8,269.7l-2.7,1.3l10.2,8.8l0-0.9l4,0.1
				l-0.1,4.2l24.6,21.3l2.6-3.1L284,280.3l18.6-3.3l-0.7-4l-21.8,3.9l-9.4-8.1C270.5,269.2,270.2,269.5,269.8,269.7L269.8,269.7z"/>
		</g>
		<g>
			<path class="st0" d="M254.8,331.6H245v-57.9l5.1,2.4l4.7-2.3v16.1l18.4,14.9l-6.1,7.6l-12.3-9.9V331.6z M306,308.5l-44.1-38.2
				l6.3-3.1l1.5-3l11.1,9.6l23.3-4.2l1.7,9.6l-15.5,2.8l22.1,19.1L306,308.5z M268.5,267.1C268.5,267.1,268.5,267.1,268.5,267.1
				L268.5,267.1z M194.5,308.5l-6.4-7.4l42-36.4l1.7,2.5l6.7,3.2l-12.2,10.6L227,305l-9.7,0.3l-0.5-16L194.5,308.5z M195.3,267
				l-6.3-7.5l12.3-10.3l-28.8-5.6l1.8-9.6l33.8,6.5v0l20.8,4l-1.5,3.1l1.6,6.9l-15.4-3L195.3,267z M227.3,247.4L227.3,247.4
				C227.3,247.4,227.3,247.4,227.3,247.4z M271,254.6l1.6-7.1l-1-2.9l13.8-2.7l11.1-20.9l8.6,4.6l-7.4,13.9l28.7-5.5l1.8,9.6
				L271,254.6z M264.2,237.2l-4.5-5.6l-4.2-0.3l2.5-3.5l4.6-9.3l-9.8-21.5l8.9-4l6.5,14.4l13.1-26.1l8.7,4.4L264.2,237.2z
				 M236.6,236.2l-6.9-13.5l-23.1-4.9l2-9.5l15.4,3.3l-13.2-26l8.7-4.4l25.9,50.9l-5.5,0L236.6,236.2z"/>
		</g>
	</g>
	<g>
		<g>
			<path class="st0" d="M234.9,219.4l0.4-0.9l-2.4-4.6l-1.7,3.8C231.2,217.8,234.9,219.4,234.9,219.4z M267.6,216.9l0.9,3.9l0.9-0.2
				l2.3-4.6C271.7,216,267.6,216.9,267.6,216.9z M213.9,245.6l-0.6-1.1l-5.1-1l2.1,3.9L213.9,245.6L213.9,245.6z M248.6,290.4
				l-0.8,0.6v5.2l3.3-2.7L248.6,290.4z M277.3,278.9l0,0.9l3.9,3.4l0.1-4.2L277.3,278.9L277.3,278.9z M287.1,247.9l0.7,0.6l5.1-1
				l-3.2-2.7L287.1,247.9L287.1,247.9z M223.8,277.1l-2.9-0.5l-3.9,3.4l6.1,1.1L223.8,277.1L223.8,277.1z M260.4,231.1h-0.8l1-2
				c-0.1,0-0.1,0-0.2,0h0l-19.7,0.1l1,2l-2.3,0l-1.4,1.7l-1-2l-12.2,15.4c-0.1,0.1-0.2,0.2-0.2,0.4l2.2,0.4l-0.4,0.5l0.9,3.7
				l-2.2-0.4l4.1,17.5c0.1,0.2,0.2,0.5,0.3,0.7l1.6-1.4l0.1,0.3l3.7,1.8l-1.7,1.4l14.6,7v-2.2l2.2,1l1.8-0.9v2.3l15.1-7.3l-1.7-1.4
				l3.5-1.7l0.1-0.5l1.7,1.4c0.1-0.2,0.1-0.3,0.2-0.5l3.9-17.3l-2.2,0.4l0.9-4l-0.2-0.3l2.1-0.4c-0.1-0.2-0.2-0.4-0.3-0.6L263.7,232
				l-1,2L260.4,231.1z M271.3,248l-4.2,18.5l-17.1,8.3l-17.1-8.2l-4.3-18.5l11.8-14.9l19-0.1L271.3,248z"/>
		</g>
		<g>
			<path class="st0" d="M245,302.2v-12.5l4-3.3l6.1,7.6L245,302.2z M283.8,289.3l-9.5-8.2l0.2-5.2l9.8,0.3L283.8,289.3z
				 M225.4,284.4l-14.8-2.7l9.5-8.2l7.1,1.3L225.4,284.4z M249,282.9v-1l-19.3-9.2l-0.8,0.7l-1.8-2.6c-0.3-0.5-0.6-1-0.7-1.5
				l-4.7-20.1l-1.3-0.3l2.2-4.3l13.8-17.4l-0.4-0.8l1,0l0.5-0.6l0.3,0.6l22.4-0.1l4.2,0.4l-0.5,1.3l14,17.9l1,3.1l-1,0.2l-4.9,21
				l-1.7,3.1l-0.9-0.8l-19.8,9.6v0.6l-0.7-0.3L249,282.9z M235.4,264.6l14.6,7l14.6-7.1l3.6-15.8L258.1,236l-16.2,0.1l-10.1,12.7
				L235.4,264.6z M287,251.6l-3.9-3.3l6.3-7.5l10,8.4L287,251.6z M209.2,251.3l-6.3-11.8l12.3,2.4l2.5,4.8L209.2,251.3z
				 M266.3,224.2l-2.1-9.5l12.8-2.8l-5.6,11.2L266.3,224.2z M236.4,223.2l-8.9-4l5.3-11.9l5.7,11.2L236.4,223.2z"/>
		</g>
	</g>
	<g>
		<g>
			<path class="st0" d="M268.9,267.8l-3.5,1.7l1.7,1.4l2.7-1.3c0.4-0.2,0.7-0.5,0.9-0.9l-1.7-1.4L268.9,267.8z M260.6,229.1l-1,2
				h0.8l2.3,2.8l1-2l-1.7-2.1C261.6,229.5,261.1,229.2,260.6,229.1L260.6,229.1z M273.5,247.5l-0.9,4l2.2-0.4l0.7-3.1
				c0.1-0.4,0.1-0.8-0.1-1.1l-2.1,0.4L273.5,247.5z M231.2,268l-0.1-0.3l-1.6,1.4c0.2,0.3,0.5,0.5,0.8,0.7l2.9,1.4l1.7-1.4
				L231.2,268z M239.5,231.2l2.3,0l-1-2l-1.2,0c-0.6,0-1.2,0.3-1.6,0.8l-0.8,1l1,2L239.5,231.2z M250.1,277l-2.2-1v2.2l1.3,0.6
				c0.6,0.3,1.2,0.3,1.8,0l1-0.5v-2.3L250.1,277z M226.5,247.6l0.4-0.5l-2.2-0.4c-0.2,0.4-0.3,0.9-0.2,1.3l0.7,2.9l2.2,0.4
				L226.5,247.6z"/>
		</g>
		<g>
			<path class="st0" d="M250.1,281.9c-0.7,0-1.4-0.2-2.1-0.5L245,280v-8.6l5,2.4l4.7-2.3v8.6l-2.6,1.3
				C251.5,281.7,250.8,281.9,250.1,281.9z M233.7,274.6l-4.6-2.2c-0.8-0.4-1.5-1-2-1.7l-1.4-2.1l7.1-6.1l0.8,3.5l6.5,3.1
				L233.7,274.6z M266.6,274.4l-6.4-5.5l6.2-3l0.8-3.8l7,6.1l-1,2c-0.5,0.9-1.3,1.7-2.2,2.2L266.6,274.4z M268.8,255.1l1.6-6.9
				l-2.3-2.9l9.2-1.8l0.8,2.3c0.3,0.9,0.4,1.8,0.2,2.7l-1.1,5L268.8,255.1z M231.1,255l-8.3-1.6l-1.1-4.7c-0.3-1.1-0.1-2.2,0.4-3.2
				l1-2l9,1.7l-2.5,3.1L231.1,255z M263.2,239.3L259,234h-4.1l4-7.9l1.9,0.2c1.3,0.1,2.6,0.8,3.4,1.8l2.8,3.5L263.2,239.3z
				 M237.6,238.2l-3.8-7.6l1.9-2.4c0.9-1.2,2.3-1.9,3.8-1.9l3,0l3.9,7.7l-5.5,0L237.6,238.2z"/>
		</g>
	</g>
</g>
</svg>
