<?xml version="1.0" encoding="utf-8"?>
<!-- Generator: Adobe Illustrator 26.2.1, SVG Export Plug-In . SVG Version: 6.00 Build 0)  -->
<svg version="1.1" id="Layer_1" xmlns="http://www.w3.org/2000/svg" xmlns:xlink="http://www.w3.org/1999/xlink" x="0px" y="0px"
	 viewBox="0 0 256 256" style="enable-background:new 0 0 256 256;" xml:space="preserve">
<style type="text/css">
	.st0{fill:#326CE5;}
	.st1{fill:#FFFFFF;}
</style>
<g>
	<g>
		<g>
			<g>
				<path class="st0" d="M236.6,256H19.4C8.7,256,0,247.3,0,236.6V19.4C0,8.7,8.7,0,19.4,0h217.3C247.3,0,256,8.7,256,19.4v217.3
					C256,247.3,247.3,256,236.6,256z"/>
			</g>
		</g>
		<g>
			<g>
				<path class="st1" d="M198.5,57.6H57.5c-5.4,0-9.8-4.4-9.8-9.8s4.4-9.8,9.8-9.8h140.9c5.4,0,9.8,4.4,9.8,9.8
					S203.9,57.6,198.5,57.6z"/>
			</g>
		</g>
		<g>
			<g>
				<path class="st1" d="M198.5,111.6H57.5c-5.4,0-9.8-4.4-9.8-9.8s4.4-9.8,9.8-9.8h140.9c5.4,0,9.8,4.4,9.8,9.8
					S203.9,111.6,198.5,111.6z"/>
			</g>
		</g>
		<g>
			<g>
				<path class="st1" d="M198.5,164.1H57.5c-5.4,0-9.8-4.4-9.8-9.8s4.4-9.8,9.8-9.8h140.9c5.4,0,9.8,4.4,9.8,9.8
					S203.9,164.1,198.5,164.1z"/>
			</g>
		</g>
		<g>
			<g>
				<path class="st1" d="M198.5,218H57.5c-5.4,0-9.8-4.4-9.8-9.8s4.4-9.8,9.8-9.8h140.9c5.4,0,9.8,4.4,9.8,9.8S203.9,218,198.5,218z
					"/>
			</g>
		</g>
	</g>
</g>
</svg>
