<?xml version="1.0" encoding="utf-8"?>
<!-- Generator: Adobe Illustrator 26.2.1, SVG Export Plug-In . SVG Version: 6.00 Build 0)  -->
<svg version="1.1" id="Layer_1" xmlns="http://www.w3.org/2000/svg" xmlns:xlink="http://www.w3.org/1999/xlink" x="0px" y="0px"
	 viewBox="0 0 256 256" style="enable-background:new 0 0 256 256;" xml:space="preserve">
<style type="text/css">
	.st0{fill:#FFFFFF;}
	.st1{fill:#326CE5;}
	.st2{fill:#FFFFFF;stroke:#326CE5;stroke-width:2.4;stroke-linecap:round;stroke-miterlimit:10;}
</style>
<g>
	<g>
		<path class="st0" d="M238.3,223.8l-68.5-68.5c15.1-15.5,24.5-36.6,24.5-59.8c0-47.2-38.4-85.7-85.7-85.7S22.8,48.2,22.8,95.5
			s38.4,85.7,85.7,85.7c14,0,27.2-3.4,38.8-9.4l71.5,71.5c2.7,2.7,6.2,4,9.7,4c3.5,0,7-1.3,9.7-4
			C243.7,237.9,243.7,229.2,238.3,223.8z"/>
		<path class="st0" d="M228.6,253c-5.2,0-10.1-2-13.8-5.7l-68.6-68.6c-11.9,5.4-24.6,8.2-37.7,8.2c-50.4,0-91.4-41-91.4-91.4
			s41-91.4,91.4-91.4c50.4,0,91.4,41,91.4,91.4c0,22-7.9,43-22.2,59.7l64.7,64.7c3.7,3.7,5.7,8.6,5.7,13.8s-2,10.1-5.7,13.8
			C238.7,251,233.8,253,228.6,253z M148.5,164.8l74.4,74.4c3,3,8.3,3,11.3,0c1.5-1.5,2.3-3.5,2.3-5.7s-0.8-4.2-2.3-5.7l-72.5-72.5
			l4-4c14.7-15.1,22.8-34.9,22.8-55.8c0-44.1-35.9-80-80-80s-80,35.9-80,80c0,44.1,35.9,80,80,80c12.7,0,24.8-3,36.2-8.8
			L148.5,164.8z"/>
	</g>
	<g>
		<g>
			<g>
				<g>
					<g>
						<path class="st1" d="M167.6,153.1l70.7,70.7c5.4,5.4,5.4,14.1,0,19.4c-2.7,2.7-6.2,4-9.7,4c-3.5,0-7-1.3-9.7-4l-72.1-72.1"/>
					</g>
				</g>
			</g>
		</g>
		<g>
			<g>
				<g>
					<g>
						<path class="st2" d="M246.1,251.1"/>
					</g>
				</g>
			</g>
		</g>
		<g>
			<g>
				<g>
				</g>
			</g>
			<g>
				<g>
					<g>
						<path class="st1" d="M108.5,181.2c-47.2,0-85.7-38.4-85.7-85.7S61.3,9.8,108.5,9.8s85.7,38.4,85.7,85.7
							S155.8,181.2,108.5,181.2z M108.5,21.2c-40.9,0-74.2,33.3-74.2,74.2s33.3,74.2,74.2,74.2c40.9,0,74.2-33.3,74.2-74.2
							S149.5,21.2,108.5,21.2z"/>
					</g>
				</g>
			</g>
		</g>
		<g>
			<g>
				<g>
					<g>
						<g>
							<path class="st1" d="M139.9,141H77.2c-8.1,0-14.7-6.6-14.7-14.7V63.7c0-8.1,6.6-14.7,14.7-14.7h62.7
								c8.1,0,14.7,6.6,14.7,14.7v62.7C154.5,134.5,147.9,141,139.9,141z"/>
						</g>
					</g>
				</g>
			</g>
			<g>
				<g>
					<g>
						<g>
							<path class="st0" d="M133.8,72H83.2c-3.2,0-5.7-2.6-5.7-5.7c0-3.2,2.6-5.7,5.7-5.7h50.6c3.2,0,5.7,2.6,5.7,5.7
								C139.6,69.4,137,72,133.8,72z"/>
						</g>
					</g>
				</g>
			</g>
			<g>
				<g>
					<g>
						<g>
							<path class="st0" d="M133.8,91.3H83.2c-3.2,0-5.7-2.6-5.7-5.7c0-3.2,2.6-5.7,5.7-5.7h50.6c3.2,0,5.7,2.6,5.7,5.7
								C139.6,88.8,137,91.3,133.8,91.3z"/>
						</g>
					</g>
				</g>
			</g>
			<g>
				<g>
					<g>
						<g>
							<path class="st0" d="M133.8,110.2H83.2c-3.2,0-5.7-2.6-5.7-5.7c0-3.2,2.6-5.7,5.7-5.7h50.6c3.2,0,5.7,2.6,5.7,5.7
								C139.6,107.6,137,110.2,133.8,110.2z"/>
						</g>
					</g>
				</g>
			</g>
			<g>
				<g>
					<g>
						<g>
							<path class="st0" d="M133.8,129.6H83.2c-3.2,0-5.7-2.6-5.7-5.7c0-3.2,2.6-5.7,5.7-5.7h50.6c3.2,0,5.7,2.6,5.7,5.7
								C139.6,127,137,129.6,133.8,129.6z"/>
						</g>
					</g>
				</g>
			</g>
		</g>
	</g>
</g>
</svg>
