<?xml version="1.0" encoding="utf-8"?>
<!-- Generator: Adobe Illustrator 26.2.1, SVG Export Plug-In . SVG Version: 6.00 Build 0)  -->
<svg version="1.1" id="Layer_1" xmlns="http://www.w3.org/2000/svg" xmlns:xlink="http://www.w3.org/1999/xlink" x="0px" y="0px"
	 viewBox="0 0 512 512" style="enable-background:new 0 0 512 512;" xml:space="preserve">
<style type="text/css">
	.st0{fill:#326CE5;}
	.st1{fill:#FFFFFF;}
</style>
<g>
	<g>
		<g>
			<rect x="0" y="0" class="st0" width="512" height="512"/>
		</g>
	</g>
	<g>
		<path class="st1" d="M367.7,116.9H224.6V79.7h-70.9v37.2h-21.4c-11.8,0-21.4,9.6-21.4,21.4v235.4c0,11.8,9.6,21.4,21.4,21.4h131.6
			v37.2h70.9v-37.2h32.9c11.8,0,21.4-9.6,21.4-21.4V138.3C389,126.5,379.5,116.9,367.7,116.9z"/>
	</g>
	<g>
		<g id="path18_00000183210687824827659170000010021853151604395155_">
			<path class="st0" d="M323,297c-4.1,0-8.1-1-11.6-2.8c-4.5,10.4-14.1,18.1-26.1,19.6c-1.3,0.1-2.6,0.2-3.9,0.2
				c-16.5,0-30.3-12.3-32.3-28.7c-0.1-0.4-0.1-0.9-0.3-1.4c-1.9-10.4-7.4-19.2-15.1-25.5c2.6,0.5,5.3,0.7,8,0.7
				c8.7,0,17.8-2.5,27-7.4c0,0,0.1,0,0.1-0.1l0.1-0.1c0.1-0.1,0.3-0.2,0.4-0.2c0,0,2.9-1.7,7.3-2.8c0.2,0,0.4-0.1,0.7-0.1
				c1.2-0.1,2.5-0.2,3.7-0.2c8.3,0,16.1,3.3,22,8.7c4.6-6,11.7-9.9,20-9.9c0.4,0,0.9,0.1,1.3,0.1c-3.1-3.9-6.8-7.4-10.8-10.2
				c-9-7.2-19.2-10.8-30.3-10.8c-8.8,0-18.1,2.5-24.9,6.6c-4.1,2.2-10.1,4.7-16.3,4.7c-5.8,0-10.6-2.2-14.4-6.6
				c-3.3-3.8-5-8.4-5.1-13.3c0.3-5.2,2.4-10,6-13.5c3.9-3.9,9.1-6,14.6-6c5.6,0,10.8,2.2,14.7,6.1c1.5,1.5,2.7,3.1,3.7,5
				c2,3.7,5.8,6,9.9,6c1.8,0,3.6-0.4,5.2-1.2c5.5-2.8,7.6-9.6,4.7-15.1c-2-3.9-4.6-7.4-7.6-10.4c-8.2-8.2-19-12.7-30.5-12.7
				c-10.2,0-20,3.6-27.8,10.1c-0.1,0.1-0.3,0.2-0.6,0.4c-0.3,0.3-0.7,0.6-1,0.9l-0.4,0.4c-0.1,0.1-0.1,0.1-0.2,0.1
				c-0.1,0.1-0.3,0.3-0.4,0.4c-0.1,0.1-0.2,0.2-0.3,0.3c-0.8,0.8-1.5,1.6-2.2,2.5L210,191c-0.1,0.1-0.3,0.3-0.4,0.4
				c-5.6,6.7-8.7,14.9-9.1,23.6c-0.5,10.9,3.2,21.5,10.6,29.9c1.5,1.7,3,3.3,4.7,4.7c-4.5-1-9.4-1.2-14.2-0.7
				c-23.6,2.9-40.5,24.3-37.7,47.9c2.4,21.7,20.8,38,42.6,38c1.7,0,3.4-0.1,5.1-0.3c4.3-0.5,8.5-1.7,12.4-3.4
				c5.6-2.5,8.2-9.1,5.6-14.8c-1.8-4-5.8-6.6-10.2-6.6c-1.6,0-3.1,0.3-4.5,1c-1.9,0.9-3.9,1.4-6,1.7c-0.8,0.1-1.7,0.1-2.5,0.1
				c-10.4,0-19.3-7.9-20.6-18.2c-0.7-5.5,0.9-10.9,4.3-15.2c3.4-4.3,8.3-7.1,13.8-7.7c0.8-0.1,1.7-0.1,2.4-0.1
				c10.4,0,19.3,7.8,20.6,18.2c0.1,0.4,0.1,0.9,0.2,1.2c2.1,12.8,8.8,24.5,18.7,32.9c9.9,8.4,22.5,13,35.4,13c2.2,0,4.3-0.1,6.5-0.4
				c23.6-2.8,41.9-20.2,47-42.1C331.4,295.9,327.3,297,323,297L323,297z"/>
		</g>
		<g id="circle27_00000063593709616340968300000006722211792573670334_">
			<circle class="st0" cx="323" cy="272" r="13.4"/>
		</g>
	</g>
	<g>
		<path class="st1" d="M228.5,73.1h-79.7c-2.5,0-4.6-2-4.6-4.6c0-2.5,2-4.6,4.6-4.6h79.7c2.5,0,4.6,2,4.6,4.6
			C233,71,231,73.1,228.5,73.1z"/>
	</g>
	<g>
		<path class="st1" d="M340,448.1h-79.7c-2.5,0-4.6-2-4.6-4.6s2-4.6,4.6-4.6H340c2.5,0,4.6,2,4.6,4.6S342.6,448.1,340,448.1z"/>
	</g>
</g>
</svg>
