<?xml version="1.0" encoding="utf-8"?>
<!-- Generator: Adobe Illustrator 26.2.1, SVG Export Plug-In . SVG Version: 6.00 Build 0)  -->
<svg version="1.1" id="Layer_1" xmlns="http://www.w3.org/2000/svg" xmlns:xlink="http://www.w3.org/1999/xlink" x="0px" y="0px"
	 viewBox="0 0 512 512" style="enable-background:new 0 0 512 512;" xml:space="preserve">
<style type="text/css">
	.st0{fill:#326CE5;}
	.st1{fill:#FFFFFF;}
</style>
<g>
	<g>
		<g>
			<g>
				<rect x="0" class="st0" width="512" height="512"/>
			</g>
		</g>
	</g>
	<g>
		<g>
			<g>
				<path class="st1" d="M247.2,228.6l-1.7-1.7l-45.9,45.9c-0.1,0.1-0.2,0.2-0.3,0.3c-0.8,0.8-1.4,1.7-2,2.6
					c-0.2,0.3-0.4,0.6-0.6,0.9l-0.1,0.1c-0.2,0.5-0.5,1-0.7,1.4c-0.8,1.9-1.2,4-1.2,6.1c0,4.3,1.7,8.5,4.8,11.6l9.2,9.2l38.4-38.4
					c10.5-10.4,10.6-27.4,0.2-37.9C247.3,228.7,247.3,228.7,247.2,228.6L247.2,228.6z"/>
			</g>
		</g>
		<g>
			<g>
				<path class="st1" d="M409.2,182.7l-19.7-19.7c-9.8-9.8-25.4-10.5-36.1-1.7c-0.7,0.5-1.3,1.1-2,1.7l-12.7,12.7l-2.3,2.3l-0.1,0.1
					l47.1,47.1c1.2,1.2,2.3,2.5,3.3,3.9c0,0,0.1,0.1,0.1,0.1c0.7,4.1,1.2,8.2,1.6,12.4l-0.1,0.1c-0.4-4.2-0.9-8.3-1.7-12.4
					c-1-1.4-2.1-2.7-3.3-3.9l-47-47.2l-51.5-51.5c-14.9-14.8-39-14.8-54,0L124.5,232.9c-12.3,12.4-14.7,31.6-5.7,46.6
					c0,0,0,0.1,0.1,0.1l-10.2,10c-10.5,10.5-10.5,27.5,0,38c0,0,0,0,0,0l19.7,19.7c8.3,8.2,20.9,10.2,31.3,4.9
					c2.5-1.3,4.8-2.9,6.7-4.9l6.3-6.3l2.3-2.3l0.7-0.7l47.3,47.3c14.9,14.8,39,14.8,54,0l106.4-106.3c10.8-10.8,14.1-27,8.4-41.1
					l-1.7,1.7l1.8-1.8c0,0,0-0.1,0-0.1l17.2-17.2C419.6,210.2,419.6,193.2,409.2,182.7L409.2,182.7z M325.9,245.3
					C325.9,245.3,325.9,245.3,325.9,245.3L325.9,245.3z M326.6,243.9c0.2-0.5,0.4-0.9,0.6-1.4l0,0c0.4-0.9,0.7-1.9,1-2.8
					c-0.3,1-0.6,1.9-1,2.8C327,243,326.8,243.4,326.6,243.9L326.6,243.9z M119.2,279.2c0,0.1,0,0.2,0.1,0.3
					C119.2,279.4,119.2,279.3,119.2,279.2L119.2,279.2z M250,323.1c-11.9,11.9-31.3,11.9-43.2,0c0,0,0,0,0,0l-8-8l-22.9,22.9
					l-25.6-25.6l25.6,25.6l23-23l-9.1-9.1c-2.2-2.2-4-4.7-5.4-7.4c-4.1-8-4.6-17.4-1.3-25.7c0.4-0.9,0.8-1.8,1.3-2.7
					c1.4-2.7,3.3-5.2,5.4-7.4l45.9-45.9l0,0l24.6-24.6c11.9-11.9,31.3-11.9,43.2,0c0,0,0,0,0,0l9.4,9.4l-10.1,10.1l0,0l0,0l-9.5-9.5
					c-3-3.1-7.2-4.8-11.5-4.8c-1,0-2.1,0.1-3.1,0.3c-3.2,0.6-6.1,2.2-8.4,4.5l-24.6,24.6l1.7,1.7c10.5,10.5,10.5,27.5,0,38
					c0,0,0,0,0,0l-38.5,38.5l8,8c3.1,3.1,7.2,4.8,11.6,4.8c2.1,0,4.2-0.4,6.1-1.2c0.5-0.2,1-0.5,1.4-0.7c0.1,0,0.1-0.1,0.2-0.1
					c1.4-0.8,2.7-1.7,3.8-2.8l31-31l-0.3-0.3c-10.5-10.5-10.5-27.5,0-38c0,0,0,0,0,0l0.1-0.1c-10.5,10.5-10.5,27.5,0,38c0,0,0,0,0,0
					l0.3,0.3l0,0l10.1,10.1l39.5-39.5c0.8-0.7,1.5-1.5,2.1-2.3c-0.7,0.8-1.4,1.6-2.1,2.3L281,292.1L250,323.1z"/>
			</g>
		</g>
	</g>
</g>
</svg>
