<?xml version="1.0" encoding="utf-8"?>
<!-- Generator: Adobe Illustrator 26.2.1, SVG Export Plug-In . SVG Version: 6.00 Build 0)  -->
<svg version="1.1" id="Layer_1" xmlns="http://www.w3.org/2000/svg" xmlns:xlink="http://www.w3.org/1999/xlink" x="0px" y="0px"
	 viewBox="0 0 512 512" style="enable-background:new 0 0 512 512;" xml:space="preserve">
<style type="text/css">
	.st0{fill:#326CE5;}
	.st1{fill:#FFFFFF;}
	.st2{fill:none;stroke:#326CE5;stroke-linecap:round;stroke-linejoin:round;stroke-miterlimit:10;}
</style>
<g>
	<g>
		<rect x="0" class="st0" width="512" height="512"/>
	</g>
</g>
<g>
	<rect x="145.4" y="300.6" class="st1" width="60.9" height="60.9"/>
</g>
<g>
	<rect x="225.6" y="300.6" class="st1" width="60.9" height="60.9"/>
</g>
<g>
	<rect x="305.7" y="300.6" class="st1" width="60.9" height="60.9"/>
</g>
<g>
	<rect x="305.7" y="143.4" class="st1" width="60.9" height="60.9"/>
</g>
<g>
	<rect x="145.4" y="222" class="st1" width="60.9" height="60.9"/>
</g>
<g>
	<rect x="225.6" y="222" class="st1" width="60.9" height="60.9"/>
</g>
<g>
	<rect x="305.7" y="222" class="st1" width="60.9" height="60.9"/>
</g>
<g>
	<circle class="st1" cx="353.4" cy="348" r="76.6"/>
	<path class="st0" d="M353.4,429.2c-44.7,0-81.1-36.4-81.1-81.1s36.4-81.1,81.1-81.1s81.1,36.4,81.1,81.1S398.2,429.2,353.4,429.2z
		 M353.4,276c-39.7,0-72,32.3-72,72s32.3,72,72,72s72-32.3,72-72S393.1,276,353.4,276z"/>
</g>
<g>
	<path class="st0" d="M374.5,369.8c-0.9,0-1.9-0.3-2.7-0.9l-23.6-17.2c-1.2-0.9-1.9-2.2-1.9-3.7v-53.4c0-2.5,2-4.6,4.6-4.6
		s4.6,2,4.6,4.6v51.1l21.7,15.9c2,1.5,2.5,4.3,1,6.4C377.3,369.2,375.9,369.8,374.5,369.8z"/>
</g>
<g>
	<path class="st2" d="M97.7,154.3"/>
</g>
</svg>
