<?xml version="1.0" encoding="utf-8"?>
<!-- Generator: Adobe Illustrator 26.2.1, SVG Export Plug-In . SVG Version: 6.00 Build 0)  -->
<svg version="1.1" id="Layer_1" xmlns="http://www.w3.org/2000/svg" xmlns:xlink="http://www.w3.org/1999/xlink" x="0px" y="0px"
	 viewBox="0 0 512 512" style="enable-background:new 0 0 512 512;" xml:space="preserve">
<style type="text/css">
	.st0{fill:#326CE5;}
	.st1{fill:#FFFFFF;}
</style>
<g>
	<g>
		<rect x="0" class="st0" width="512" height="512"/>
	</g>
</g>
<g>
	<path class="st1" d="M370.5,242.6c-8-1.8-15.6-0.8-22.1,2.4c-2.9,1.4-6.2-0.5-6.2-3.7v-57.8l-55.8,0c-3.8,0-6.7-3.9-5.2-7.4
		c2.7-6.2,3.6-13.4,1.9-20.9c-2.8-12.3-13.2-22.1-25.6-24.4c-20.9-3.9-39.1,12-39.1,32.2c0,4.7,1,9.1,2.7,13.1
		c1.5,3.5-1.4,7.4-5.2,7.4l-55.7,0l0,55.7c0,3.8,3.9,6.7,7.4,5.2c6.2-2.7,13.5-3.5,21-1.8c12.3,2.9,22,13.3,24.3,25.7
		c3.8,20.8-12.1,39-32.2,39c-4.6,0-9.1-1-13.1-2.7c-3.5-1.5-7.4,1.4-7.4,5.2l0,55.7h60.5c3.2,0,5.3-3.2,4-6.1
		c-2-4.3-4.2-10.1-4.2-14.4c0-20.2,18.2-36.1,39.1-32.2c12.4,2.3,22.7,12.1,25.6,24.5c1.8,7.9,0.8,15.5-2.3,21.9
		c-1.4,2.9,0.5,6.3,3.8,6.3l55.5,0v-57.8c0-3.2,3.3-5.1,6.2-3.7c4.3,2.1,9.2,3.3,14.3,3.3c20.2,0,36.1-18.2,32.2-39.1
		C392.6,255.7,382.8,245.4,370.5,242.6z"/>
</g>
</svg>
