<?xml version="1.0" encoding="utf-8"?>
<!-- Generator: Adobe Illustrator 26.2.1, SVG Export Plug-In . SVG Version: 6.00 Build 0)  -->
<svg version="1.1" id="Layer_1" xmlns="http://www.w3.org/2000/svg" xmlns:xlink="http://www.w3.org/1999/xlink" x="0px" y="0px"
	 viewBox="0 0 256 256" style="enable-background:new 0 0 256 256;" xml:space="preserve">
<style type="text/css">
	.st0{fill:#326CE5;}
	.st1{fill:#FFFFFF;}
</style>
<g>
	<g id="solid_00000178196413016066365270000005879509798141660861_">
		<g>
			<path class="st0" d="M110.4,64.2l9.6,37.6l2.7-2.7c1.9-1.9,3.5-4.2,4.6-6.7l27.9,27.9L135.7,140L88.1,92.4
				c2.5-1.1,4.8-2.7,6.7-4.6l2.7-2.7l-37.6-9.6l9.6,37.6l2.7-2.7c1.9-1.9,3.5-4.2,4.6-6.7l47.6,47.6l-19.6,19.6l-27.9-27.9
				c2.5-1.1,4.8-2.7,6.7-4.6l2.7-2.7l-37.6-9.6l9.6,37.6l2.7-2.7c1.9-1.9,3.5-4.2,4.6-6.7L93.6,182c6.2,6.2,16.2,6.2,22.4,0
				l19.6-19.6l58.1,58c3.1,3.1,8.1,3.1,11.2,0c3.1-3.1,3.1-8.1,0-11.2c0,0,0,0,0,0l-58.1-58l19.6-19.6c6.2-6.2,6.2-16.2,0-22.4
				l-27.9-27.9c2.5-1.1,4.8-2.7,6.7-4.6l2.7-2.7L110.4,64.2z"/>
		</g>
	</g>
	<g>
		<path class="st0" d="M234.4,256H21.6C9.7,256,0,246.3,0,234.4V21.6C0,9.7,9.7,0,21.6,0h212.8C246.3,0,256,9.7,256,21.6v212.8
			C256,246.3,246.3,256,234.4,256z M21.6,7.4c-7.8,0-14.2,6.4-14.2,14.2v212.8c0,7.8,6.4,14.2,14.2,14.2h212.8
			c7.8,0,14.2-6.4,14.2-14.2V21.6c0-7.8-6.4-14.2-14.2-14.2H21.6z"/>
	</g>
	<g>
		<path class="st0" d="M252.3,31.3v-9.7c0-9.9-8-17.9-17.9-17.9H21.6c-9.9,0-17.9,8-17.9,17.9v9.7H252.3z"/>
		<path class="st0" d="M256,35H0V21.6C0,9.7,9.7,0,21.6,0h212.8C246.3,0,256,9.7,256,21.6V35z M7.4,27.6h241.2v-6
			c0-7.8-6.4-14.2-14.2-14.2H21.6c-7.8,0-14.2,6.4-14.2,14.2V27.6z"/>
	</g>
	<g>
		<circle class="st1" cx="20.9" cy="18.5" r="7"/>
	</g>
	<g>
		<circle class="st1" cx="40.8" cy="18.5" r="7"/>
	</g>
	<g>
		<circle class="st1" cx="61.5" cy="18.5" r="7"/>
	</g>
</g>
</svg>
