<?xml version="1.0" encoding="utf-8"?>
<!-- Generator: Adobe Illustrator 26.2.1, SVG Export Plug-In . SVG Version: 6.00 Build 0)  -->
<svg version="1.1" id="Layer_1" xmlns="http://www.w3.org/2000/svg" xmlns:xlink="http://www.w3.org/1999/xlink" x="0px" y="0px"
	 viewBox="0 0 512 512" style="enable-background:new 0 0 512 512;" xml:space="preserve">
<style type="text/css">
	.st0{fill:#326CE5;}
	.st1{fill:#FFFFFF;}
</style>
<g>
	<g>
		<g>
			<rect class="st0" width="512" height="512"/>
		</g>
	</g>
	<g>
		<path class="st1" d="M369.7,254.5c-14.2-17-33.6-26.7-53.6-28.9c-15.8-1.8-27.9-14-29.7-29.7c-2.3-20-11.9-39.3-28.9-53.6
			c-29.3-24.5-73.2-25.1-103-1.1c-38.7,31-41,87.7-6.9,121.7c11.8,11.8,26.4,19.3,41.7,22.3c19,3.8,33.8,18.6,37.6,37.6
			c3,15.3,10.5,29.9,22.3,41.7c34.1,34.1,90.7,31.7,121.7-6.9C394.7,327.7,394.2,283.9,369.7,254.5z"/>
	</g>
	<g>
		<g id="solid_00000142138573826298372070000009631790839602948232_">
			<g>
				<g>
					<path class="st0" d="M199.1,180.4l3.7,14.7l1.1-1.1c0.8-0.8,1.4-1.6,1.8-2.6l10.9,10.9L209,210l-18.6-18.6
						c1-0.4,1.9-1.1,2.6-1.8l1.1-1.1l-14.7-3.7l3.7,14.7l1.1-1.1c0.8-0.8,1.4-1.6,1.8-2.6l18.6,18.6l-7.7,7.7L186,211.1
						c1-0.4,1.9-1.1,2.6-1.8l1.1-1.1l-14.7-3.7l3.7,14.7l1.1-1.1c0.8-0.8,1.4-1.6,1.8-2.6l10.9,10.9c2.4,2.4,6.3,2.4,8.8,0l7.7-7.7
						l22.7,22.7c1.2,1.2,3.2,1.2,4.4,0c1.2-1.2,1.2-3.2,0-4.4c0,0,0,0,0,0l-22.7-22.7l7.7-7.7c2.4-2.4,2.4-6.3,0-8.8L210.1,187
						c1-0.4,1.9-1.1,2.6-1.8l1.1-1.1L199.1,180.4z"/>
				</g>
			</g>
		</g>
		<g>
			<g>
				<path class="st0" d="M247.6,255.3h-83.2c-4.7,0-8.4-3.8-8.4-8.4v-83.2c0-4.7,3.8-8.4,8.4-8.4h83.2c4.7,0,8.4,3.8,8.4,8.4v83.2
					C256,251.6,252.2,255.3,247.6,255.3z M164.4,158.2c-3.1,0-5.6,2.5-5.6,5.6v83.2c0,3.1,2.5,5.6,5.6,5.6h83.2
					c3.1,0,5.6-2.5,5.6-5.6v-83.2c0-3.1-2.5-5.6-5.6-5.6H164.4z"/>
			</g>
		</g>
		<g>
			<g>
				<path class="st0" d="M254.6,167.5v-3.8c0-3.9-3.1-7-7-7h-83.2c-3.9,0-7,3.1-7,7v3.8H254.6z"/>
			</g>
			<g>
				<path class="st0" d="M256,169H156v-5.2c0-4.7,3.8-8.4,8.4-8.4h83.2c4.7,0,8.4,3.8,8.4,8.4V169z M158.8,166.1h94.3v-2.3
					c0-3.1-2.5-5.6-5.6-5.6h-83.2c-3.1,0-5.6,2.5-5.6,5.6V166.1z"/>
			</g>
		</g>
		<g>
			<g>
				<circle class="st1" cx="164.1" cy="162.5" r="2.7"/>
			</g>
		</g>
		<g>
			<g>
				<circle class="st1" cx="171.9" cy="162.5" r="2.7"/>
			</g>
		</g>
		<g>
			<g>
				<circle class="st1" cx="180" cy="162.5" r="2.7"/>
			</g>
		</g>
	</g>
	<g>
		<g id="solid_00000082327763351965744680000009089795897720313784_">
			<g>
				<g>
					<path class="st0" d="M302.9,284l3.7,14.7l1.1-1.1c0.8-0.8,1.4-1.6,1.8-2.6l10.9,10.9l-7.7,7.7L294.2,295c1-0.4,1.9-1.1,2.6-1.8
						l1.1-1.1l-14.7-3.7l3.7,14.7l1.1-1.1c0.8-0.8,1.4-1.6,1.8-2.6l18.6,18.6l-7.7,7.7l-10.9-10.9c1-0.4,1.9-1.1,2.6-1.8l1.1-1.1
						l-14.7-3.7l3.7,14.7l1.1-1.1c0.8-0.8,1.4-1.6,1.8-2.6l10.9,10.9c2.4,2.4,6.3,2.4,8.8,0l7.7-7.7l22.7,22.7
						c1.2,1.2,3.2,1.2,4.4,0c1.2-1.2,1.2-3.2,0-4.4c0,0,0,0,0,0L317.2,318l7.7-7.7c2.4-2.4,2.4-6.3,0-8.8l-10.9-10.9
						c1-0.4,1.9-1.1,2.6-1.8l1.1-1.1L302.9,284z"/>
				</g>
			</g>
		</g>
		<g>
			<g>
				<path class="st0" d="M351.4,358.9h-83.2c-4.7,0-8.4-3.8-8.4-8.4v-83.2c0-4.7,3.8-8.4,8.4-8.4h83.2c4.7,0,8.4,3.8,8.4,8.4v83.2
					C359.8,355.1,356,358.9,351.4,358.9z M268.2,261.8c-3.1,0-5.6,2.5-5.6,5.6v83.2c0,3.1,2.5,5.6,5.6,5.6h83.2
					c3.1,0,5.6-2.5,5.6-5.6v-83.2c0-3.1-2.5-5.6-5.6-5.6H268.2z"/>
			</g>
		</g>
		<g>
			<g>
				<path class="st0" d="M358.4,271.1v-3.8c0-3.9-3.1-7-7-7h-83.2c-3.9,0-7,3.1-7,7v3.8H358.4z"/>
			</g>
			<g>
				<path class="st0" d="M359.8,272.5h-100v-5.2c0-4.7,3.8-8.4,8.4-8.4h83.2c4.7,0,8.4,3.8,8.4,8.4V272.5z M262.7,269.7h94.3v-2.3
					c0-3.1-2.5-5.6-5.6-5.6h-83.2c-3.1,0-5.6,2.5-5.6,5.6V269.7z"/>
			</g>
		</g>
		<g>
			<g>
				<circle class="st1" cx="267.9" cy="266.1" r="2.7"/>
			</g>
		</g>
		<g>
			<g>
				<circle class="st1" cx="275.7" cy="266.1" r="2.7"/>
			</g>
		</g>
		<g>
			<g>
				<circle class="st1" cx="283.8" cy="266.1" r="2.7"/>
			</g>
		</g>
	</g>
</g>
</svg>
