<?xml version="1.0" encoding="utf-8"?>
<!-- Generator: Adobe Illustrator 26.2.1, SVG Export Plug-In . SVG Version: 6.00 Build 0)  -->
<svg version="1.1" id="Layer_1" xmlns="http://www.w3.org/2000/svg" xmlns:xlink="http://www.w3.org/1999/xlink" x="0px" y="0px"
	 viewBox="0 0 512 512" style="enable-background:new 0 0 512 512;" xml:space="preserve">
<style type="text/css">
	.st0{fill:#326CE5;}
	.st1{fill:#FFFFFF;}
</style>
<g>
	<g>
		<g>
			<g>
				<rect class="st0" width="512" height="512"/>
			</g>
		</g>
	</g>
	<g>
		<g>
			<path class="st1" d="M378.5,360.3H134.8l116.9-116.9L378.5,360.3z M178.9,342h152.8l-79.5-73.3L178.9,342z"/>
		</g>
	</g>
	<g>
		<g>
			<g>
				<path class="st1" d="M143.7,249.3l-48.4-0.7c-6.2-0.1-11.1-5.2-11-11.3l0.8-50.6c0.1-6.2,5.2-11.1,11.3-11l48.4,0.7
					c6.2,0.1,11.1,5.2,11,11.3l-0.8,50.6C155,244.4,149.9,249.3,143.7,249.3z"/>
			</g>
		</g>
		<g>
			<g>
				<g>
					<path class="st0" d="M109.4,219.8c0.2,0.3,0.3,0.6,0.4,0.9c0.1,0.3,0.2,0.5,0.2,0.8c0,0.6-0.2,1.1-0.7,1.4
						c-0.4,0.4-1,0.6-1.7,0.6c-0.5,0-0.9-0.1-1.4-0.3c-0.8-0.6-1.6-1.2-2.5-1.9c-0.9-0.7-1.8-1.4-2.7-2.2c-1.2-0.9-2.4-1.8-3.6-2.8
						c-1.2-0.9-2.3-1.8-3.3-2.4c-0.6-0.6-0.8-1.2-0.8-1.7c0-0.7,0.4-1.4,1.2-1.9l-0.1,0c0.1-0.1,0.5-0.4,1.1-0.9
						c0.6-0.5,1.3-1,2.2-1.7c0.8-0.6,1.7-1.3,2.7-2c0.9-0.7,1.8-1.4,2.7-2c0.8-0.6,1.5-1.2,2.1-1.6c0.6-0.5,1-0.7,1.2-0.8
						c0.5-0.2,1-0.3,1.4-0.3c0.7,0,1.3,0.2,1.7,0.6c0.4,0.4,0.7,0.9,0.6,1.5c0,0.7-0.2,1.2-0.6,1.7c-0.6,0.5-1.3,1.1-2.3,1.8
						c-0.9,0.7-1.9,1.4-2.8,2.1c-0.9,0.7-1.8,1.3-2.6,2c-0.9,0.6-1.6,1.2-2.1,1.6l9.7,7.4L109.4,219.8z"/>
				</g>
			</g>
			<g>
				<g>
					<path class="st0" d="M125.6,194.2c0.7-0.9,1.4-1.4,2.4-1.4c0.6,0,1.2,0.2,1.7,0.6c0.5,0.4,0.7,1,0.7,1.6c0,0.3-0.1,0.6-0.2,0.8
						l-10.1,22.5c-0.9,2-1.8,4.1-2.8,6.2c-1,2.1-1.9,4.2-2.8,6.2c-0.3,0.5-0.7,0.8-1.2,1c-0.4,0.2-0.8,0.3-1.2,0.3
						c-0.6,0-1.2-0.2-1.6-0.6c-0.5-0.4-0.7-1-0.7-1.7c0-0.3,0-0.5,0.1-0.7l10-22.2c0.9-2.1,1.9-4.2,2.9-6.3
						C123.8,198.3,124.7,196.3,125.6,194.2z"/>
				</g>
			</g>
			<g>
				<g>
					<path class="st0" d="M141.4,212.9l-4.6-3.7c-0.9-0.7-1.8-1.5-2.7-2.2c-0.9-0.7-1.7-1.4-2.2-1.8c-0.4-0.5-0.6-1-0.6-1.6
						c0-0.6,0.2-1.1,0.7-1.5c0.5-0.4,1-0.6,1.7-0.6c0.4,0,0.8,0.1,1.3,0.3c0.2,0.1,0.7,0.5,1.5,1.1c0.8,0.6,1.7,1.3,2.7,2.1
						c1,0.8,2,1.6,3.1,2.5c1.1,0.9,2,1.6,2.7,2.3l1.8,1.4l0,0c0.7,0.6,1.1,1.3,1.1,2c0,0.5-0.3,1.1-0.8,1.6l-6.1,4.4l-6.3,4.5
						c-0.5,0.2-1,0.3-1.4,0.3c-0.7,0-1.2-0.2-1.7-0.6c-0.5-0.4-0.7-0.9-0.7-1.5c0-0.5,0.2-1.1,0.6-1.6L141.4,212.9z"/>
				</g>
			</g>
		</g>
	</g>
	<g>
		<g>
			<circle class="st0" cx="145" cy="351.1" r="32.2"/>
		</g>
		<g>
			<path class="st1" d="M145,387.9c-20.3,0-36.8-16.5-36.8-36.8c0-20.3,16.5-36.8,36.8-36.8s36.8,16.5,36.8,36.8
				C181.8,371.4,165.3,387.9,145,387.9z M145,323.4c-15.3,0-27.7,12.4-27.7,27.7s12.4,27.7,27.7,27.7s27.7-12.4,27.7-27.7
				S160.2,323.4,145,323.4z"/>
		</g>
	</g>
	<g>
		<g>
			<circle class="st0" cx="362" cy="351.1" r="32.2"/>
		</g>
		<g>
			<path class="st1" d="M362,387.9c-20.3,0-36.8-16.5-36.8-36.8c0-20.3,16.5-36.8,36.8-36.8c20.3,0,36.8,16.5,36.8,36.8
				C398.8,371.4,382.3,387.9,362,387.9z M362,323.4c-15.3,0-27.7,12.4-27.7,27.7s12.4,27.7,27.7,27.7c15.3,0,27.7-12.4,27.7-27.7
				S377.2,323.4,362,323.4z"/>
		</g>
	</g>
	<g>
		<g>
			<circle class="st1" cx="145" cy="351.1" r="11.6"/>
		</g>
	</g>
	<g>
		<g>
			<circle class="st1" cx="362" cy="351.1" r="11.6"/>
		</g>
	</g>
	<g>
		<g>
			<g>
				<g>
					<path class="st0" d="M81.2,247.4L370.7,155l6.7,20.9l-203.1,64.9l-2,0.6c-3.9,18.1-17.1,35.8-34.5,41.4
						C112.7,290.7,88.6,270.5,81.2,247.4z"/>
				</g>
				<g>
					<path class="st1" d="M126.6,289c-22.5,0-42.9-18.7-49.8-40.2l-1.4-4.4l298.2-95.2l9.4,29.6l-207,66.1
						c-5.2,19.9-19.8,36.7-37,42.1C134.9,288.4,130.7,289,126.6,289z M87.2,250.3c8.2,19.3,28.7,34.6,49.1,28.1
						c14.7-4.7,27.6-20.3,31.5-38l0.6-2.6l4.6-1.4l198.7-63.5l-3.9-12.2L87.2,250.3z"/>
				</g>
			</g>
		</g>
		<g>
			<g>
				<path class="st0" d="M401.8,181.5l-22.3,6.9c-11.2,3.5-23-2.8-26.5-14l-1.5-4.7c-3.5-11.2,2.8-23,14-26.5l22.3-6.9
					c11.2-3.5,23,2.8,26.5,14l1.5,4.7C419.2,166.2,413,178,401.8,181.5z"/>
			</g>
			<g>
				<path class="st1" d="M373.3,193.9c-11,0-21.2-7.1-24.6-18.1l-1.5-4.7c-4.2-13.6,3.4-28,17-32.2l22.3-6.9
					c13.5-4.2,28,3.4,32.2,17l1.5,4.7c4.2,13.6-3.4,28-17,32.2l-22.3,6.9C378.4,193.5,375.8,193.9,373.3,193.9z M394.1,139.9
					c-1.6,0-3.3,0.2-4.9,0.7l-22.3,6.9c-8.7,2.7-13.6,12-10.9,20.8l1.5,4.7c2.7,8.7,12,13.6,20.8,11l22.3-6.9
					c8.7-2.7,13.7-12,11-20.8l-1.5-4.7C407.7,144.5,401.2,139.9,394.1,139.9z"/>
			</g>
		</g>
	</g>
	<g>
		<g>
			<g>
				<rect x="231.2" y="180.9" class="st0" width="43" height="167"/>
			</g>
			<g>
				<path class="st1" d="M278.7,352.5h-52.1V176.4h52.1V352.5z M235.7,343.4h33.9V185.5h-33.9V343.4z"/>
			</g>
		</g>
		<g>
			<g>
				<circle class="st1" cx="252.7" cy="208.7" r="9.5"/>
			</g>
		</g>
	</g>
</g>
</svg>
