<?xml version="1.0" encoding="utf-8"?>
<!-- Generator: Adobe Illustrator 26.2.1, SVG Export Plug-In . SVG Version: 6.00 Build 0)  -->
<svg version="1.1" id="Layer_1" xmlns="http://www.w3.org/2000/svg" xmlns:xlink="http://www.w3.org/1999/xlink" x="0px" y="0px"
	 viewBox="0 0 256 256" style="enable-background:new 0 0 256 256;" xml:space="preserve">
<style type="text/css">
	.st0{fill:#326CE5;}
</style>
<g>
	<path class="st0" d="M131.2,256c-53.8,0-110.9-14.1-110.9-40.2c0-26.1,57.1-40.2,110.9-40.2s110.9,14.1,110.9,40.2
		C242.1,241.9,185,256,131.2,256z M131.2,185c-59.8,0-101.4,16.2-101.4,30.8c0,14.6,41.7,30.8,101.4,30.8s101.4-16.2,101.4-30.8
		C232.6,201.2,191,185,131.2,185z"/>
</g>
<g>
	<g>
		<path class="st0" d="M131.2,221.5c-2.6,0-4.7-2.1-4.7-4.7v-152c0-2.6,2.1-4.7,4.7-4.7c2.6,0,4.7,2.1,4.7,4.7v152
			C135.9,219.3,133.8,221.5,131.2,221.5z"/>
	</g>
	<g>
		<circle class="st0" cx="131.2" cy="38.3" r="38.3"/>
	</g>
</g>
</svg>
