<?xml version="1.0" encoding="utf-8"?>
<!-- Generator: Adobe Illustrator 26.2.1, SVG Export Plug-In . SVG Version: 6.00 Build 0)  -->
<svg version="1.1" id="Layer_1" xmlns="http://www.w3.org/2000/svg" xmlns:xlink="http://www.w3.org/1999/xlink" x="0px" y="0px"
	 viewBox="0 0 512 512" style="enable-background:new 0 0 512 512;" xml:space="preserve">
<style type="text/css">
	.st0{fill:#326CE5;}
	.st1{fill:#FFFFFF;}
</style>
<g>
	<g>
		<rect x="0" y="0" class="st0" width="512" height="512"/>
	</g>
</g>
<g>
	<path class="st1" d="M259.5,377.4c-70.5,0-175.5-10.3-175.5-38.7s104.9-38.7,175.5-38.7c70.5,0,175.4,10.3,175.4,38.7
		S330,377.4,259.5,377.4z M259.5,309C158,309,93.2,326.5,93.2,338.6s64.8,29.6,166.3,29.6s166.3-17.5,166.3-29.6S361,309,259.5,309z
		"/>
</g>
<g>
	<g>
		<path class="st1" d="M152.3,352.2c-2.5,0-4.6-2-4.6-4.6V210.9c0-2.5,2-4.6,4.6-4.6s4.6,2,4.6,4.6v136.7
			C156.8,350.2,154.8,352.2,152.3,352.2z"/>
	</g>
	<g>
		<circle class="st1" cx="152.3" cy="193.8" r="24.9"/>
	</g>
</g>
<g>
	<g>
		<path class="st1" d="M358.2,338.9c-2.5,0-4.6-2-4.6-4.6V197.6c0-2.5,2-4.6,4.6-4.6c2.5,0,4.6,2,4.6,4.6v136.7
			C362.7,336.9,360.7,338.9,358.2,338.9z"/>
	</g>
	<g>
		<circle class="st1" cx="358.2" cy="180.4" r="24.9"/>
	</g>
</g>
<g>
	<g>
		<path class="st1" d="M290.1,360c-2.5,0-4.6-2-4.6-4.6V218.7c0-2.5,2-4.6,4.6-4.6s4.6,2,4.6,4.6v136.7
			C294.6,357.9,292.6,360,290.1,360z"/>
	</g>
	<g>
		<circle class="st1" cx="290.1" cy="201.5" r="24.9"/>
	</g>
</g>
<g>
	<g>
		<path class="st1" d="M211.8,331.2c-2.5,0-4.6-2-4.6-4.6V189.9c0-2.5,2-4.6,4.6-4.6c2.5,0,4.6,2,4.6,4.6v136.7
			C216.4,329.1,214.3,331.2,211.8,331.2z"/>
	</g>
	<g>
		<circle class="st1" cx="211.8" cy="172.7" r="24.9"/>
	</g>
</g>
</svg>
