<?xml version="1.0" encoding="utf-8"?>
<!-- Generator: Adobe Illustrator 26.2.1, SVG Export Plug-In . SVG Version: 6.00 Build 0)  -->
<svg version="1.1" id="Layer_1" xmlns="http://www.w3.org/2000/svg" xmlns:xlink="http://www.w3.org/1999/xlink" x="0px" y="0px"
	 viewBox="0 0 512 512" style="enable-background:new 0 0 512 512;" xml:space="preserve">
<style type="text/css">
	.st0{fill:#326CE5;}
	.st1{fill:#FFFFFF;}
</style>
<g>
	<g>
		<rect x="0" y="0" class="st0" width="512" height="512"/>
	</g>
</g>
<g>
	<path class="st1" d="M201.6,376.8l-2.4-0.1c-65.1-2.6-141.1-14.2-141.1-38.1c0-28.4,104.9-38.7,175.5-38.7c5.7,0,11.3,0.1,16.9,0.2
		l8.9,0.2L201.6,376.8z M233.5,309C132,309,67.2,326.6,67.2,338.6c0,9.8,45.1,25.1,130,28.8l44.1-58.4
		C238.7,309,236.1,309,233.5,309z"/>
</g>
<g>
	<g>
		<path class="st1" d="M126.3,352.2c-2.5,0-4.6-2-4.6-4.6V210.9c0-2.5,2-4.6,4.6-4.6c2.5,0,4.6,2,4.6,4.6v136.7
			C130.8,350.2,128.8,352.2,126.3,352.2z"/>
	</g>
	<g>
		<circle class="st1" cx="126.3" cy="193.8" r="24.9"/>
	</g>
</g>
<g>
	<g>
		<path class="st1" d="M383.1,338.9c-2.5,0-4.6-2-4.6-4.6V197.6c0-2.5,2-4.6,4.6-4.6s4.6,2,4.6,4.6v136.7
			C387.7,336.9,385.6,338.9,383.1,338.9z"/>
	</g>
	<g>
		<circle class="st1" cx="383.1" cy="180.4" r="24.9"/>
	</g>
</g>
<g>
	<g>
		<path class="st1" d="M315,360c-2.5,0-4.6-2-4.6-4.6V218.7c0-2.5,2-4.6,4.6-4.6c2.5,0,4.6,2,4.6,4.6v136.7
			C319.6,357.9,317.5,360,315,360z"/>
	</g>
	<g>
		<circle class="st1" cx="315" cy="201.5" r="24.9"/>
	</g>
</g>
<g>
	<g>
		<path class="st1" d="M185.8,331.2c-2.5,0-4.6-2-4.6-4.6V189.9c0-2.5,2-4.6,4.6-4.6c2.5,0,4.6,2,4.6,4.6v136.7
			C190.4,329.1,188.3,331.2,185.8,331.2z"/>
	</g>
	<g>
		<circle class="st1" cx="185.8" cy="172.7" r="24.9"/>
	</g>
</g>
<g>
	<path class="st1" d="M282,379.8c-11.6,0-23.2-0.2-34.3-0.7l-8.7-0.4l57.6-76.3l2.3,0c58.9,1.2,158.6,10.6,158.6,38.6
		C457.4,369.5,352.5,379.8,282,379.8z M256.8,370.3c8.3,0.2,16.7,0.4,25.2,0.4c101.5,0,166.3-17.5,166.3-29.6
		c0-10.8-52.4-27.3-147.3-29.4L256.8,370.3z"/>
</g>
<g>
	<g>
		<path class="st1" d="M210.7,396.9c-1,0-1.9-0.3-2.7-0.9c-2-1.5-2.4-4.4-0.9-6.4l5.5-7.3c1.5-2,4.4-2.4,6.4-0.9
			c2,1.5,2.4,4.4,0.9,6.4l-5.5,7.3C213.5,396.3,212.1,396.9,210.7,396.9z"/>
	</g>
	<g>
		<path class="st1" d="M226,376.6c-1,0-1.9-0.3-2.7-0.9c-2-1.5-2.4-4.4-0.9-6.4l9.8-13c1.5-2,4.4-2.4,6.4-0.9c2,1.5,2.4,4.4,0.9,6.4
			l-9.8,13C228.7,376,227.4,376.6,226,376.6z M245.5,350.7c-1,0-1.9-0.3-2.7-0.9c-2-1.5-2.4-4.4-0.9-6.4l9.8-13
			c1.5-2,4.4-2.4,6.4-0.9c2,1.5,2.4,4.4,0.9,6.4l-9.8,13C248.3,350.1,246.9,350.7,245.5,350.7z M265,324.8c-1,0-1.9-0.3-2.7-0.9
			c-2-1.5-2.4-4.4-0.9-6.4l9.8-13c1.5-2,4.4-2.4,6.4-0.9c2,1.5,2.4,4.4,0.9,6.4l-9.8,13C267.8,324.2,266.4,324.8,265,324.8z"/>
	</g>
	<g>
		<path class="st1" d="M284.6,298.9c-1,0-1.9-0.3-2.7-0.9c-2-1.5-2.4-4.4-0.9-6.4l5.5-7.3c1.5-2,4.4-2.4,6.4-0.9
			c2,1.5,2.4,4.4,0.9,6.4l-5.5,7.3C287.3,298.3,285.9,298.9,284.6,298.9z"/>
	</g>
</g>
</svg>
