<?xml version="1.0" encoding="utf-8"?>
<!-- Generator: Adobe Illustrator 26.2.1, SVG Export Plug-In . SVG Version: 6.00 Build 0)  -->
<svg version="1.1" id="Layer_1" xmlns="http://www.w3.org/2000/svg" xmlns:xlink="http://www.w3.org/1999/xlink" x="0px" y="0px"
	 viewBox="0 0 512 512" style="enable-background:new 0 0 512 512;" xml:space="preserve">
<style type="text/css">
	.st0{fill:#326CE5;}
	.st1{fill:#FFFFFF;}
</style>
<g>
	<g>
		<g>
			<rect x="0" class="st0" width="512" height="512"/>
		</g>
	</g>
	<g>
		<path class="st1" d="M256,265.3c-47.6,0-98.2-12.7-98.2-36.1s50.6-36.1,98.2-36.1s98.2,12.7,98.2,36.1S303.6,265.3,256,265.3z
			 M256,202.6c-54.9,0-88.7,15.5-88.7,26.6s33.7,26.6,88.7,26.6s88.7-15.5,88.7-26.6S310.9,202.6,256,202.6z"/>
	</g>
	<g>
		<path class="st1" d="M349.4,229.2c0,17.3-41.8,31.3-93.4,31.3s-93.4-14-93.4-31.3v45.8c0,17.3,41.8,31.3,93.4,31.3
			s93.4-14,93.4-31.3V229.2z"/>
		<path class="st1" d="M256,311c-47.6,0-98.2-12.7-98.2-36.1v-45.8h9.5c0,11.1,33.7,26.6,88.7,26.6s88.7-15.5,88.7-26.6h9.5v45.8
			C354.2,298.4,303.6,311,256,311z M167.3,245.4v29.5c0,11.1,33.7,26.6,88.7,26.6s88.7-15.5,88.7-26.6v-29.5
			c-16.9,13-53.6,19.9-88.7,19.9S184.2,258.4,167.3,245.4z"/>
	</g>
	<g>
		<path class="st1" d="M444.7,169.2c-0.1-9.1-0.4-15.1-0.4-15.1c-0.1-2.5-2.3-4.4-4.8-4.3c-1,0.1-1.9,0.4-2.6,1
			c-7.4,5.9-15.4,11.1-23.8,15.4c-7.1,3.2-14.5,5.7-22,7.7c-4.9,1.4-10.5,3.1-17.1,5.2c-8.9,2.7-17,7.8-23.2,14.8
			c-1.7,1.9-1.5,4.7,0.4,6.4c1.9,1.6,4.7,1.5,6.4-0.4c5.2-5.7,11.9-9.9,19.2-12.2c6.5-2.1,12.1-3.7,17-5.1c8-2.1,15.9-4.8,23.4-8.2
			c6.5-3.2,12.7-7,18.5-11.2c0,1.8,0.1,3.9,0.1,6.1c0.1,3.8-1.7,7.4-4.8,9.6c-3.5,2.5-7,4.8-10.4,6.9c-4,2.3-8.1,4.3-12.4,6.1
			c-2.3,0.9-3.5,3.5-2.6,5.9c0.9,2.3,3.5,3.5,5.9,2.6c4.8-1.9,9.3-4.2,13.8-6.8c2.2-1.3,4.4-2.8,6.6-4.3v0.6c0,3.8-1.9,7.4-5,9.6
			c-4.1,2.9-7.3,5.1-14.9,9.7c-3.7,2.2-7.5,4.1-11.4,5.8c-2.3,1-3.4,3.6-2.4,5.9c0.7,1.7,2.4,2.8,4.2,2.8c0.6,0,1.2-0.1,1.8-0.4
			c4.3-1.9,8.5-4,12.6-6.4c3.8-2.3,6.5-4.1,8.9-5.6c-1,3.2-2.6,6.3-4.8,8.9c-8.2,9.3-18.5,16.4-30,20.8c-8.1,2.7-16.5,4.6-25,5.8
			c-2.5,0.4-4.2,2.7-3.8,5.2c0.3,2.2,2.2,3.9,4.4,3.9c0.2,0,0.4,0,0.7,0c9.1-1.2,18-3.3,26.6-6.2c13.3-5,25.1-13.2,34.3-24
			c4-4.8,6.5-10.6,7.1-16.8l0.4-5.1c3.5-3.8,5.4-8.8,5.4-13.9v-8.7C443.3,177.8,444.7,173.5,444.7,169.2z"/>
	</g>
	<g>
		<path class="st1" d="M95,174.4c7.6,3.4,15.4,6.2,23.4,8.2c4.8,1.4,10.4,3,17,5.1c7.4,2.2,14,6.5,19.2,12.2c1.7,1.9,4.5,2,6.4,0.4
			c1.9-1.7,2-4.5,0.4-6.4l0,0c-6.3-6.9-14.3-12-23.3-14.8c-6.7-2.1-12.2-3.8-17.2-5.2c-7.5-1.9-14.9-4.5-22-7.7
			c-8.4-4.3-16.4-9.5-23.8-15.4c-1.9-1.6-4.8-1.3-6.4,0.6c-0.6,0.7-1,1.7-1,2.6c0,0-0.3,6-0.4,15.1c0,4.3,1.3,8.6,3.9,12.1v8.7
			c0,5.2,2,10.1,5.4,13.9l0.4,5.1c0.6,6.2,3.1,12,7.1,16.8c9.2,10.8,21.1,19,34.3,24c8.7,2.9,17.6,4.9,26.7,6.2c0.2,0,0.4,0,0.7,0
			c2.5,0,4.5-2.1,4.5-4.6c0-2.2-1.7-4.1-3.9-4.5c-8.5-1.1-16.9-3.1-25-5.8c-11.6-4.4-21.9-11.6-30-20.8c-2.1-2.6-3.7-5.7-4.8-8.9
			c2.3,1.5,5,3.2,8.8,5.6c4.1,2.4,8.3,4.5,12.6,6.4c0.6,0.2,1.2,0.4,1.8,0.4c2.5,0,4.5-2,4.5-4.5c0-1.8-1.1-3.5-2.8-4.2
			c-3.9-1.7-7.7-3.6-11.4-5.8c-7.6-4.6-10.8-6.8-14.9-9.7c-3.1-2.2-5-5.8-5-9.6v-0.6c2.2,1.5,4.4,3,6.6,4.3c4.4,2.6,9,4.8,13.8,6.7
			c2.3,0.9,5-0.3,5.9-2.6c0.9-2.3-0.3-5-2.6-5.9c-4.3-1.7-8.4-3.7-12.3-6.1c-3.4-2.1-6.9-4.4-10.4-6.9c-3.1-2.2-4.8-5.8-4.8-9.6
			c0-2.3,0.1-4.3,0.1-6.1C82.3,167.4,88.5,171.1,95,174.4z"/>
	</g>
	<g>
		<path class="st1" d="M252.3,436.5c-2.6,0-4.8-2.1-4.8-4.8V348c0-2.6,2.1-4.8,4.8-4.8s4.8,2.1,4.8,4.8v83.7
			C257.1,434.3,255,436.5,252.3,436.5z"/>
	</g>
	<g>
		<path class="st1" d="M220.9,374c-2.6,0-4.8-2.1-4.8-4.8v-42.6c0-2.6,2.1-4.8,4.8-4.8s4.8,2.1,4.8,4.8v42.6
			C225.7,371.9,223.5,374,220.9,374z"/>
	</g>
	<g>
		<path class="st1" d="M280.2,408.2c-2.6,0-4.8-2.1-4.8-4.8v-72.8c0-2.6,2.1-4.8,4.8-4.8s4.8,2.1,4.8,4.8v72.8
			C285,406,282.8,408.2,280.2,408.2z"/>
	</g>
</g>
</svg>
