<?xml version="1.0" encoding="utf-8"?>
<!-- Generator: Adobe Illustrator 26.2.1, SVG Export Plug-In . SVG Version: 6.00 Build 0)  -->
<svg version="1.1" id="Layer_1" xmlns="http://www.w3.org/2000/svg" xmlns:xlink="http://www.w3.org/1999/xlink" x="0px" y="0px"
	 viewBox="0 0 512 512" style="enable-background:new 0 0 512 512;" xml:space="preserve">
<style type="text/css">
	.st0{fill:#326CE5;}
	.st1{fill:#FFFFFF;}
</style>
<g>
	<g>
		<g>
			<rect x="0" class="st0" width="512" height="512"/>
		</g>
	</g>
</g>
<g>
	<g>
		<path class="st1" d="M379.8,260.4c-1.2,0.1-2.4,0.1-3.7,0.1c-7.4,0-14.6-1.7-21.1-4.9c2.2-12.4,3.1-24.9,2.8-37.3
			c-7-10.2-15.1-19.8-24.1-28.6c3.9-7.4,9.8-13.7,17-18.2l3.1-1.9l-2.4-2.7c-12.5-14.1-27.5-25-44.4-32.4l-3.4-1.5l-0.9,3.6
			c-2,8.3-6.2,15.8-12,21.9c-11.1-5.9-22.8-10.7-34.8-14.3c-12,3.6-23.7,8.4-34.7,14.3c-5.8-6-10-13.5-12-21.8l-0.9-3.6l-3.4,1.5
			c-16.7,7.3-32.1,18.5-44.4,32.4l-2.4,2.7l3.1,1.9c7.2,4.5,13,10.8,17,18.1c-9,8.8-17.1,18.4-24.1,28.5c-0.3,12.4,0.6,25,2.8,37.6
			c-6.5,3.2-13.6,4.9-21,4.9c-1.3,0-2.5,0-3.7-0.1l-3.7-0.3l0.3,3.7c1.8,18.5,7.5,36.1,17.1,52.3l1.9,3.2l2.8-2.4
			c6.5-5.5,14.3-9.1,22.6-10.6c5.4,11.1,11.9,21.7,19.4,31.6c11.8,4.1,24,7.2,36.7,9c1.2,8.4,0.2,17-3.1,25.1l-1.4,3.4l3.6,0.8
			c9.2,2,18.4,3,27.5,3l27.5-3l3.6-0.8l-1.4-3.4c-3.3-8-4.3-16.7-3-25.1c12.6-1.8,24.8-4.9,36.6-9c7.5-9.9,14-20.5,19.4-31.6
			c8.4,1.5,16.2,5.1,22.7,10.6l2.8,2.4l1.9-3.2c9.6-16.2,15.3-33.8,17.1-52.3l0.3-3.6L379.8,260.4L379.8,260.4z M295.3,305.1
			c-13,3.5-26.2,5.3-39.4,5.3c-13.2,0-26.4-1.8-39.4-5.3c-7.1-11.1-12.8-23-16.9-35.5c-4-12.5-6.4-25.5-7.1-39
			c8.4-10.4,18-19.5,28.5-27.2c10.7-7.8,22.4-14.2,34.8-18.9c12.4,4.8,24,11.1,34.7,18.9c10.6,7.7,20.2,16.9,28.7,27.3
			c-0.7,13.4-3.1,26.3-7.2,38.8C308.1,282.1,302.5,294,295.3,305.1z M266.7,242.4c0,9.2,7.4,16.6,16.6,16.6
			c9.2,0,16.6-7.4,16.6-16.6c0-9.2-7.4-16.6-16.6-16.6C274.1,225.8,266.7,233.2,266.7,242.4L266.7,242.4z M245.2,242.4
			c0,9.2-7.4,16.6-16.6,16.6c-9.2,0-16.6-7.4-16.6-16.6c0-9.2,7.4-16.6,16.6-16.6C237.8,225.8,245.2,233.2,245.2,242.4L245.2,242.4z
			"/>
	</g>
</g>
</svg>
