<?xml version="1.0" encoding="utf-8"?>
<!-- Generator: Adobe Illustrator 26.2.1, SVG Export Plug-In . SVG Version: 6.00 Build 0)  -->
<svg version="1.1" id="Layer_1" xmlns="http://www.w3.org/2000/svg" xmlns:xlink="http://www.w3.org/1999/xlink" x="0px" y="0px"
	 viewBox="0 0 512 512" style="enable-background:new 0 0 512 512;" xml:space="preserve">
<style type="text/css">
	.st0{fill:#326CE5;}
	.st1{fill:#FFFFFF;}
	.st2{fill:none;}
</style>
<g>
	<g>
		<rect x="0" y="0" class="st0" width="512" height="512"/>
	</g>
	<path class="st1" d="M254.9,243.4c-0.1,0-0.2,0-0.3,0C254.7,243.4,254.8,243.4,254.9,243.4z M255.5,243.5c0.4,0,0.7,0,1.1,0
		C256.2,243.5,255.8,243.5,255.5,243.5z M257.5,243.4c-0.1,0-0.2,0-0.3,0C257.3,243.4,257.4,243.4,257.5,243.4z M370,155L261.3,84.3
		c-3.2-2.1-7.4-2.1-10.6,0L142,155c-4.5,2.9-5.8,8.9-2.8,13.4c0.7,1.1,1.7,2.1,2.8,2.8l102.5,66.7v-48.5c0-3.2-2.6-5.7-5.7-5.7h-7.5
		c-3.2,0-5.7-2.6-5.7-5.7c0-1,0.3-2,0.8-2.9l24.7-42.8c1.6-2.7,5.1-3.7,7.8-2.1c0.9,0.5,1.6,1.2,2.1,2.1l24.7,42.8
		c1.6,2.7,0.6,6.2-2.1,7.8c-0.9,0.5-1.9,0.8-2.9,0.8h-7.5c-3.2,0-5.7,2.6-5.7,5.7v48.5L370,171.3c4.5-2.9,5.8-8.9,2.8-13.4
		C372.1,156.7,371.1,155.7,370,155z"/>
	<path class="st2" d="M250.7,414.7c1,0.6,2.1,1.1,3.3,1.3c-2.1-1.2-4.2-2.3-6.3-3.3L250.7,414.7z M244.6,261.1l-10.8,7
		c3.5,2.3,7.1,4.4,10.8,6.3V261.1z M267.5,283.7c9.3,3,18.9,5.4,28.7,7.8c10.4,2.6,20.9,5.2,31.3,8.6l-33.7-21.9
		c-8.9-2.4-17.7-5.4-26.2-9L267.5,283.7z M267.5,343v0.6c0,2.4-2.6,4.4-5.7,4.4h-11.4c-3.2,0-5.7-2-5.7-4.4v-6.3
		c-23.7-6.1-47.5-13.8-67.5-32.2l-13.8,9c21.4,21,47.9,27.6,76,34.5c25.9,6.4,52.6,13,75,31.9l14-9.1
		C310.5,355.5,289.6,348.7,267.5,343z M174.1,364.8l37.1,24.1c19.1,4.9,38.3,10.7,55.6,22.3l14.2-9.2c-18.8-13-40.5-18.4-63.3-24
		C203,374.4,188.2,370.7,174.1,364.8z M244.6,286.5c-7.2-3.3-14.1-7.3-20.5-12l-14.1,9.2c10.5,7.8,22.2,13.8,34.6,17.8V286.5z
		 M293.6,302c-8.7-2.1-17.4-4.3-26.1-7v13c3.2,0.8,6.4,1.6,9.7,2.4c28.5,7,58,14.3,81.7,37.9c0.6,0.6,1.1,1.2,1.7,1.8l9.5-6.2
		c1.4-0.9,2.5-2.1,3.3-3.6c-1-1.1-2-2.2-3.1-3.3C348.6,315.6,321.9,309,293.6,302L293.6,302z M274.6,321c-2.4-0.6-4.7-1.2-7.1-1.8
		v12.6c24.6,6.3,49.4,14,70,33.4l13.8-9c0,0-0.1-0.1-0.1-0.1C329.7,334.6,302.9,328,274.6,321L274.6,321z M244.6,312.8
		c-15.5-5-30.6-11.8-44.2-23l-14,9.1c17,14.8,37,21.6,58.1,27.2L244.6,312.8z"/>
	<path class="st2" d="M154.9,321c-0.3-0.3-0.6-0.7-1-1l-11.9,7.8c-0.6,0.4-1.1,0.8-1.6,1.3c1,1.1,2,2.2,3.1,3.3
		c21.5,21.5,48.3,28.1,76.6,35.1c24.1,6,49,12.1,70.4,28.2l14.1-9.2c-19.9-15.6-43.4-21.4-68.1-27.5
		C208.1,351.9,178.6,344.7,154.9,321z"/>
	<path class="st1" d="M293.7,278.2l-26.2-17v8.1C276,272.8,284.7,275.8,293.7,278.2z M267.5,283.7V295c8.7,2.6,17.4,4.8,26.1,7
		c28.3,7,55.1,13.6,76.6,35.1c1.1,1.1,2.1,2.2,3.1,3.3c2.3-4.4,0.9-9.9-3.3-12.7l-42.6-27.7c-10.3-3.4-20.9-6-31.3-8.6
		C286.3,289.1,276.7,286.7,267.5,283.7L267.5,283.7z M244.6,274.4c-3.7-1.9-7.3-4-10.8-6.3l-9.7,6.3c6.4,4.7,13.3,8.7,20.5,12V274.4
		z M277.2,310.5c-3.3-0.8-6.5-1.6-9.7-2.4v11.1c2.4,0.6,4.7,1.2,7.1,1.8c28.3,7,55.1,13.6,76.6,35.1c0,0,0.1,0.1,0.1,0.1l9.2-6
		c-0.6-0.6-1.1-1.2-1.7-1.8C335.2,324.8,305.7,317.5,277.2,310.5L277.2,310.5z M244.6,301.4c-12.4-4-24.1-10-34.6-17.8l-9.5,6.2
		c13.6,11.2,28.6,18,44.2,23L244.6,301.4z M244.6,326.1c-21.2-5.6-41.1-12.3-58.1-27.2l-9.4,6.1c20,18.4,43.8,26.1,67.5,32.2
		L244.6,326.1z M267.5,343c22.2,5.7,43,12.6,60.7,28.3l9.3-6.1c-20.6-19.4-45.4-27.1-70-33.4L267.5,343z M163.2,314l-9.2,6
		c0.3,0.3,0.6,0.7,1,1c23.6,23.6,53.1,30.9,81.7,37.9c24.7,6.1,48.2,11.9,68.1,27.5l9.5-6.2c-22.4-18.9-49.1-25.5-75-31.9
		C211.1,341.6,184.6,335,163.2,314L163.2,314z M143.6,332.4c-1.1-1.1-2.1-2.2-3.1-3.3c-3.8,3.8-3.8,9.9,0,13.7
		c0.5,0.5,1,0.9,1.6,1.3l32,20.8c14.2,5.9,29,9.5,43.5,13.1c22.7,5.6,44.5,11,63.3,24l9.7-6.3c-21.4-16.1-46.2-22.3-70.4-28.2
		C191.9,360.5,165.1,353.9,143.6,332.4L143.6,332.4z M247.7,412.7c2.1,1,4.2,2.1,6.3,3.3c2.5,0.5,5.1,0.1,7.3-1.3l5.4-3.5
		c-17.3-11.5-36.4-17.4-55.6-22.3L247.7,412.7z"/>
</g>
</svg>
