<?xml version="1.0" encoding="utf-8"?>
<!-- Generator: Adobe Illustrator 26.2.1, SVG Export Plug-In . SVG Version: 6.00 Build 0)  -->
<svg version="1.1" id="Layer_1" xmlns="http://www.w3.org/2000/svg" xmlns:xlink="http://www.w3.org/1999/xlink" x="0px" y="0px"
	 viewBox="0 0 256 256" style="enable-background:new 0 0 256 256;" xml:space="preserve">
<style type="text/css">
	.st0{fill:#326CE5;}
</style>
<g>
	<g>
		<path class="st0" d="M218.7,64h-53.3c-2.9,0-5.3-2.4-5.3-5.3V5.3c0-2.9-2.4-5.3-5.3-5.3H48c-8.8,0-16,7.2-16,16v224
			c0,8.8,7.2,16,16,16h160c8.8,0,16-7.2,16-16V69.3C224,66.4,221.6,64,218.7,64z M213.3,240c0,2.9-2.4,5.3-5.3,5.3H48
			c-2.9,0-5.3-2.4-5.3-5.3V16c0-2.9,2.4-5.3,5.3-5.3h101.3v48c0,8.8,7.2,16,16,16h48V240z"/>
	</g>
</g>
<g>
	<g>
		<path class="st0" d="M222.4,65.6l-64-64c-2.1-2.1-5.5-2.1-7.5,0s-2.1,5.5,0,7.5l64,64c1,1,2.4,1.6,3.8,1.6s2.7-0.5,3.8-1.6
			C224.5,71,224.5,67.6,222.4,65.6z"/>
	</g>
</g>
<g>
	<g id="g3052_00000037655607229954472960000017143446487578732202_">
		<path id="path3059_00000001642341289519147220000014896120210779604656_" class="st0" d="M122.8,80.7c-1.7,0-3.1,1.6-3.1,3.5
			c0,0,0,0.1,0,0.1c0,0.3,0,0.6,0,0.8c0,1.1,0.3,2,0.4,3c0.3,2.2,0.5,4,0.3,5.7c-0.1,0.6-0.6,1.2-1,1.6l-0.1,1.3
			c-1.9,0.2-3.8,0.4-5.7,0.9c-8.1,1.8-15.1,6-20.5,11.7c-0.3-0.2-1-0.7-1.1-0.8c-0.6,0.1-1.1,0.2-1.9-0.2c-1.4-0.9-2.7-2.2-4.2-3.8
			c-0.7-0.8-1.2-1.5-2.1-2.2c-0.2-0.2-0.5-0.4-0.7-0.6c-0.7-0.5-1.4-0.8-2.2-0.8c-1,0-1.9,0.3-2.5,1.1c-1.1,1.4-0.7,3.4,0.8,4.6
			c0,0,0,0,0,0c0.2,0.2,0.5,0.4,0.6,0.5c0.9,0.7,1.7,1,2.6,1.5c1.9,1.2,3.4,2.1,4.7,3.3c0.5,0.5,0.6,1.4,0.6,1.8l1,0.9
			c-5.4,8.1-7.9,18.1-6.4,28.2l-1.3,0.4c-0.3,0.4-0.8,1.1-1.3,1.4c-1.6,0.5-3.4,0.7-5.6,0.9c-1,0.1-1.9,0-3,0.2
			c-0.2,0-0.6,0.1-0.8,0.2c0,0,0,0,0,0c0,0,0,0,0,0c-1.8,0.4-3,2.1-2.6,3.8c0.4,1.7,2.2,2.7,4,2.3c0,0,0,0,0,0c0,0,0,0,0.1,0
			c0.3-0.1,0.6-0.1,0.8-0.2c1.1-0.3,1.8-0.7,2.8-1.1c2.1-0.7,3.8-1.4,5.5-1.6c0.7-0.1,1.4,0.4,1.8,0.6l1.4-0.2
			c3.1,9.7,9.7,17.6,18.1,22.5l-0.6,1.4c0.2,0.5,0.4,1.2,0.3,1.8c-0.6,1.6-1.6,3.2-2.8,5.1c-0.6,0.9-1.2,1.5-1.7,2.5
			c-0.1,0.2-0.3,0.6-0.4,0.8c-0.8,1.7-0.2,3.7,1.3,4.4c1.6,0.7,3.5,0,4.3-1.8c0,0,0,0,0,0c0,0,0,0,0,0c0.1-0.2,0.3-0.6,0.4-0.8
			c0.4-1,0.6-1.9,0.9-2.9c0.8-2.1,1.3-4.3,2.4-5.6c0.3-0.4,0.8-0.5,1.3-0.7l0.7-1.3c7.3,2.8,15.4,3.5,23.5,1.7
			c1.9-0.4,3.6-1,5.4-1.6c0.2,0.4,0.6,1,0.7,1.2c0.5,0.2,1.1,0.3,1.6,1c0.9,1.5,1.4,3.2,2.1,5.3c0.3,1,0.5,1.9,0.9,2.9
			c0.1,0.2,0.3,0.6,0.4,0.8c0.8,1.7,2.8,2.5,4.3,1.8c1.5-0.7,2.1-2.7,1.3-4.4c-0.1-0.2-0.3-0.6-0.4-0.8c-0.5-1-1.1-1.6-1.7-2.5
			c-1.2-1.9-2.2-3.4-2.8-5c-0.3-0.8,0-1.3,0.2-1.8c-0.1-0.1-0.4-0.9-0.5-1.3c8.7-5.1,15-13.3,18-22.7c0.4,0.1,1.1,0.2,1.3,0.2
			c0.5-0.3,0.9-0.7,1.8-0.6c1.7,0.2,3.4,0.9,5.5,1.6c1,0.4,1.7,0.8,2.8,1.1c0.2,0.1,0.6,0.1,0.8,0.2c0,0,0,0,0.1,0c0,0,0,0,0,0
			c1.9,0.4,3.7-0.6,4-2.3c0.4-1.7-0.8-3.4-2.6-3.8c-0.3-0.1-0.6-0.2-0.9-0.2c-1.1-0.2-2-0.2-3-0.2c-2.2-0.2-4-0.4-5.6-0.9
			c-0.7-0.3-1.1-1-1.4-1.4l-1.3-0.4c0.7-4.7,0.5-9.7-0.7-14.6c-1.1-5-3.2-9.5-5.9-13.6c0.3-0.3,0.9-0.8,1.1-1c0.1-0.6,0-1.2,0.6-1.8
			c1.2-1.2,2.8-2.1,4.7-3.3c0.9-0.5,1.7-0.9,2.6-1.5c0.2-0.1,0.5-0.4,0.7-0.6c1.5-1.2,1.8-3.3,0.8-4.6s-3.2-1.5-4.7-0.3
			c-0.2,0.2-0.5,0.4-0.7,0.6c-0.8,0.7-1.4,1.4-2.1,2.2c-1.5,1.6-2.8,2.9-4.2,3.8c-0.6,0.4-1.5,0.2-1.9,0.2l-1.2,0.8
			c-6.8-7.1-16-11.7-26-12.6c0-0.4-0.1-1.2-0.1-1.4c-0.4-0.4-0.9-0.7-1-1.6c-0.1-1.7,0.1-3.5,0.4-5.7c0.1-1,0.4-1.9,0.4-3
			c0-0.3,0-0.6,0-0.9C125.9,82.3,124.5,80.7,122.8,80.7L122.8,80.7z M118.9,105l-0.9,16.4l-0.1,0c-0.1,1.5-1.3,2.6-2.8,2.6
			c-0.6,0-1.2-0.2-1.6-0.5l0,0l-13.5-9.5c4.1-4.1,9.4-7.1,15.5-8.5C116.7,105.3,117.8,105.1,118.9,105z M126.7,105
			c7.1,0.9,13.7,4.1,18.8,9l-13.4,9.5l0,0c-1.2,0.9-2.9,0.7-3.8-0.5c-0.4-0.5-0.6-1-0.6-1.6l0,0L126.7,105z M95.1,120.2l12.3,11
			l0,0.1c1.1,1,1.3,2.6,0.3,3.8c-0.4,0.5-0.9,0.8-1.4,0.9l0,0.1l-15.8,4.5C89.7,133.3,91.5,126.1,95.1,120.2z M150.4,120.2
			c1.8,3,3.2,6.3,4,9.9c0.8,3.5,1,7.1,0.7,10.5l-15.8-4.6l0-0.1c-1.4-0.4-2.3-1.8-2-3.3c0.1-0.6,0.4-1.1,0.9-1.5l0,0L150.4,120.2
			L150.4,120.2z M120.3,132h5l3.1,3.9l-1.1,4.9l-4.5,2.2l-4.5-2.2l-1.1-4.9L120.3,132z M136.4,145.4c0.2,0,0.4,0,0.6,0l0,0l16.3,2.8
			c-2.4,6.7-7,12.5-13.1,16.4l-6.3-15.3l0,0c-0.6-1.4,0-2.9,1.3-3.6C135.7,145.5,136.1,145.4,136.4,145.4L136.4,145.4z M109,145.5
			c1.2,0,2.4,0.9,2.6,2.1c0.1,0.6,0.1,1.2-0.2,1.7l0,0.1l-6.3,15.1c-5.9-3.8-10.5-9.4-13-16.3l16.2-2.7l0,0
			C108.7,145.5,108.9,145.5,109,145.5L109,145.5z M122.7,152.1c0.4,0,0.9,0.1,1.3,0.3c0.5,0.3,1,0.7,1.2,1.2h0.1l8,14.4
			c-1,0.3-2.1,0.6-3.2,0.9c-6.1,1.4-12.2,1-17.7-0.9l7.9-14.4h0C120.8,152.7,121.7,152.2,122.7,152.1z"/>
	</g>
</g>
</svg>
