<?xml version="1.0" encoding="utf-8"?>
<!-- Generator: Adobe Illustrator 26.2.1, SVG Export Plug-In . SVG Version: 6.00 Build 0)  -->
<svg version="1.1" id="Layer_1" xmlns="http://www.w3.org/2000/svg" xmlns:xlink="http://www.w3.org/1999/xlink" x="0px" y="0px"
	 viewBox="0 0 256 256" style="enable-background:new 0 0 256 256;" xml:space="preserve">
<style type="text/css">
	.st0{fill:#326CE5;}
	.st1{fill:#FFFFFF;}
</style>
<g>
	<g>
		<g>
			<g>
				<path class="st0" d="M187.6,101.7c21.8,0,39.7-17.8,39.7-39.7s-17.8-39.7-39.7-39.7S148,40.2,148,62.1S165.8,101.7,187.6,101.7z
					"/>
			</g>
			<g>
				<path class="st0" d="M255.7,128.1c-1-2.6-2.4-5-4-7.3c-8-11.8-20.3-19.6-34.1-21.5c-1.7-0.2-3.6,0.2-5,1.2
					c-7.3,5.4-15.9,8.1-24.9,8.1s-17.7-2.8-24.9-8.1c-1.4-1-3.3-1.6-5-1.2c-13.9,1.9-26.3,9.7-34.1,21.5c-1.6,2.3-2.9,4.8-4,7.3
					c-0.5,1-0.3,2.3,0.2,3.3c1.4,2.4,3.1,4.8,4.7,6.9c2.4,3.3,5,6.2,8,9c2.4,2.4,5.2,4.7,8,6.9c13.7,10.2,30.1,15.6,47.1,15.6
					s33.4-5.4,47.1-15.6c2.8-2.1,5.5-4.5,8-6.9c2.8-2.8,5.5-5.7,8-9c1.7-2.3,3.3-4.5,4.7-6.9C256.1,130.3,256.2,129.1,255.7,128.1z"
					/>
			</g>
		</g>
	</g>
</g>
<g>
	<g>
		<g>
			<g>
				<path class="st0" d="M68.9,101.7c21.8,0,39.7-17.8,39.7-39.7S90.7,22.4,68.9,22.4S29.3,40.2,29.3,62.1S47.1,101.7,68.9,101.7z"
					/>
			</g>
			<g>
				<path class="st0" d="M137,128.1c-1-2.6-2.4-5-4-7.3c-8-11.8-20.3-19.6-34.1-21.5c-1.7-0.2-3.6,0.2-5,1.2
					c-7.3,5.4-15.9,8.1-24.9,8.1s-17.7-2.8-24.9-8.1c-1.4-1-3.3-1.6-5-1.2c-13.9,1.9-26.3,9.7-34.1,21.5c-1.6,2.3-2.9,4.8-4,7.3
					c-0.5,1-0.3,2.3,0.2,3.3c1.4,2.4,3.1,4.8,4.7,6.9c2.4,3.3,5,6.2,8,9c2.4,2.4,5.2,4.7,8,6.9c13.7,10.2,30.1,15.6,47.1,15.6
					s33.4-5.4,47.1-15.6c2.8-2.1,5.5-4.5,8-6.9c2.8-2.8,5.5-5.7,8-9c1.7-2.3,3.3-4.5,4.7-6.9C137.3,130.3,137.5,129.1,137,128.1z"/>
			</g>
		</g>
	</g>
</g>
<g>
	<g>
		<g>
			<g>
				<path class="st0" d="M128.3,152.4c27.3,0,49.7-22.3,49.7-49.7s-22.3-49.7-49.7-49.7s-49.7,22.3-49.7,49.7S101,152.4,128.3,152.4
					z"/>
				<path class="st1" d="M128.3,155.7c-29.2,0-53-23.8-53-53c0-29.2,23.8-53,53-53s53,23.8,53,53C181.3,132,157.5,155.7,128.3,155.7
					z M128.3,56.4c-25.5,0-46.3,20.8-46.3,46.3c0,25.5,20.8,46.3,46.3,46.3s46.3-20.8,46.3-46.3C174.6,77.2,153.8,56.4,128.3,56.4z"
					/>
			</g>
			<g>
				<path class="st0" d="M213.5,185.4c-1.3-3.3-3-6.3-5-9.1c-10-14.7-25.4-24.5-42.7-26.9c-2.2-0.2-4.6,0.2-6.3,1.5
					c-9.1,6.7-19.9,10.2-31.2,10.2s-22.1-3.5-31.2-10.2c-1.7-1.3-4.1-2-6.3-1.5c-17.3,2.4-33,12.1-42.7,26.9c-2,2.8-3.7,6.1-5,9.1
					c-0.7,1.3-0.4,2.8,0.2,4.1c1.7,3,3.9,6.1,5.9,8.7c3,4.1,6.3,7.8,10,11.3c3,3,6.5,5.9,10,8.7c17.1,12.8,37.7,19.5,59,19.5
					s41.8-6.7,59-19.5c3.5-2.6,6.9-5.6,10-8.7c3.5-3.5,6.9-7.2,10-11.3c2.2-2.8,4.1-5.6,5.9-8.7
					C213.9,188.3,214.2,186.7,213.5,185.4z"/>
				<path class="st1" d="M128.1,241c-22.2,0-43.3-7-61-20.2c-3.6-2.9-7.1-5.8-10.3-9c-3.8-3.5-7.1-7.4-10.3-11.7
					c-1.6-2.2-4.1-5.5-6.1-9c-1.3-2.5-1.4-5.1-0.3-7.2c1.4-3.3,3.3-6.7,5.2-9.5c10.2-15.4,26.6-25.8,45-28.3
					c2.8-0.6,6.1,0.2,8.7,2.1c8.4,6.2,18.6,9.5,29.2,9.5s20.8-3.3,29.3-9.5c2.2-1.7,5.4-2.4,8.6-2.1c18.2,2.5,34.6,12.8,45.1,28.3
					c2.2,3.2,4,6.4,5.3,9.6c1.2,2.5,0.7,5.4-1.2,7.6c-1.3,2.5-3.3,5.3-5.8,8.6c-3.3,4.5-7,8.4-10.3,11.6c-3.3,3.3-6.8,6.4-10.3,9
					C171.4,234,150.3,241,128.1,241z M92.2,152.6c-0.3,0-0.5,0-0.7,0.1C74.8,155,60,164.3,50.8,178.2c-1.7,2.5-3.4,5.6-4.7,8.6
					c-0.2,0.3-0.1,0.8,0.1,1.3c1.7,3,4,6.1,5.5,8.2c2.9,4,6.1,7.5,9.6,10.9c3,3,6.5,5.8,9.8,8.5c16.4,12.3,36.1,18.8,56.9,18.8
					s40.5-6.5,57-18.9c3.3-2.4,6.6-5.3,9.6-8.4c3-3,6.6-6.7,9.6-10.9c2.3-3,4.1-5.7,5.6-8.4l-0.1-0.1l0.5-1.1
					c-1.1-2.8-2.7-5.6-4.6-8.5c-9.5-14-24.2-23.3-40.4-25.5c-1.4-0.1-2.9,0.2-3.8,0.9c-9.6,7.1-21.1,10.9-33.2,10.9
					s-23.6-3.7-33.2-10.8C94.2,153,93.2,152.6,92.2,152.6z"/>
			</g>
		</g>
	</g>
</g>
</svg>
