<?xml version="1.0" encoding="utf-8"?>
<!-- Generator: Adobe Illustrator 26.2.1, SVG Export Plug-In . SVG Version: 6.00 Build 0)  -->
<svg version="1.1" id="Layer_1" xmlns="http://www.w3.org/2000/svg" xmlns:xlink="http://www.w3.org/1999/xlink" x="0px" y="0px"
	 viewBox="0 0 512 512" style="enable-background:new 0 0 512 512;" xml:space="preserve">
<style type="text/css">
	.st0{fill:#326CE5;}
	.st1{fill:#FFFFFF;}
	.st2{fill:none;}
</style>
<g>
	<g>
		<g>
			<rect class="st0" width="512" height="512"/>
		</g>
	</g>
	<g>
		<path class="st1" d="M310.8,337.5h-0.2c-10.2-0.4-19.6-2.3-28-5.5c-2.4-0.9-3.5-3.6-2.6-5.9c0.9-2.4,3.6-3.5,5.9-2.6
			c7.5,2.9,15.9,4.6,24.9,4.9c2.5,0.1,4.5,2.2,4.5,4.7C315.3,335.5,313.3,337.5,310.8,337.5z M337.3,332.2c-1.8,0-3.5-1.1-4.2-2.8
			c-1-2.3,0.1-5,2.5-6c7.9-3.3,14.9-8,21-14.1c1.8-1.8,4.7-1.8,6.5,0c1.8,1.8,1.8,4.7,0,6.5c-6.9,6.9-14.9,12.3-23.9,16.1
			C338.5,332,337.9,332.2,337.3,332.2z M261.6,317.6c-1.2,0-2.3-0.4-3.2-1.3c-6.8-6.8-12.2-14.9-15.8-24.2c-0.9-2.3,0.2-5,2.6-5.9
			c2.3-0.9,5,0.2,5.9,2.6c3.2,8,7.8,15.1,13.8,21c1.8,1.8,1.8,4.7,0,6.5C263.9,317.1,262.8,317.6,261.6,317.6z M374.8,294.6
			c-0.6,0-1.2-0.1-1.7-0.3c-2.3-1-3.4-3.6-2.5-6c3.3-7.8,4.9-16.2,4.9-24.8c0-2.5,2-4.9,4.6-4.9c2.5,0,4.6,1.7,4.6,4.2H380l4.6,0.5
			c0,10-1.9,19.5-5.6,28.4C378.3,293.5,376.6,294.6,374.8,294.6z M241.7,268.3c-2.5,0-4.6-1.9-4.6-4.4v-0.3c0-9.7,1.7-19.1,5.1-27.9
			c0.9-2.4,3.6-3.5,5.9-2.6c2.4,0.9,3.5,3.6,2.6,5.9c-3,7.8-4.5,16.1-4.5,24.6C246.3,266,244.2,268.3,241.7,268.3z M374.5,241
			c-1.8,0-3.5-1-4.2-2.8c-3.3-7.8-8.1-14.9-14.2-20.9c-1.8-1.8-1.8-4.7-0.1-6.5c1.8-1.8,4.7-1.8,6.5-0.1c7,6.9,12.4,14.9,16.2,23.8
			c1,2.3-0.1,5-2.4,6C375.7,240.8,375.1,241,374.5,241z M261.1,219.1c-1.2,0-2.3-0.4-3.2-1.3c-1.8-1.8-1.8-4.7-0.1-6.5
			c6.8-6.9,14.9-12.2,24.1-15.9c2.4-0.9,5,0.2,5.9,2.6c0.9,2.3-0.2,5-2.6,5.9c-8,3.2-15.1,7.9-21,13.8
			C263.5,218.6,262.3,219.1,261.1,219.1z M336.7,203.8c-0.6,0-1.2-0.1-1.7-0.3c-7.7-3.1-15.9-4.7-24.3-4.7c-2.5,0-4.8-2-4.8-4.4
			s1.6-4.5,4.1-4.7c0.1,0,0.7,0,0.7,0c9.6,0,18.9,1.8,27.8,5.4c2.3,0.9,3.5,3.6,2.5,6C340.2,202.7,338.5,203.8,336.7,203.8z"/>
	</g>
	<g>
		<g>
			<path class="st1" d="M335.7,300.2h-50c-6.5,0-11.7-5.2-11.7-11.7v-50c0-6.5,5.2-11.7,11.7-11.7h50c6.5,0,11.7,5.2,11.7,11.7v50
				C347.4,295,342.1,300.2,335.7,300.2z"/>
		</g>
		<g>
			<path class="st0" d="M330.9,245.1h-40.4c-2.5,0-4.6-2-4.6-4.6c0-2.5,2-4.6,4.6-4.6h40.4c2.5,0,4.6,2,4.6,4.6
				C335.4,243,333.4,245.1,330.9,245.1z"/>
		</g>
		<g>
			<path class="st0" d="M330.9,260.6h-40.4c-2.5,0-4.6-2-4.6-4.6c0-2.5,2-4.6,4.6-4.6h40.4c2.5,0,4.6,2,4.6,4.6
				C335.4,258.5,333.4,260.6,330.9,260.6z"/>
		</g>
		<g>
			<path class="st0" d="M330.9,275.6h-40.4c-2.5,0-4.6-2-4.6-4.6c0-2.5,2-4.6,4.6-4.6h40.4c2.5,0,4.6,2,4.6,4.6
				C335.4,273.6,333.4,275.6,330.9,275.6z"/>
		</g>
		<g>
			<path class="st0" d="M330.9,291.1h-40.4c-2.5,0-4.6-2-4.6-4.6s2-4.6,4.6-4.6h40.4c2.5,0,4.6,2,4.6,4.6S333.4,291.1,330.9,291.1z"
				/>
		</g>
	</g>
	<g>
		<path class="st1" d="M119.4,410.1c-2.5,0-4.6-2-4.6-4.6V106.3c0-2.5,2-4.6,4.6-4.6c2.5,0,4.6,2,4.6,4.6v299.2
			C123.9,408,121.9,410.1,119.4,410.1z"/>
	</g>
	<g>
		<path class="st1" d="M119.4,86.8c-2.5,0-4.6-2-4.6-4.6v-10c0-2.5,2-4.6,4.6-4.6c2.5,0,4.6,2,4.6,4.6v10
			C123.9,84.8,121.9,86.8,119.4,86.8z"/>
	</g>
	<g>
		<path class="st1" d="M119.4,439.7c-2.5,0-4.6-2-4.6-4.6v-10c0-2.5,2-4.6,4.6-4.6c2.5,0,4.6,2,4.6,4.6v10
			C123.9,437.7,121.9,439.7,119.4,439.7z"/>
	</g>
	<g>
		<circle class="st1" cx="119.6" cy="257.4" r="23"/>
	</g>
	<g>
		<path class="st2" d="M220,257.4"/>
	</g>
	<g>
		<path class="st2" d="M119.6,257.4"/>
	</g>
</g>
</svg>
