<svg xmlns="http://www.w3.org/2000/svg" xmlns:xlink="http://www.w3.org/1999/xlink" width="500" zoomAndPan="magnify" viewBox="0 0 375 374.999991" height="500" preserveAspectRatio="xMidYMid meet" version="1.0"><defs><clipPath id="2209d1fff3"><path d="M 0 0 L 68.304688 0 L 68.304688 68.304688 L 0 68.304688 Z M 0 0 " clip-rule="nonzero"/></clipPath><clipPath id="f6d7bf29e9"><path d="M 14 15.984375 L 54.898438 15.984375 L 54.898438 57 L 14 57 Z M 14 15.984375 " clip-rule="nonzero"/></clipPath><clipPath id="d4ba4de353"><path d="M 8.464844 8.464844 L 366.535156 8.464844 L 366.535156 366.535156 L 8.464844 366.535156 Z M 8.464844 8.464844 " clip-rule="nonzero"/></clipPath></defs><rect x="-37.5" width="450" fill="#ffffff" y="-37.499999" height="449.999989" fill-opacity="1"/><rect x="-37.5" width="450" fill="#326ce5" y="-37.499999" height="449.999989" fill-opacity="1"/><path stroke-linecap="butt" transform="matrix(0, 0.75, -0.75, 0, 137.81815, 116.108452)" fill="none" stroke-linejoin="miter" d="M 0.00123017 2.002325 L 95.188736 2.002325 " stroke="#fbfcfe" stroke-width="4" stroke-opacity="1" stroke-miterlimit="4"/><g clip-path="url(#2209d1fff3)"><path fill="#326ce5" d="M 0 0 L 68.304688 0 L 68.304688 68.304688 L 0 68.304688 Z M 0 0 " fill-opacity="1" fill-rule="nonzero"/></g><g clip-path="url(#f6d7bf29e9)"><path fill="#ffffff" d="M 33.722656 15.984375 C 25.859375 15.984375 18.804688 19.546875 14.105469 25.136719 L 16.722656 27.332031 C 20.800781 22.484375 26.886719 19.402344 33.722656 19.402344 C 39.117188 19.402344 44.023438 21.335938 47.867188 24.527344 L 43.976562 24.527344 L 43.976562 27.941406 L 54.226562 27.941406 L 54.226562 17.691406 L 50.808594 17.691406 L 50.808594 22.5625 C 46.273438 18.492188 40.292969 15.984375 33.722656 15.984375 Z M 33.722656 26.234375 C 25.253906 26.234375 18.347656 33.140625 18.347656 41.609375 C 18.347656 50.082031 25.253906 56.988281 33.722656 56.988281 C 42.195312 56.988281 49.101562 50.082031 49.101562 41.609375 C 49.101562 33.140625 42.195312 26.234375 33.722656 26.234375 Z M 33.722656 29.652344 C 40.351562 29.652344 45.683594 34.984375 45.683594 41.609375 C 45.683594 48.234375 40.351562 53.570312 33.722656 53.570312 C 27.097656 53.570312 21.765625 48.234375 21.765625 41.609375 C 21.765625 34.984375 27.097656 29.652344 33.722656 29.652344 Z M 33.722656 29.652344 " fill-opacity="1" fill-rule="nonzero"/></g><g clip-path="url(#d4ba4de353)"><path fill="#326ce5" d="M 8.464844 8.464844 L 366.535156 8.464844 L 366.535156 366.535156 L 8.464844 366.535156 Z M 8.464844 8.464844 " fill-opacity="1" fill-rule="nonzero"/></g><rect x="-37.5" width="450" fill="#326ce5" y="-37.499999" height="449.999989" fill-opacity="1"/><rect x="-37.5" width="450" fill="#326ce5" y="-37.499999" height="449.999989" fill-opacity="1"/><path fill="#ffffff" d="M 114.402344 107.542969 C 114.046875 107.207031 113.664062 106.847656 113.285156 106.480469 C 105.496094 99 99.46875 90.347656 95.828125 80.125 C 94.808594 77.261719 94.039062 74.34375 94.175781 71.261719 C 94.191406 70.96875 94.1875 70.675781 94.210938 70.382812 C 94.484375 66.40625 97.148438 64.394531 101.035156 65.335938 C 102.265625 65.65625 103.445312 66.105469 104.574219 66.691406 C 108.824219 68.824219 112.292969 71.976562 115.480469 75.4375 C 121.1875 81.507812 125.65625 88.386719 128.886719 96.070312 C 128.957031 96.253906 129.039062 96.429688 129.128906 96.601562 C 129.171875 96.679688 129.265625 96.734375 129.472656 96.921875 C 137.058594 92.371094 145.082031 88.796875 153.542969 86.199219 C 162 83.605469 170.648438 82.0625 179.480469 81.578125 C 179.375 81.035156 179.308594 80.621094 179.207031 80.21875 C 177.390625 72.707031 176.84375 65.101562 177.566406 57.40625 C 177.886719 52.808594 178.800781 48.332031 180.3125 43.972656 C 181.046875 41.671875 182.171875 39.578125 183.691406 37.695312 C 184.261719 37.027344 184.914062 36.445312 185.644531 35.953125 C 186.007812 35.699219 186.398438 35.503906 186.820312 35.367188 C 187.242188 35.230469 187.675781 35.164062 188.117188 35.160156 C 188.5625 35.15625 188.996094 35.21875 189.417969 35.347656 C 189.84375 35.480469 190.238281 35.667969 190.601562 35.921875 C 192.171875 36.984375 193.375 38.371094 194.207031 40.074219 C 195.738281 42.933594 196.820312 45.953125 197.457031 49.132812 C 198.902344 55.859375 199.335938 62.648438 198.765625 69.503906 C 198.484375 73.679688 197.765625 77.773438 196.609375 81.796875 C 201.007812 82.605469 205.382812 83.234375 209.664062 84.25 C 213.941406 85.246094 218.144531 86.480469 222.28125 87.957031 C 226.449219 89.484375 230.515625 91.25 234.484375 93.246094 C 238.398438 95.199219 242.128906 97.527344 246.035156 99.75 C 246.164062 99.480469 246.347656 99.164062 246.472656 98.824219 C 248.507812 93.191406 251.25 87.929688 254.695312 83.03125 C 258.140625 78.132812 262.167969 73.777344 266.78125 69.957031 C 268.953125 68.09375 271.382812 66.679688 274.078125 65.710938 C 274.816406 65.453125 275.570312 65.277344 276.347656 65.1875 C 280.214844 64.746094 281.835938 67.179688 282.121094 70.085938 C 282.339844 72.242188 282.179688 74.375 281.644531 76.476562 C 280.226562 81.898438 278.015625 86.976562 275.023438 91.714844 C 270.832031 98.484375 265.855469 104.585938 259.535156 109.507812 C 259.347656 109.65625 259.183594 109.828125 258.867188 110.121094 C 265.070312 115.84375 270.542969 122.195312 275.28125 129.183594 C 274.9375 129.269531 274.589844 129.332031 274.238281 129.367188 C 267.699219 129.375 261.160156 129.355469 254.621094 129.394531 C 254.230469 129.386719 253.863281 129.289062 253.515625 129.105469 C 253.171875 128.921875 252.886719 128.671875 252.660156 128.351562 C 249.121094 124.484375 245.273438 120.945312 241.125 117.742188 C 236.972656 114.535156 232.578125 111.707031 227.941406 109.261719 C 223.304688 106.8125 218.492188 104.777344 213.503906 103.160156 C 208.515625 101.542969 203.425781 100.359375 198.234375 99.621094 C 192.03125 98.71875 185.800781 98.476562 179.542969 98.898438 C 174.921875 99.179688 170.347656 99.8125 165.824219 100.800781 C 161.296875 101.785156 156.875 103.109375 152.554688 104.777344 C 148.230469 106.441406 144.0625 108.425781 140.046875 110.734375 C 136.03125 113.039062 132.214844 115.640625 128.597656 118.53125 C 124.835938 121.5 121.34375 124.761719 118.121094 128.3125 C 117.832031 128.671875 117.476562 128.945312 117.058594 129.136719 C 116.636719 129.328125 116.195312 129.414062 115.734375 129.394531 C 109.488281 129.351562 103.242188 129.375 96.996094 129.375 L 95.667969 129.375 C 96.046875 127.886719 99.890625 122.625 104.234375 117.921875 C 107.476562 114.417969 110.914062 111.089844 114.402344 107.542969 Z M 114.402344 107.542969 " fill-opacity="1" fill-rule="nonzero"/><path fill="#ffffff" d="M 273.648438 247.519531 C 269.292969 253.617188 264.359375 259.203125 258.851562 264.285156 C 259.289062 264.648438 259.644531 264.945312 260 265.242188 C 264.769531 269.140625 268.917969 273.617188 272.449219 278.664062 C 275.980469 283.710938 278.761719 289.144531 280.792969 294.957031 C 281.882812 297.828125 282.335938 300.796875 282.152344 303.859375 C 282.09375 304.640625 281.941406 305.398438 281.6875 306.136719 C 281.53125 306.660156 281.289062 307.136719 280.957031 307.570312 C 280.625 308 280.226562 308.359375 279.761719 308.644531 C 279.296875 308.933594 278.796875 309.125 278.261719 309.226562 C 277.726562 309.332031 277.191406 309.332031 276.652344 309.238281 C 275.195312 309.050781 273.804688 308.636719 272.480469 308 C 270.464844 307.003906 268.574219 305.808594 266.8125 304.410156 C 262.1875 300.609375 258.148438 296.265625 254.699219 291.371094 C 251.25 286.476562 248.511719 281.214844 246.484375 275.582031 C 246.367188 275.265625 246.242188 274.953125 246.039062 274.421875 C 241.105469 277.683594 235.957031 280.566406 230.597656 283.070312 C 225.265625 285.5 219.773438 287.5 214.125 289.070312 C 208.386719 290.628906 202.566406 291.738281 196.65625 292.398438 C 196.757812 292.917969 196.820312 293.328125 196.925781 293.730469 C 198.808594 301.125 199.421875 308.621094 198.757812 316.222656 C 198.511719 320.980469 197.601562 325.605469 196.03125 330.097656 C 195.285156 331.949219 194.425781 333.75 193.457031 335.496094 C 193.066406 336.175781 192.582031 336.785156 192.015625 337.328125 C 189.558594 339.867188 186.625 339.886719 184.230469 337.285156 C 183.28125 336.230469 182.476562 335.074219 181.820312 333.816406 C 179.921875 330.25 178.941406 326.375 178.246094 322.421875 C 177.34375 317.007812 177.0625 311.5625 177.40625 306.085938 C 177.59375 302.078125 178.1875 298.132812 179.1875 294.246094 C 179.273438 293.917969 179.351562 293.585938 179.414062 293.25 C 179.433594 293.167969 179.375 293.066406 179.308594 292.796875 C 170.476562 292.296875 161.832031 290.742188 153.378906 288.132812 C 144.925781 285.523438 136.910156 281.933594 129.332031 277.367188 C 129.082031 277.929688 128.863281 278.402344 128.652344 278.878906 C 126.53125 283.832031 123.855469 288.472656 120.632812 292.792969 C 117.410156 297.113281 113.726562 300.996094 109.578125 304.445312 C 107.367188 306.335938 104.886719 307.765625 102.144531 308.738281 C 100.84375 309.261719 99.503906 309.40625 98.121094 309.171875 C 97.363281 309.035156 96.683594 308.71875 96.089844 308.226562 C 95.496094 307.730469 95.0625 307.125 94.789062 306.402344 C 93.914062 304.289062 94.066406 302.089844 94.363281 299.910156 C 94.855469 296.855469 95.742188 293.925781 97.023438 291.113281 C 98.917969 286.707031 101.242188 282.539062 104 278.609375 C 106.753906 274.683594 109.882812 271.082031 113.386719 267.804688 C 113.671875 267.535156 113.960938 267.277344 114.238281 267.003906 C 114.328125 266.875 114.402344 266.742188 114.464844 266.597656 C 107.839844 260.851562 101.984375 254.410156 96.894531 247.269531 C 97.5 247.21875 97.90625 247.15625 98.3125 247.15625 C 104.804688 247.152344 111.292969 247.171875 117.785156 247.128906 C 118.222656 247.117188 118.640625 247.199219 119.039062 247.375 C 119.441406 247.550781 119.785156 247.800781 120.070312 248.132812 C 127.175781 255.441406 135.28125 261.386719 144.390625 265.960938 C 154.042969 270.929688 164.269531 273.96875 175.070312 275.082031 C 204.15625 277.910156 229.171875 269.089844 250.125 248.628906 C 250.601562 248.117188 251.160156 247.730469 251.808594 247.464844 C 252.453125 247.203125 253.128906 247.085938 253.824219 247.121094 C 259.875 247.195312 265.925781 247.152344 271.976562 247.152344 L 273.539062 247.152344 Z M 273.648438 247.519531 " fill-opacity="1" fill-rule="nonzero"/><path fill="#ffffff" d="M 246.617188 154.839844 C 248.339844 154.839844 249.996094 154.957031 251.625 154.808594 C 253.476562 154.640625 254.796875 155.300781 256.148438 156.542969 C 263.933594 163.71875 271.796875 170.804688 279.636719 177.917969 C 280.03125 178.277344 280.433594 178.625 280.941406 179.070312 C 281.414062 178.667969 281.855469 178.304688 282.277344 177.921875 C 290.359375 170.5625 298.433594 163.203125 306.503906 155.832031 C 307.214844 155.097656 308.078125 154.761719 309.097656 154.816406 C 311.085938 154.894531 313.078125 154.839844 315.171875 154.839844 L 315.171875 219.875 C 314.109375 220.1875 299.816406 220.25 298.113281 219.914062 L 298.113281 186.976562 L 297.78125 186.820312 C 292.21875 191.894531 286.65625 196.964844 280.96875 202.152344 C 275.273438 197.023438 269.648438 191.953125 264.019531 186.886719 L 263.695312 187.003906 C 263.683594 189.753906 263.691406 192.503906 263.691406 195.25 C 263.6875 197.984375 263.6875 200.714844 263.691406 203.449219 L 263.691406 220.035156 L 246.761719 220.035156 C 246.441406 218.941406 246.296875 158.519531 246.617188 154.839844 Z M 246.617188 154.839844 " fill-opacity="1" fill-rule="nonzero"/><path fill="#ffffff" d="M 90.394531 154.914062 L 107.222656 154.914062 C 107.5625 155.996094 107.628906 218.472656 107.28125 220.046875 L 90.4375 220.046875 C 90.34375 215.910156 90.40625 211.785156 90.394531 207.664062 C 90.382812 203.578125 90.394531 199.488281 90.394531 195.296875 L 69.539062 195.296875 L 69.539062 219.824219 C 68.265625 220.207031 53.902344 220.242188 52.472656 219.902344 L 52.472656 154.921875 L 69.472656 154.921875 L 69.472656 177.875 C 70.6875 178.226562 88.558594 178.289062 90.378906 177.957031 C 90.382812 176.117188 90.390625 174.234375 90.394531 172.351562 C 90.394531 170.402344 90.394531 168.449219 90.394531 166.496094 C 90.394531 164.59375 90.394531 162.691406 90.394531 160.789062 C 90.394531 158.886719 90.394531 156.988281 90.394531 154.914062 Z M 90.394531 154.914062 " fill-opacity="1" fill-rule="nonzero"/><path fill="#ffffff" d="M 127.390625 220.023438 L 127.390625 155.105469 C 128.390625 154.78125 165.378906 154.652344 167.796875 154.980469 L 167.796875 168.816406 C 167.253906 168.855469 166.695312 168.929688 166.136719 168.929688 C 159.546875 168.9375 152.960938 168.9375 146.375 168.933594 L 144.542969 168.933594 L 144.542969 179.695312 L 165.125 179.695312 L 165.125 194.011719 L 144.726562 194.011719 C 144.382812 195.234375 144.289062 203.773438 144.566406 206.136719 C 145.089844 206.171875 145.648438 206.242188 146.207031 206.242188 C 152.792969 206.25 159.382812 206.25 165.96875 206.246094 L 167.800781 206.246094 L 167.800781 220.023438 Z M 127.390625 220.023438 " fill-opacity="1" fill-rule="nonzero"/><path fill="#ffffff" d="M 187.082031 220.046875 C 186.773438 218.304688 186.835938 156.101562 187.144531 154.917969 L 203.910156 154.917969 L 203.910156 202.917969 C 204.632812 202.957031 205.199219 203.011719 205.765625 203.011719 C 212.402344 203.015625 219.039062 203.019531 225.675781 203.015625 C 226.25 203.015625 226.820312 203.015625 227.472656 203.015625 L 227.472656 220.046875 Z M 187.082031 220.046875 " fill-opacity="1" fill-rule="nonzero"/></svg>