<?xml version="1.0" encoding="utf-8"?>
<!-- Generator: Adobe Illustrator 26.2.1, SVG Export Plug-In . SVG Version: 6.00 Build 0)  -->
<svg version="1.1" id="Layer_1" xmlns="http://www.w3.org/2000/svg" xmlns:xlink="http://www.w3.org/1999/xlink" x="0px" y="0px"
	 viewBox="0 0 512 512" style="enable-background:new 0 0 512 512;" xml:space="preserve">
<style type="text/css">
	.st0{fill:#326CE5;}
	.st1{fill:#FFFFFF;}
</style>
<g>
	<g>
		<rect x="0" class="st0" width="512" height="512"/>
	</g>
</g>
<g>
	<g>
		<rect x="397.4" y="247.9" class="st1" width="39.6" height="9.1"/>
	</g>
	<g>
		<g>
			<polygon class="st1" points="433,266.1 456.7,252.4 433,238.8 			"/>
		</g>
	</g>
</g>
<g>
	<g>
		<line class="st1" x1="100.8" y1="252.1" x2="41.5" y2="252.1"/>
	</g>
	<g>
		<g>
			<rect x="61.2" y="247.6" class="st1" width="39.6" height="9.1"/>
		</g>
		<g>
			<g>
				<polygon class="st1" points="65.2,238.5 41.5,252.1 65.2,265.8 				"/>
			</g>
		</g>
	</g>
</g>
<g>
	<g>
		<path class="st1" d="M386.5,328.2H111.7c-6,0-10.9-4.9-10.9-10.9V186.9c0-6,4.9-10.9,10.9-10.9h274.8c6,0,10.9,4.9,10.9,10.9
			v130.5C397.4,323.4,392.5,328.2,386.5,328.2z"/>
	</g>
	<g>
		<path class="st1" d="M386.5,332.8H111.7c-8.5,0-15.4-6.9-15.4-15.4V186.9c0-8.5,6.9-15.4,15.4-15.4h274.8
			c8.5,0,15.4,6.9,15.4,15.4v130.5C402,325.9,395,332.8,386.5,332.8z M111.7,180.6c-3.5,0-6.3,2.8-6.3,6.3v130.5
			c0,3.5,2.8,6.3,6.3,6.3h274.8c3.5,0,6.3-2.8,6.3-6.3V186.9c0-3.5-2.8-6.3-6.3-6.3H111.7z"/>
	</g>
</g>
<g>
	<g>
		<path class="st0" d="M314,307.1c-2.5,0-4.6-2-4.6-4.6c0-2.5,2-4.6,4.5-4.6c8,0,15.9-2.1,22.7-6.1c2.2-1.3,5-0.5,6.2,1.7
			c1.3,2.2,0.5,5-1.7,6.2C333.1,304.6,323.6,307.1,314,307.1C314,307.1,314,307.1,314,307.1z M288.9,300.7c-0.7,0-1.5-0.2-2.2-0.6
			c-8.4-4.6-15.4-11.6-20.1-20c-1.2-2.2-0.4-5,1.8-6.2c2.2-1.2,5-0.5,6.2,1.8c3.9,7,9.6,12.7,16.5,16.5c2.2,1.2,3,4,1.8,6.2
			C292.1,299.8,290.5,300.7,288.9,300.7z M357.3,282c-0.8,0-1.6-0.2-2.3-0.6c-2.2-1.3-2.9-4.1-1.7-6.2c4-6.9,6.1-14.8,6.1-22.7
			c0-2.5,2-4.9,4.6-4.9s4.6,1.7,4.6,4.3v0.6c0,9.6-2.5,19-7.3,27.3C360.4,281.2,358.9,282,357.3,282z M264.1,257.1
			c-2.5,0-4.6-1.9-4.6-4.4v-0.3c0-9.6,2.3-18.9,6.7-27.1c1.2-2.2,4-3,6.2-1.8c2.2,1.2,3,4,1.8,6.2c-3.7,6.8-5.6,14.7-5.6,22.7
			C268.6,255,266.6,257.1,264.1,257.1z M357,231.5c-1.6,0-3.1-0.8-3.9-2.2c-4.1-6.9-9.9-12.6-16.8-16.5c-2.2-1.2-3-4-1.7-6.2
			c1.2-2.2,4-3,6.2-1.7c8.3,4.7,15.3,11.6,20.2,19.8c1.3,2.2,0.6,5-1.6,6.3C358.6,231.3,357.8,231.5,357,231.5z M288.4,213.6
			c-1.6,0-3.1-0.8-4-2.3c-1.2-2.2-0.5-5,1.7-6.2c7.9-4.5,17-6.9,27.1-7.3c2.3-0.2,4.6,1.9,4.8,4.4c0.1,2.5-1.9,4.6-4.4,4.8
			c-8.7,0.4-16.4,2.4-23,6.2C289.9,213.4,289.1,213.6,288.4,213.6z"/>
	</g>
	<g>
		<g>
			<path class="st0" d="M328.3,278.6h-28.9c-6.5,0-11.7-5.2-11.7-11.7V238c0-6.5,5.2-11.7,11.7-11.7h28.9c6.5,0,11.7,5.2,11.7,11.7
				v28.9C340,273.4,334.8,278.6,328.3,278.6z"/>
		</g>
	</g>
	<g>
		<path class="st1" d="M329,248.2h-29.7c-2.5,0-4.6-2-4.6-4.6s2-4.6,4.6-4.6H329c2.5,0,4.6,2,4.6,4.6S331.5,248.2,329,248.2z"/>
	</g>
	<g>
		<path class="st1" d="M329,264.9h-29.7c-2.5,0-4.6-2-4.6-4.6s2-4.6,4.6-4.6H329c2.5,0,4.6,2,4.6,4.6S331.5,264.9,329,264.9z"/>
	</g>
</g>
<g>
	<g>
		<path class="st0" d="M186.9,307.1c-2.5,0-4.6-2-4.6-4.6c0-2.5,2-4.6,4.5-4.6c8,0,15.9-2.1,22.7-6.1c2.2-1.3,5-0.5,6.2,1.7
			c1.3,2.2,0.5,5-1.7,6.2C205.9,304.6,196.5,307.1,186.9,307.1L186.9,307.1z M161.7,300.7c-0.7,0-1.5-0.2-2.2-0.6
			c-8.4-4.6-15.4-11.6-20.1-20c-1.2-2.2-0.4-5,1.8-6.2c2.2-1.2,5-0.5,6.2,1.8c3.9,7.1,9.5,12.6,16.5,16.5c2.2,1.2,3,4,1.8,6.2
			C164.9,299.8,163.4,300.7,161.7,300.7z M230.2,282c-0.8,0-1.6-0.2-2.3-0.6c-2.2-1.3-2.9-4.1-1.7-6.2c4-6.9,6.1-14.8,6.1-22.7
			c0-2.5,2-4.9,4.6-4.9c2.5,0,4.6,1.8,4.6,4.3v0.6c0,9.6-2.5,19-7.3,27.3C233.3,281.2,231.8,282,230.2,282z M137,257.1
			c-2.5,0-4.6-1.9-4.6-4.4v-0.3c0-9.6,2.3-18.9,6.7-27.1c1.2-2.2,4-3,6.2-1.8c2.2,1.2,3,4,1.8,6.2c-3.7,6.8-5.6,14.7-5.6,22.7
			C141.5,255,139.5,257.1,137,257.1z M229.9,231.5c-1.6,0-3.1-0.8-3.9-2.2c-4.1-6.9-9.9-12.6-16.8-16.5c-2.2-1.2-3-4-1.7-6.2
			c1.2-2.2,4-3,6.2-1.7c8.3,4.7,15.3,11.6,20.2,19.8c1.3,2.2,0.6,5-1.6,6.3C231.5,231.3,230.7,231.5,229.9,231.5z M161.2,213.6
			c-1.6,0-3.1-0.8-4-2.3c-1.2-2.2-0.5-5,1.7-6.2c7.9-4.5,17-6.9,27.1-7.3c2.7-0.1,4.6,1.9,4.8,4.4c0.1,2.5-1.9,4.6-4.4,4.8
			c-8.7,0.4-16.4,2.4-23,6.2C162.8,213.4,162,213.6,161.2,213.6z"/>
	</g>
	<g>
		<g>
			<path class="st0" d="M201.2,278.6h-28.9c-6.5,0-11.7-5.2-11.7-11.7V238c0-6.5,5.2-11.7,11.7-11.7h28.9c6.5,0,11.7,5.2,11.7,11.7
				v28.9C212.9,273.4,207.7,278.6,201.2,278.6z"/>
		</g>
	</g>
	<g>
		<path class="st1" d="M201.8,248.2h-29.7c-2.5,0-4.6-2-4.6-4.6s2-4.6,4.6-4.6h29.7c2.5,0,4.6,2,4.6,4.6S204.4,248.2,201.8,248.2z"
			/>
	</g>
	<g>
		<path class="st1" d="M201.8,264.9h-29.7c-2.5,0-4.6-2-4.6-4.6s2-4.6,4.6-4.6h29.7c2.5,0,4.6,2,4.6,4.6S204.4,264.9,201.8,264.9z"
			/>
	</g>
</g>
</svg>
