<?xml version="1.0" encoding="utf-8"?>
<!-- Generator: Adobe Illustrator 26.2.1, SVG Export Plug-In . SVG Version: 6.00 Build 0)  -->
<svg version="1.1" id="Layer_1" xmlns="http://www.w3.org/2000/svg" xmlns:xlink="http://www.w3.org/1999/xlink" x="0px" y="0px"
	 viewBox="0 0 512 512" style="enable-background:new 0 0 512 512;" xml:space="preserve">
<style type="text/css">
	.st0{fill:#326CE5;}
	.st1{fill:#FFFFFF;}
	.st2{fill:none;stroke:#FFFFFF;stroke-miterlimit:10;}
</style>
<g>
	<g>
		<g>
			<rect x="0" class="st0" width="512" height="512"/>
		</g>
	</g>
</g>
<g id="path3055_00000078745077086064324700000001629124336419059109_">
	<g>
		<path class="st1" d="M196.9,403.8c-7.6,0-14.7-3.4-19.5-9.3l-73.7-91.6c-0.5-0.7-1-1.3-1.4-2c-3.6-5.5-4.9-12.5-3.4-19l26.3-114.2
			c1.7-7.4,6.6-13.5,13.5-16.8L245.2,100c3-1.4,6.2-2.2,9.5-2.4l0,0c4.2-0.2,8.3,0.6,12.1,2.4l106.5,50.8
			c6.9,3.3,11.8,9.4,13.5,16.8L413,281.8c1.7,7.4-0.1,15-4.8,21l-73.7,91.6c-4.8,5.9-11.9,9.3-19.5,9.3c0,0,0,0,0,0L196.9,403.8z
			 M255.2,106.7c-2.1,0.1-4.2,0.6-6.1,1.5l-106.4,50.9c-4.4,2.1-7.5,5.9-8.5,10.6l-26.3,114.2c-0.9,4.1-0.2,8.4,2.1,12
			c0.3,0.5,0.6,0.9,0.9,1.3l73.7,91.6c3,3.7,7.5,5.9,12.4,5.9l118.2,0h0c4.8,0,9.3-2.1,12.4-5.9l73.6-91.6c3-3.7,4.1-8.5,3-13.2
			l-26.3-114.2c-1.1-4.7-4.2-8.5-8.5-10.6l-106.5-50.8C260.5,107.1,257.8,106.6,255.2,106.7L255.2,106.7z"/>
	</g>
</g>
<g>
	<g>
		<g>
			<path class="st1" d="M326.2,333.4c-2.5,0-4.6-2-4.6-4.6c0-2.5,2-4.6,4.6-4.6c8,0,15.9-2.1,22.7-6.1c2.2-1.3,5-0.5,6.2,1.7
				c1.3,2.2,0.5,5-1.7,6.2C345.2,330.8,335.8,333.4,326.2,333.4C326.2,333.4,326.2,333.4,326.2,333.4z M301,326.9
				c-0.7,0-1.5-0.2-2.2-0.6c-8.4-4.6-15.4-11.6-20.1-20c-1.2-2.2-0.4-5,1.8-6.2c2.2-1.2,5-0.4,6.2,1.8c3.9,7,9.6,12.7,16.5,16.5
				c2.2,1.2,3,4,1.8,6.2C304.2,326.1,302.7,326.9,301,326.9z M369.5,308.3c-0.8,0-1.6-0.2-2.3-0.6c-2.2-1.3-2.9-4.1-1.7-6.2
				c4-6.9,6.1-14.7,6.1-22.7c0-2.5,2-4.9,4.6-4.9s4.6,1.8,4.6,4.3v0.6c0,9.6-2.5,19-7.3,27.3C372.6,307.5,371.1,308.3,369.5,308.3z
				 M276.2,283.4c-2.5,0-4.6-1.9-4.6-4.4v-0.3c0-9.6,2.3-18.9,6.7-27.1c1.2-2.2,4-3,6.2-1.8c2.2,1.2,3,4,1.8,6.2
				c-3.7,6.8-5.6,14.7-5.6,22.7C280.8,281.2,278.8,283.4,276.2,283.4z M369.2,257.7c-1.6,0-3.1-0.8-3.9-2.2
				c-4.1-6.9-9.9-12.6-16.8-16.5c-2.2-1.2-3-4-1.7-6.2c1.2-2.2,4-3,6.2-1.7c8.3,4.7,15.3,11.6,20.2,19.8c1.3,2.2,0.6,5-1.6,6.3
				C370.8,257.5,370,257.7,369.2,257.7z M300.5,239.9c-1.6,0-3.1-0.8-4-2.3c-1.2-2.2-0.5-5,1.7-6.2c7.9-4.5,17-6.9,27.1-7.3
				c2.7-0.1,4.6,1.9,4.8,4.4c0.1,2.5-1.9,4.6-4.4,4.8c-8.7,0.4-16.4,2.4-23,6.2C302.1,239.7,301.3,239.9,300.5,239.9z"/>
		</g>
	</g>
	<g>
		<g>
			<g>
				<path class="st1" d="M340.5,304.9h-28.9c-6.5,0-11.7-5.2-11.7-11.7v-28.9c0-6.5,5.2-11.7,11.7-11.7h28.9
					c6.5,0,11.7,5.2,11.7,11.7v28.9C352.2,299.6,347,304.9,340.5,304.9z"/>
			</g>
		</g>
	</g>
	<g>
		<g>
			<path class="st0" d="M341.1,274.4h-29.7c-2.5,0-4.6-2-4.6-4.6s2-4.6,4.6-4.6h29.7c2.5,0,4.6,2,4.6,4.6S343.7,274.4,341.1,274.4z"
				/>
		</g>
	</g>
	<g>
		<g>
			<path class="st0" d="M341.1,291.2h-29.7c-2.5,0-4.6-2-4.6-4.6s2-4.6,4.6-4.6h29.7c2.5,0,4.6,2,4.6,4.6S343.7,291.2,341.1,291.2z"
				/>
		</g>
	</g>
</g>
<g>
	<g>
		<path class="st2" d="M72.5,242.4"/>
	</g>
</g>
<g>
	<g>
		
			<rect x="100.4" y="202.1" transform="matrix(0.2625 -0.9649 0.9649 0.2625 -125.7611 281.4949)" class="st1" width="41.8" height="41.8"/>
	</g>
</g>
<g>
	<g>
		<g>
			<path class="st1" d="M245,263.7c-0.4,0-0.8-0.1-1.2-0.2L54.7,211.3c-2.4-0.7-3.9-3.2-3.2-5.6c0.7-2.4,3.2-3.9,5.6-3.2l189.1,52.2
				c2.4,0.7,3.9,3.2,3.2,5.6C248.8,262.3,247,263.7,245,263.7z"/>
		</g>
	</g>
	<g>
		<g>
			<g>
				<polygon class="st1" points="237.5,271.2 263.9,264.3 244.8,244.9 				"/>
			</g>
		</g>
	</g>
</g>
<g>
	<g>
		<circle class="st1" cx="186.3" cy="240.8" r="17.7"/>
	</g>
</g>
</svg>
