<?xml version="1.0" encoding="utf-8"?>
<!-- Generator: Adobe Illustrator 26.2.1, SVG Export Plug-In . SVG Version: 6.00 Build 0)  -->
<svg version="1.1" id="Layer_1" xmlns="http://www.w3.org/2000/svg" xmlns:xlink="http://www.w3.org/1999/xlink" x="0px" y="0px"
	 viewBox="0 0 512 512" style="enable-background:new 0 0 512 512;" xml:space="preserve">
<style type="text/css">
	.st0{fill:#326CE5;}
	.st1{fill:#FFFFFF;}
</style>
<g>
	<g>
		<g>
			<g>
				<rect x="0" class="st0" width="512" height="512"/>
			</g>
		</g>
	</g>
	<g>
		<g>
			<g>
				<path class="st1" d="M334.9,361.5H160.6c-10.6,0-19.2-8.6-19.2-19.2V167.9c0-10.6,8.6-19.2,19.2-19.2h174.3
					c10.6,0,19.2,8.6,19.2,19.2v174.3C354.2,352.9,345.5,361.5,334.9,361.5z M160.6,157.8c-5.6,0-10.1,4.5-10.1,10.1v174.3
					c0,5.6,4.5,10.1,10.1,10.1h174.3c5.6,0,10.1-4.5,10.1-10.1V167.9c0-5.6-4.5-10.1-10.1-10.1H160.6z"/>
			</g>
		</g>
		<g>
			<g>
				<rect x="145.9" y="188" class="st1" width="203.6" height="18.3"/>
			</g>
		</g>
		<g>
			<g>
				<rect x="145.9" y="233.1" class="st1" width="203.6" height="9.1"/>
			</g>
		</g>
		<g>
			<g>
				<rect x="145.9" y="272.9" class="st1" width="203.6" height="9.1"/>
			</g>
		</g>
		<g>
			<g>
				<rect x="145.9" y="312.8" class="st1" width="203.6" height="9.1"/>
			</g>
		</g>
		<g>
			<g>
				<rect x="201.9" y="153.3" class="st1" width="9.1" height="205.4"/>
			</g>
		</g>
		<g>
			<g>
				<rect x="276.1" y="153.3" class="st1" width="9.1" height="205.4"/>
			</g>
		</g>
	</g>
	<g>
		<g>
			<g>
				<g>
					<g>
						<path class="st1" d="M335.4,424.3c-5.1,0-10.2-0.4-15.1-1.1c-9.1-1.4-35.6-12.4-44.1-30.4l-0.5-1
							c-4.8-9.8-17.4-35.9,12.2-77.1c30.3-41.3,32-75.9,31.3-88.8c-0.1-2.1,0.6-4,2-5.5c1.4-1.5,3.4-2.4,5.5-2.4
							c1.7,0,3.4,0.6,4.7,1.7c3.8,3.1,7.3,6.8,10.5,11c11.9,15.6,18.5,35.7,18.5,56.8c0,10.6,1.1,19.5,2.9,24.4
							c0.6,1.7,1.2,2.7,1.7,3.4c1-1.9,2.4-6.6,2-15.8c-0.1-3.5,0.6-6.2,2.3-7.9c1.2-1.3,2.8-1.9,4.5-1.9c2.6,0,5.2,1.6,7.5,4.6
							c4.6,6,13.2,18.7,18.8,36.3c6.2,19.4,6.7,33.7,6,42.3c-1,15.9-10.6,37.4-50.7,49.4C354.9,422.5,346.9,424.3,335.4,424.3z"/>
					</g>
				</g>
				<g>
					<g>
						<path class="st0" d="M326.7,222.6c0.6,0,1.3,0.2,1.8,0.7c3.7,3,7,6.5,9.8,10.2c12.1,15.8,17.5,35.2,17.5,54
							c0,11.3,1.2,20.6,3.2,26c1.8,4.7,4,7.1,6.1,7.1c3.7,0,7-7.3,6.4-21.3c-0.1-3.3,0.8-5.1,2.3-5.1c1.1,0,2.4,0.9,3.9,2.8
							c5.8,7.6,13.2,19.8,18.1,35c5.5,17.2,6.6,30.8,5.8,40.6c-1.9,31.1-36.8,42.2-47.5,45.4c0,0-7.6,1.8-18.7,1.8
							c-4.4,0-9.3-0.3-14.5-1.1c-7.8-1.2-32.9-11.5-40.6-27.8c-4-8.4-17.8-32.9,11.3-73.5c31-42.2,32.9-77.8,32.1-91.7
							C323.7,223.9,325.1,222.6,326.7,222.6 M326.7,213.5c-3.3,0-6.5,1.4-8.8,3.8c-2.3,2.4-3.4,5.6-3.3,8.9
							c0.7,12.5-1,45.8-30.4,85.8c-31.2,43.5-17.7,71.4-12.7,81.9l0.5,1c9.4,19.8,37.4,31.4,47.5,32.9c5.1,0.8,10.4,1.2,15.8,1.2
							c12,0,20.5-2,20.8-2.1l0.3-0.1l0.3-0.1c42.6-12.8,52.9-36.2,54-53.6c0.7-8.9,0.1-23.9-6.2-43.9c-5.9-18.3-14.8-31.5-19.6-37.8
							c-4.1-5.3-8.3-6.4-11.1-6.4c-3,0-5.8,1.2-7.8,3.3c-0.4,0.4-0.7,0.8-1,1.2c0-0.7,0-1.4,0-2.1c0-22.1-6.9-43.2-19.4-59.6
							c-3.4-4.4-7.2-8.4-11.2-11.7C332.2,214.4,329.5,213.5,326.7,213.5L326.7,213.5z"/>
					</g>
				</g>
			</g>
		</g>
		<g>
			<g>
				<g>
					<path class="st0" d="M323.4,413.8c-18.6-18.3-26.2-35-15.8-58.1c10.9-24.3,18.8-34.2,23-38.2c1.6-1.5,4.1-0.7,4.7,1.3
						c2.2,7.4,8.1,24.1,19.2,39.3c13.9,19.1,5.8,45-2.1,55c0,0-2.7,2.3-15.9,2.3C326.2,415.3,323.4,413.8,323.4,413.8z"/>
				</g>
			</g>
		</g>
	</g>
</g>
</svg>
