<?xml version="1.0" encoding="utf-8"?>
<!-- Generator: Adobe Illustrator 26.2.1, SVG Export Plug-In . SVG Version: 6.00 Build 0)  -->
<svg version="1.1" id="Layer_1" xmlns="http://www.w3.org/2000/svg" xmlns:xlink="http://www.w3.org/1999/xlink" x="0px" y="0px"
	 viewBox="0 0 512 512" style="enable-background:new 0 0 512 512;" xml:space="preserve">
<style type="text/css">
	.st0{fill:#326CE5;}
	.st1{fill:#FFFFFF;}
</style>
<g>
	<g>
		<g>
			<rect x="0" class="st0" width="512" height="512"/>
		</g>
	</g>
	<g>
		<g>
			<g>
				<g>
					<path class="st1" d="M362,434.8c-5.1,0-10.2-0.4-15.1-1.1c-9.1-1.4-35.6-12.4-44.1-30.4l-0.5-1c-4.8-9.8-17.4-35.9,12.2-77.1
						c30.3-41.3,32-75.9,31.3-88.8c-0.1-2.1,0.6-4,2-5.5c1.4-1.5,3.4-2.4,5.5-2.4c1.7,0,3.4,0.6,4.7,1.7c3.8,3.1,7.4,6.8,10.5,11
						c11.9,15.6,18.5,35.7,18.5,56.8c0,10.6,1.1,19.5,2.9,24.4c0.6,1.7,1.2,2.7,1.7,3.4c1-1.9,2.4-6.6,2-15.8
						c-0.1-3.5,0.6-6.2,2.3-7.9c1.2-1.3,2.8-1.9,4.5-1.9c2.6,0,5.2,1.6,7.5,4.6c4.6,6,13.2,18.7,18.8,36.3c6.2,19.4,6.7,33.7,6,42.3
						c-1,15.9-10.6,37.4-50.7,49.4C381.4,432.9,373.5,434.8,362,434.8z"/>
				</g>
				<g>
					<path class="st0" d="M353.3,233c0.6,0,1.3,0.2,1.8,0.7c3.7,3,7,6.5,9.8,10.2c12.1,15.8,17.5,35.2,17.5,54
						c0,11.3,1.2,20.6,3.2,26c1.8,4.7,4,7.1,6.1,7.1c3.7,0,7-7.3,6.4-21.3c-0.1-3.3,0.8-5.1,2.3-5.1c1.1,0,2.4,0.9,3.9,2.8
						c5.8,7.6,13.2,19.8,18.1,35c5.5,17.2,6.6,30.8,5.8,40.6c-1.9,31.1-36.8,42.2-47.5,45.4c0,0-7.6,1.8-18.7,1.8
						c-4.4,0-9.3-0.3-14.5-1.1c-7.8-1.2-32.9-11.5-40.6-27.8c-4-8.4-17.8-32.9,11.3-73.5c31-42.2,32.9-77.8,32.1-91.7
						C350.2,234.3,351.7,233,353.3,233 M353.3,223.9c-3.3,0-6.5,1.4-8.8,3.8c-2.3,2.4-3.4,5.6-3.3,8.9c0.7,12.5-1,45.8-30.4,85.8
						c-31.2,43.5-17.7,71.4-12.7,81.9l0.5,1c9.4,19.8,37.4,31.4,47.5,32.9c5.1,0.8,10.4,1.2,15.8,1.2c12,0,20.5-2,20.8-2.1l0.3-0.1
						l0.3-0.1c42.6-12.8,52.9-36.2,54-53.6c0.7-8.9,0.1-23.8-6.2-43.9c-5.9-18.3-14.8-31.5-19.6-37.8c-4.1-5.3-8.3-6.4-11.1-6.4
						c-3,0-5.8,1.2-7.8,3.3c-0.4,0.4-0.7,0.8-1,1.2c0-0.7,0-1.4,0-2.1c0-22.1-6.9-43.2-19.4-59.6c-3.4-4.4-7.2-8.4-11.2-11.7
						C358.7,224.9,356,223.9,353.3,223.9L353.3,223.9z"/>
				</g>
			</g>
		</g>
		<g>
			<g>
				<path class="st0" d="M349.9,424.2c-18.6-18.3-26.2-35-15.8-58.1c10.9-24.3,18.8-34.2,23-38.2c1.6-1.5,4.1-0.7,4.7,1.3
					c2.2,7.4,8.1,24.1,19.2,39.3c13.9,19.1,5.8,45-2.1,55c0,0-2.7,2.3-15.9,2.3C352.8,425.8,349.9,424.2,349.9,424.2z"/>
			</g>
		</g>
	</g>
	<g>
		<g>
			<path class="st1" d="M169.5,334.3H95.7c-10.1,0-18.3-8.2-18.3-18.3v-44.4c0-10.1,8.2-18.3,18.3-18.3h73.8
				c10.1,0,18.3,8.2,18.3,18.3v44.4C187.8,326.1,179.6,334.3,169.5,334.3z M95.7,262.5c-5,0-9.2,4.1-9.2,9.2v44.4
				c0,5,4.1,9.2,9.2,9.2h73.8c5,0,9.2-4.1,9.2-9.2v-44.4c0-5-4.1-9.2-9.2-9.2H95.7z"/>
		</g>
		<g>
			<path class="st1" d="M292.7,334.3h-73.8c-10.1,0-18.3-8.2-18.3-18.3v-44.4c0-10.1,8.2-18.3,18.3-18.3h73.8
				c10.1,0,18.3,8.2,18.3,18.3v44.4C311,326.1,302.8,334.3,292.7,334.3z M218.9,262.5c-5,0-9.2,4.1-9.2,9.2v44.4
				c0,5,4.1,9.2,9.2,9.2h73.8c5,0,9.2-4.1,9.2-9.2v-44.4c0-5-4.1-9.2-9.2-9.2H218.9z"/>
		</g>
		<g>
			<path class="st1" d="M419.6,334.3h-73.8c-10.1,0-18.3-8.2-18.3-18.3v-44.4c0-10.1,8.2-18.3,18.3-18.3h73.8
				c10.1,0,18.3,8.2,18.3,18.3v44.4C437.9,326.1,429.7,334.3,419.6,334.3z M345.7,262.5c-5,0-9.2,4.1-9.2,9.2v44.4
				c0,5,4.1,9.2,9.2,9.2h73.8c5,0,9.2-4.1,9.2-9.2v-44.4c0-5-4.1-9.2-9.2-9.2H345.7z"/>
		</g>
		<g>
			<path class="st1" d="M297.1,207.1h-80c-10.1,0-18.3-8.2-18.3-18.3v-44.4c0-10.1,8.2-18.3,18.3-18.3h80c10.1,0,18.3,8.2,18.3,18.3
				v44.4C315.4,198.9,307.2,207.1,297.1,207.1z M217.1,135.2c-5,0-9.2,4.1-9.2,9.2v44.4c0,5,4.1,9.2,9.2,9.2h80c5,0,9.2-4.1,9.2-9.2
				v-44.4c0-5-4.1-9.2-9.2-9.2H217.1z"/>
		</g>
		<g>
			<path class="st1" d="M382.7,262.5c-2.5,0-4.6-2-4.6-4.6v-23.1H137.2v23.1c0,2.5-2,4.6-4.6,4.6c-2.5,0-4.6-2-4.6-4.6v-27.7
				c0-2.5,2-4.6,4.6-4.6h250.1c2.5,0,4.6,2,4.6,4.6v27.7C387.2,260.4,385.2,262.5,382.7,262.5z"/>
		</g>
		<g>
			<rect x="251.2" y="202.5" class="st1" width="9.1" height="55.4"/>
		</g>
	</g>
</g>
</svg>
