<?xml version="1.0" encoding="utf-8"?>
<!-- Generator: Adobe Illustrator 26.2.1, SVG Export Plug-In . SVG Version: 6.00 Build 0)  -->
<svg version="1.1" id="Layer_1" xmlns="http://www.w3.org/2000/svg" xmlns:xlink="http://www.w3.org/1999/xlink" x="0px" y="0px"
	 viewBox="0 0 512 512" style="enable-background:new 0 0 512 512;" xml:space="preserve">
<style type="text/css">
	.st0{fill:#326CE5;}
	.st1{fill:#FFFFFF;}
</style>
<g>
	<g>
		<g>
			<rect x="0" class="st0" width="512" height="512"/>
		</g>
	</g>
</g>
<g>
	<g>
		<path class="st1" d="M248.8,403.2L248.8,403.2c-41.3,0-74.8-33.5-74.8-74.8V220.1c0-41.3,33.5-74.8,74.8-74.8h0
			c41.3,0,74.8,33.5,74.8,74.8v108.3C323.6,369.7,290.1,403.2,248.8,403.2z"/>
	</g>
</g>
<g>
	<g>
		<g>
			<path class="st1" d="M294.8,120c-0.8,0-1.6-0.2-2.3-0.6c-26.7-15.6-60.9-15.6-87.6,0c-2.2,1.3-5,0.5-6.2-1.6
				c-1.3-2.2-0.5-5,1.6-6.2c29.5-17.2,67.3-17.2,96.8,0c2.2,1.3,2.9,4.1,1.6,6.2C297.9,119.2,296.4,120,294.8,120z"/>
		</g>
	</g>
	<g>
		<g>
			<path class="st1" d="M278.1,136.6c-0.6,0-1.1-0.1-1.7-0.3c-17.9-7.1-37.6-7.1-55.5,0c-2.4,0.9-5-0.2-5.9-2.6
				c-0.9-2.3,0.2-5,2.6-5.9c20-7.9,42.2-7.9,62.2,0c2.3,0.9,3.5,3.6,2.6,5.9C281.7,135.6,279.9,136.6,278.1,136.6z"/>
		</g>
	</g>
</g>
<g>
	<g>
		<circle class="st0" cx="246.2" cy="195.6" r="24.3"/>
	</g>
</g>
<g>
	<g>
		<rect x="212" y="253.3" class="st0" width="20" height="20"/>
	</g>
</g>
<g>
	<g>
		<rect x="260.5" y="253.3" class="st0" width="20" height="20"/>
	</g>
</g>
<g>
	<g>
		<rect x="212" y="298.5" class="st0" width="20" height="20"/>
	</g>
</g>
<g>
	<g>
		<rect x="260.5" y="298.5" class="st0" width="20" height="20"/>
	</g>
</g>
</svg>
