<svg xmlns="http://www.w3.org/2000/svg" xmlns:xlink="http://www.w3.org/1999/xlink" width="500" zoomAndPan="magnify" viewBox="0 0 375 374.999991" height="500" preserveAspectRatio="xMidYMid meet" version="1.0"><defs><clipPath id="a754e98dec"><path d="M 3.804688 49.957031 L 366.511719 49.957031 L 366.511719 333.125 L 3.804688 333.125 Z M 3.804688 49.957031 " clip-rule="nonzero"/></clipPath></defs><rect x="-37.5" width="450" fill="#ffffff" y="-37.499999" height="449.999989" fill-opacity="1"/><rect x="-37.5" width="450" fill="#ffffff" y="-37.499999" height="449.999989" fill-opacity="1"/><rect x="-37.5" width="450" fill="#326ce5" y="-37.499999" height="449.999989" fill-opacity="1"/><path fill="#ffffff" d="M 221.347656 94.015625 L 244.847656 94.015625 L 244.847656 79.496094 L 221.347656 79.496094 L 221.347656 94.015625 " fill-opacity="1" fill-rule="nonzero"/><path fill="#ffffff" d="M 221.347656 116.707031 L 244.847656 116.707031 L 244.847656 102.183594 L 221.347656 102.183594 L 221.347656 116.707031 " fill-opacity="1" fill-rule="nonzero"/><path fill="#ffffff" d="M 149.042969 176.148438 L 172.542969 176.148438 L 172.542969 161.628906 L 149.042969 161.628906 L 149.042969 176.148438 " fill-opacity="1" fill-rule="nonzero"/><path fill="#ffffff" d="M 149.042969 198.839844 L 172.542969 198.839844 L 172.542969 184.320312 L 149.042969 184.320312 L 149.042969 198.839844 " fill-opacity="1" fill-rule="nonzero"/><path fill="#ffffff" d="M 76.28125 248.761719 L 99.78125 248.761719 L 99.78125 234.238281 L 76.28125 234.238281 L 76.28125 248.761719 " fill-opacity="1" fill-rule="nonzero"/><path fill="#ffffff" d="M 76.28125 271.449219 L 99.78125 271.449219 L 99.78125 256.929688 L 76.28125 256.929688 L 76.28125 271.449219 " fill-opacity="1" fill-rule="nonzero"/><g clip-path="url(#a754e98dec)"><path fill="#ffffff" d="M 315.808594 318.644531 L 315.808594 49.992188 L 196.5 49.992188 L 196.5 131.679688 L 124.1875 131.679688 L 124.1875 213.363281 L 51.878906 213.363281 L 51.878906 318.644531 L 3.972656 318.644531 L 3.972656 333.167969 L 66.339844 333.167969 L 66.339844 227.886719 L 156.722656 227.886719 L 156.722656 318.644531 L 138.652344 318.644531 L 138.652344 237.398438 L 124.1875 237.398438 L 124.1875 333.167969 L 171.1875 333.167969 L 171.1875 213.363281 L 138.652344 213.363281 L 138.652344 146.199219 L 229.035156 146.199219 L 229.035156 318.644531 L 210.960938 318.644531 L 210.960938 155.710938 L 196.5 155.710938 L 196.5 333.167969 L 243.496094 333.167969 L 243.496094 131.679688 L 210.960938 131.679688 L 210.960938 64.511719 L 301.347656 64.511719 L 301.347656 333.167969 L 366.417969 333.167969 L 366.417969 318.644531 L 315.808594 318.644531 " fill-opacity="1" fill-rule="nonzero"/></g></svg>