<?xml version="1.0" encoding="utf-8"?>
<!-- Generator: Adobe Illustrator 26.2.1, SVG Export Plug-In . SVG Version: 6.00 Build 0)  -->
<svg version="1.1" id="Layer_1" xmlns="http://www.w3.org/2000/svg" xmlns:xlink="http://www.w3.org/1999/xlink" x="0px" y="0px"
	 viewBox="0 0 512 512" style="enable-background:new 0 0 512 512;" xml:space="preserve">
<style type="text/css">
	.st0{fill:#326CE5;}
	.st1{fill:#FFFFFF;}
</style>
<g>
	<g>
		<rect x="0" class="st0" width="512" height="512"/>
	</g>
</g>
<g>
	<g id="g3052_00000035518850993057755700000009031586151212558511_">
		<g id="path3059_00000115473676764895590190000000632947773277528483_">
			<path class="st1" d="M253,156.3c-3.2,0-5.8,2.9-5.8,6.4c0,0.1,0,0.1,0,0.2c0,0.5,0,1.1,0,1.5c0.1,2.1,0.5,3.6,0.8,5.5
				c0.5,4,0.9,7.4,0.6,10.5c-0.2,1.2-1.1,2.2-1.9,3l-0.1,2.5c-3.5,0.3-7,0.8-10.5,1.6c-15,3.4-28,11.2-37.9,21.6
				c-0.6-0.4-1.8-1.2-2.1-1.5c-1,0.1-2.1,0.5-3.4-0.3c-2.6-1.7-5-4.2-7.8-7.1c-1.3-1.4-2.3-2.7-3.8-4c-0.4-0.3-0.9-0.7-1.3-1
				c-1.2-1-2.7-1.5-4-1.5c-1.8-0.1-3.5,0.6-4.6,2c-2,2.5-1.4,6.3,1.4,8.5c0,0,0.1,0,0.1,0.1c0.4,0.3,0.8,0.7,1.2,1
				c1.7,1.2,3.2,1.8,4.8,2.8c3.5,2.1,6.3,3.9,8.6,6.1c0.9,0.9,1,2.6,1.2,3.3l1.9,1.7c-9.9,15-14.5,33.4-11.8,52.3l-2.4,0.7
				c-0.6,0.8-1.5,2.1-2.5,2.5c-3,0.9-6.3,1.3-10.4,1.7c-1.9,0.2-3.5,0.1-5.6,0.4c-0.4,0.1-1.1,0.2-1.5,0.4c0,0,0,0,0,0
				c0,0-0.1,0-0.1,0c-3.4,0.8-5.6,4-4.9,7.1c0.7,3.1,4,5,7.5,4.2c0,0,0.1,0,0.1,0c0,0,0.1,0,0.1,0c0.5-0.1,1.1-0.2,1.5-0.3
				c2-0.5,3.4-1.3,5.2-2c3.8-1.4,7-2.5,10.1-3c1.3-0.1,2.7,0.8,3.3,1.2l2.5-0.4c5.8,18,18,32.6,33.4,41.7l-1.1,2.5
				c0.4,1,0.8,2.3,0.5,3.3c-1.1,2.9-3.1,6-5.2,9.4c-1.1,1.6-2.1,2.8-3.1,4.6c-0.2,0.4-0.5,1.1-0.7,1.6c-1.5,3.2-0.4,6.9,2.5,8.2
				c2.9,1.4,6.4-0.1,8-3.3c0,0,0,0,0,0c0,0,0,0,0,0c0.2-0.5,0.5-1,0.7-1.5c0.8-1.9,1.1-3.5,1.7-5.3c1.5-3.8,2.4-7.9,4.5-10.4
				c0.6-0.7,1.5-1,2.5-1.2l1.3-2.4c13.4,5.2,28.5,6.5,43.5,3.1c3.4-0.8,6.7-1.8,9.9-3c0.4,0.7,1.1,1.9,1.2,2.2c1,0.3,2.1,0.5,3,1.8
				c1.6,2.7,2.7,5.9,4,9.7c0.6,1.8,0.9,3.4,1.7,5.3c0.2,0.4,0.5,1,0.7,1.5c1.5,3.2,5.1,4.7,8,3.3c2.9-1.4,4-5,2.5-8.2
				c-0.2-0.5-0.5-1.1-0.8-1.6c-1-1.8-2-3-3.1-4.6c-2.2-3.4-4-6.3-5.1-9.2c-0.5-1.5,0.1-2.4,0.4-3.4c-0.2-0.3-0.7-1.7-1-2.3
				c16-9.5,27.8-24.6,33.4-42c0.7,0.1,2.1,0.3,2.5,0.4c0.9-0.6,1.7-1.3,3.2-1.2c3.1,0.4,6.3,1.6,10.1,3c1.8,0.7,3.2,1.5,5.2,2
				c0.4,0.1,1,0.2,1.5,0.3c0,0,0.1,0,0.1,0c0,0,0.1,0,0.1,0c3.4,0.7,6.8-1.1,7.5-4.2c0.7-3.1-1.5-6.2-4.9-7.1
				c-0.5-0.1-1.2-0.3-1.7-0.4c-2-0.4-3.7-0.3-5.6-0.4c-4-0.4-7.4-0.8-10.4-1.7c-1.2-0.5-2.1-1.9-2.5-2.5l-2.3-0.7
				c1.2-8.8,0.9-17.9-1.2-27c-2.1-9.2-5.9-17.7-10.9-25.1c0.6-0.5,1.7-1.5,2.1-1.8c0.1-1,0-2.1,1.1-3.3c2.3-2.1,5.2-3.9,8.6-6.1
				c1.6-1,3.2-1.6,4.8-2.8c0.4-0.3,0.9-0.7,1.3-1c2.8-2.2,3.4-6,1.4-8.5c-2-2.5-5.9-2.7-8.6-0.5c-0.4,0.3-0.9,0.7-1.3,1
				c-1.6,1.3-2.5,2.7-3.8,4c-2.9,2.9-5.2,5.3-7.8,7.1c-1.1,0.7-2.8,0.4-3.5,0.4l-2.2,1.6c-12.6-13.2-29.7-21.6-48.1-23.2
				c-0.1-0.8-0.1-2.2-0.1-2.6c-0.8-0.7-1.7-1.3-1.9-2.9c-0.3-3.1,0.2-6.5,0.7-10.5c0.3-1.9,0.7-3.5,0.8-5.5c0-0.5,0-1.1,0-1.6
				C258.8,159.2,256.2,156.3,253,156.3L253,156.3z M245.7,201.2l-1.7,30.4l-0.1,0.1c-0.1,2.7-2.4,4.9-5.1,4.9c-1.1,0-2.2-0.4-3-1
				l0,0L210.8,218c7.7-7.5,17.5-13.1,28.7-15.7C241.6,201.8,243.7,201.5,245.7,201.2z M260.3,201.2c13.2,1.6,25.4,7.6,34.7,16.7
				l-24.8,17.6l-0.1,0c-2.2,1.6-5.3,1.2-7-0.9c-0.7-0.9-1.1-1.9-1.1-3l0,0L260.3,201.2z M201.8,229.3l22.7,20.3l0,0.1
				c2.1,1.8,2.4,4.9,0.6,7c-0.7,0.9-1.6,1.5-2.6,1.7l0,0.1l-29.2,8.4C191.8,253.5,195,240.3,201.8,229.3z M304,229.3
				c3.4,5.5,5.9,11.6,7.5,18.2c1.5,6.6,1.9,13.1,1.3,19.4l-29.3-8.4l0-0.1c-2.6-0.7-4.2-3.4-3.6-6.1c0.3-1.1,0.8-2,1.6-2.7l0-0.1
				L304,229.3L304,229.3z M248.3,251.2h9.3l5.8,7.2l-2.1,9l-8.4,4l-8.4-4l-2.1-9L248.3,251.2z M278.2,276c0.4,0,0.8,0,1.2,0.1l0-0.1
				l30.2,5.1c-4.4,12.4-12.9,23.1-24.1,30.3l-11.7-28.3l0,0c-1.1-2.5,0-5.4,2.5-6.6C276.9,276.2,277.6,276.1,278.2,276L278.2,276z
				 M227.6,276.1c2.3,0,4.4,1.6,4.9,4c0.3,1.1,0.1,2.2-0.3,3.1l0.1,0.1l-11.6,28c-10.8-7-19.5-17.4-24.1-30.1l29.9-5.1l0,0.1
				C226.9,276.2,227.2,276.1,227.6,276.1L227.6,276.1z M252.8,288.4c0.8,0,1.6,0.1,2.4,0.5c1,0.5,1.8,1.3,2.3,2.2h0.1l14.7,26.6
				c-1.9,0.6-3.9,1.2-5.9,1.6c-11.3,2.6-22.5,1.8-32.7-1.7l14.7-26.6h0C249.4,289.5,251.1,288.5,252.8,288.4z"/>
			<path class="st1" d="M209.9,356.8c-0.9,0-1.9-0.2-2.8-0.6c-3.4-1.6-4.7-6-3-9.7l0.3-0.6c0.2-0.3,0.3-0.7,0.5-1
				c0.7-1.3,1.4-2.3,2.1-3.2c0.3-0.5,0.7-1,1.1-1.5c2.2-3.5,4.1-6.5,5.1-9.2c0.1-0.4-0.1-1.3-0.5-2.5l-0.2-0.4l0.8-2
				c-15.4-9.4-27-23.9-32.7-40.9l-2,0.3l-0.6-0.4c-0.6-0.4-1.8-0.9-2.4-0.9c-2.9,0.4-5.9,1.5-9.7,2.9c-0.7,0.3-1.2,0.5-1.8,0.7
				c-1.1,0.5-2.2,1-3.6,1.3c-0.3,0.1-0.7,0.2-1,0.2l-0.5,0.1c-4.2,0.9-8.2-1.4-9-5c-0.8-3.7,1.7-7.4,5.7-8.4l0.6-0.1
				c0.4-0.1,0.8-0.2,1.2-0.3c1.4-0.3,2.6-0.3,3.8-0.4c0.6,0,1.2,0,1.8-0.1c4.2-0.4,7.3-0.8,10.1-1.7c0.4-0.2,1.2-1.2,1.7-1.8
				l0.5-0.6l1.8-0.5c-2.3-17.9,1.8-36,11.6-51.2l-1.4-1.3l-0.1-0.4c-0.1-0.9-0.3-2.2-0.9-2.7c-2.1-2-5-3.8-8.4-5.9
				c-0.5-0.3-1.1-0.6-1.6-0.9c-1.1-0.6-2.1-1.1-3.3-2c-0.3-0.2-0.7-0.5-1-0.8l-0.2-0.2c-3.3-2.7-4.1-7.2-1.7-10.2
				c1.3-1.6,3.2-2.5,5.3-2.5c0.1,0,0.2,0,0.3,0c1.7,0.1,3.3,0.7,4.7,1.8l0.4,0.3c0.3,0.3,0.7,0.5,0.9,0.8c1.1,0.9,1.9,1.9,2.7,2.8
				c0.4,0.4,0.8,0.9,1.2,1.4c2.9,3,5.2,5.2,7.6,6.9c0.8,0.5,1.4,0.3,2.2,0.2l0.9-0.1l0.4,0.3c0.2,0.2,0.7,0.5,1.3,0.9
				c10.3-10.6,23.3-18,37.8-21.2c3.2-0.7,6.4-1.2,9.6-1.5l0.1-1.9l0.3-0.3c0.9-0.8,1.4-1.7,1.6-2.4c0.2-2.9-0.2-6.3-0.7-10.1
				c-0.1-0.6-0.2-1.2-0.3-1.8c-0.2-1.2-0.4-2.4-0.5-3.8c0-0.3,0-0.6,0-1l0-0.5c0-4.3,3.1-7.7,6.9-7.7c3.8,0,6.9,3.4,6.9,7.6l0,0.6
				c0,0.4,0,0.8,0,1.1c-0.1,1.4-0.3,2.6-0.5,3.8c-0.1,0.6-0.2,1.2-0.3,1.8l0,0.3c-0.4,3.8-0.8,7-0.6,9.9c0.1,0.9,0.6,1.3,1.2,1.8
				l0.7,0.6l0,0.5c0,0.3,0,0.9,0.1,1.6c17.8,1.8,34.5,9.9,47.1,22.8l1.7-1.2l0.7,0c0.7,0,1.9,0.1,2.6-0.3c2.4-1.6,4.7-4,7.4-6.7
				c0.6-0.6,1-1.1,1.4-1.5c0.8-0.9,1.6-1.8,2.7-2.8c0.3-0.2,0.6-0.5,0.9-0.8l0.4-0.3c3.3-2.6,7.9-2.3,10.3,0.7
				c2.4,3,1.7,7.5-1.6,10.1l-0.4,0.3c-0.3,0.3-0.6,0.5-0.9,0.7c-1.2,0.9-2.2,1.4-3.3,2c-0.5,0.3-1.1,0.6-1.6,0.9
				c-3.3,2-6.2,3.8-8.4,5.9c-0.6,0.7-0.7,1.3-0.7,2.1l-0.1,0.9l-1.7,1.5c4.9,7.5,8.4,15.8,10.5,24.6c2,8.8,2.5,17.7,1.4,26.5
				l1.8,0.5l0.4,0.6c0.4,0.5,1.1,1.6,1.8,1.9c2.8,0.9,5.9,1.2,9.9,1.6c0.7,0.1,1.4,0.1,2,0.1c1.2,0,2.4,0.1,3.8,0.4
				c0.3,0.1,0.8,0.2,1.2,0.3l0.5,0.1c4,1,6.6,4.7,5.8,8.4c-0.8,3.7-4.8,6-8.8,5.1l-0.7-0.1c-0.4-0.1-0.8-0.2-1.1-0.2
				c-1.4-0.4-2.5-0.9-3.6-1.3c-0.6-0.2-1.1-0.5-1.7-0.7c-3.8-1.4-6.9-2.5-9.8-2.9c-0.8-0.1-1.4,0.3-2.1,0.8l-0.8,0.5l-0.5-0.1
				c-0.3-0.1-0.9-0.2-1.5-0.3c-5.7,17.3-17.3,31.8-32.8,41.2c0.2,0.5,0.3,1,0.5,1.2l0.5,0.5l-0.5,1c-0.3,0.8-0.5,1.3-0.3,2.2
				c1.1,2.7,2.8,5.4,5,8.9c0.4,0.6,0.7,1,1.1,1.5c0.7,1,1.4,1.9,2.1,3.2c0.2,0.5,0.6,1.1,0.8,1.6c1.7,3.7,0.4,8.1-3,9.7
				c-1.6,0.8-3.4,0.8-5.1,0.2c-1.9-0.7-3.5-2.1-4.4-4.1l-0.2-0.4c-0.2-0.4-0.4-0.8-0.5-1.1c-0.6-1.3-0.9-2.5-1.2-3.7
				c-0.2-0.6-0.3-1.2-0.5-1.8c-1.3-3.9-2.4-6.9-3.9-9.5c-0.5-0.7-1.1-0.9-1.9-1.2l-0.8-0.3l-1-1.8c-3,1.1-6.1,2-9.2,2.7
				c-14.4,3.3-29.4,2.3-43.2-2.8l-1.1,1.9l-0.5,0.1c-0.7,0.2-1.6,0.4-1.9,0.8c-1.3,1.6-2.2,4-3.1,6.6c-0.4,1.1-0.8,2.3-1.2,3.5
				c-0.2,0.5-0.3,1.1-0.5,1.7c-0.3,1.1-0.6,2.3-1.2,3.6c-0.1,0.3-0.3,0.7-0.5,1.1l-0.1,0.2v0.6l-0.4,0.1
				C215,355.3,212.5,356.8,209.9,356.8z M215,328.1c0.4,1.1,0.7,2.4,0.4,3.6c-1.2,3-3,6-5.4,9.7c-0.4,0.6-0.8,1.1-1.1,1.6
				c-0.7,0.9-1.3,1.8-1.9,2.9c-0.1,0.2-0.3,0.6-0.4,0.9l-0.3,0.6c-1.2,2.6-0.3,5.6,1.9,6.7c2.3,1.1,5.2-0.1,6.5-2.7l0.2-0.5
				c0.2-0.3,0.4-0.7,0.5-1c0.5-1.2,0.8-2.2,1.1-3.3c0.2-0.6,0.3-1.2,0.5-1.9c0.5-1.2,0.9-2.3,1.2-3.4c0.9-2.8,1.8-5.4,3.5-7.4
				c0.7-0.8,1.7-1.2,2.6-1.5l1.6-2.8l0.9,0.4c13.7,5.3,28.5,6.3,42.9,3.1c3.3-0.7,6.6-1.7,9.8-3l0.9-0.3l1.5,2.7
				c1,0.3,2.1,0.7,3.1,2.1c1.7,2.8,2.8,6.1,4.1,9.9c0.2,0.8,0.4,1.4,0.6,2c0.3,1.1,0.6,2.2,1.1,3.4c0.1,0.3,0.3,0.7,0.5,1l0.2,0.4
				c0.7,1.4,1.8,2.4,3.1,2.9c1.2,0.4,2.3,0.3,3.3-0.1c2.3-1.1,3.1-4.1,1.9-6.7c-0.2-0.4-0.5-1.1-0.7-1.5c-0.6-1.1-1.2-2-1.9-2.9
				c-0.4-0.5-0.7-1-1.1-1.6c-2.2-3.5-4.1-6.4-5.2-9.4c-0.5-1.7-0.1-2.9,0.2-3.8c-0.1-0.3-0.3-0.7-0.5-1.2l-0.7-1.7l0.9-0.5
				c15.7-9.2,27.3-23.9,32.9-41.4l0.3-0.9l1,0.2c0.6,0.1,1.5,0.2,2,0.4c0.8-0.5,1.8-1.3,3.6-1.1c3.2,0.5,6.4,1.6,10.2,3
				c0.9,0.3,1.5,0.6,2,0.8c1.1,0.5,2.1,0.9,3.3,1.2c0.3,0.1,0.6,0.1,0.9,0.2l0.7,0.2c3,0.5,5.6-1,6.1-3.4c0.6-2.5-1.3-5-4.1-5.7
				l-0.5-0.1c-0.4-0.1-0.8-0.2-1.1-0.2c-1.2-0.2-2.4-0.3-3.5-0.3c-0.6,0-1.3-0.1-1.9-0.1c-4.1-0.4-7.6-0.8-10.6-1.8
				c-1.4-0.5-2.3-1.8-2.9-2.6l-2.9-0.8l0.1-1c1.2-8.9,0.8-17.8-1.2-26.6c-2-8.9-5.6-17.2-10.7-24.7l-0.6-0.8l2.5-2.2
				c0.1-1,0.2-2.2,1.4-3.5c2.4-2.3,5.4-4.1,8.8-6.2c0.6-0.4,1.2-0.7,1.7-1c1-0.5,2-1.1,3-1.8c0.2-0.2,0.5-0.4,0.8-0.7l0.4-0.3
				c2.3-1.8,2.8-4.9,1.2-6.9c-1.6-2-4.8-2.1-7-0.3l-0.4,0.3c-0.3,0.2-0.6,0.5-0.9,0.7c-1,0.8-1.7,1.7-2.5,2.5
				c-0.4,0.5-0.8,0.9-1.3,1.4l-0.2,0.2c-2.8,2.8-5.2,5.2-7.8,7c-1.3,0.8-2.9,0.7-3.8,0.6l-2.7,1.9l-0.7-0.7
				c-12.6-13.2-29.4-21.3-47.4-22.9l-1-0.1l-0.1-1c0-0.6-0.1-1.5-0.1-2.1c-0.7-0.6-1.7-1.5-1.9-3.3c-0.3-3.2,0.1-6.6,0.6-10.4l0-0.4
				c0.1-0.7,0.2-1.3,0.3-1.9c0.2-1.1,0.4-2.2,0.5-3.5c0-0.3,0-0.6,0-1l0-0.6c0-2.9-2.1-5.3-4.7-5.3c-2.6,0-4.6,2.4-4.6,5.3v0.8
				c0,0.3,0,0.6,0,0.8c0,1.3,0.2,2.4,0.5,3.5c0.1,0.6,0.2,1.2,0.3,1.9c0.5,4,0.9,7.5,0.7,10.8c-0.3,1.4-1.1,2.6-1.9,3.4l-0.2,3
				l-1,0.1c-3.5,0.3-6.9,0.8-10.3,1.6c-14.3,3.2-27.2,10.6-37.3,21.3l-0.7,0.7l-0.8-0.6c-0.5-0.3-1.2-0.9-1.7-1.2
				c-0.9,0.2-2.2,0.3-3.7-0.5c-2.7-1.8-5.1-4.3-7.9-7.1c-0.6-0.7-1-1.1-1.5-1.6c-0.8-0.9-1.5-1.7-2.4-2.5c-0.2-0.2-0.6-0.5-0.9-0.7
				l-0.4-0.3c-1-0.8-2.2-1.2-3.4-1.3c-0.1,0-0.1,0-0.2,0c-1.4,0-2.7,0.6-3.5,1.6c-1.6,2-1,5.1,1.2,6.9l0.3,0.3
				c0.3,0.3,0.7,0.5,0.9,0.7c1,0.7,2,1.3,3,1.8c0.6,0.3,1.1,0.6,1.7,0.9c3.5,2.1,6.4,4,8.8,6.2c1,1.1,1.3,2.7,1.4,3.6l2.3,2
				l-0.5,0.8c-10.1,15.2-14.2,33.5-11.7,51.5l0.1,1l-3,0.9c-0.7,0.9-1.6,2.1-2.7,2.6c-3.1,1-6.5,1.3-10.5,1.8
				c-0.9,0.1-1.5,0.1-2.2,0.1c-1.2,0-2.3,0.1-3.5,0.3c-0.3,0.1-0.7,0.1-1,0.2l-0.5,0.1c-2.9,0.7-4.7,3.3-4.2,5.7
				c0.6,2.5,3.3,4,6.1,3.4l0.7-0.2c0.3-0.1,0.7-0.1,0.9-0.2c1.2-0.3,2.3-0.8,3.3-1.2c0.6-0.2,1.1-0.5,1.7-0.7
				c3.9-1.4,7.2-2.6,10.4-3c1.5-0.1,2.9,0.6,3.7,1.1l3.1-0.5l0.3,0.9c5.5,17.2,17.2,31.8,32.9,41.1l0.9,0.5L215,328.1z M253.1,322
				c-6.7,0-13.3-1.1-19.7-3.3l-1.3-0.4l15.7-28.4c1.1-1.6,2.9-2.6,4.9-2.7l0,0c1,0,2,0.2,2.9,0.6c1,0.5,1.8,1.2,2.4,2.1h0l0.4,0.6
				l15.4,27.8l-1.3,0.4c-1.9,0.6-3.9,1.2-6,1.7C262.2,321.5,257.6,322,253.1,322z M235.4,317c9.9,3.1,20.5,3.6,30.8,1.2
				c1.5-0.4,3-0.8,4.5-1.2l-14.2-25.4c-0.4-0.7-1-1.3-1.8-1.7c-0.6-0.3-1.2-0.4-1.8-0.4l0,0c-1.4,0-2.7,0.9-3.4,2.1l-0.4,0.6
				L235.4,317z M284.9,313.2L272.4,283l0.1-0.1c-0.9-2.9,0.4-6.1,3.3-7.5c0.8-0.4,1.6-0.6,2.4-0.6h0c0.3,0,0.5,0,0.8,0l0,0l0.7,0
				l31.5,5.3l-0.5,1.3c-4.5,12.7-13.3,23.7-24.6,30.9L284.9,313.2z M275.1,283.4l10.9,26.4c10-6.7,17.8-16.5,22.1-27.7l-28.2-4.8
				l0,0l-0.7-0.1c-0.3-0.1-0.6-0.1-0.9-0.1c-0.5,0-1,0.2-1.5,0.4c-1.9,0.9-2.8,3.2-1.9,5.1L275.1,283.4L275.1,283.4z M221.2,313.1
				l-1.2-0.7c-11.4-7.3-19.9-18-24.5-30.7l-0.5-1.3l31.9-5.4l0.1,0.1c0.2,0,0.3,0,0.5,0c2.9,0,5.4,2,6,4.9c0.2,1.1,0.2,2.2-0.1,3.2
				l0,0l-0.2,0.7L221.2,313.1z M198.2,282.1c4.4,11.3,11.9,20.7,22,27.5l10.8-26.1l0,0l0.2-0.7c0.3-0.8,0.4-1.6,0.2-2.4
				c-0.4-1.8-2-3.1-3.8-3.1c-0.2,0-0.5,0-0.8,0.1l-0.7,0.1l-0.1-0.1L198.2,282.1z M253,272.8l-9.4-4.5l-2.3-10.1l6.5-8.1h10.4
				l6.5,8.1l-2.3,10.1L253,272.8z M245.6,266.7l7.4,3.6l7.4-3.5l1.8-8l-5.1-6.4h-8.2l-5.1,6.4L245.6,266.7z M192.3,268.6l-0.1-1.3
				c-1.5-13.4,1.6-27,8.6-38.5l0.7-1.2l24.3,21.7l0,0.2c2.1,2.2,2.2,5.7,0.3,8.1c-0.7,0.9-1.6,1.5-2.6,1.9l0,0l-0.6,0.3L192.3,268.6
				z M202.1,231.1c-6,10.4-8.8,22.5-7.7,34.5l27.9-8.1c0.8-0.2,1.5-0.7,2.1-1.4c1.3-1.7,1.1-4.1-0.5-5.5l-0.5-0.4l0-0.1L202.1,231.1
				z M313.8,268.5l-31.3-9l0-0.2c-2.8-1.1-4.5-4.1-3.8-7.2c0.2-1.1,0.8-2.1,1.5-2.9v0l0.4-0.5l23.6-21.2l0.7,1.2
				c3.5,5.7,6.1,12,7.6,18.6c1.5,6.5,1.9,13.2,1.3,19.8L313.8,268.5z M284.4,257.6l27.3,7.9c0.4-5.9,0-11.8-1.4-17.7
				c-1.4-5.9-3.6-11.5-6.6-16.7L282.6,250l0,0l-0.5,0.5c-0.6,0.6-1.1,1.3-1.2,2.1c-0.5,2.1,0.7,4.1,2.8,4.7L284.4,257.6z
				 M238.8,237.7c-1.1,0-2.1-0.3-3.1-0.8l0,0l-0.6-0.4l-26-18.5l1-1c8.1-7.9,18.2-13.4,29.3-16c2-0.5,4.1-0.8,6.3-1.1l1.3-0.2
				l-1.8,32.4l-0.2,0.1C244.5,235.4,241.9,237.7,238.8,237.7z M235.9,234.3l0.6,0.4c0.7,0.5,1.5,0.8,2.3,0.8c2.1,0,3.9-1.7,4-3.8
				l0.2-0.7l1.6-28.3c-1.6,0.2-3.2,0.5-4.7,0.9c-10.2,2.3-19.6,7.3-27.2,14.4L235.9,234.3L235.9,234.3z M267.1,237.6
				c-1.8,0-3.7-0.8-4.9-2.4c-0.7-0.9-1.2-2-1.3-3.1l0,0l-0.1-0.5l-1.8-31.7l1.4,0.2c13.2,1.6,25.8,7.7,35.4,17.1l1,1l-26.4,18.7
				l-0.1-0.1C269.2,237.4,268.2,237.6,267.1,237.6z M263.1,231L263.1,231l0.1,0.6c0,0.8,0.3,1.6,0.9,2.3c1.3,1.7,3.7,2,5.5,0.7
				l0.6-0.4l0.1,0l23.1-16.4c-8.7-8.2-19.9-13.6-31.7-15.3L263.1,231z"/>
		</g>
	</g>
	<g>
		<path class="st1" d="M387.7,403.5H124.3c-14.7,0-26.7-12-26.7-26.7V113.3c0-14.7,12-26.7,26.7-26.7h263.4
			c14.7,0,26.7,12,26.7,26.7v263.5C414.5,391.5,402.5,403.5,387.7,403.5z M124.3,95.7c-9.7,0-17.6,7.9-17.6,17.6v263.5
			c0,9.7,7.9,17.6,17.6,17.6h263.4c9.7,0,17.6-7.9,17.6-17.6V113.3c0-9.7-7.9-17.6-17.6-17.6H124.3z"/>
	</g>
	<g>
		<path class="st1" d="M409.9,125.3v-12c0-12.2-9.9-22.2-22.2-22.2H124.3c-12.2,0-22.2,9.9-22.2,22.2v12H409.9z"/>
		<path class="st1" d="M414.5,129.9H97.5v-16.6c0-14.7,12-26.7,26.7-26.7h263.4c14.7,0,26.7,12,26.7,26.7V129.9z M106.7,120.7h298.7
			v-7.4c0-9.7-7.9-17.6-17.6-17.6H124.3c-9.7,0-17.6,7.9-17.6,17.6V120.7z"/>
	</g>
	<g>
		<circle class="st0" cx="123.4" cy="109.5" r="8.7"/>
	</g>
	<g>
		<circle class="st0" cx="148.1" cy="109.5" r="8.7"/>
	</g>
	<g>
		<circle class="st0" cx="173.7" cy="109.5" r="8.7"/>
	</g>
</g>
</svg>
