<svg xmlns="http://www.w3.org/2000/svg" xmlns:xlink="http://www.w3.org/1999/xlink" width="500" zoomAndPan="magnify" viewBox="0 0 375 374.999991" height="500" preserveAspectRatio="xMidYMid meet" version="1.0"><defs><clipPath id="e5546beb33"><path d="M 51 8.933594 L 320 8.933594 L 320 365.933594 L 51 365.933594 Z M 51 8.933594 " clip-rule="nonzero"/></clipPath><clipPath id="da62e2b1f9"><path d="M 215 8.933594 L 320 8.933594 L 320 114 L 215 114 Z M 215 8.933594 " clip-rule="nonzero"/></clipPath><clipPath id="0415fb20c7"><path d="M 99.328125 127.949219 L 263.378906 127.949219 L 263.378906 292 L 99.328125 292 Z M 99.328125 127.949219 " clip-rule="nonzero"/></clipPath><clipPath id="c3d68c2bf7"><path d="M 181.355469 127.949219 C 136.050781 127.949219 99.328125 164.671875 99.328125 209.972656 C 99.328125 255.277344 136.050781 292 181.355469 292 C 226.65625 292 263.378906 255.277344 263.378906 209.972656 C 263.378906 164.671875 226.65625 127.949219 181.355469 127.949219 Z M 181.355469 127.949219 " clip-rule="nonzero"/></clipPath><clipPath id="1d89bee01f"><path d="M 150 156 L 208.078125 156 L 208.078125 187 L 150 187 Z M 150 156 " clip-rule="nonzero"/></clipPath><clipPath id="4785551017"><path d="M 99.328125 156 L 158 156 L 158 187 L 99.328125 187 Z M 99.328125 156 " clip-rule="nonzero"/></clipPath><clipPath id="2372e5de1c"><path d="M 163.5625 197 L 272 197 L 272 305.664062 L 163.5625 305.664062 Z M 163.5625 197 " clip-rule="nonzero"/></clipPath></defs><path fill="#ffffff" d="M 304.433594 361.054688 L 66.390625 361.054688 L 59.554688 344.597656 L 59.554688 19.394531 L 217.277344 21.625 L 317.125 110.875 L 311.40625 351.011719 Z M 304.433594 361.054688 " fill-opacity="1" fill-rule="nonzero"/><g clip-path="url(#e5546beb33)"><path fill="#326ce5" d="M 311.828125 98.183594 L 237.496094 98.183594 C 233.453125 98.183594 230.105469 94.835938 230.105469 90.792969 L 230.105469 16.324219 C 230.105469 12.28125 226.761719 8.933594 222.714844 8.933594 L 73.78125 8.933594 C 61.507812 8.933594 51.46875 18.976562 51.46875 31.246094 L 51.46875 343.621094 C 51.46875 355.894531 61.507812 365.933594 73.78125 365.933594 L 296.90625 365.933594 C 309.175781 365.933594 319.21875 355.894531 319.21875 343.621094 L 319.21875 105.574219 C 319.21875 101.53125 315.871094 98.183594 311.828125 98.183594 Z M 304.433594 343.621094 C 304.433594 347.664062 301.089844 351.011719 297.042969 351.011719 L 73.917969 351.011719 C 69.875 351.011719 66.527344 347.664062 66.527344 343.621094 L 66.527344 31.246094 C 66.527344 27.203125 69.875 23.855469 73.917969 23.855469 L 215.183594 23.855469 L 215.183594 90.792969 C 215.183594 103.066406 225.226562 113.105469 237.496094 113.105469 L 304.433594 113.105469 Z M 304.433594 343.621094 " fill-opacity="1" fill-rule="nonzero"/></g><g clip-path="url(#da62e2b1f9)"><path fill="#326ce5" d="M 317.125 100.414062 L 227.875 11.164062 C 224.945312 8.238281 220.207031 8.238281 217.417969 11.164062 C 214.628906 14.09375 214.488281 18.835938 217.417969 21.625 L 306.667969 110.875 C 308.0625 112.269531 310.011719 113.105469 311.964844 113.105469 C 313.917969 113.105469 315.730469 112.410156 317.265625 110.875 C 319.914062 107.945312 319.914062 103.203125 317.125 100.414062 Z M 317.125 100.414062 " fill-opacity="1" fill-rule="nonzero"/></g><path fill="#326ce5" d="M 185.621094 274.871094 C 182.554688 274.871094 180.042969 272.359375 180.042969 269.292969 C 180.042969 266.226562 182.554688 263.714844 185.621094 263.714844 C 195.382812 263.714844 205.003906 261.066406 213.371094 256.183594 C 216.023438 254.652344 219.507812 255.488281 221.042969 258.136719 C 222.578125 260.785156 221.738281 264.273438 219.089844 265.808594 C 208.769531 271.804688 197.335938 274.871094 185.621094 274.871094 Z M 154.941406 266.921875 C 153.964844 266.921875 153.128906 266.644531 152.292969 266.226562 C 141.972656 260.507812 133.464844 252.140625 127.75 241.820312 C 126.214844 239.171875 127.191406 235.683594 129.839844 234.289062 C 132.488281 232.757812 135.976562 233.734375 137.371094 236.382812 C 142.25 245.027344 148.945312 251.722656 157.589844 256.464844 C 160.242188 257.996094 161.21875 261.34375 159.824219 263.992188 C 158.707031 265.945312 156.894531 266.921875 154.941406 266.921875 Z M 238.472656 244.191406 C 237.496094 244.191406 236.523438 243.914062 235.683594 243.496094 C 233.035156 241.960938 232.058594 238.472656 233.59375 235.824219 C 238.472656 227.457031 240.984375 217.835938 240.984375 208.074219 C 240.984375 205.003906 243.496094 202.078125 246.5625 202.078125 C 249.628906 202.078125 252.140625 204.167969 252.140625 207.238281 L 246.5625 207.238281 L 252.140625 207.792969 C 252.140625 219.648438 249.074219 231.222656 243.214844 241.261719 C 242.238281 243.214844 240.425781 244.191406 238.472656 244.191406 Z M 124.679688 213.789062 C 121.613281 213.789062 119.101562 211.421875 119.101562 208.351562 L 119.101562 207.933594 C 119.101562 196.21875 121.890625 184.785156 127.328125 174.882812 C 128.722656 172.234375 132.210938 171.117188 134.859375 172.652344 C 137.511719 174.1875 138.625 177.53125 137.089844 180.183594 C 132.628906 188.550781 130.257812 198.03125 130.257812 207.933594 C 130.257812 211.140625 127.75 213.789062 124.679688 213.789062 Z M 238.054688 182.554688 C 236.101562 182.554688 234.289062 181.578125 233.3125 179.765625 C 228.292969 171.398438 221.183594 164.425781 212.816406 159.683594 C 210.164062 158.148438 209.1875 154.800781 210.722656 152.152344 C 212.257812 149.503906 215.605469 148.527344 218.253906 150.0625 C 228.433594 155.777344 236.941406 164.144531 242.9375 174.1875 C 244.46875 176.835938 243.632812 180.320312 240.984375 181.855469 C 240.007812 182.273438 239.03125 182.554688 238.054688 182.554688 Z M 154.246094 160.660156 C 152.292969 160.660156 150.480469 159.683594 149.363281 157.871094 C 147.828125 155.21875 148.804688 151.734375 151.457031 150.339844 C 161.078125 144.902344 172.234375 141.832031 184.503906 141.414062 C 187.433594 141.136719 190.222656 143.644531 190.363281 146.714844 C 190.503906 149.78125 188.132812 152.429688 185.0625 152.570312 C 174.464844 152.988281 164.980469 155.5 157.035156 160.101562 C 156.195312 160.519531 155.21875 160.660156 154.246094 160.660156 Z M 154.246094 160.660156 " fill-opacity="1" fill-rule="nonzero"/><path fill="#326ce5" d="M 203.054688 240.007812 L 167.769531 240.007812 C 159.824219 240.007812 153.546875 233.59375 153.546875 225.785156 L 153.546875 190.503906 C 153.546875 182.554688 159.960938 176.277344 167.769531 176.277344 L 203.054688 176.277344 C 211 176.277344 217.277344 182.691406 217.277344 190.503906 L 217.277344 225.785156 C 217.277344 233.59375 211 240.007812 203.054688 240.007812 Z M 203.054688 240.007812 " fill-opacity="1" fill-rule="nonzero"/><path fill="#ffffff" d="M 203.890625 202.914062 L 167.632812 202.914062 C 164.5625 202.914062 162.054688 200.402344 162.054688 197.335938 C 162.054688 194.265625 164.5625 191.757812 167.632812 191.757812 L 203.890625 191.757812 C 206.957031 191.757812 209.46875 194.265625 209.46875 197.335938 C 209.46875 200.402344 206.957031 202.914062 203.890625 202.914062 Z M 203.890625 202.914062 " fill-opacity="1" fill-rule="nonzero"/><path fill="#ffffff" d="M 203.890625 223.414062 L 167.632812 223.414062 C 164.5625 223.414062 162.054688 220.902344 162.054688 217.835938 C 162.054688 214.765625 164.5625 212.257812 167.632812 212.257812 L 203.890625 212.257812 C 206.957031 212.257812 209.46875 214.765625 209.46875 217.835938 C 209.46875 220.902344 206.957031 223.414062 203.890625 223.414062 Z M 203.890625 223.414062 " fill-opacity="1" fill-rule="nonzero"/><g clip-path="url(#0415fb20c7)"><g clip-path="url(#c3d68c2bf7)"><path fill="#ffffff" d="M 99.328125 127.949219 L 263.378906 127.949219 L 263.378906 292 L 99.328125 292 Z M 99.328125 127.949219 " fill-opacity="1" fill-rule="nonzero"/></g></g><path fill="#326ce5" d="M 179.019531 157.804688 C 188.28125 157.804688 195.886719 150.242188 195.886719 140.9375 C 195.886719 131.636719 188.324219 124.074219 179.019531 124.074219 C 169.71875 124.074219 162.199219 131.679688 162.199219 140.980469 C 162.199219 150.285156 169.761719 157.804688 179.019531 157.804688 Z M 179.019531 157.804688 " fill-opacity="1" fill-rule="nonzero"/><g clip-path="url(#1d89bee01f)"><path fill="#326ce5" d="M 207.949219 169.019531 C 207.523438 167.914062 206.929688 166.894531 206.25 165.917969 C 202.851562 160.90625 197.628906 157.589844 191.765625 156.785156 C 191.042969 156.699219 190.234375 156.867188 189.640625 157.292969 C 186.539062 159.585938 182.886719 160.734375 179.0625 160.734375 C 175.238281 160.734375 171.542969 159.546875 168.484375 157.292969 C 167.890625 156.867188 167.082031 156.613281 166.363281 156.785156 C 160.457031 157.589844 155.1875 160.90625 151.875 165.917969 C 151.195312 166.894531 150.644531 167.957031 150.175781 169.019531 C 149.964844 169.441406 150.050781 169.996094 150.261719 170.421875 C 150.855469 171.441406 151.578125 172.460938 152.257812 173.351562 C 153.277344 174.753906 154.382812 175.984375 155.65625 177.175781 C 156.675781 178.195312 157.867188 179.171875 159.054688 180.105469 C 164.875 184.4375 171.839844 186.734375 179.0625 186.734375 C 186.285156 186.734375 193.25 184.4375 199.070312 180.105469 C 200.261719 179.214844 201.40625 178.195312 202.46875 177.175781 C 203.660156 175.984375 204.804688 174.753906 205.867188 173.351562 C 206.589844 172.375 207.269531 171.441406 207.863281 170.421875 C 208.121094 169.953125 208.164062 169.441406 207.949219 169.019531 Z M 207.949219 169.019531 " fill-opacity="1" fill-rule="nonzero"/></g><path fill="#326ce5" d="M 128.597656 157.804688 C 137.855469 157.804688 145.460938 150.242188 145.460938 140.9375 C 145.460938 131.636719 137.855469 124.117188 128.597656 124.117188 C 119.335938 124.117188 111.773438 131.679688 111.773438 140.980469 C 111.773438 150.285156 119.335938 157.804688 128.597656 157.804688 Z M 128.597656 157.804688 " fill-opacity="1" fill-rule="nonzero"/><g clip-path="url(#4785551017)"><path fill="#326ce5" d="M 157.527344 169.019531 C 157.101562 167.914062 156.507812 166.894531 155.828125 165.917969 C 152.429688 160.90625 147.203125 157.589844 141.339844 156.785156 C 140.617188 156.699219 139.8125 156.867188 139.214844 157.292969 C 136.117188 159.585938 132.460938 160.734375 128.640625 160.734375 C 124.816406 160.734375 121.121094 159.546875 118.0625 157.292969 C 117.464844 156.867188 116.660156 156.613281 115.9375 156.785156 C 110.03125 157.589844 104.765625 160.90625 101.453125 165.917969 C 100.773438 166.894531 100.21875 167.957031 99.753906 169.019531 C 99.539062 169.441406 99.625 169.996094 99.835938 170.421875 C 100.433594 171.441406 101.152344 172.460938 101.832031 173.351562 C 102.851562 174.753906 103.957031 175.984375 105.230469 177.175781 C 106.25 178.195312 107.441406 179.171875 108.628906 180.105469 C 114.449219 184.4375 121.417969 186.734375 128.640625 186.734375 C 135.859375 186.734375 142.828125 184.4375 148.648438 180.105469 C 149.835938 179.214844 150.984375 178.195312 152.046875 177.175781 C 153.234375 175.984375 154.382812 174.753906 155.445312 173.351562 C 156.167969 172.375 156.847656 171.441406 157.441406 170.421875 C 157.652344 169.953125 157.738281 169.441406 157.527344 169.019531 Z M 157.527344 169.019531 " fill-opacity="1" fill-rule="nonzero"/></g><path fill="#326ce5" d="M 153.828125 179.339844 C 165.425781 179.339844 174.941406 169.867188 174.941406 158.226562 C 174.941406 146.589844 165.46875 137.117188 153.828125 137.117188 C 142.191406 137.117188 132.71875 146.589844 132.71875 158.226562 C 132.71875 169.867188 142.234375 179.339844 153.828125 179.339844 Z M 153.828125 179.339844 " fill-opacity="1" fill-rule="nonzero"/><path fill="#ffffff" d="M 153.828125 180.742188 C 141.425781 180.742188 131.316406 170.632812 131.316406 158.226562 C 131.316406 145.824219 141.425781 135.714844 153.828125 135.714844 C 166.234375 135.714844 176.34375 145.824219 176.34375 158.226562 C 176.34375 170.675781 166.234375 180.742188 153.828125 180.742188 Z M 153.828125 138.558594 C 142.996094 138.558594 134.160156 147.394531 134.160156 158.226562 C 134.160156 169.0625 142.996094 177.898438 153.828125 177.898438 C 164.664062 177.898438 173.5 169.0625 173.5 158.226562 C 173.5 147.394531 164.664062 138.558594 153.828125 138.558594 Z M 153.828125 138.558594 " fill-opacity="1" fill-rule="nonzero"/><path fill="#326ce5" d="M 190.023438 193.359375 C 189.472656 191.957031 188.75 190.683594 187.898438 189.492188 C 183.652344 183.25 177.109375 179.085938 169.761719 178.066406 C 168.824219 177.980469 167.804688 178.152344 167.082031 178.703125 C 163.21875 181.550781 158.628906 183.035156 153.828125 183.035156 C 149.03125 183.035156 144.441406 181.550781 140.574219 178.703125 C 139.855469 178.152344 138.835938 177.855469 137.898438 178.066406 C 130.550781 179.085938 123.882812 183.207031 119.761719 189.492188 C 118.910156 190.683594 118.1875 192.085938 117.636719 193.359375 C 117.339844 193.910156 117.464844 194.550781 117.722656 195.101562 C 118.445312 196.375 119.378906 197.691406 120.226562 198.796875 C 121.503906 200.539062 122.902344 202.109375 124.476562 203.597656 C 125.75 204.871094 127.238281 206.105469 128.722656 207.292969 C 135.988281 212.730469 144.738281 215.578125 153.789062 215.578125 C 162.835938 215.578125 171.542969 212.730469 178.851562 207.292969 C 180.335938 206.1875 181.78125 204.914062 183.097656 203.597656 C 184.585938 202.109375 186.03125 200.539062 187.347656 198.796875 C 188.28125 197.609375 189.089844 196.417969 189.851562 195.101562 C 190.191406 194.589844 190.320312 193.910156 190.023438 193.359375 Z M 190.023438 193.359375 " fill-opacity="1" fill-rule="nonzero"/><path fill="#ffffff" d="M 153.746094 216.980469 C 144.3125 216.980469 135.351562 214.003906 127.832031 208.398438 C 126.300781 207.164062 124.816406 205.933594 123.457031 204.574219 C 121.84375 203.085938 120.441406 201.429688 119.082031 199.605469 C 118.402344 198.667969 117.339844 197.269531 116.488281 195.78125 C 115.9375 194.71875 115.894531 193.613281 116.363281 192.722656 C 116.957031 191.320312 117.765625 189.875 118.570312 188.6875 C 122.902344 182.144531 129.871094 177.726562 137.6875 176.664062 C 138.875 176.410156 140.277344 176.75 141.382812 177.558594 C 144.953125 180.191406 149.285156 181.59375 153.789062 181.59375 C 158.289062 181.59375 162.625 180.191406 166.234375 177.558594 C 167.167969 176.835938 168.527344 176.539062 169.886719 176.664062 C 177.617188 177.726562 184.585938 182.101562 189.046875 188.6875 C 189.980469 190.046875 190.746094 191.40625 191.296875 192.765625 C 191.808594 193.828125 191.59375 195.058594 190.789062 195.992188 C 190.234375 197.054688 189.386719 198.246094 188.324219 199.648438 C 186.921875 201.558594 185.351562 203.214844 183.949219 204.574219 C 182.546875 205.976562 181.058594 207.292969 179.574219 208.398438 C 172.140625 214.003906 163.175781 216.980469 153.746094 216.980469 Z M 138.496094 179.425781 C 138.367188 179.425781 138.28125 179.425781 138.195312 179.46875 C 131.101562 180.445312 124.816406 184.394531 120.90625 190.300781 C 120.183594 191.363281 119.464844 192.679688 118.910156 193.953125 C 118.824219 194.082031 118.867188 194.292969 118.953125 194.507812 C 119.675781 195.78125 120.652344 197.097656 121.289062 197.988281 C 122.523438 199.6875 123.882812 201.175781 125.367188 202.621094 C 126.640625 203.894531 128.128906 205.085938 129.53125 206.230469 C 136.496094 211.457031 144.867188 214.21875 153.703125 214.21875 C 162.539062 214.21875 170.90625 211.457031 177.917969 206.1875 C 179.316406 205.167969 180.71875 203.9375 181.996094 202.621094 C 183.269531 201.347656 184.796875 199.773438 186.074219 197.988281 C 187.050781 196.714844 187.8125 195.570312 188.453125 194.421875 L 188.410156 194.378906 L 188.621094 193.910156 C 188.152344 192.722656 187.472656 191.53125 186.667969 190.300781 C 182.632812 184.355469 176.386719 180.402344 169.503906 179.46875 C 168.910156 179.425781 168.273438 179.554688 167.890625 179.851562 C 163.8125 182.867188 158.925781 184.480469 153.789062 184.480469 C 148.648438 184.480469 143.761719 182.910156 139.683594 179.894531 C 139.34375 179.597656 138.917969 179.425781 138.496094 179.425781 Z M 138.496094 179.425781 " fill-opacity="1" fill-rule="nonzero"/><g clip-path="url(#2372e5de1c)"><path fill="#326ce5" d="M 226.640625 197.886719 C 220.773438 196.910156 214.785156 196.910156 208.917969 197.886719 L 208.230469 209.9375 C 203.691406 210.988281 199.355469 212.785156 195.402344 215.25 L 186.398438 207.214844 C 181.558594 210.671875 177.324219 214.910156 173.863281 219.75 L 181.898438 228.753906 C 179.433594 232.707031 177.636719 237.042969 176.585938 241.582031 L 164.535156 242.269531 C 163.558594 248.136719 163.558594 254.125 164.535156 259.992188 L 176.585938 260.679688 C 177.636719 265.21875 179.433594 269.554688 181.898438 273.507812 L 173.863281 282.515625 C 177.324219 287.355469 181.558594 291.589844 186.398438 295.046875 L 195.402344 287.011719 C 199.355469 289.476562 203.691406 291.273438 208.230469 292.324219 L 208.917969 304.375 C 214.785156 305.351562 220.773438 305.351562 226.640625 304.375 L 227.328125 292.324219 C 231.867188 291.273438 236.203125 289.476562 240.15625 287.011719 L 249.164062 295.046875 C 254.003906 291.589844 258.238281 287.355469 261.695312 282.515625 L 253.660156 273.507812 C 256.125 269.554688 257.921875 265.21875 258.972656 260.679688 L 271.023438 259.992188 C 272 254.125 272 248.136719 271.023438 242.269531 L 258.972656 241.582031 C 257.921875 237.042969 256.125 232.707031 253.660156 228.753906 L 261.695312 219.75 C 258.238281 214.910156 254.003906 210.671875 249.164062 207.214844 L 240.15625 215.25 C 236.203125 212.785156 231.867188 210.988281 227.328125 209.9375 Z M 217.78125 225.890625 C 231.710938 225.890625 243.019531 237.199219 243.019531 251.132812 C 243.019531 265.0625 231.710938 276.371094 217.78125 276.371094 C 203.851562 276.371094 192.539062 265.0625 192.539062 251.132812 C 192.539062 237.199219 203.851562 225.890625 217.78125 225.890625 Z M 217.78125 225.890625 " fill-opacity="1" fill-rule="evenodd"/></g></svg>