<svg xmlns="http://www.w3.org/2000/svg" xmlns:xlink="http://www.w3.org/1999/xlink" width="500" zoomAndPan="magnify" viewBox="0 0 375 374.999991" height="500" preserveAspectRatio="xMidYMid meet" version="1.0"><defs><clipPath id="4d21782b90"><path d="M 0 0 L 68.304688 0 L 68.304688 68.304688 L 0 68.304688 Z M 0 0 " clip-rule="nonzero"/></clipPath><clipPath id="0bada3b19f"><path d="M 14 15.984375 L 54.898438 15.984375 L 54.898438 57 L 14 57 Z M 14 15.984375 " clip-rule="nonzero"/></clipPath><clipPath id="22142690cb"><path d="M 8.464844 8.464844 L 366.535156 8.464844 L 366.535156 366.535156 L 8.464844 366.535156 Z M 8.464844 8.464844 " clip-rule="nonzero"/></clipPath><clipPath id="e4a300dbd9"><path d="M 67.40625 51 L 283.757812 51 L 283.757812 296 L 67.40625 296 Z M 67.40625 51 " clip-rule="nonzero"/></clipPath></defs><rect x="-37.5" width="450" fill="#ffffff" y="-37.499999" height="449.999989" fill-opacity="1"/><rect x="-37.5" width="450" fill="#326ce5" y="-37.499999" height="449.999989" fill-opacity="1"/><path stroke-linecap="butt" transform="matrix(0, 0.75, -0.75, 0, 137.81815, 116.108452)" fill="none" stroke-linejoin="miter" d="M 0.00123017 2.002325 L 95.188736 2.002325 " stroke="#fbfcfe" stroke-width="4" stroke-opacity="1" stroke-miterlimit="4"/><g clip-path="url(#4d21782b90)"><path fill="#326ce5" d="M 0 0 L 68.304688 0 L 68.304688 68.304688 L 0 68.304688 Z M 0 0 " fill-opacity="1" fill-rule="nonzero"/></g><g clip-path="url(#0bada3b19f)"><path fill="#ffffff" d="M 33.722656 15.984375 C 25.859375 15.984375 18.804688 19.546875 14.105469 25.136719 L 16.722656 27.332031 C 20.800781 22.484375 26.886719 19.402344 33.722656 19.402344 C 39.117188 19.402344 44.023438 21.335938 47.867188 24.527344 L 43.976562 24.527344 L 43.976562 27.941406 L 54.226562 27.941406 L 54.226562 17.691406 L 50.808594 17.691406 L 50.808594 22.5625 C 46.273438 18.492188 40.292969 15.984375 33.722656 15.984375 Z M 33.722656 26.234375 C 25.253906 26.234375 18.347656 33.140625 18.347656 41.609375 C 18.347656 50.082031 25.253906 56.988281 33.722656 56.988281 C 42.195312 56.988281 49.101562 50.082031 49.101562 41.609375 C 49.101562 33.140625 42.195312 26.234375 33.722656 26.234375 Z M 33.722656 29.652344 C 40.351562 29.652344 45.683594 34.984375 45.683594 41.609375 C 45.683594 48.234375 40.351562 53.570312 33.722656 53.570312 C 27.097656 53.570312 21.765625 48.234375 21.765625 41.609375 C 21.765625 34.984375 27.097656 29.652344 33.722656 29.652344 Z M 33.722656 29.652344 " fill-opacity="1" fill-rule="nonzero"/></g><g clip-path="url(#22142690cb)"><path fill="#326ce5" d="M 8.464844 8.464844 L 366.535156 8.464844 L 366.535156 366.535156 L 8.464844 366.535156 Z M 8.464844 8.464844 " fill-opacity="1" fill-rule="nonzero"/></g><rect x="-37.5" width="450" fill="#326ce5" y="-37.499999" height="449.999989" fill-opacity="1"/><path fill="#ffffff" d="M 98.355469 65.605469 L 282.25 65.605469 C 291.089844 65.605469 298.253906 72.78125 298.253906 81.632812 L 298.253906 294.527344 C 298.253906 303.378906 291.089844 310.554688 282.25 310.554688 L 98.355469 310.554688 C 89.511719 310.554688 82.347656 303.378906 82.347656 294.527344 L 82.347656 81.632812 C 82.347656 72.78125 89.511719 65.605469 98.355469 65.605469 Z M 98.355469 65.605469 " fill-opacity="0.54" fill-rule="nonzero"/><g clip-path="url(#e4a300dbd9)"><path fill="#ffffff" d="M 83.820312 51.039062 L 267.714844 51.039062 C 276.554688 51.039062 283.71875 58.214844 283.71875 67.0625 L 283.71875 279.957031 C 283.71875 288.808594 276.554688 295.984375 267.714844 295.984375 L 83.820312 295.984375 C 74.976562 295.984375 67.8125 288.808594 67.8125 279.957031 L 67.8125 67.0625 C 67.8125 58.214844 74.976562 51.039062 83.820312 51.039062 Z M 83.820312 51.039062 " fill-opacity="0.28" fill-rule="nonzero"/></g><path fill="#ffffff" d="M 116.707031 85.035156 L 292.15625 85.035156 C 300.996094 85.035156 308.160156 92.210938 308.160156 101.058594 L 308.160156 304.734375 C 308.160156 313.585938 300.996094 320.761719 292.15625 320.761719 L 116.707031 320.761719 C 107.863281 320.761719 100.699219 313.585938 100.699219 304.734375 L 100.699219 101.058594 C 100.699219 92.210938 107.863281 85.035156 116.707031 85.035156 Z M 116.707031 85.035156 " fill-opacity="1" fill-rule="nonzero"/><path fill="#3e5eb0" d="M 196.050781 221.234375 L 182.503906 235.84375 L 182.503906 272.015625 L 156.449219 272.015625 L 156.449219 145.414062 L 182.503906 145.414062 L 182.503906 202.800781 L 193.96875 187.0625 L 226.183594 145.414062 L 258.230469 145.414062 L 213.332031 201.671875 L 259.53125 272.015625 L 228.53125 272.015625 Z M 196.050781 221.234375 " fill-opacity="1" fill-rule="nonzero"/></svg>