<?xml version="1.0" encoding="utf-8"?>
<!-- Generator: Adobe Illustrator 26.2.1, SVG Export Plug-In . SVG Version: 6.00 Build 0)  -->
<svg version="1.1" id="Layer_1" xmlns="http://www.w3.org/2000/svg" xmlns:xlink="http://www.w3.org/1999/xlink" x="0px" y="0px"
	 viewBox="0 0 512 512" style="enable-background:new 0 0 512 512;" xml:space="preserve">
<style type="text/css">
	.st0{fill:#326CE5;}
	.st1{fill:#FFFFFF;}
</style>
<g>
	<g>
		<rect x="0" class="st0" width="512" height="512"/>
	</g>
</g>
<g id="path3055_00000161606745630232475050000014401463646781948325_">
	<path class="st1" d="M200.9,399.1c-7.2,0-13.9-3.2-18.4-8.8l-68.7-85.4c-0.5-0.6-0.9-1.3-1.4-1.9c-3.4-5.2-4.6-11.8-3.2-17.9
		l24.5-106.5c1.6-7,6.3-12.8,12.7-15.9l99.3-47.4c2.8-1.4,5.9-2.1,9-2.3l0,0c3.9-0.2,7.9,0.6,11.4,2.3l99.3,47.4
		c6.5,3.1,11.1,8.9,12.7,15.9L402.8,285c1.6,7-0.1,14.2-4.6,19.8l-68.7,85.5c-4.5,5.6-11.2,8.8-18.4,8.8c0,0,0,0,0,0L200.9,399.1
		C200.9,399.1,200.9,399.1,200.9,399.1z M255.2,122c-1.9,0.1-3.8,0.6-5.5,1.4l-99.3,47.4c-4,1.9-6.8,5.4-7.8,9.7l-24.5,106.5
		c-0.9,3.7-0.2,7.7,1.9,10.9c0.3,0.4,0.5,0.8,0.8,1.2l68.7,85.4c2.7,3.4,6.9,5.4,11.3,5.4c0,0,0,0,0,0l110.2,0h0
		c4.4,0,8.5-2,11.3-5.4l68.7-85.5c2.7-3.4,3.8-7.8,2.8-12l-24.5-106.5c-1-4.3-3.8-7.8-7.8-9.7l-99.3-47.4
		C260.1,122.4,257.5,121.9,255.2,122L255.2,122z"/>
</g>
<g>
	<g>
		<path class="st1" d="M113.5,266.7l-4.2,18.4c-1.4,6.1-0.2,12.7,3.2,17.9c0.4,0.6,0.9,1.3,1.4,1.9l68.7,85.4
			c4.5,5.6,11.2,8.8,18.4,8.8l110.2,0c0,0,0,0,0,0c7.2,0,13.9-3.2,18.4-8.8l68.7-85.5c4.5-5.6,6.2-12.8,4.6-19.8l-4.2-18.3H113.5z"
			/>
	</g>
</g>
<g>
	<g>
		<path class="st1" d="M149.5,257h-13.7c-2.5,0-4.6-2-4.6-4.6s2-4.6,4.6-4.6h13.7c2.5,0,4.6,2,4.6,4.6S152.1,257,149.5,257z"/>
	</g>
	<g>
		<path class="st1" d="M330.9,257h-30.2c-2.5,0-4.6-2-4.6-4.6s2-4.6,4.6-4.6h30.2c2.5,0,4.6,2,4.6,4.6S333.4,257,330.9,257z
			 M270.5,257h-30.2c-2.5,0-4.6-2-4.6-4.6s2-4.6,4.6-4.6h30.2c2.5,0,4.6,2,4.6,4.6S273,257,270.5,257z M210,257h-30.2
			c-2.5,0-4.6-2-4.6-4.6s2-4.6,4.6-4.6H210c2.5,0,4.6,2,4.6,4.6S212.5,257,210,257z"/>
	</g>
	<g>
		<path class="st1" d="M374.9,257h-13.7c-2.5,0-4.6-2-4.6-4.6s2-4.6,4.6-4.6h13.7c2.5,0,4.6,2,4.6,4.6S377.4,257,374.9,257z"/>
	</g>
</g>
<g>
	<g>
		<path class="st0" d="M253.3,390.6c-2.5,0-4.6-2-4.6-4.6v-89.3c0-2.5,2-4.6,4.6-4.6c2.5,0,4.6,2,4.6,4.6v89.3
			C257.8,388.6,255.8,390.6,253.3,390.6z"/>
	</g>
	<g>
		<g>
			<polygon class="st0" points="266.9,300.7 253.3,277.1 239.6,300.7 			"/>
		</g>
	</g>
</g>
</svg>
