<?xml version="1.0" encoding="utf-8"?>
<!-- Generator: Adobe Illustrator 26.2.1, SVG Export Plug-In . SVG Version: 6.00 Build 0)  -->
<svg version="1.1" id="Layer_1" xmlns="http://www.w3.org/2000/svg" xmlns:xlink="http://www.w3.org/1999/xlink" x="0px" y="0px"
	 viewBox="0 0 256 256" style="enable-background:new 0 0 256 256;" xml:space="preserve">
<style type="text/css">
	.st0{fill:#326CE5;}
	.st1{fill:#FFFFFF;}
</style>
<g>
	<g>
		<circle class="st0" cx="128" cy="128.4" r="128"/>
	</g>
	<g>
		<g>
			<line class="st0" x1="131.6" y1="156.1" x2="113.4" y2="189.5"/>
			<path class="st1" d="M113.4,192.7c-0.5,0-1-0.1-1.5-0.4c-1.6-0.8-2.1-2.8-1.3-4.3l18.2-33.4c0.8-1.6,2.8-2.1,4.3-1.3
				c1.6,0.8,2.1,2.8,1.3,4.3L116.2,191C115.6,192.1,114.5,192.7,113.4,192.7z"/>
		</g>
		<g>
			<g>
				<path class="st0" d="M136.7,158.9L136.7,158.9c-9.2-5-12.6-16.5-7.6-25.7l30.7-56.6c5-9.2,16.5-12.6,25.7-7.6l0,0
					c9.2,5,12.6,16.5,7.6,25.7l-30.7,56.6C157.4,160.4,145.9,163.9,136.7,158.9z"/>
				<path class="st1" d="M145.7,164.4c-3.6,0-7.2-0.9-10.5-2.7c-10.7-5.8-14.7-19.3-8.9-30L157,75.1c2.8-5.2,7.5-9,13.2-10.7
					c5.7-1.7,11.7-1,16.9,1.8c5.2,2.8,9,7.5,10.7,13.2c1.7,5.7,1,11.7-1.8,16.9l-30.7,56.6c-2.8,5.2-7.5,9-13.2,10.7
					C150,164.1,147.8,164.4,145.7,164.4z M176.5,69.9c-1.5,0-3,0.2-4.5,0.7c-4,1.2-7.4,3.9-9.4,7.6l-30.7,56.6
					c-4.1,7.6-1.3,17.2,6.3,21.4l0,0c3.7,2,8,2.5,12,1.3c4-1.2,7.4-3.9,9.4-7.6l30.7-56.6c2-3.7,2.5-8,1.3-12
					c-1.2-4-3.9-7.4-7.6-9.4C181.7,70.5,179.1,69.9,176.5,69.9z"/>
			</g>
			<g>
				<line class="st0" x1="108.2" y1="199.1" x2="105.6" y2="203.8"/>
				<path class="st1" d="M105.6,207c-0.5,0-1-0.1-1.5-0.4c-1.6-0.8-2.1-2.8-1.3-4.3l2.5-4.6c0.8-1.6,2.8-2.1,4.3-1.3
					c1.6,0.8,2.1,2.8,1.3,4.3l-2.5,4.6C107.9,206.4,106.8,207,105.6,207z"/>
			</g>
			<g>
				<line class="st0" x1="141.9" y1="161.7" x2="116" y2="209.4"/>
				<path class="st1" d="M116,212.6c-0.5,0-1-0.1-1.5-0.4c-1.6-0.8-2.1-2.8-1.3-4.3l25.9-47.7c0.8-1.6,2.8-2.1,4.3-1.3
					c1.6,0.8,2.1,2.8,1.3,4.3l-25.9,47.7C118.2,212,117.1,212.6,116,212.6z"/>
			</g>
			<g>
				<line class="st0" x1="154" y1="87.3" x2="187.3" y2="105.4"/>
				<path class="st1" d="M187.3,108.6c-0.5,0-1-0.1-1.5-0.4l-33.3-18.1c-1.6-0.8-2.1-2.8-1.3-4.3s2.8-2.1,4.3-1.3l33.3,18.1
					c1.6,0.8,2.1,2.8,1.3,4.3C189.6,108,188.5,108.6,187.3,108.6z"/>
			</g>
			<g>
				<line class="st0" x1="148.6" y1="97.2" x2="181.9" y2="115.3"/>
				<path class="st1" d="M181.9,118.5c-0.5,0-1-0.1-1.5-0.4L147.1,100c-1.6-0.8-2.1-2.8-1.3-4.3c0.8-1.6,2.8-2.1,4.3-1.3l33.3,18.1
					c1.6,0.8,2.1,2.8,1.3,4.3C184.2,117.9,183.1,118.5,181.9,118.5z"/>
			</g>
		</g>
	</g>
	<g>
		<g>
			<circle class="st1" cx="101.7" cy="98.8" r="46.9"/>
			<path class="st0" d="M101.7,148.9c-27.6,0-50.1-22.5-50.1-50.1c0-27.7,22.5-50.1,50.1-50.1s50.1,22.5,50.1,50.1
				C151.8,126.4,129.3,148.9,101.7,148.9z M101.7,55c-24.1,0-43.8,19.6-43.8,43.8c0,24.1,19.6,43.8,43.8,43.8s43.8-19.6,43.8-43.8
				C145.4,74.6,125.8,55,101.7,55z"/>
		</g>
		<g>
			<g>
				<path class="st1" d="M124.8,87.2c2.2,3.9,3.4,8.3,3.4,13.1c0,14.7-11.9,26.5-26.5,26.5S75.1,115,75.1,100.3S87,73.8,101.7,73.8
					c5.2,0,10,1.5,14.1,4"/>
			</g>
			<g>
				<g>
					<path class="st0" d="M101.7,130c-16.4,0-29.7-13.3-29.7-29.7c0-16.4,13.3-29.7,29.7-29.7c1.4,0,2.8,0.1,4.2,0.3
						c1.8,0.2,3,1.9,2.7,3.6c-0.2,1.8-1.9,3-3.6,2.7c-1.1-0.1-2.2-0.2-3.3-0.2c-12.9,0-23.3,10.5-23.3,23.3s10.5,23.3,23.3,23.3
						s23.3-10.5,23.3-23.3c0-4-1-8-3-11.5c-0.9-1.5-0.3-3.5,1.2-4.4c1.5-0.9,3.5-0.3,4.4,1.2c2.5,4.4,3.8,9.5,3.8,14.6
						C131.4,116.7,118.1,130,101.7,130z"/>
				</g>
				<g>
					<g>
						<polygon class="st0" points="100.8,81 115.8,77.8 105.5,66.4 						"/>
					</g>
				</g>
			</g>
		</g>
	</g>
</g>
</svg>
