<?xml version="1.0" encoding="utf-8"?>
<!-- Generator: Adobe Illustrator 26.2.1, SVG Export Plug-In . SVG Version: 6.00 Build 0)  -->
<svg version="1.1" id="Layer_1" xmlns="http://www.w3.org/2000/svg" xmlns:xlink="http://www.w3.org/1999/xlink" x="0px" y="0px"
	 viewBox="0 0 512 512" style="enable-background:new 0 0 512 512;" xml:space="preserve">
<style type="text/css">
	.st0{fill:#326CE5;}
	.st1{fill:none;}
	.st2{fill:#FFFFFF;}
</style>
<g>
	<g>
		<rect x="0" y="0" class="st0" width="512" height="512"/>
	</g>
	<g>
		<g>
			<path class="st1" d="M265.3,208.5c0.1,1.4,0.6,2.8,1.5,4c2.3,2.9,6.4,3.4,9.4,1.3l0.1,0l33.1-23.5
				c-12.5-12.2-28.8-20.2-46.5-22.4L265.3,208.5L265.3,208.5z"/>
		</g>
		<g>
			<path class="st1" d="M212.4,244.6c1.3-0.4,2.6-1.2,3.5-2.3c2.3-2.9,1.9-7-0.9-9.4l0-0.2l-30.5-27.2c-9,14.7-13.3,32.4-11.3,50.6
				l39-11.3L212.4,244.6z"/>
		</g>
		<g>
			<path class="st1" d="M230.2,213.9c1.1,0.8,2.5,1.3,4,1.3c3.7,0,6.7-2.9,6.8-6.5l0.2-0.1l2.3-40.7c-2.7,0.3-5.5,0.8-8.3,1.4
				c-15.1,3.4-28.2,10.9-38.5,21L230.2,213.9L230.2,213.9z"/>
		</g>
		<g>
			<path class="st1" d="M305.9,219.4c6.3-2.5,12.9-4.5,19.5-6.3c-1.2-2.6-2.4-5.2-3.9-7.7L305.9,219.4z"/>
		</g>
		<g>
			<path class="st1" d="M246.9,234.8l-7.8,9.7l2.8,12.1l3.1,1.5c6.2-5.9,12.9-11.4,19.9-16.4l-5.5-6.8H246.9z"/>
		</g>
		<g>
			<path class="st1" d="M225.3,277.7c0.6-1.3,0.7-2.7,0.4-4.2c-0.7-3.1-3.5-5.3-6.6-5.3c-0.4,0-0.9,0-1.3,0.1l-0.1-0.1l-40,6.8
				c5.5,15.3,15.6,27.9,28,37.1c5-10.4,11-20.3,17.8-29.5l1.9-4.7L225.3,277.7z"/>
		</g>
		<g>
			<path class="st1" d="M331.8,231.2c-12.7,3.2-24.9,7.8-36.3,13.8l37.7,10.9C334,247.8,333.5,239.5,331.8,231.2z"/>
		</g>
		<g>
			<path class="st1" d="M271.2,326c2.7-0.6,5.3-1.3,7.9-2.2l-19.7-35.7h-0.1c-0.7-1.2-1.7-2.3-3.1-2.9c-1-0.5-2.1-0.7-3.2-0.7
				c-2.4,0.1-4.6,1.4-5.8,3.6h0l-19.7,35.6C241.1,328.4,256.1,329.4,271.2,326z"/>
		</g>
		<g>
			<path class="st1" d="M281,277.6l15.7,37.9c15.1-9.6,26.4-24,32.3-40.6l-40.4-6.8l-0.1,0.1c-0.5-0.1-1-0.1-1.6-0.1
				c-0.9,0-1.8,0.3-2.6,0.7C281,270.2,279.6,274.2,281,277.6L281,277.6z"/>
		</g>
		<g>
			<path class="st0" d="M189.2,362.9c-1,2.2-1.1,4.5-0.5,6.6c0.3-2.8,0.8-5.5,1.3-8.2C189.7,361.8,189.4,362.4,189.2,362.9z"/>
		</g>
		<g>
			<g>
				<path class="st2" d="M188.7,369.5c0.3-2.8,0.8-5.5,1.3-8.2c1.7-10.3,4.3-20.2,7.7-29.9c2.3-6.6,5-13,8-19.3
					c5-10.4,11-20.3,17.8-29.5c6.5-8.8,13.7-17,21.5-24.5c6.2-5.9,12.9-11.4,19.9-16.4c12.6-9,26.4-16.5,41.1-22.2
					c6.3-2.5,12.9-4.5,19.5-6.3c6.7-1.8,13.6-3.2,20.6-4.2c8.7-1.3,17.5-2.1,26.5-2.1c17.7,0,34.8,2.7,51.1,7.3l-16.8-72.8
					c-1.7-7.3-6.6-13.4-13.4-16.7L263.9,62.8c-3.7-1.8-7.9-2.6-12-2.4c-3.3,0.2-6.5,1-9.5,2.4l-129.6,61.9
					c-6.8,3.2-11.7,9.4-13.4,16.7l-32,139.1c-1.5,6.5-0.3,13.3,3.4,18.8c0.4,0.7,0.9,1.3,1.4,2l89.7,111.5
					c4.7,5.8,11.8,9.2,19.4,9.2l8.5,0c-1.6-9.7-2.6-19.6-2.6-29.8C187.2,384.5,187.8,376.9,188.7,369.5z"/>
			</g>
			<g>
				<path class="st2" d="M205.1,426.7l-0.7-3.9c-1.9-10.7-2.9-20.7-2.9-30.6c0-15.8,2.3-31.7,6.8-47.4
					c12.9-44.5,43.8-82.4,84.9-104.1c11.6-6.1,24.1-10.9,37.3-14.2c7.1-1.8,13.8-3.1,20.5-3.9c8.1-1,14.9-1.5,21.4-1.5
					c19.4,0,38.9,3.4,57.7,10.2l2.5,0.9l10.8,47.1c2,8.8-0.1,17.8-5.7,24.9l-89.7,111.5c-5.6,7-14,11-23.1,11c0,0,0,0,0,0
					L205.1,426.7z M372.6,230.7c-6.1,0-12.6,0.4-20.2,1.4c-6.3,0.8-12.7,2-19.4,3.7c-12.5,3.2-24.4,7.7-35.2,13.4
					c-38.8,20.4-68.1,56.2-80.2,98.3c-4.3,14.8-6.4,29.8-6.4,44.7c0,8.1,0.7,16.3,2.1,25l112,0c0,0,0,0,0,0c6.1,0,11.8-2.7,15.6-7.5
					l89.6-111.5c3.8-4.7,5.2-10.8,3.9-16.7l-9.7-42C407.6,233.6,390.1,230.7,372.6,230.7z M344.5,412.7L344.5,412.7L344.5,412.7z"/>
			</g>
		</g>
		<g>
			<path class="st2" d="M217.5,341.7c18,6.9,38.1,8.8,58.3,4.2c4.6-1,9-2.4,13.3-4c0.5,0.9,1.4,2.6,1.7,3c1.3,0.4,2.8,0.7,4,2.4
				c2.1,3.6,3.6,7.9,5.3,13c0.8,2.4,1.2,4.6,2.3,7.1c0.3,0.6,0.7,1.4,1,2c2.1,4.3,6.9,6.3,10.7,4.4c3.8-1.8,5.3-6.8,3.3-11
				c-0.3-0.6-0.7-1.5-1-2.1c-1.3-2.4-2.7-4.1-4.2-6.2c-2.9-4.6-5.4-8.4-6.9-12.3c-0.6-2,0.1-3.3,0.6-4.6c-0.3-0.3-0.9-2.2-1.3-3.1
				c21.5-12.7,37.3-32.9,44.7-56.2c1,0.2,2.7,0.5,3.3,0.6c1.2-0.8,2.2-1.8,4.3-1.6c4.1,0.6,8.4,2.1,13.5,4c2.4,0.9,4.3,2,7,2.7
				c0.6,0.2,1.4,0.3,2,0.4c0.1,0,0.1,0,0.1,0.1c0,0,0.1,0,0.1,0c4.6,1,9.1-1.5,10-5.7c0.9-4.1-2-8.3-6.6-9.4
				c-0.7-0.2-1.6-0.4-2.3-0.5c-2.7-0.5-4.9-0.4-7.4-0.6c-5.4-0.6-9.9-1-13.9-2.3c-1.6-0.6-2.8-2.6-3.3-3.4l-3.1-0.9
				c1.5-11.1,1.2-22.6-1.3-34.2c-6.8,0.9-13.4,2.2-20,3.8c1.8,8.3,2.2,16.6,1.4,24.7L295.5,245c-39.7,20.9-69.9,57.3-82.6,101.2
				c0.8-0.6,1.8-1,2.9-1.3L217.5,341.7z M284.3,268.6c0.8-0.4,1.7-0.6,2.6-0.7c0.5,0,1.1,0,1.6,0.1l0.1-0.1l40.4,6.8
				c-5.9,16.6-17.2,31-32.3,40.6L281,277.6l0-0.1C279.6,274.2,281,270.2,284.3,268.6z M247.1,288.2L247.1,288.2
				c1.2-2.2,3.5-3.5,5.8-3.6c1.1,0,2.2,0.2,3.2,0.7c1.4,0.7,2.4,1.7,3.1,2.9h0.1l19.7,35.7c-2.6,0.9-5.2,1.6-7.9,2.2
				c-15.1,3.4-30.1,2.4-43.8-2.3L247.1,288.2z"/>
		</g>
		<g>
			<path class="st0" d="M177.7,275l40-6.8l0.1,0.1c0.4-0.1,0.9-0.1,1.3-0.1c3.1,0,5.8,2.2,6.6,5.3c0.3,1.5,0.2,2.9-0.4,4.2l0.1,0.1
				l-1.9,4.7c6.5-8.8,13.7-17,21.5-24.5l-3.1-1.5l-2.8-12.1l7.8-9.7h12.5l5.5,6.8c12.6-9,26.4-16.5,41.1-22.2l15.6-14
				c1.5,2.4,2.7,5.1,3.9,7.7c6.7-1.8,13.6-3.2,20.6-4.2c-2.5-6.1-5.6-11.8-9.2-17.2c0.8-0.7,2.3-2.1,2.8-2.5c0.1-1.4,0-2.9,1.5-4.4
				c3.1-2.9,6.9-5.2,11.5-8.1c2.2-1.3,4.2-2.1,6.4-3.8c0.5-0.4,1.2-1,1.7-1.4c3.7-3,4.6-8.1,1.9-11.4c-2.7-3.3-7.8-3.7-11.6-0.7
				c-0.5,0.4-1.2,1-1.7,1.4c-2.1,1.8-3.4,3.6-5.1,5.4c-3.8,3.9-7,7.1-10.5,9.5c-1.5,0.9-3.7,0.6-4.7,0.5l-2.9,2.1
				c-16.8-17.6-39.7-28.9-64.4-31.1c-0.1-1-0.2-2.9-0.2-3.5c-1-1-2.2-1.8-2.5-3.9c-0.3-4.2,0.2-8.7,0.9-14.1c0.4-2.5,1-4.6,1.1-7.4
				c0-0.6,0-1.5,0-2.2c0-4.8-3.5-8.6-7.8-8.6c-4.3,0-7.8,3.9-7.8,8.6c0,0.1,0,0.1,0,0.2c0,0.6,0,1.4,0,2c0.1,2.7,0.7,4.8,1.1,7.4
				c0.7,5.4,1.2,9.9,0.9,14.1c-0.3,1.6-1.5,3-2.5,4l-0.2,3.3c-4.7,0.4-9.3,1.1-14,2.2c-20.1,4.6-37.5,14.9-50.7,28.9
				c-0.9-0.6-2.4-1.7-2.8-2c-1.4,0.2-2.8,0.6-4.6-0.4c-3.5-2.3-6.6-5.6-10.5-9.4c-1.8-1.9-3-3.6-5.1-5.4c-0.5-0.4-1.2-1-1.7-1.4
				c-1.6-1.3-3.5-2-5.4-2c-2.4-0.1-4.7,0.9-6.2,2.7c-2.7,3.3-1.8,8.5,1.9,11.4c0,0,0.1,0.1,0.1,0.1c0.5,0.4,1.1,0.9,1.6,1.3
				c2.2,1.6,4.2,2.5,6.4,3.8c4.6,2.9,8.5,5.2,11.5,8.1c1.2,1.3,1.4,3.5,1.6,4.5l2.5,2.2c-13.3,20-19.5,44.8-15.8,70l-3.2,0.9
				c-0.9,1.1-2.1,2.8-3.3,3.4c-4,1.3-8.5,1.7-13.9,2.3c-2.5,0.2-4.7,0.1-7.4,0.6c-0.6,0.1-1.4,0.3-2.1,0.5c0,0,0,0-0.1,0
				c0,0-0.1,0-0.1,0c-4.6,1.1-7.5,5.3-6.6,9.4c0.9,4.1,5.4,6.7,10,5.7c0,0,0.1,0,0.1,0c0.1,0,0.1,0,0.1-0.1c0.6-0.1,1.4-0.3,2-0.4
				c2.7-0.7,4.6-1.8,7-2.7c5.1-1.8,9.4-3.4,13.5-4c1.7-0.1,3.6,1.1,4.5,1.6l3.4-0.6c7.2,22.3,21.8,40.6,40.3,53c2.3-6.6,5-13,8-19.3
				C193.2,302.9,183.2,290.3,177.7,275z M309.4,190.3l-33.1,23.5l-0.1,0c-2.9,2.1-7.1,1.6-9.4-1.3c-0.9-1.2-1.4-2.6-1.5-4l0,0
				l-2.3-40.6C280.6,170,296.9,178,309.4,190.3z M235.2,169.3c2.8-0.6,5.5-1.1,8.3-1.4l-2.3,40.7l-0.2,0.1c-0.2,3.6-3.1,6.5-6.8,6.5
				c-1.5,0-2.9-0.5-4-1.3l-0.1,0l-33.4-23.6C207,180.2,220.1,172.7,235.2,169.3z M184.6,205.4l30.5,27.2l0,0.2
				c2.7,2.4,3.2,6.5,0.9,9.4c-0.9,1.2-2.2,2-3.5,2.3l0,0.1l-39,11.3C171.3,237.8,175.6,220.2,184.6,205.4z"/>
		</g>
	</g>
</g>
</svg>
