<?xml version="1.0" encoding="utf-8"?>
<!-- Generator: Adobe Illustrator 26.2.1, SVG Export Plug-In . SVG Version: 6.00 Build 0)  -->
<svg version="1.1" id="Layer_1" xmlns="http://www.w3.org/2000/svg" xmlns:xlink="http://www.w3.org/1999/xlink" x="0px" y="0px"
	 viewBox="0 0 512 512" style="enable-background:new 0 0 512 512;" xml:space="preserve">
<style type="text/css">
	.st0{fill:#326CE5;}
	.st1{fill:#FFFFFF;}
</style>
<g>
	<g>
		<rect class="st0" width="512" height="512"/>
	</g>
</g>
<g>
	<g>
		<g>
			<path class="st1" d="M335.2,186l-77.6-23.3c-1.1-0.3-2.2-0.3-3.3,0L176.8,186c-2.5,0.7-4.1,3-4.1,5.5v85.3
				c0,11.1,4.5,22.5,13.4,33.8c6.8,8.6,16.1,17.3,27.8,25.8c19.7,14.2,39,22.9,39.8,23.3c0.8,0.3,1.6,0.5,2.4,0.5
				c0.8,0,1.6-0.2,2.4-0.5c0.8-0.4,20.2-9.1,39.8-23.3c11.7-8.5,21.1-17.1,27.8-25.8c8.9-11.3,13.4-22.7,13.4-33.8v-85.3
				C339.4,189,337.7,186.8,335.2,186z"/>
		</g>
	</g>
</g>
<g>
	<g>
		<path class="st1" d="M388.9,394.3h-18.3c-2.5,0-4.6-2-4.6-4.6c0-2.5,2-4.6,4.6-4.6h9.1V376c0-2.5,2-4.6,4.6-4.6s4.6,2,4.6,4.6
			V394.3z"/>
	</g>
	<g>
		<path class="st1" d="M345.2,394.3h-25.5c-2.5,0-4.6-2-4.6-4.6c0-2.5,2-4.6,4.6-4.6h25.5c2.5,0,4.6,2,4.6,4.6
			C349.7,392.3,347.7,394.3,345.2,394.3z M294.2,394.3h-25.5c-2.5,0-4.6-2-4.6-4.6c0-2.5,2-4.6,4.6-4.6h25.5c2.5,0,4.6,2,4.6,4.6
			C298.8,392.3,296.7,394.3,294.2,394.3z M243.3,394.3h-25.5c-2.5,0-4.6-2-4.6-4.6c0-2.5,2-4.6,4.6-4.6h25.5c2.5,0,4.6,2,4.6,4.6
			C247.8,392.3,245.8,394.3,243.3,394.3z M192.3,394.3h-25.5c-2.5,0-4.6-2-4.6-4.6c0-2.5,2-4.6,4.6-4.6h25.5c2.5,0,4.6,2,4.6,4.6
			C196.9,392.3,194.8,394.3,192.3,394.3z"/>
	</g>
	<g>
		<path class="st1" d="M141.4,394.3h-18.3V376c0-2.5,2-4.6,4.6-4.6s4.6,2,4.6,4.6v9.1h9.1c2.5,0,4.6,2,4.6,4.6
			C145.9,392.3,143.9,394.3,141.4,394.3z"/>
	</g>
	<g>
		<path class="st1" d="M127.7,355.1c-2.5,0-4.6-2-4.6-4.6v-25.5c0-2.5,2-4.6,4.6-4.6s4.6,2,4.6,4.6v25.5
			C132.2,353.1,130.2,355.1,127.7,355.1z M127.7,304.2c-2.5,0-4.6-2-4.6-4.6v-25.5c0-2.5,2-4.6,4.6-4.6s4.6,2,4.6,4.6v25.5
			C132.2,302.1,130.2,304.2,127.7,304.2z M127.7,253.2c-2.5,0-4.6-2-4.6-4.6v-25.5c0-2.5,2-4.6,4.6-4.6s4.6,2,4.6,4.6v25.5
			C132.2,251.2,130.2,253.2,127.7,253.2z M127.7,202.3c-2.5,0-4.6-2-4.6-4.6v-25.5c0-2.5,2-4.6,4.6-4.6s4.6,2,4.6,4.6v25.5
			C132.2,200.3,130.2,202.3,127.7,202.3z"/>
	</g>
	<g>
		<path class="st1" d="M127.7,151.3c-2.5,0-4.6-2-4.6-4.6v-18.3h18.3c2.5,0,4.6,2,4.6,4.6s-2,4.6-4.6,4.6h-9.1v9.1
			C132.2,149.3,130.2,151.3,127.7,151.3z"/>
	</g>
	<g>
		<path class="st1" d="M345.2,137.6h-25.5c-2.5,0-4.6-2-4.6-4.6s2-4.6,4.6-4.6h25.5c2.5,0,4.6,2,4.6,4.6S347.7,137.6,345.2,137.6z
			 M294.2,137.6h-25.5c-2.5,0-4.6-2-4.6-4.6s2-4.6,4.6-4.6h25.5c2.5,0,4.6,2,4.6,4.6S296.7,137.6,294.2,137.6z M243.3,137.6h-25.5
			c-2.5,0-4.6-2-4.6-4.6s2-4.6,4.6-4.6h25.5c2.5,0,4.6,2,4.6,4.6S245.8,137.6,243.3,137.6z M192.3,137.6h-25.5c-2.5,0-4.6-2-4.6-4.6
			s2-4.6,4.6-4.6h25.5c2.5,0,4.6,2,4.6,4.6S194.8,137.6,192.3,137.6z"/>
	</g>
	<g>
		<path class="st1" d="M384.3,151.3c-2.5,0-4.6-2-4.6-4.6v-9.1h-9.1c-2.5,0-4.6-2-4.6-4.6s2-4.6,4.6-4.6h18.3v18.3
			C388.9,149.3,386.9,151.3,384.3,151.3z"/>
	</g>
	<g>
		<path class="st1" d="M384.3,355.1c-2.5,0-4.6-2-4.6-4.6v-25.5c0-2.5,2-4.6,4.6-4.6s4.6,2,4.6,4.6v25.5
			C388.9,353.1,386.9,355.1,384.3,355.1z M384.3,304.2c-2.5,0-4.6-2-4.6-4.6v-25.5c0-2.5,2-4.6,4.6-4.6s4.6,2,4.6,4.6v25.5
			C388.9,302.1,386.9,304.2,384.3,304.2z M384.3,253.2c-2.5,0-4.6-2-4.6-4.6v-25.5c0-2.5,2-4.6,4.6-4.6s4.6,2,4.6,4.6v25.5
			C388.9,251.2,386.9,253.2,384.3,253.2z M384.3,202.3c-2.5,0-4.6-2-4.6-4.6v-25.5c0-2.5,2-4.6,4.6-4.6s4.6,2,4.6,4.6v25.5
			C388.9,200.3,386.9,202.3,384.3,202.3z"/>
	</g>
</g>
<g>
	<g>
		<g>
			<path class="st1" d="M250.6,309.2c-21.2,0-38.5-17.3-38.5-38.5v-28.6c0-6.9,5.5-12.5,12.3-12.7v-5.6c0-17.5,14.2-31.7,31.7-31.7
				s31.7,14.2,31.7,31.7v5.6c6.8,0.3,12.3,5.9,12.3,12.7v28.6c0,21.2-17.3,38.5-38.5,38.5H250.6z M269.6,229.3v-5.6
				c0-7.5-6.1-13.7-13.6-13.7c-7.5,0-13.6,6.1-13.6,13.7v5.6H269.6z"/>
		</g>
		<g>
			<path class="st0" d="M256,196.6c14.9,0,27.1,12.2,27.1,27.1v10.2h4.1c4.5,0,8.2,3.7,8.2,8.2v28.6c0,18.8-15.2,34-34,34h-10.8
				c-18.8,0-34-15.2-34-34v-28.6c0-4.5,3.7-8.2,8.2-8.2h4.1v-10.2C228.9,208.7,241.1,196.6,256,196.6 M237.8,233.9h36.4v-10.2
				c0-10-8.2-18.2-18.2-18.2c-10,0-18.2,8.2-18.2,18.2V233.9 M256,187.5c-20,0-36.2,16.3-36.2,36.2v1.8c-7.1,2.2-12.3,8.8-12.3,16.6
				v28.6c0,23.8,19.3,43.1,43.1,43.1h10.8c23.8,0,43.1-19.3,43.1-43.1v-28.6c0-7.8-5.2-14.4-12.3-16.6v-1.8
				C292.2,203.7,276,187.5,256,187.5L256,187.5z M246.9,224.7v-1.1c0-5,4.1-9.1,9.1-9.1c5,0,9.1,4.1,9.1,9.1v1.1H246.9L246.9,224.7z
				"/>
		</g>
	</g>
	<g>
		<path class="st0" d="M263.8,263c0-4.3-3.5-7.8-7.8-7.8c-4.3,0-7.8,3.5-7.8,7.8c0,2.6,1.4,4.9,3.4,6.3v8.4c0,2.5,2,4.4,4.4,4.4
			s4.4-2,4.4-4.4v-8.4C262.4,267.8,263.8,265.6,263.8,263z"/>
	</g>
</g>
</svg>
