<?xml version="1.0" encoding="utf-8"?>
<!-- Generator: Adobe Illustrator 26.2.1, SVG Export Plug-In . SVG Version: 6.00 Build 0)  -->
<svg version="1.1" id="Layer_1" xmlns="http://www.w3.org/2000/svg" xmlns:xlink="http://www.w3.org/1999/xlink" x="0px" y="0px"
	 viewBox="0 0 512 512" style="enable-background:new 0 0 512 512;" xml:space="preserve">
<style type="text/css">
	.st0{fill:#326CE5;}
	.st1{fill:#FFFFFF;}
</style>
<g>
	<g>
		<rect class="st0" width="512" height="512"/>
	</g>
</g>
<g>
	<g>
		<path class="st1" d="M100,239.5v71.3c0,2.8,1.1,4.4,3.3,5.8l123.2,71c2.3,1.4,5.2,1.4,7.5,0l16.9-9.7L357,316.6
			c2.2-1.2,3.4-3.6,3.3-6.1V168.2c0.1-2.5-1.2-4.8-3.3-6.1L233.5,90.9c-2.2-1.4-4.7-1.1-6.9,0.3l-122.9,71c-2.3,1.1-3.7,3.5-3.6,6.1
			V239.5L100,239.5z"/>
	</g>
	<g>
		<path class="st0" d="M186.9,212.8c0.3,0.4,0.6,0.7,0.6,0.9l70,83.7c2.5,2.8,4.4,5.8,7.2,8.3c5,4.6,11.5,7.3,18.2,7.7
			c4.7,0.3,9.1-0.3,13.3-2.5c5.5-3,8.6-7.8,8.6-14.4V179c-1.1-8-8.3-15.8-19.1-14.4c-8.6,0.8-14.7,7.7-14.7,16.6v84
			c-0.5-0.4-0.8-1.1-1.1-1.4l-73.5-88.1c-3.8-4.4-8.2-8-14-9.7c-6.1-1.9-12.2-2.5-18.2,0c-6.1,2.5-10.8,8-10.8,15.7v115.4
			c0,3,0.6,5.8,2.2,8.3c3.2,5.2,7.9,7.7,14,8c9.9,0.3,17.4-8,17.4-17.4V213L186.9,212.8z"/>
	</g>
</g>
<g>
	<g>
		<path class="st1" d="M315.8,338.6v-37.3c0-6.7,5.4-12.1,12.1-12.1h47.3c6.7,0,12.1,5.4,12.1,12.1v37.3c0,6.7-5.4,12.1-12.1,12.1
			h-47.3C321.2,350.7,315.8,345.3,315.8,338.6z"/>
		<path class="st0" d="M375.2,355.3h-47.3c-9.2,0-16.7-7.5-16.7-16.7v-37.3c0-9.2,7.5-16.7,16.7-16.7h47.3c9.2,0,16.7,7.5,16.7,16.7
			v37.3C391.9,347.8,384.4,355.3,375.2,355.3z M327.9,293.8c-4.2,0-7.5,3.4-7.5,7.5v37.3c0,4.2,3.4,7.5,7.5,7.5h47.3
			c4.2,0,7.5-3.4,7.5-7.5v-37.3c0-4.2-3.4-7.5-7.5-7.5H327.9z"/>
	</g>
	<g>
		<path class="st1" d="M235.7,457.1v-37.3c0-6.7,5.4-12.1,12.1-12.1h47.3c6.7,0,12.1,5.4,12.1,12.1v37.3c0,6.7-5.4,12.1-12.1,12.1
			h-47.3C241.1,469.2,235.7,463.8,235.7,457.1z"/>
		<path class="st0" d="M295.1,473.8h-47.3c-9.2,0-16.7-7.5-16.7-16.7v-37.3c0-9.2,7.5-16.7,16.7-16.7h47.3c9.2,0,16.7,7.5,16.7,16.7
			v37.3C311.8,466.3,304.3,473.8,295.1,473.8z M247.8,412.3c-4.2,0-7.5,3.4-7.5,7.5v37.3c0,4.2,3.4,7.5,7.5,7.5h47.3
			c4.2,0,7.5-3.4,7.5-7.5v-37.3c0-4.2-3.4-7.5-7.5-7.5H247.8z"/>
	</g>
	<g>
		<path class="st1" d="M313.6,457.1v-37.3c0-6.7,5.4-12.1,12.1-12.1H373c6.7,0,12.1,5.4,12.1,12.1v37.3c0,6.7-5.4,12.1-12.1,12.1
			h-47.3C319,469.2,313.6,463.8,313.6,457.1z"/>
		<path class="st0" d="M373,473.8h-47.3c-9.2,0-16.7-7.5-16.7-16.7v-37.3c0-9.2,7.5-16.7,16.7-16.7H373c9.2,0,16.7,7.5,16.7,16.7
			v37.3C389.7,466.3,382.2,473.8,373,473.8z M325.7,412.3c-4.2,0-7.5,3.4-7.5,7.5v37.3c0,4.2,3.4,7.5,7.5,7.5H373
			c4.2,0,7.5-3.4,7.5-7.5v-37.3c0-4.2-3.4-7.5-7.5-7.5H325.7z"/>
	</g>
	<g>
		<path class="st1" d="M395.9,457.1v-37.3c0-6.7,5.4-12.1,12.1-12.1h47.3c6.7,0,12.1,5.4,12.1,12.1v37.3c0,6.7-5.4,12.1-12.1,12.1
			H408C401.3,469.2,395.9,463.8,395.9,457.1z"/>
		<path class="st0" d="M455.3,473.8H408c-9.2,0-16.7-7.5-16.7-16.7v-37.3c0-9.2,7.5-16.7,16.7-16.7h47.3c9.2,0,16.7,7.5,16.7,16.7
			v37.3C471.9,466.3,464.5,473.8,455.3,473.8z M408,412.3c-4.2,0-7.5,3.4-7.5,7.5v37.3c0,4.2,3.4,7.5,7.5,7.5h47.3
			c4.2,0,7.5-3.4,7.5-7.5v-37.3c0-4.2-3.4-7.5-7.5-7.5H408z"/>
	</g>
	<g>
		<line class="st0" x1="349.5" y1="400.8" x2="349.5" y2="357.7"/>
		<path class="st1" d="M349.5,405.3c-2.5,0-4.6-2-4.6-4.6v-43.1c0-2.5,2-4.6,4.6-4.6s4.6,2,4.6,4.6v43.1
			C354.1,403.3,352,405.3,349.5,405.3z"/>
	</g>
	<g>
		<path class="st1" d="M433.8,405.3c-2.5,0-4.6-2-4.6-4.6v-14.6H275.3v14.6c0,2.5-2,4.6-4.6,4.6c-2.5,0-4.6-2-4.6-4.6v-19.1
			c0-2.5,2-4.6,4.6-4.6h163c2.5,0,4.6,2,4.6,4.6v19.1C438.4,403.3,436.3,405.3,433.8,405.3z"/>
	</g>
</g>
</svg>
