<svg xmlns="http://www.w3.org/2000/svg" xmlns:xlink="http://www.w3.org/1999/xlink" width="500" zoomAndPan="magnify" viewBox="0 0 375 374.999991" height="500" preserveAspectRatio="xMidYMid meet" version="1.0"><defs><clipPath id="6189649913"><path d="M 160 234 L 215 234 L 215 342.660156 L 160 342.660156 Z M 160 234 " clip-rule="nonzero"/></clipPath><clipPath id="5c56a14e4a"><path d="M 243 168 L 332.867188 168 L 332.867188 222 L 243 222 Z M 243 168 " clip-rule="nonzero"/></clipPath><clipPath id="266c0fb873"><path d="M 213 32.160156 L 290 32.160156 L 290 131 L 213 131 Z M 213 32.160156 " clip-rule="nonzero"/></clipPath><clipPath id="7a12042d32"><path d="M 118.34375 115.921875 L 256.679688 115.921875 L 256.679688 247.082031 L 118.34375 247.082031 Z M 118.34375 115.921875 " clip-rule="nonzero"/></clipPath><clipPath id="dc997e431f"><path d="M 135.59375 115.921875 L 239.40625 115.921875 C 248.933594 115.921875 256.65625 123.644531 256.65625 133.171875 L 256.65625 229.832031 C 256.65625 239.359375 248.933594 247.082031 239.40625 247.082031 L 135.59375 247.082031 C 126.066406 247.082031 118.34375 239.359375 118.34375 229.832031 L 118.34375 133.171875 C 118.34375 123.644531 126.066406 115.921875 135.59375 115.921875 Z M 135.59375 115.921875 " clip-rule="nonzero"/></clipPath><clipPath id="59152a1f5f"><path d="M 141.121094 135.121094 L 234 135.121094 L 234 228 L 141.121094 228 Z M 141.121094 135.121094 " clip-rule="nonzero"/></clipPath></defs><rect x="-37.5" width="450" fill="#ffffff" y="-37.499999" height="449.999989" fill-opacity="1"/><rect x="-37.5" width="450" fill="#ffffff" y="-37.499999" height="449.999989" fill-opacity="1"/><rect x="-37.5" width="450" fill="#326ce5" y="-37.499999" height="449.999989" fill-opacity="1"/><path fill="#ffffff" d="M 216.40625 138.226562 C 213.785156 136.285156 210.96875 134.585938 208.007812 133.226562 C 201.792969 130.3125 194.851562 128.664062 187.519531 128.664062 C 174.902344 128.664062 163.445312 133.46875 154.851562 141.429688 C 152.375 143.664062 150.144531 146.1875 148.25 148.855469 C 142.570312 156.769531 139.222656 166.476562 139.222656 176.914062 C 139.222656 184.101562 140.824219 190.945312 143.636719 197.058594 C 144.996094 200.023438 146.695312 202.835938 148.589844 205.457031 C 156.453125 216.234375 168.6875 223.566406 182.667969 224.972656 C 184.269531 225.117188 185.871094 225.214844 187.519531 225.214844 C 189.171875 225.214844 190.773438 225.117188 192.375 224.972656 C 211.550781 223.03125 227.425781 209.875 233.296875 192.15625 C 234.316406 189.097656 235.046875 185.945312 235.433594 182.644531 C 235.675781 180.75 235.773438 178.855469 235.773438 176.914062 C 235.773438 161.136719 228.152344 147.0625 216.40625 138.226562 Z M 216.40625 138.226562 " fill-opacity="1" fill-rule="nonzero"/><g clip-path="url(#6189649913)"><path fill="#ffffff" d="M 192.375 290.167969 L 192.375 234.679688 C 190.726562 234.875 189.125 234.925781 187.519531 234.925781 C 185.871094 234.925781 184.269531 234.875 182.667969 234.679688 L 182.667969 290.167969 C 170.289062 292.449219 160.921875 303.273438 160.921875 316.28125 C 160.921875 330.894531 172.863281 342.835938 187.519531 342.835938 C 202.132812 342.835938 214.074219 330.894531 214.074219 316.28125 C 214.074219 303.273438 204.707031 292.449219 192.375 290.167969 Z M 192.375 290.167969 " fill-opacity="1" fill-rule="nonzero"/></g><g clip-path="url(#5c56a14e4a)"><path fill="#ffffff" d="M 305.964844 168.46875 C 293.25 168.46875 282.519531 177.449219 279.949219 189.4375 L 244.996094 184.101562 C 244.65625 187.253906 243.976562 190.507812 243.007812 193.664062 L 279.753906 199.246094 C 281.742188 211.914062 292.761719 221.574219 305.964844 221.574219 C 320.625 221.574219 332.519531 209.679688 332.519531 195.023438 C 332.519531 180.363281 320.625 168.46875 305.964844 168.46875 Z M 305.964844 168.46875 " fill-opacity="1" fill-rule="nonzero"/></g><path fill="#ffffff" d="M 101.699219 104.101562 C 106.066406 104.101562 110.242188 103.03125 113.882812 101.140625 L 142.328125 140.605469 C 144.125 138.324219 146.164062 136.1875 148.347656 134.246094 C 148.640625 134.003906 148.882812 133.761719 149.171875 133.515625 L 121.503906 95.167969 C 125.726562 90.507812 128.25 84.296875 128.25 77.5 C 128.25 62.886719 116.359375 50.945312 101.699219 50.945312 C 87.039062 50.945312 75.144531 62.886719 75.144531 77.5 C 75.144531 92.160156 87.039062 104.101562 101.699219 104.101562 Z M 101.699219 104.101562 " fill-opacity="1" fill-rule="nonzero"/><g clip-path="url(#266c0fb873)"><path fill="#ffffff" d="M 221.890625 130.214844 L 253.6875 83.617188 C 256.5 84.683594 259.558594 85.265625 262.714844 85.265625 C 277.375 85.265625 289.316406 73.371094 289.316406 58.710938 C 289.316406 44.050781 277.375 32.160156 262.714844 32.160156 C 248.101562 32.160156 236.160156 44.050781 236.160156 58.710938 C 236.160156 66.675781 239.707031 73.808594 245.289062 78.664062 L 213.539062 125.121094 C 216.355469 126.527344 219.21875 128.226562 221.890625 130.214844 Z M 221.890625 130.214844 " fill-opacity="1" fill-rule="nonzero"/></g><path fill="#ffffff" d="M 134.804688 201.136719 L 90.386719 221.625 C 85.628906 215.023438 77.8125 210.75 69.027344 210.75 C 54.417969 210.75 42.476562 222.691406 42.476562 237.300781 C 42.476562 251.960938 54.417969 263.855469 69.027344 263.855469 C 83.6875 263.855469 95.628906 251.960938 95.628906 237.300781 C 95.628906 234.875 95.289062 232.59375 94.660156 230.359375 L 139.609375 209.585938 C 137.714844 206.769531 136.113281 203.953125 134.804688 201.136719 Z M 134.804688 201.136719 " fill-opacity="1" fill-rule="nonzero"/><g clip-path="url(#7a12042d32)"><g clip-path="url(#dc997e431f)"><path fill="#fbfcfe" d="M 118.34375 115.921875 L 256.679688 115.921875 L 256.679688 247.082031 L 118.34375 247.082031 Z M 118.34375 115.921875 " fill-opacity="1" fill-rule="nonzero"/></g></g><g clip-path="url(#59152a1f5f)"><path fill="#326ce5" d="M 228.417969 216.632812 C 228.417969 219.828125 225.828125 222.417969 222.628906 222.417969 L 152.363281 222.417969 C 149.167969 222.417969 146.574219 219.828125 146.574219 216.632812 L 146.574219 146.363281 C 146.574219 143.167969 149.167969 140.578125 152.363281 140.578125 L 222.628906 140.578125 C 225.828125 140.578125 228.417969 143.167969 228.417969 146.363281 Z M 222.628906 135.121094 L 152.363281 135.121094 C 146.164062 135.121094 141.121094 140.164062 141.121094 146.363281 L 141.121094 216.632812 C 141.121094 222.832031 146.164062 227.875 152.363281 227.875 L 222.628906 227.875 C 228.828125 227.875 233.875 222.832031 233.875 216.632812 L 233.875 146.363281 C 233.875 140.164062 228.828125 135.121094 222.628906 135.121094 " fill-opacity="1" fill-rule="nonzero"/></g><path fill="#326ce5" d="M 215.003906 169.359375 L 209.984375 169.359375 L 209.984375 156.261719 L 215.003906 156.261719 Z M 206.691406 169.359375 L 201.671875 169.359375 L 201.671875 156.261719 L 206.691406 156.261719 Z M 198.382812 169.359375 L 193.363281 169.359375 L 193.363281 156.261719 L 198.382812 156.261719 Z M 190.074219 169.359375 L 185.054688 169.359375 L 185.054688 156.261719 L 190.074219 156.261719 Z M 181.765625 169.359375 L 176.746094 169.359375 L 176.746094 156.261719 L 181.765625 156.261719 Z M 173.457031 169.359375 L 168.433594 169.359375 L 168.433594 156.261719 L 173.457031 156.261719 Z M 165.144531 169.359375 L 160.125 169.359375 L 160.125 156.261719 L 165.144531 156.261719 Z M 217.824219 152.171875 L 157.304688 152.171875 C 155.597656 152.171875 154.214844 153.554688 154.214844 155.265625 L 154.214844 192.863281 C 154.214844 194.574219 155.597656 195.957031 157.304688 195.957031 L 165.808594 195.957031 L 165.808594 201.867188 C 165.808594 203.574219 167.191406 204.960938 168.898438 204.960938 L 176.71875 204.960938 L 176.71875 207.734375 C 176.71875 209.441406 178.105469 210.824219 179.8125 210.824219 L 195.179688 210.824219 C 196.886719 210.824219 198.273438 209.441406 198.273438 207.734375 L 198.273438 204.960938 L 206.09375 204.960938 C 207.800781 204.960938 209.183594 203.574219 209.183594 201.867188 L 209.183594 195.957031 L 217.824219 195.957031 C 219.53125 195.957031 220.914062 194.574219 220.914062 192.863281 L 220.914062 155.265625 C 220.914062 153.554688 219.53125 152.171875 217.824219 152.171875 " fill-opacity="1" fill-rule="nonzero"/></svg>