<svg xmlns="http://www.w3.org/2000/svg" xmlns:xlink="http://www.w3.org/1999/xlink" width="500" zoomAndPan="magnify" viewBox="0 0 375 374.999991" height="500" preserveAspectRatio="xMidYMid meet" version="1.0"><defs><clipPath id="976f54d30c"><path d="M 101 278 L 263 278 L 263 317.917969 L 101 317.917969 Z M 101 278 " clip-rule="nonzero"/></clipPath></defs><rect x="-37.5" width="450" fill="#ffffff" y="-37.499999" height="449.999989" fill-opacity="1"/><rect x="-37.5" width="450" fill="#ffffff" y="-37.499999" height="449.999989" fill-opacity="1"/><rect x="-37.5" width="450" fill="#326ce5" y="-37.499999" height="449.999989" fill-opacity="1"/><path fill="#ffffff" d="M 187.488281 156.867188 C 168.511719 156.867188 152.929688 172.25 152.929688 191.425781 C 152.929688 210.402344 168.511719 225.984375 187.488281 225.984375 C 206.464844 225.984375 222.046875 210.605469 222.046875 191.425781 C 222.046875 172.449219 206.464844 156.867188 187.488281 156.867188 Z M 187.488281 217.996094 C 172.90625 217.996094 160.917969 206.007812 160.917969 191.425781 C 160.917969 176.84375 172.90625 164.859375 187.488281 164.859375 C 202.070312 164.859375 214.054688 176.84375 214.054688 191.425781 C 214.054688 206.007812 202.070312 217.996094 187.488281 217.996094 Z M 187.488281 217.996094 " fill-opacity="1" fill-rule="nonzero"/><path fill="#ffffff" d="M 277.578125 220.390625 C 276.582031 215.996094 273.984375 212.402344 270.386719 210.402344 L 261.398438 205.210938 C 262.199219 200.617188 262.597656 196.019531 262.597656 191.625 C 262.597656 185.035156 261.996094 179.242188 260.398438 173.449219 L 269.390625 168.054688 C 277.378906 163.460938 279.976562 154.871094 275.78125 147.480469 L 268.390625 134.695312 C 265.394531 129.699219 259.800781 126.304688 254.007812 126.304688 C 251.410156 126.304688 248.8125 126.902344 246.417969 128.300781 L 236.230469 134.296875 C 228.4375 127.503906 219.449219 122.507812 209.460938 119.511719 L 209.460938 108.125 C 209.460938 98.9375 203.269531 92.347656 194.878906 92.347656 L 180.097656 92.347656 C 171.105469 92.144531 163.515625 99.535156 163.515625 108.125 L 163.515625 120.113281 C 153.925781 123.308594 144.9375 128.503906 137.148438 135.695312 L 127.558594 130.101562 C 124.761719 128.503906 121.765625 127.703125 118.769531 127.703125 C 113.578125 127.703125 109.179688 130.300781 106.585938 134.894531 L 99.195312 147.679688 C 97.195312 151.273438 96.398438 155.667969 97.394531 159.863281 C 98.394531 164.257812 100.992188 167.855469 104.785156 170.050781 L 114.175781 175.246094 C 112.976562 180.640625 112.378906 186.03125 112.378906 191.625 C 112.378906 196.820312 112.976562 202.214844 113.976562 207.207031 L 105.585938 212 C 97.59375 216.597656 95 225.1875 99.195312 232.578125 L 106.585938 245.363281 C 109.582031 250.355469 115.175781 253.75 120.96875 253.75 C 123.5625 253.75 126.160156 253.152344 128.558594 251.753906 L 136.75 246.960938 C 144.9375 254.550781 154.925781 260.144531 165.515625 263.339844 L 165.515625 271.929688 C 165.515625 281.117188 171.707031 287.710938 180.097656 287.710938 L 194.878906 287.710938 C 203.867188 287.710938 211.457031 280.519531 211.457031 271.730469 L 211.257812 262.542969 C 221.847656 258.945312 231.632812 253.152344 239.625 245.363281 L 247.414062 249.957031 C 250.210938 251.554688 253.207031 252.351562 256.203125 252.351562 C 261.398438 252.351562 265.792969 249.757812 268.390625 245.160156 L 275.78125 232.378906 C 277.980469 228.980469 278.578125 224.386719 277.578125 220.390625 Z M 268.988281 228.582031 L 261.597656 241.367188 C 260.199219 243.964844 257.804688 244.5625 256.203125 244.5625 C 254.605469 244.5625 253.007812 244.164062 251.410156 243.164062 L 238.226562 235.574219 L 236.027344 237.769531 C 227.839844 246.359375 217.453125 252.753906 206.066406 255.949219 L 203.070312 256.75 L 203.46875 271.929688 C 203.46875 276.125 199.472656 279.71875 194.878906 279.71875 L 180.097656 279.71875 C 175.300781 279.71875 173.503906 275.527344 173.503906 271.929688 L 173.503906 257.347656 L 170.507812 256.546875 C 159.121094 253.550781 148.535156 247.558594 140.144531 239.167969 L 137.945312 236.972656 L 124.5625 244.761719 C 123.5625 245.363281 122.367188 245.761719 120.96875 245.761719 C 117.972656 245.761719 114.972656 243.964844 113.375 241.367188 L 105.984375 228.582031 C 103.589844 224.386719 106.386719 220.792969 109.582031 218.992188 L 123.164062 211.203125 L 122.367188 208.207031 C 120.96875 202.8125 120.367188 197.21875 120.367188 191.625 C 120.367188 185.832031 121.167969 180.039062 122.566406 174.246094 L 123.363281 171.25 L 108.582031 163.0625 C 106.785156 162.0625 105.585938 160.265625 105.1875 158.066406 C 104.585938 155.871094 104.988281 153.472656 106.183594 151.675781 L 113.578125 138.890625 C 114.972656 136.292969 117.371094 135.695312 118.96875 135.695312 C 120.566406 135.695312 122.164062 136.09375 123.765625 137.09375 L 138.546875 145.679688 L 140.742188 143.484375 C 149.132812 135.292969 158.324219 129.902344 168.910156 126.902344 L 171.507812 126.105469 L 171.507812 108.125 C 171.507812 103.933594 175.5 100.335938 180.097656 100.335938 L 194.878906 100.335938 C 199.671875 100.335938 201.46875 104.53125 201.46875 108.328125 L 201.671875 125.90625 L 204.667969 126.703125 C 215.453125 129.5 225.242188 134.894531 233.230469 142.285156 L 235.429688 144.285156 L 250.613281 135.292969 C 251.609375 134.695312 252.808594 134.296875 254.207031 134.296875 C 257.203125 134.296875 260.199219 136.09375 261.796875 138.691406 L 269.1875 151.476562 C 271.585938 155.667969 268.789062 159.265625 265.59375 161.0625 L 251.210938 169.453125 L 252.210938 172.449219 C 254.007812 178.441406 254.804688 184.433594 254.804688 191.425781 C 254.804688 196.421875 254.207031 201.414062 253.207031 206.207031 L 252.609375 209.003906 L 266.59375 216.996094 C 268.390625 217.996094 269.589844 219.792969 269.988281 221.988281 C 270.386719 224.386719 269.988281 226.585938 268.988281 228.582031 Z M 268.988281 228.582031 " fill-opacity="1" fill-rule="nonzero"/><path fill="#ffffff" d="M 116.972656 92.347656 C 117.769531 92.347656 118.570312 92.144531 119.371094 91.546875 C 155.726562 65.578125 205.867188 62.980469 245.21875 84.355469 L 232.433594 89.75 L 273.785156 100.933594 L 252.011719 63.980469 L 250.210938 78.164062 C 207.863281 54.589844 153.925781 57.1875 114.574219 85.15625 C 112.777344 86.351562 112.378906 88.949219 113.578125 90.746094 C 114.375 91.746094 115.773438 92.347656 116.972656 92.347656 Z M 116.972656 92.347656 " fill-opacity="1" fill-rule="nonzero"/><path fill="#ffffff" d="M 82.015625 132.296875 L 87.40625 145.082031 L 98.59375 103.730469 L 61.4375 125.503906 L 75.621094 127.304688 C 52.050781 169.652344 54.648438 223.589844 82.613281 262.941406 C 83.414062 263.941406 84.609375 264.539062 85.808594 264.539062 C 86.609375 264.539062 87.40625 264.339844 88.207031 263.738281 C 90.003906 262.542969 90.402344 259.945312 89.207031 258.144531 C 63.238281 221.789062 60.441406 171.851562 82.015625 132.296875 Z M 82.015625 132.296875 " fill-opacity="1" fill-rule="nonzero"/><g clip-path="url(#976f54d30c)"><path fill="#ffffff" d="M 255.804688 288.308594 C 219.449219 314.277344 169.308594 316.875 129.757812 295.5 L 142.542969 290.109375 L 101.191406 278.921875 L 122.964844 315.878906 L 124.761719 301.695312 C 143.941406 312.480469 165.515625 317.675781 187.085938 317.675781 C 213.054688 317.675781 238.824219 309.882812 260.398438 294.703125 C 262.199219 293.503906 262.597656 290.90625 261.398438 289.109375 C 260 287.511719 257.601562 287.113281 255.804688 288.308594 Z M 255.804688 288.308594 " fill-opacity="1" fill-rule="nonzero"/></g><path fill="#ffffff" d="M 292.359375 117.117188 C 291.164062 115.316406 288.566406 114.917969 286.769531 116.117188 C 284.96875 117.316406 284.570312 119.914062 285.769531 121.710938 C 311.738281 158.066406 314.335938 208.207031 292.960938 247.558594 L 287.566406 234.773438 L 276.378906 276.125 L 313.335938 254.351562 L 299.152344 252.554688 C 322.925781 210.402344 320.328125 156.46875 292.359375 117.117188 Z M 292.359375 117.117188 " fill-opacity="1" fill-rule="nonzero"/></svg>