<?xml version="1.0" encoding="utf-8"?>
<!-- Generator: Adobe Illustrator 26.2.1, SVG Export Plug-In . SVG Version: 6.00 Build 0)  -->
<svg version="1.1" id="Layer_1" xmlns="http://www.w3.org/2000/svg" xmlns:xlink="http://www.w3.org/1999/xlink" x="0px" y="0px"
	 viewBox="0 0 512 512" style="enable-background:new 0 0 512 512;" xml:space="preserve">
<style type="text/css">
	.st0{fill:#326CE5;}
	.st1{fill:#FFFFFF;}
</style>
<g>
	<g>
		<g>
			<rect class="st0" width="512" height="512"/>
		</g>
	</g>
	<g>
		<path class="st1" d="M256,277.8c-62.8,0-129.5-16.3-129.5-46.6c0-30.3,66.7-46.6,129.5-46.6s129.5,16.3,129.5,46.6
			C385.5,261.5,318.8,277.8,256,277.8z M256,194.2c-70.7,0-120,19.5-120,37s49.3,37,120,37c70.7,0,120-19.5,120-37
			S326.7,194.2,256,194.2z"/>
	</g>
	<g>
		<path class="st1" d="M380.7,231.3c0,23.1-55.8,41.8-124.7,41.8s-124.7-18.7-124.7-41.8v61.1c0,23.1,55.8,41.8,124.7,41.8
			s124.7-18.7,124.7-41.8V231.3z"/>
		<path class="st1" d="M256,338.9c-62.8,0-129.5-16.3-129.5-46.6v-61.1h9.5c0,17.5,49.3,37,120,37c70.7,0,120-19.5,120-37h9.5v61.1
			C385.5,322.6,318.8,338.9,256,338.9z M136,249.7v42.6c0,17.5,49.3,37,120,37c70.7,0,120-19.5,120-37v-42.6
			c-20.6,18.4-71.5,28.1-120,28.1C207.5,277.8,156.7,268.1,136,249.7z"/>
	</g>
</g>
</svg>
