<?xml version="1.0" encoding="utf-8"?>
<!-- Generator: Adobe Illustrator 26.2.1, SVG Export Plug-In . SVG Version: 6.00 Build 0)  -->
<svg version="1.1" id="Layer_1" xmlns="http://www.w3.org/2000/svg" xmlns:xlink="http://www.w3.org/1999/xlink" x="0px" y="0px"
	 viewBox="0 0 512 512" style="enable-background:new 0 0 512 512;" xml:space="preserve">
<style type="text/css">
	.st0{fill:#326CE5;}
	.st1{fill:#FFFFFF;}
</style>
<g>
	<g>
		<g>
			<rect class="st0" width="512" height="512"/>
		</g>
	</g>
</g>
<g>
	<g>
		<path class="st1" d="M256,189.4c-68.9,0-124.7,18.7-124.7,41.8v61.1c0,23.1,55.8,41.8,124.7,41.8s124.7-18.7,124.7-41.8v-61.1
			C380.7,208.2,324.9,189.4,256,189.4z"/>
	</g>
	<g>
		<path class="st1" d="M256,348.5c-67,0-139.1-17.6-139.1-56.1v-61.1c0-38.6,72.1-56.1,139.1-56.1s139.1,17.6,139.1,56.1v61.1
			C395.1,330.9,323,348.5,256,348.5z M256,203.7c-75.2,0-110.1,21.1-110.4,27.5v61.1c0.3,6.4,35.3,27.5,110.4,27.5
			c75.2,0,110.2-21.1,110.4-27.5v-61.1C366.2,224.8,331.2,203.7,256,203.7z"/>
	</g>
</g>
<g>
	<g>
		<path class="st0" d="M265.7,278c-2.6,0-4.7-2.1-4.8-4.7c-0.1-2.6,2-4.8,4.7-4.9c6.2-0.1,12.3-0.5,18.3-0.9
			c2.5-0.2,4.9,1.8,5.1,4.4c0.2,2.6-1.8,4.9-4.4,5.1c-6.1,0.5-12.4,0.8-18.8,0.9C265.7,278,265.7,278,265.7,278z M247.1,277.9
			c0,0-0.1,0-0.1,0c-6.5-0.2-12.8-0.5-18.7-1c-2.6-0.2-4.6-2.5-4.4-5.1c0.2-2.6,2.6-4.6,5.1-4.4c5.8,0.4,11.9,0.8,18.3,1
			c2.6,0.1,4.7,2.3,4.6,4.9C251.8,275.9,249.7,277.9,247.1,277.9z M302.6,275.1c-2.3,0-4.4-1.7-4.7-4.1c-0.4-2.6,1.5-5,4.1-5.4
			c6.3-0.8,12.3-1.8,18-3c2.6-0.5,5.1,1.1,5.6,3.7c0.5,2.6-1.1,5.1-3.7,5.6c-5.9,1.2-12.2,2.3-18.6,3.1
			C303,275.1,302.8,275.1,302.6,275.1z M210.2,275.1c-0.2,0-0.4,0-0.6,0c-6.6-0.8-12.8-1.8-18.6-2.9c-2.6-0.5-4.3-3-3.8-5.6
			c0.5-2.6,3-4.3,5.6-3.8c5.6,1.1,11.6,2,18,2.8c2.6,0.3,4.5,2.7,4.1,5.3C214.6,273.4,212.6,275.1,210.2,275.1z M173.9,268
			c-0.4,0-0.9-0.1-1.3-0.2c-6.7-1.9-12.8-4.1-18-6.5c-2.4-1.1-3.5-3.9-2.4-6.3c1.1-2.4,4-3.4,6.3-2.4c4.9,2.2,10.5,4.3,16.8,6.1
			c2.5,0.7,4,3.4,3.3,5.9C177.9,266.6,175.9,268,173.9,268z M338.9,267.6c-2.1,0-4-1.3-4.6-3.4c-0.7-2.5,0.7-5.2,3.2-5.9
			c6.2-1.8,11.9-3.9,16.8-6.1c2.4-1.1,5.2,0,6.3,2.4c1.1,2.4,0,5.2-2.4,6.3c-5.3,2.4-11.4,4.6-18,6.6
			C339.8,267.6,339.3,267.6,338.9,267.6z M140.7,252c-1.1,0-2.2-0.4-3.1-1.2c-6.7-5.8-10.2-12.5-10.2-19.3c0-2.6,2.1-4.8,4.8-4.8
			s4.8,2.1,4.8,4.8c0,4,2.3,8.1,6.9,12.1c2,1.7,2.2,4.8,0.4,6.7C143.4,251.4,142.1,252,140.7,252z M372.2,251.8
			c-1.4,0-2.7-0.6-3.7-1.7c-1.7-2-1.4-5,0.6-6.7c4.8-4,7.2-8,7.2-11.9c0-2.6,2.1-4.8,4.8-4.8s4.8,2.1,4.8,4.8
			c0,6.8-3.6,13.3-10.6,19.2C374.3,251.5,373.2,251.8,372.2,251.8z M372.2,220.8c-1.1,0-2.2-0.4-3.1-1.1c-3.7-3.1-8.6-6-14.7-8.8
			c-2.4-1.1-3.5-3.9-2.4-6.3c1.1-2.4,3.9-3.5,6.3-2.4c6.9,3.1,12.6,6.5,17,10.2c2,1.7,2.3,4.7,0.6,6.7
			C374.9,220.3,373.6,220.8,372.2,220.8z M140.8,220.6c-1.3,0-2.7-0.6-3.6-1.6c-1.7-2-1.5-5,0.5-6.7c4.3-3.8,10-7.3,16.9-10.4
			c2.4-1.1,5.2,0,6.3,2.4c1.1,2.4,0,5.2-2.4,6.3c-6,2.7-10.9,5.7-14.6,8.9C143,220.2,141.9,220.6,140.8,220.6z M339,205
			c-0.4,0-0.9-0.1-1.4-0.2c-5.5-1.6-11.4-3.1-17.6-4.4c-2.6-0.5-4.3-3-3.7-5.6c0.5-2.6,3.1-4.2,5.6-3.7c6.5,1.3,12.7,2.9,18.4,4.5
			c2.5,0.8,4,3.4,3.2,5.9C342.9,203.6,341,205,339,205z M173.9,204.6c-2.1,0-4-1.4-4.6-3.4c-0.7-2.5,0.7-5.2,3.3-5.9
			c5.7-1.6,11.9-3.1,18.4-4.4c2.5-0.5,5.1,1.2,5.6,3.8c0.5,2.6-1.2,5.1-3.8,5.6c-6.3,1.2-12.2,2.6-17.6,4.2
			C174.8,204.6,174.4,204.6,173.9,204.6z M302.7,197.5c-0.2,0-0.4,0-0.6,0c-5.9-0.8-11.9-1.4-18.2-1.9c-2.6-0.2-4.6-2.5-4.4-5.1
			c0.2-2.6,2.8-4.5,5.1-4.4c6.4,0.5,12.7,1.2,18.7,2c2.6,0.3,4.4,2.8,4.1,5.4C307.1,195.7,305.1,197.5,302.7,197.5z M210.3,197.5
			c-2.4,0-4.4-1.8-4.7-4.2c-0.3-2.6,1.5-5,4.1-5.3c5.9-0.7,12.1-1.4,18.7-1.8c2.7-0.2,4.9,1.8,5.1,4.4c0.2,2.6-1.8,4.9-4.4,5.1
			c-6.4,0.5-12.5,1.1-18.2,1.8C210.7,197.5,210.5,197.5,210.3,197.5z M247.2,194.7c-2.6,0-4.7-2-4.8-4.6c-0.1-2.6,2-4.8,4.6-4.9
			c3-0.1,6-0.2,9.2-0.2c3.4,0.2,6.5,0,9.7,0.1c2.6,0.1,4.7,2.3,4.7,4.9c-0.1,2.6-2,4.9-4.9,4.7c-3.1-0.1-6.2-0.1-9.3-0.1
			c-3,0-6,0.1-8.9,0.2C247.3,194.7,247.3,194.7,247.2,194.7z"/>
	</g>
</g>
<g>
	<g>
		<g>
			<path class="st0" d="M131.3,273.8c-2.6,0-4.8-2.1-4.8-4.8v-9.5c0-2.6,2.1-4.8,4.8-4.8c2.6,0,4.8,2.1,4.8,4.8v9.5
				C136,271.6,133.9,273.8,131.3,273.8z"/>
		</g>
	</g>
	<g>
		<g>
			<path class="st0" d="M247.2,338.8c0,0-0.1,0-0.1,0c-6.6-0.2-13.1-0.5-19.4-1c-2.6-0.2-4.6-2.5-4.4-5.1c0.2-2.6,2.8-4.6,5.1-4.4
				c6.1,0.5,12.5,0.8,18.9,0.9c2.6,0.1,4.7,2.2,4.7,4.9C251.9,336.8,249.8,338.8,247.2,338.8z M266.4,338.8c-2.6,0-4.7-2.1-4.8-4.6
				c-0.1-2.6,2-4.8,4.6-4.9c6.5-0.2,12.8-0.5,18.9-1c2.8-0.2,4.9,1.7,5.1,4.4c0.2,2.6-1.7,4.9-4.4,5.1c-6.3,0.5-12.8,0.9-19.4,1.1
				C266.5,338.8,266.4,338.8,266.4,338.8z M208.9,335.9c-0.2,0-0.4,0-0.7,0c-6.6-0.9-13.1-2-19.3-3.3c-2.6-0.5-4.2-3.1-3.7-5.6
				c0.5-2.6,3-4.2,5.6-3.7c5.9,1.2,12.2,2.3,18.6,3.2c2.6,0.4,4.4,2.8,4.1,5.4C213.3,334.1,211.3,335.9,208.9,335.9z M304.7,335.6
				c-2.3,0-4.4-1.7-4.7-4.1c-0.4-2.6,1.4-5,4.1-5.4c6.4-0.9,12.7-2,18.6-3.3c2.6-0.6,5.1,1.1,5.7,3.7c0.6,2.6-1.1,5.1-3.7,5.7
				c-6.1,1.3-12.6,2.5-19.2,3.4C305.1,335.6,304.9,335.6,304.7,335.6z M171.4,327.9c-0.5,0-0.9-0.1-1.4-0.2
				c-6.9-2.1-13.2-4.6-18.6-7.2c-2.4-1.1-3.4-4-2.2-6.4c1.1-2.4,4-3.4,6.4-2.2c5,2.4,10.8,4.6,17.2,6.6c2.5,0.8,3.9,3.5,3.1,6
				C175.3,326.5,173.4,327.9,171.4,327.9z M342.1,327.4c-2,0-3.9-1.3-4.5-3.3c-0.8-2.5,0.6-5.2,3.1-6c6.5-2.1,12.2-4.4,17.1-6.8
				c2.3-1.2,5.2-0.3,6.4,2.1c1.2,2.4,0.2,5.2-2.1,6.4c-5.3,2.7-11.6,5.2-18.5,7.4C343.1,327.3,342.6,327.4,342.1,327.4z
				 M137.6,310.3c-1.2,0-2.5-0.5-3.4-1.4c-5.1-5.2-7.7-10.7-7.7-16.5v-4.1c0-2.6,2.1-4.8,4.8-4.8c2.6,0,4.8,2.1,4.8,4.8v4.1
				c0,3.2,1.7,6.5,4.9,9.8c1.9,1.9,1.8,4.9,0,6.7C140,309.8,138.8,310.3,137.6,310.3z M375.5,309.2c-1.1,0-2.3-0.4-3.2-1.2
				c-2-1.8-2.1-4.8-0.4-6.7c2.7-3,4-6,4-8.9v-5.7c0-2.6,2.1-4.8,4.8-4.8s4.8,2.1,4.8,4.8v5.7c0,5.3-2.2,10.4-6.5,15.2
				C378.1,308.6,376.8,309.2,375.5,309.2z"/>
		</g>
	</g>
	<g>
		<g>
			<path class="st0" d="M380.7,272c-2.6,0-4.8-2.1-4.8-4.8v-9.5c0-2.6,2.1-4.8,4.8-4.8s4.8,2.1,4.8,4.8v9.5
				C385.5,269.8,383.4,272,380.7,272z"/>
		</g>
	</g>
</g>
</svg>
