<?xml version="1.0" encoding="utf-8"?>
<!-- Generator: Adobe Illustrator 26.2.1, SVG Export Plug-In . SVG Version: 6.00 Build 0)  -->
<svg version="1.1" id="Layer_1" xmlns="http://www.w3.org/2000/svg" xmlns:xlink="http://www.w3.org/1999/xlink" x="0px" y="0px"
	 viewBox="0 0 256 256" style="enable-background:new 0 0 256 256;" xml:space="preserve">
<style type="text/css">
	.st0{fill:#FFFFFF;}
	.st1{fill:#326CE5;}
</style>
<g>
	<polygon class="st0" points="211.9,252.5 41.2,252.5 36.3,240.7 36.3,7.5 149.4,9.1 221,73.1 216.9,245.3 	"/>
	<g>
		<g>
			<g>
				<g>
					<path class="st1" d="M217.2,64h-53.3c-2.9,0-5.3-2.4-5.3-5.3V5.3c0-2.9-2.4-5.3-5.3-5.3H46.5c-8.8,0-16,7.2-16,16v224
						c0,8.8,7.2,16,16,16h160c8.8,0,16-7.2,16-16V69.3C222.5,66.4,220.1,64,217.2,64z M211.9,240c0,2.9-2.4,5.3-5.3,5.3h-160
						c-2.9,0-5.3-2.4-5.3-5.3V16c0-2.9,2.4-5.3,5.3-5.3h101.3v48c0,8.8,7.2,16,16,16h48V240z"/>
				</g>
			</g>
		</g>
		<g>
			<g>
				<g>
					<path class="st1" d="M221,65.6l-64-64c-2.1-2.1-5.5-2.1-7.5,0s-2.1,5.5,0,7.5l64,64c1,1,2.4,1.6,3.8,1.6s2.7-0.5,3.8-1.6
						C223,71,223,67.6,221,65.6z"/>
				</g>
			</g>
		</g>
		<g>
			<g>
				<path class="st1" d="M126.7,190.7c-2.2,0-4-1.8-4-4c0-2.2,1.8-4,4-4c7,0,13.9-1.9,19.9-5.4c1.9-1.1,4.4-0.5,5.5,1.4
					c1.1,1.9,0.5,4.4-1.4,5.5C143.3,188.5,135.1,190.7,126.7,190.7C126.7,190.7,126.7,190.7,126.7,190.7z M104.7,185
					c-0.7,0-1.3-0.2-1.9-0.5c-7.4-4.1-13.5-10.1-17.6-17.5c-1.1-1.9-0.4-4.4,1.5-5.4c1.9-1.1,4.4-0.4,5.4,1.5
					c3.5,6.2,8.3,11,14.5,14.4c1.9,1.1,2.6,3.5,1.6,5.4C107.4,184.3,106.1,185,104.7,185z M164.6,168.7c-0.7,0-1.4-0.2-2-0.5
					c-1.9-1.1-2.6-3.6-1.5-5.5c3.5-6,5.3-12.9,5.3-19.9c0-2.2,1.8-4.3,4-4.3c2.2,0,4,1.5,4,3.7h-4l4,0.4c0,8.5-2.2,16.8-6.4,24
					C167.3,168,166,168.7,164.6,168.7z M83,146.9c-2.2,0-4-1.7-4-3.9v-0.3c0-8.4,2-16.6,5.9-23.7c1-1.9,3.5-2.7,5.4-1.6
					c1.9,1.1,2.7,3.5,1.6,5.4c-3.2,6-4.9,12.8-4.9,19.9C87,145,85.2,146.9,83,146.9z M164.3,124.5c-1.4,0-2.7-0.7-3.4-2
					c-3.6-6-8.7-11-14.7-14.4c-1.9-1.1-2.6-3.5-1.5-5.4c1.1-1.9,3.5-2.6,5.4-1.5c7.3,4.1,13.4,10.1,17.7,17.3
					c1.1,1.9,0.5,4.4-1.4,5.5C165.7,124.3,165,124.5,164.3,124.5z M104.2,108.8c-1.4,0-2.7-0.7-3.5-2c-1.1-1.9-0.4-4.4,1.5-5.4
					c6.9-3.9,14.9-6.1,23.7-6.4c2.1-0.2,4.1,1.6,4.2,3.8c0.1,2.2-1.6,4.1-3.8,4.2c-7.6,0.3-14.4,2.1-20.1,5.4
					C105.6,108.7,104.9,108.8,104.2,108.8z"/>
			</g>
			<g>
				<g>
					<path class="st1" d="M139.2,165.7h-25.3c-5.7,0-10.2-4.6-10.2-10.2v-25.3c0-5.7,4.6-10.2,10.2-10.2h25.3
						c5.7,0,10.2,4.6,10.2,10.2v25.3C149.4,161.1,144.9,165.7,139.2,165.7z"/>
				</g>
			</g>
			<g>
				<path class="st0" d="M139.8,139.1h-26c-2.2,0-4-1.8-4-4c0-2.2,1.8-4,4-4h26c2.2,0,4,1.8,4,4C143.8,137.3,142,139.1,139.8,139.1z
					"/>
			</g>
			<g>
				<path class="st0" d="M139.8,153.8h-26c-2.2,0-4-1.8-4-4s1.8-4,4-4h26c2.2,0,4,1.8,4,4S142,153.8,139.8,153.8z"/>
			</g>
		</g>
	</g>
</g>
</svg>
