<?xml version="1.0" encoding="utf-8"?>
<!-- Generator: Adobe Illustrator 26.2.1, SVG Export Plug-In . SVG Version: 6.00 Build 0)  -->
<svg version="1.1" id="Layer_1" xmlns="http://www.w3.org/2000/svg" xmlns:xlink="http://www.w3.org/1999/xlink" x="0px" y="0px"
	 viewBox="0 0 512 512" style="enable-background:new 0 0 512 512;" xml:space="preserve">
<style type="text/css">
	.st0{fill:#326CE5;}
	.st1{fill:#FFFFFF;}
</style>
<g>
	<g>
		<rect x="0" class="st0" width="512" height="512"/>
	</g>
	<g>
		<path class="st1" d="M256.1,396.9H256c-9.7-0.4-18.9-1.4-27.7-3.2c-2.5-0.5-4.1-2.9-3.6-5.4c0.5-2.5,2.9-4.1,5.4-3.6
			c8.4,1.6,17.2,2.6,26.2,3c2.5,0.1,4.5,2.2,4.5,4.7C260.6,394.9,258.6,396.9,256.1,396.9z M283.2,394.2c-2.1,0-4-1.5-4.5-3.7
			c-0.5-2.5,1.1-4.9,3.6-5.4c8.6-1.7,17.1-4.3,25.2-7.6c2.3-1,5,0.1,6,2.5c1,2.3-0.1,5-2.5,6c-8.6,3.6-17.7,6.3-26.9,8.2
			C283.8,394.2,283.5,394.2,283.2,394.2z M203,386.3c-0.6,0-1.1-0.1-1.7-0.3c-8.8-3.5-17.3-7.7-25-12.8c-2.1-1.4-2.7-4.2-1.4-6.3
			c1.4-2.1,4.2-2.7,6.3-1.4c7.2,4.7,15.1,8.7,23.4,11.9c2.4,0.9,3.5,3.6,2.6,5.9C206.6,385.2,204.8,386.3,203,386.3z M333.2,373.5
			c-1.5,0-2.9-0.7-3.8-2c-1.4-2.1-0.8-4.9,1.2-6.3c7.3-4.9,14.1-10.5,20.3-16.7c1.8-1.8,4.7-1.8,6.5,0c1.8,1.8,1.8,4.7,0,6.5
			c-6.6,6.6-13.9,12.6-21.7,17.8C334.9,373.2,334,373.5,333.2,373.5z M157.6,356.9c-1.2,0-2.3-0.4-3.2-1.3
			c-6.6-6.6-12.6-14-17.7-21.9c-1.4-2.1-0.8-4.9,1.3-6.3c2.1-1.4,4.9-0.8,6.3,1.3c4.8,7.4,10.4,14.2,16.5,20.4
			c1.8,1.8,1.8,4.7,0,6.5C160,356.5,158.8,356.9,157.6,356.9z M371.4,335.2c-0.9,0-1.8-0.2-2.5-0.8c-2.1-1.4-2.7-4.2-1.3-6.3
			c4.9-7.3,9.1-15.1,12.4-23.2c1-2.3,3.6-3.4,6-2.5c2.3,1,3.4,3.6,2.5,6c-3.6,8.6-8,16.9-13.2,24.8
			C374.3,334.5,372.9,335.2,371.4,335.2z M128.1,311.6c-1.8,0-3.5-1.1-4.2-2.9c-3.4-8.6-6-17.7-7.8-27c-0.5-2.5,1.2-4.9,3.6-5.3
			c2.4-0.5,4.9,1.2,5.3,3.6c1.7,8.7,4.1,17.2,7.3,25.3c0.9,2.3-0.2,5-2.6,5.9C129.2,311.5,128.6,311.6,128.1,311.6z M392.1,285.2
			c-0.3,0-0.6,0-0.9-0.1c-2.5-0.5-4.1-2.9-3.6-5.4c1.7-8.6,2.6-17.4,2.6-26.2c0-2.5,2-4.9,4.6-4.9s4.6,1.7,4.6,4.3v0.6
			c0,9.4-0.9,18.8-2.7,27.9C396.1,283.7,394.2,285.2,392.1,285.2z M118,258.3c-2.5,0-4.6-1.9-4.6-4.4v-0.3c0-9.3,0.8-18.6,2.5-27.6
			c0.4-2.5,2.8-4.2,5.3-3.7c2.5,0.5,4.1,2.8,3.7,5.3c-1.6,8.5-2.4,17.2-2.4,26C122.6,256.1,120.5,258.3,118,258.3z M392,230.5
			c-2.1,0-4-1.5-4.5-3.7c-1.7-8.6-4.3-17-7.7-25.1c-1-2.3,0.1-5,2.4-6c2.3-1,5,0.1,6,2.4c3.6,8.6,6.4,17.7,8.3,26.8
			c0.5,2.5-1.1,4.9-3.6,5.4C392.6,230.5,392.3,230.5,392,230.5z M127.9,205.2c-0.6,0-1.1-0.1-1.7-0.3c-2.4-0.9-3.5-3.6-2.6-5.9
			c3.4-8.8,7.7-17.2,12.8-25c1.4-2.1,4.2-2.7,6.3-1.4c2.1,1.4,2.7,4.2,1.4,6.3c-4.7,7.3-8.7,15.2-11.9,23.4
			C131.4,204.1,129.7,205.2,127.9,205.2z M371.1,180.6c-1.5,0-2.9-0.7-3.8-2c-4.9-7.3-10.6-14.1-16.8-20.3c-1.8-1.8-1.8-4.7,0-6.5
			c1.8-1.8,4.7-1.8,6.5,0c6.6,6.6,12.7,13.9,17.9,21.6c1.4,2.1,0.9,4.9-1.2,6.3C372.9,180.4,372,180.6,371.1,180.6z M157.2,159.8
			c-1.2,0-2.3-0.4-3.2-1.3c-1.8-1.8-1.8-4.7,0-6.5c6.6-6.6,13.9-12.6,21.8-17.7c2.1-1.4,4.9-0.8,6.3,1.3c1.4,2.1,0.8,4.9-1.3,6.3
			c-7.4,4.8-14.2,10.4-20.3,16.5C159.6,159.3,158.4,159.8,157.2,159.8z M332.7,142.5c-0.9,0-1.7-0.2-2.5-0.8
			c-7.3-4.9-15.1-9-23.2-12.3c-2.3-1-3.5-3.6-2.5-6c1-2.3,3.7-3.5,6-2.5c8.7,3.6,17,8,24.8,13.2c2.1,1.4,2.7,4.2,1.3,6.3
			C335.6,141.8,334.1,142.5,332.7,142.5z M202.5,130.2c-1.8,0-3.5-1.1-4.2-2.9c-0.9-2.3,0.2-5,2.6-5.9c8.5-3.4,17.5-6,26.9-7.9
			c2.5-0.5,4.9,1.1,5.4,3.6c0.5,2.5-1.1,4.9-3.6,5.4c-8.8,1.8-17.3,4.2-25.3,7.4C203.6,130.1,203,130.2,202.5,130.2z M282.6,122
			c-0.3,0-0.6,0-0.9-0.1c-8.4-1.6-17.1-2.5-25.7-2.5c-2.5,0-4.8-2-4.8-4.5c0-2.5,1.7-4.5,4.2-4.6l0.1,4.6l0.2-4.6c0,0,0.1,0,0.1,0
			c9.5,0,18.7,0.9,27.6,2.6c2.5,0.5,4.1,2.9,3.6,5.4C286.7,120.4,284.8,122,282.6,122z"/>
	</g>
	<g>
		<g>
			<path class="st1" d="M238.4,261h-50c-6.5,0-11.7-5.2-11.7-11.7v-50c0-6.5,5.2-11.7,11.7-11.7h50c6.5,0,11.7,5.2,11.7,11.7v50
				C250.1,255.8,244.8,261,238.4,261z"/>
		</g>
		<g>
			<path class="st0" d="M233.6,205.9h-40.4c-2.5,0-4.6-2-4.6-4.6c0-2.5,2-4.6,4.6-4.6h40.4c2.5,0,4.6,2,4.6,4.6
				C238.1,203.8,236.1,205.9,233.6,205.9z"/>
		</g>
		<g>
			<path class="st0" d="M233.6,221.4h-40.4c-2.5,0-4.6-2-4.6-4.6c0-2.5,2-4.6,4.6-4.6h40.4c2.5,0,4.6,2,4.6,4.6
				C238.1,219.3,236.1,221.4,233.6,221.4z"/>
		</g>
		<g>
			<path class="st0" d="M233.6,236.4h-40.4c-2.5,0-4.6-2-4.6-4.6c0-2.5,2-4.6,4.6-4.6h40.4c2.5,0,4.6,2,4.6,4.6
				C238.1,234.4,236.1,236.4,233.6,236.4z"/>
		</g>
		<g>
			<path class="st0" d="M233.6,251.9h-40.4c-2.5,0-4.6-2-4.6-4.6c0-2.5,2-4.6,4.6-4.6h40.4c2.5,0,4.6,2,4.6,4.6
				C238.1,249.8,236.1,251.9,233.6,251.9z"/>
		</g>
	</g>
	<g>
		<g>
			<path class="st1" d="M329,261h-50c-6.5,0-11.7-5.2-11.7-11.7v-50c0-6.5,5.2-11.7,11.7-11.7h50c6.5,0,11.7,5.2,11.7,11.7v50
				C340.7,255.8,335.5,261,329,261z"/>
		</g>
		<g>
			<path class="st0" d="M324.2,205.9h-40.4c-2.5,0-4.6-2-4.6-4.6c0-2.5,2-4.6,4.6-4.6h40.4c2.5,0,4.6,2,4.6,4.6
				C328.8,203.8,326.7,205.9,324.2,205.9z"/>
		</g>
		<g>
			<path class="st0" d="M324.2,221.4h-40.4c-2.5,0-4.6-2-4.6-4.6c0-2.5,2-4.6,4.6-4.6h40.4c2.5,0,4.6,2,4.6,4.6
				C328.8,219.3,326.7,221.4,324.2,221.4z"/>
		</g>
		<g>
			<path class="st0" d="M324.2,236.4h-40.4c-2.5,0-4.6-2-4.6-4.6c0-2.5,2-4.6,4.6-4.6h40.4c2.5,0,4.6,2,4.6,4.6
				C328.8,234.4,326.7,236.4,324.2,236.4z"/>
		</g>
		<g>
			<path class="st0" d="M324.2,251.9h-40.4c-2.5,0-4.6-2-4.6-4.6c0-2.5,2-4.6,4.6-4.6h40.4c2.5,0,4.6,2,4.6,4.6
				C328.8,249.8,326.7,251.9,324.2,251.9z"/>
		</g>
	</g>
	<g>
		<g>
			<path class="st1" d="M280,346h-50c-6.5,0-11.7-5.2-11.7-11.7v-50c0-6.5,5.2-11.7,11.7-11.7h50c6.5,0,11.7,5.2,11.7,11.7v50
				C291.7,340.8,286.4,346,280,346z"/>
		</g>
		<g>
			<path class="st0" d="M275.2,290.9h-40.4c-2.5,0-4.6-2-4.6-4.6s2-4.6,4.6-4.6h40.4c2.5,0,4.6,2,4.6,4.6S277.7,290.9,275.2,290.9z"
				/>
		</g>
		<g>
			<path class="st0" d="M275.2,306.4h-40.4c-2.5,0-4.6-2-4.6-4.6s2-4.6,4.6-4.6h40.4c2.5,0,4.6,2,4.6,4.6S277.7,306.4,275.2,306.4z"
				/>
		</g>
		<g>
			<path class="st0" d="M275.2,321.4h-40.4c-2.5,0-4.6-2-4.6-4.6c0-2.5,2-4.6,4.6-4.6h40.4c2.5,0,4.6,2,4.6,4.6
				C279.8,319.4,277.7,321.4,275.2,321.4z"/>
		</g>
		<g>
			<path class="st0" d="M275.2,336.9h-40.4c-2.5,0-4.6-2-4.6-4.6c0-2.5,2-4.6,4.6-4.6h40.4c2.5,0,4.6,2,4.6,4.6
				C279.8,334.8,277.7,336.9,275.2,336.9z"/>
		</g>
	</g>
</g>
</svg>
