<?xml version="1.0" encoding="utf-8"?>
<!-- Generator: Adobe Illustrator 26.2.1, SVG Export Plug-In . SVG Version: 6.00 Build 0)  -->
<svg version="1.1" id="Layer_1" xmlns="http://www.w3.org/2000/svg" xmlns:xlink="http://www.w3.org/1999/xlink" x="0px" y="0px"
	 viewBox="0 0 512 512" style="enable-background:new 0 0 512 512;" xml:space="preserve">
<style type="text/css">
	.st0{fill:#326CE5;}
	.st1{fill:#FFFFFF;}
</style>
<g>
	<g>
		<g>
			<g>
				<rect x="75.2" y="12.6" class="st0" width="419.1" height="419.1"/>
			</g>
			<g>
				<path class="st1" d="M490.7,16.3v411.8H78.9V16.3H490.7 M498,8.9h-7.3H78.9h-7.3v7.3v411.8v7.3h7.3h411.8h7.3v-7.3V16.3V8.9
					L498,8.9z"/>
			</g>
		</g>
	</g>
	<g>
		<g>
			<g>
				<rect x="49" y="46.7" class="st0" width="419.1" height="419.1"/>
			</g>
			<g>
				<path class="st1" d="M464.5,50.3v411.8H52.7V50.3H464.5 M471.8,43h-7.3H52.7h-7.3v7.3v411.8v7.3h7.3h411.8h7.3v-7.3V50.3V43
					L471.8,43z"/>
			</g>
		</g>
	</g>
	<g>
		<g>
			<g>
				<rect x="20.3" y="78.2" class="st0" width="419.1" height="419.1"/>
			</g>
			<g>
				<path class="st1" d="M435.8,81.9v411.8H24V81.9H435.8 M443.1,74.5h-7.3H24h-7.3v7.3v411.8v7.3H24h411.8h7.3v-7.3V81.9V74.5
					L443.1,74.5z"/>
			</g>
		</g>
		<g>
			<path class="st1" d="M230,401.1c-0.1,0-0.4,0-0.5,0c-7.4-0.3-14.9-1.1-21.9-2.5c-2-0.4-3.3-2.3-2.9-4.3c0.4-2,2.3-3.3,4.3-2.9
				c6.7,1.3,13.8,2.1,21.1,2.4c2,0.1,3.6,1.7,3.6,3.7C233.6,399.5,232,401.1,230,401.1z M251.8,398.9c-1.7,0-3.3-1.2-3.6-3
				c-0.4-2,0.9-3.9,2.9-4.3c6.9-1.4,13.7-3.4,20.2-6.1c1.9-0.8,4,0.1,4.8,2c0.8,1.9-0.1,4-2,4.8c-7,2.9-14.2,5.1-21.6,6.6
				C252.2,398.9,252,398.9,251.8,398.9z M187.3,392.5c-0.4,0-0.9-0.1-1.3-0.3c-7.1-2.8-13.9-6.2-20.1-10.3c-1.7-1.1-2.2-3.4-1.1-5.1
				c1.1-1.7,3.4-2.2,5.1-1.1c5.8,3.8,12.2,7,18.8,9.6c1.9,0.7,2.8,2.9,2.1,4.8C190.1,391.7,188.7,392.5,187.3,392.5z M291.9,382.2
				c-1.2,0-2.3-0.6-3-1.6c-1.1-1.7-0.7-4,1-5.1c5.8-3.9,11.3-8.4,16.3-13.4c1.4-1.4,3.8-1.4,5.2,0c1.4,1.4,1.4,3.8,0,5.2
				c-5.3,5.3-11.2,10.2-17.4,14.3C293.4,382,292.6,382.2,291.9,382.2z M150.8,368.9c-0.9,0-1.9-0.4-2.6-1.1
				c-5.3-5.3-10.1-11.2-14.2-17.6c-1.1-1.7-0.6-4,1.1-5.1c1.7-1.1,4-0.6,5.1,1.1c3.9,5.9,8.3,11.4,13.3,16.4c1.4,1.4,1.4,3.8,0,5.2
				C152.7,368.6,151.7,368.9,150.8,368.9z M322.7,351.4c-0.7,0-1.4-0.2-2-0.6c-1.7-1.1-2.1-3.4-1-5.1c3.9-5.9,7.3-12.2,10-18.6
				c0.8-1.9,2.9-2.8,4.8-2c1.9,0.8,2.8,2.9,2,4.8c-2.9,6.9-6.5,13.6-10.6,19.9C325.1,350.9,323.9,351.4,322.7,351.4z M127,332.5
				c-1.5,0-2.8-0.9-3.4-2.3c-2.7-6.9-4.8-14.2-6.2-21.7c-0.4-2,0.9-3.9,2.9-4.3c1.9-0.4,3.9,0.9,4.3,2.9c1.3,7,3.3,13.8,5.9,20.3
				c0.7,1.9-0.2,4-2.1,4.8C127.9,332.4,127.5,332.5,127,332.5z M339.4,311.2c-0.2,0-0.5,0-0.7-0.1c-2-0.4-3.3-2.3-2.9-4.3
				c1.4-6.9,2.1-14,2.1-21c0-2,1.6-3.9,3.7-3.9c2,0,3.7,1.4,3.7,3.4v0.5c0,7.6-0.7,15.1-2.2,22.5C342.6,310,341.1,311.2,339.4,311.2
				z M118.9,289.6c-2,0-3.7-1.5-3.7-3.6v-0.2c0-7.5,0.7-15,2-22.2c0.4-2,2.3-3.3,4.3-2.9c2,0.4,3.3,2.3,2.9,4.3
				c-1.3,6.8-1.9,13.9-1.9,20.9C122.6,287.9,120.9,289.6,118.9,289.6z M339.3,267.3c-1.7,0-3.2-1.2-3.6-2.9
				c-1.4-6.9-3.5-13.7-6.2-20.2c-0.8-1.9,0.1-4,2-4.8c1.9-0.8,4,0.1,4.8,2c2.9,6.9,5.1,14.2,6.6,21.6c0.4,2-0.9,3.9-2.9,4.3
				C339.7,267.2,339.5,267.3,339.3,267.3z M126.8,246.9c-0.4,0-0.9-0.1-1.3-0.3c-1.9-0.7-2.8-2.9-2.1-4.8
				c2.8-7.1,6.2-13.9,10.3-20.1c1.1-1.7,3.4-2.2,5.1-1.1c1.7,1.1,2.2,3.4,1.1,5.1c-3.8,5.9-7,12.2-9.6,18.8
				C129.7,246,128.3,246.9,126.8,246.9z M322.4,227.1c-1.2,0-2.3-0.6-3-1.6c-4-5.9-8.5-11.3-13.5-16.3c-1.4-1.4-1.4-3.8,0-5.2
				c1.4-1.4,3.8-1.4,5.2,0c5.3,5.3,10.2,11.1,14.4,17.4c1.1,1.7,0.7,4-1,5.1C323.9,226.9,323.2,227.1,322.4,227.1z M150.5,210.4
				c-0.9,0-1.9-0.4-2.6-1.1c-1.4-1.4-1.4-3.8,0-5.2c5.3-5.3,11.2-10.1,17.6-14.3c1.7-1.1,4-0.6,5.1,1.1c1.1,1.7,0.6,4-1.1,5.1
				c-5.9,3.9-11.4,8.3-16.4,13.3C152.3,210,151.4,210.4,150.5,210.4z M291.5,196.5c-0.7,0-1.4-0.2-2-0.6c-5.9-3.9-12.1-7.2-18.7-9.9
				c-1.9-0.8-2.8-2.9-2-4.8c0.8-1.9,2.9-2.8,4.8-2c7,2.9,13.7,6.4,20,10.6c1.7,1.1,2.1,3.4,1,5.1
				C293.9,195.9,292.7,196.5,291.5,196.5z M186.8,186.6c-1.5,0-2.8-0.9-3.4-2.3c-0.7-1.9,0.2-4,2.1-4.8c6.8-2.7,14.1-4.8,21.6-6.3
				c1.9-0.4,3.9,0.9,4.3,2.9c0.4,2-0.9,3.9-2.9,4.3c-7.1,1.4-13.9,3.4-20.3,5.9C187.7,186.5,187.3,186.6,186.8,186.6z M251.3,180
				c-0.2,0-0.5,0-0.7-0.1c-6.8-1.3-13.7-2-20.7-2c-2,0-3.8-1.6-3.9-3.6s1.4-3.7,3.4-3.7l0.1,3.7l0.1-3.7c0,0,0.1,0,0.1,0
				c7.6,0,15,0.7,22.2,2.1c2,0.4,3.3,2.3,2.9,4.3C254.6,178.7,253,180,251.3,180z"/>
		</g>
		<g>
			<g>
				<path class="st1" d="M215.7,291.8h-40.2c-5.2,0-9.4-4.2-9.4-9.4v-40.2c0-5.2,4.2-9.4,9.4-9.4h40.2c5.2,0,9.4,4.2,9.4,9.4v40.2
					C225.1,287.6,220.9,291.8,215.7,291.8z"/>
			</g>
			<g>
				<path class="st0" d="M211.8,247.5h-32.5c-2,0-3.7-1.6-3.7-3.7c0-2,1.6-3.7,3.7-3.7h32.5c2,0,3.7,1.6,3.7,3.7
					C215.5,245.8,213.9,247.5,211.8,247.5z"/>
			</g>
			<g>
				<path class="st0" d="M211.8,259.9h-32.5c-2,0-3.7-1.6-3.7-3.7c0-2,1.6-3.7,3.7-3.7h32.5c2,0,3.7,1.6,3.7,3.7
					C215.5,258.3,213.9,259.9,211.8,259.9z"/>
			</g>
			<g>
				<path class="st0" d="M211.8,272h-32.5c-2,0-3.7-1.6-3.7-3.7s1.6-3.7,3.7-3.7h32.5c2,0,3.7,1.6,3.7,3.7S213.9,272,211.8,272z"/>
			</g>
			<g>
				<path class="st0" d="M211.8,284.4h-32.5c-2,0-3.7-1.6-3.7-3.7s1.6-3.7,3.7-3.7h32.5c2,0,3.7,1.6,3.7,3.7
					S213.9,284.4,211.8,284.4z"/>
			</g>
		</g>
		<g>
			<g>
				<path class="st1" d="M288.6,291.8h-40.2c-5.2,0-9.4-4.2-9.4-9.4v-40.2c0-5.2,4.2-9.4,9.4-9.4h40.2c5.2,0,9.4,4.2,9.4,9.4v40.2
					C298,287.6,293.8,291.8,288.6,291.8z"/>
			</g>
			<g>
				<path class="st0" d="M284.8,247.5h-32.5c-2,0-3.7-1.6-3.7-3.7c0-2,1.6-3.7,3.7-3.7h32.5c2,0,3.7,1.6,3.7,3.7
					C288.4,245.8,286.8,247.5,284.8,247.5z"/>
			</g>
			<g>
				<path class="st0" d="M284.8,259.9h-32.5c-2,0-3.7-1.6-3.7-3.7c0-2,1.6-3.7,3.7-3.7h32.5c2,0,3.7,1.6,3.7,3.7
					C288.4,258.3,286.8,259.9,284.8,259.9z"/>
			</g>
			<g>
				<path class="st0" d="M284.8,272h-32.5c-2,0-3.7-1.6-3.7-3.7s1.6-3.7,3.7-3.7h32.5c2,0,3.7,1.6,3.7,3.7S286.8,272,284.8,272z"/>
			</g>
			<g>
				<path class="st0" d="M284.8,284.4h-32.5c-2,0-3.7-1.6-3.7-3.7s1.6-3.7,3.7-3.7h32.5c2,0,3.7,1.6,3.7,3.7
					S286.8,284.4,284.8,284.4z"/>
			</g>
		</g>
		<g>
			<g>
				<path class="st1" d="M249.2,360.2H209c-5.2,0-9.4-4.2-9.4-9.4v-40.2c0-5.2,4.2-9.4,9.4-9.4h40.2c5.2,0,9.4,4.2,9.4,9.4v40.2
					C258.6,356,254.4,360.2,249.2,360.2z"/>
			</g>
			<g>
				<path class="st0" d="M245.3,315.8h-32.5c-2,0-3.7-1.6-3.7-3.7c0-2,1.6-3.7,3.7-3.7h32.5c2,0,3.7,1.6,3.7,3.7
					C249,314.2,247.4,315.8,245.3,315.8z"/>
			</g>
			<g>
				<path class="st0" d="M245.3,328.3h-32.5c-2,0-3.7-1.6-3.7-3.7s1.6-3.7,3.7-3.7h32.5c2,0,3.7,1.6,3.7,3.7
					S247.4,328.3,245.3,328.3z"/>
			</g>
			<g>
				<path class="st0" d="M245.3,340.4h-32.5c-2,0-3.7-1.6-3.7-3.7s1.6-3.7,3.7-3.7h32.5c2,0,3.7,1.6,3.7,3.7
					S247.4,340.4,245.3,340.4z"/>
			</g>
			<g>
				<path class="st0" d="M245.3,352.8h-32.5c-2,0-3.7-1.6-3.7-3.7s1.6-3.7,3.7-3.7h32.5c2,0,3.7,1.6,3.7,3.7
					S247.4,352.8,245.3,352.8z"/>
			</g>
		</g>
	</g>
</g>
</svg>
