<?xml version="1.0" encoding="utf-8"?>
<!-- Generator: Adobe Illustrator 26.2.1, SVG Export Plug-In . SVG Version: 6.00 Build 0)  -->
<svg version="1.1" id="Layer_1" xmlns="http://www.w3.org/2000/svg" xmlns:xlink="http://www.w3.org/1999/xlink" x="0px" y="0px"
	 viewBox="0 0 512 512" style="enable-background:new 0 0 512 512;" xml:space="preserve">
<style type="text/css">
	.st0{fill:#326CE5;}
	.st1{fill:#FFFFFF;}
</style>
<g>
	<g>
		<g>
			<rect x="0" y="0" class="st0" width="512" height="512"/>
		</g>
	</g>
	<g>
		<path class="st1" d="M262.6,358.1c-2.6,0-4.7-2.1-4.8-4.7c0-2.6,2.1-4.8,4.7-4.8c6.4-0.1,12.7-0.3,18.8-0.8
			c2.4-0.1,4.9,1.8,5.1,4.4c0.2,2.6-1.8,4.9-4.4,5.1C275.7,357.8,269.2,358,262.6,358.1C262.6,358.1,262.6,358.1,262.6,358.1z
			 M243.5,357.9c-0.1,0-0.1,0-0.2,0c-6.6-0.2-13-0.7-19.3-1.2c-2.6-0.2-4.6-2.6-4.3-5.2c0.2-2.6,2.5-4.6,5.2-4.3
			c6.1,0.5,12.4,0.9,18.8,1.2c2.6,0.1,4.7,2.3,4.6,4.9C248.1,355.9,246,357.9,243.5,357.9z M300.6,355.5c-2.4,0-4.4-1.8-4.7-4.2
			c-0.3-2.6,1.5-5,4.1-5.3c6.4-0.8,12.6-1.8,18.5-2.9c2.6-0.5,5.1,1.2,5.6,3.8c0.5,2.6-1.2,5.1-3.8,5.6c-6.1,1.2-12.6,2.2-19.2,3
			C301,355.5,300.8,355.5,300.6,355.5z M205.5,354.4c-0.2,0-0.5,0-0.7-0.1c-6.7-1-13.1-2.2-19.1-3.6c-2.6-0.6-4.2-3.2-3.6-5.7
			c0.6-2.6,3.1-4.2,5.7-3.6c5.8,1.3,12,2.5,18.4,3.5c2.6,0.4,4.4,2.8,4,5.4C209.8,352.7,207.8,354.4,205.5,354.4z M338.1,348.2
			c-2.1,0-4-1.4-4.6-3.5c-0.7-2.5,0.7-5.2,3.3-5.9c6.4-1.8,12.3-3.9,17.4-6.1c2.4-1,5.2,0,6.3,2.5c1.1,2.4,0,5.2-2.5,6.3
			c-5.5,2.4-11.8,4.6-18.6,6.6C338.9,348.1,338.5,348.2,338.1,348.2z M168.3,345.7c-0.5,0-1-0.1-1.5-0.3c-6.9-2.4-13.1-5-18.3-7.8
			c-2.3-1.3-3.2-4.2-1.9-6.5c1.3-2.3,4.2-3.2,6.5-1.9c4.7,2.6,10.4,5,16.8,7.2c2.5,0.8,3.8,3.6,3,6.1
			C172.2,344.5,170.3,345.7,168.3,345.7z M372.5,332.2c-1.4,0-2.7-0.6-3.7-1.8c-1.7-2-1.4-5.1,0.7-6.7c5-4.1,7.5-8.2,7.5-12.2
			c0-0.3,0-0.6,0.1-1c-0.1-0.3-0.2-0.6-0.3-0.9c-0.8-3.9-4-8-9.4-11.8c-2.1-1.5-2.6-4.5-1.1-6.7c1.5-2.1,4.5-2.6,6.7-1.1
			c7.5,5.4,11.9,11.4,13.2,17.7c0.1,0.6,0.1,1.3,0,1.9c0.2,0.6,0.4,1.2,0.4,1.9c0,7-3.7,13.6-11.1,19.6
			C374.6,331.9,373.6,332.2,372.5,332.2z M136,326.4c-1.5,0-2.9-0.7-3.8-1.9c-3-4.1-4.6-8.5-4.6-12.9c0-3.4,0.9-6.8,2.7-10
			c1.3-2.3,4.2-3.1,6.5-1.9c2.3,1.3,3.1,4.2,1.9,6.5c-1,1.8-1.5,3.6-1.5,5.4c0,2.4,0.9,4.8,2.7,7.3c1.6,2.1,1.1,5.1-1,6.7
			C137.9,326.1,137,326.4,136,326.4z M148.3,295.9c-1.6,0-3.2-0.8-4.1-2.3c-1.4-2.3-0.6-5.2,1.7-6.5c5.1-3,11.2-5.8,18.1-8.3
			c2.4-0.9,5.2,0.4,6.1,2.9c0.9,2.5-0.4,5.2-2.9,6.1c-6.4,2.3-11.9,4.9-16.5,7.6C150,295.7,149.1,295.9,148.3,295.9z M353.4,289.8
			c-0.6,0-1.2-0.1-1.8-0.4c-5.2-2.1-11.1-4.1-17.6-5.8c-2.5-0.7-4-3.3-3.4-5.9c0.7-2.5,3.3-4.1,5.9-3.4c6.8,1.8,13.1,3.9,18.7,6.2
			c2.4,1,3.6,3.8,2.6,6.2C357.1,288.7,355.3,289.8,353.4,289.8z M183.9,282.5c-2.2,0-4.1-1.5-4.6-3.6c-0.6-2.6,1-5.1,3.5-5.8
			c6-1.5,12.4-2.8,19.1-3.8c2.5-0.4,5.1,1.3,5.5,3.9c0.4,2.6-1.3,5.1-3.9,5.5c-6.4,1-12.6,2.3-18.4,3.7
			C184.7,282.4,184.3,282.5,183.9,282.5z M316.7,279.6c-0.3,0-0.6,0-0.9-0.1c-5.9-1.1-12.1-2-18.6-2.7c-2.6-0.3-4.5-2.7-4.2-5.3
			c0.3-2.6,2.7-4.5,5.3-4.2c6.6,0.8,13.1,1.7,19.2,2.8c2.6,0.5,4.3,3,3.8,5.6C320.9,278,318.9,279.6,316.7,279.6z M221.5,276.2
			c-2.4,0-4.5-1.8-4.7-4.3c-0.3-2.6,1.7-5,4.3-5.2c6.2-0.6,12.7-1.1,19.3-1.4c3-0.2,4.9,1.9,5,4.6c0.1,2.6-1.9,4.9-4.5,5
			c-6.4,0.3-12.7,0.7-18.8,1.3C221.9,276.2,221.7,276.2,221.5,276.2z M278.8,275.2c-0.1,0-0.2,0-0.3,0c-6.1-0.4-12.4-0.6-18.8-0.6
			c-2.6,0-4.8-2.2-4.7-4.8c0-2.6,2.2-4.7,4.8-4.7c0,0,0,0,0,0c6.6,0,13,0.3,19.3,0.6c2.6,0.2,4.6,2.4,4.5,5
			C283.4,273.2,281.3,275.2,278.8,275.2z"/>
	</g>
	<g>
		<path class="st1" d="M381.8,311.6c0,23.1-55.8,41.8-124.7,41.8s-124.7-18.7-124.7-41.8v61.1c0,23.1,55.8,41.8,124.7,41.8
			s124.7-18.7,124.7-41.8V311.6z"/>
		<path class="st1" d="M257.1,419.3c-62.8,0-129.5-16.3-129.5-46.6v-61.1h9.5c0,17.5,49.3,37,120,37c70.7,0,120-19.5,120-37h9.5
			v61.1C386.6,402.9,319.9,419.3,257.1,419.3z M137.1,330.1v42.6c0,17.5,49.3,37,120,37c70.7,0,120-19.5,120-37v-42.6
			c-20.6,18.4-71.5,28.1-120,28.1C208.6,358.2,157.7,348.4,137.1,330.1z"/>
	</g>
	<g>
		<path class="st1" d="M118.6,169.5c-29.5,0-59.3-7.9-59.3-23.1c0-30.3,118.7-30.3,118.7,0C177.9,161.5,148,169.5,118.6,169.5z
			 M118.6,132.9c-32.2,0-49.8,8.9-49.8,13.5s17.6,13.5,49.8,13.5s49.8-8.9,49.8-13.5S150.8,132.9,118.6,132.9z"/>
	</g>
	<g>
		<path class="st1" d="M173.1,146.4c0,10.1-24.4,18.3-54.6,18.3S64,156.5,64,146.4v26.7c0,10.1,24.4,18.3,54.6,18.3
			s54.6-8.2,54.6-18.3V146.4z"/>
		<path class="st1" d="M118.6,196.2c-29.5,0-59.3-7.9-59.3-23.1v-26.7h9.5c0,4.6,17.6,13.5,49.8,13.5s49.8-8.9,49.8-13.5h9.5v26.7
			C177.9,188.3,148,196.2,118.6,196.2z M68.8,159.5v13.6c0,4.6,17.6,13.5,49.8,13.5s49.8-8.9,49.8-13.5v-13.6
			C146,172.7,91.1,172.7,68.8,159.5z"/>
	</g>
	<g>
		<path class="st1" d="M256,169.5c-29.5,0-59.3-7.9-59.3-23.1c0-30.3,118.6-30.3,118.6,0C315.3,161.5,285.5,169.5,256,169.5z
			 M256,132.9c-32.2,0-49.8,8.9-49.8,13.5s17.6,13.5,49.8,13.5c32.2,0,49.8-8.9,49.8-13.5S288.2,132.9,256,132.9z"/>
	</g>
	<g>
		<path class="st1" d="M310.6,146.4c0,10.1-24.4,18.3-54.6,18.3s-54.6-8.2-54.6-18.3v26.7c0,10.1,24.4,18.3,54.6,18.3
			s54.6-8.2,54.6-18.3V146.4z"/>
		<path class="st1" d="M256,196.2c-29.5,0-59.3-7.9-59.3-23.1v-26.7h9.5c0,4.6,17.6,13.5,49.8,13.5c32.2,0,49.8-8.9,49.8-13.5h9.5
			v26.7C315.3,188.3,285.5,196.2,256,196.2z M206.2,159.5v13.6c0,4.6,17.6,13.5,49.8,13.5c32.2,0,49.8-8.9,49.8-13.5v-13.6
			C283.5,172.6,228.5,172.7,206.2,159.5z"/>
	</g>
	<g>
		<path class="st1" d="M392.6,169.5c-29.5,0-59.3-7.9-59.3-23.1c0-30.3,118.7-30.3,118.7,0C451.9,161.5,422.1,169.5,392.6,169.5z
			 M392.6,132.9c-32.2,0-49.8,8.9-49.8,13.5s17.6,13.5,49.8,13.5s49.8-8.9,49.8-13.5S424.8,132.9,392.6,132.9z"/>
	</g>
	<g>
		<path class="st1" d="M447.2,146.4c0,10.1-24.4,18.3-54.6,18.3c-30.1,0-54.6-8.2-54.6-18.3v26.7c0,10.1,24.4,18.3,54.6,18.3
			c30.1,0,54.6-8.2,54.6-18.3V146.4z"/>
		<path class="st1" d="M392.6,196.2c-29.5,0-59.3-7.9-59.3-23.1v-26.7h9.5c0,4.6,17.6,13.5,49.8,13.5s49.8-8.9,49.8-13.5h9.5v26.7
			C451.9,188.3,422.1,196.2,392.6,196.2z M342.8,159.5v13.6c0,4.6,17.6,13.5,49.8,13.5s49.8-8.9,49.8-13.5v-13.6
			C420.1,172.7,365.1,172.7,342.8,159.5z"/>
	</g>
	<g>
		<path class="st1" d="M256,316.4c-2.6,0-4.8-2.1-4.8-4.8V191.4c0-2.6,2.1-4.8,4.8-4.8c2.6,0,4.8,2.1,4.8,4.8v120.2
			C260.8,314.2,258.6,316.4,256,316.4z"/>
	</g>
	<g>
		<path class="st1" d="M238.2,316.4c-2.6,0-4.8-2.1-4.8-4.8c0-38.6-10.9-68.2-32.3-88c-33.3-30.8-81.7-27.4-82.2-27.4
			c-2.8,0.2-4.9-1.8-5.1-4.4c-0.2-2.6,1.7-4.9,4.4-5.1c2.1-0.2,52.9-3.8,89.3,29.8c23.5,21.7,35.4,53.7,35.4,95.1
			C242.9,314.2,240.8,316.4,238.2,316.4z"/>
	</g>
	<g>
		<path class="st1" d="M272.7,316.4c-2.6,0-4.8-2.1-4.8-4.8c0-41.4,11.9-73.4,35.4-95.1c36.5-33.7,87.2-30,89.3-29.8
			c2.6,0.2,4.6,2.5,4.4,5.1c-0.2,2.6-2.3,4.6-5.1,4.4c-0.4,0-48.8-3.4-82.2,27.4c-21.4,19.8-32.3,49.4-32.3,88
			C277.5,314.3,275.4,316.4,272.7,316.4z"/>
	</g>
</g>
</svg>
