<?xml version="1.0" encoding="utf-8"?>
<!-- Generator: Adobe Illustrator 26.2.1, SVG Export Plug-In . SVG Version: 6.00 Build 0)  -->
<svg version="1.1" id="Layer_1" xmlns="http://www.w3.org/2000/svg" xmlns:xlink="http://www.w3.org/1999/xlink" x="0px" y="0px"
	 viewBox="0 0 512 512" style="enable-background:new 0 0 512 512;" xml:space="preserve">
<style type="text/css">
	.st0{fill:#326CE5;}
	.st1{fill:#FFFFFF;}
</style>
<g>
	<g>
		<g>
			<rect x="0" y="0" class="st0" width="512" height="512"/>
		</g>
	</g>
	<g>
		<path class="st0" d="M252.4,296.7l-23.7-23.7c-5.7-5.7-5.7-14.9,0-20.6l23.7-23.7c5.7-5.7,14.9-5.7,20.6,0l23.7,23.7
			c5.7,5.7,5.7,14.9,0,20.6l-23.7,23.7C267.3,302.4,258.1,302.4,252.4,296.7z"/>
		<path class="st1" d="M262.7,305.5c-4.9,0-9.8-1.9-13.5-5.6l-23.7-23.7c-7.4-7.4-7.4-19.6,0-27l23.7-23.7c7.4-7.4,19.6-7.4,27,0
			l23.7,23.7c7.4,7.4,7.4,19.6,0,27l-23.7,23.7C272.4,303.6,267.5,305.5,262.7,305.5z M262.7,229c-2.6,0-5.1,1-7,2.9l-23.7,23.7
			c-3.9,3.9-3.9,10.2,0,14.1l23.7,23.7c3.9,3.9,10.2,3.9,14.1,0l23.7-23.7c3.9-3.9,3.9-10.2,0-14.1l-23.7-23.7
			C267.8,229.9,265.2,229,262.7,229z"/>
	</g>
	<g>
		<path class="st1" d="M185.9,201.6h-50c-5.4,0-9.8-4.4-9.8-9.8v-50c0-5.4,4.4-9.8,9.8-9.8h50c5.4,0,9.8,4.4,9.8,9.8v50
			C195.7,197.2,191.3,201.6,185.9,201.6z"/>
	</g>
	<g>
		<path class="st1" d="M386.6,396h-50.9c-5.2,0-9.4-4.2-9.4-9.4v-50.9c0-5.2,4.2-9.4,9.4-9.4h50.9c5.2,0,9.4,4.2,9.4,9.4v50.9
			C396,391.8,391.8,396,386.6,396z"/>
	</g>
	<g>
		<g>
			<path class="st1" d="M257,274.4l-6.1-6.1c-3.1-3.1-3.1-8.2,0-11.3l6.1-6.1c3.1-3.1,8.2-3.1,11.3,0l6.1,6.1
				c3.1,3.1,3.1,8.2,0,11.3l-6.1,6.1C265.2,277.5,260.1,277.5,257,274.4z"/>
		</g>
	</g>
	<g>
		<path class="st1" d="M318.5,323.1c-1.2,0-2.3-0.4-3.2-1.3l-21-21c-1.8-1.8-1.8-4.7,0-6.5s4.7-1.8,6.5,0l21,21
			c1.8,1.8,1.8,4.7,0,6.5C320.9,322.7,319.7,323.1,318.5,323.1z"/>
	</g>
	<g>
		<path class="st1" d="M227.9,232.5c-1.2,0-2.3-0.4-3.2-1.3l-21-21c-1.8-1.8-1.8-4.7,0-6.5s4.7-1.8,6.5,0l21,21
			c1.8,1.8,1.8,4.7,0,6.5C230.3,232.1,229.1,232.5,227.9,232.5z"/>
	</g>
</g>
</svg>
