<?xml version="1.0" encoding="utf-8"?>
<!-- Generator: Adobe Illustrator 26.2.1, SVG Export Plug-In . SVG Version: 6.00 Build 0)  -->
<svg version="1.1" id="Layer_1" xmlns="http://www.w3.org/2000/svg" xmlns:xlink="http://www.w3.org/1999/xlink" x="0px" y="0px"
	 viewBox="0 0 512 512" style="enable-background:new 0 0 512 512;" xml:space="preserve">
<style type="text/css">
	.st0{fill:#326CE5;}
	.st1{fill:#FFFFFF;}
</style>
<g>
	<g>
		<rect x="0" class="st0" width="512" height="512"/>
	</g>
</g>
<g>
	<path class="st1" d="M369.7,254.5c-14.2-17-33.6-26.7-53.6-28.9c-15.8-1.8-27.9-14-29.7-29.7c-2.3-20-11.9-39.3-28.9-53.6
		c-29.3-24.5-73.2-25.1-103-1.1c-38.7,31-41,87.7-6.9,121.7c11.8,11.8,26.4,19.3,41.7,22.3c19,3.8,33.8,18.6,37.6,37.6
		c3,15.3,10.5,29.9,22.3,41.7c34.1,34.1,90.7,31.7,121.7-6.9C394.7,327.7,394.2,283.9,369.7,254.5z"/>
</g>
<g>
	<path class="st0" d="M225.4,238.5H187c-6.5,0-11.7-5.2-11.7-11.7v-38.4c0-6.5,5.2-11.7,11.7-11.7h38.4c6.5,0,11.7,5.2,11.7,11.7
		v38.4C237.1,233.3,231.9,238.5,225.4,238.5z"/>
</g>
<g>
	<path class="st1" d="M223.2,194.7h-34c-2.5,0-4.6-2-4.6-4.6c0-2.5,2-4.6,4.6-4.6h34c2.5,0,4.6,2,4.6,4.6
		C227.8,192.6,225.7,194.7,223.2,194.7z"/>
</g>
<g>
	<path class="st1" d="M223.2,210.5h-34c-2.5,0-4.6-2-4.6-4.6s2-4.6,4.6-4.6h34c2.5,0,4.6,2,4.6,4.6S225.7,210.5,223.2,210.5z"/>
</g>
<g>
	<path class="st1" d="M223.2,226.3h-34c-2.5,0-4.6-2-4.6-4.6c0-2.5,2-4.6,4.6-4.6h34c2.5,0,4.6,2,4.6,4.6
		C227.8,224.2,225.7,226.3,223.2,226.3z"/>
</g>
<g>
	<path class="st0" d="M199.8,267.1c-0.2,0-0.3,0-0.5,0c-9.4-1-18.5-4.2-26.4-9.2c-2.1-1.3-2.8-4.2-1.4-6.3c1.3-2.1,4.2-2.8,6.3-1.4
		c6.8,4.2,14.6,7,22.6,7.8c2.5,0.3,4.3,2.5,4,5C204,265.3,202.1,267.1,199.8,267.1z M225.5,264.1c-1.9,0-3.6-1.2-4.3-3.1
		c-0.8-2.4,0.4-5,2.8-5.8c7.7-2.7,14.5-7,20.2-12.7c1.8-1.8,4.8-2,6.6-0.3c1.8,1.7,2.1,4.4,0.4,6.2c-0.1,0.1-0.6,0.6-0.6,0.6
		c-6.6,6.7-14.6,11.7-23.6,14.8C226.6,264.1,226,264.1,225.5,264.1z M156.9,240.2c-1.5,0-3-0.7-3.8-2.1c-5.3-8.3-8.6-17.1-9.7-26.2
		c-0.3-2.5,1.5-4.8,4-5.1c2.6-0.4,4.8,1.5,5.1,4c1,7.8,3.8,15.3,8.3,22.4c1.4,2.1,0.8,4.9-1.4,6.3
		C158.7,239.9,157.8,240.2,156.9,240.2z M261.5,227.8c-0.5,0-1-0.1-1.5-0.2c-2.4-0.8-3.7-3.4-2.9-5.8c1.9-5.6,2.8-11.4,2.8-17.3
		c0-2.2-0.1-4.3-0.4-6.5c-0.3-2.5,1.5-4.8,4-5.1c2.4-0.3,4.8,1.5,5.1,4c0.3,2.5,0.5,5.1,0.5,7.6c0,6.9-1.1,13.7-3.3,20.2
		C265.2,226.6,263.4,227.8,261.5,227.8z M151,190.1c-0.5,0-1.1-0.1-1.6-0.3c-2.4-0.9-3.6-3.5-2.7-5.9c3.2-8.7,8.4-16.8,15.1-23.5
		c1.8-1.8,4.7-1.8,6.5,0c1.8,1.8,1.8,4.7,0,6.5c-5.8,5.8-10.2,12.8-13,20.2C154.6,189,152.8,190.1,151,190.1z M255.4,177.6
		c-1.5,0-3-0.7-3.8-2.1c-2.1-3.2-4.5-6.3-7.3-9.1c-3.1-2.9-6.4-5.5-9.9-7.7c-2.1-1.3-2.8-4.2-1.4-6.3c1.4-2.1,4.2-2.8,6.3-1.4
		c3.9,2.5,7.7,5.4,11.3,8.8c3.4,3.4,6.2,6.9,8.6,10.7c1.4,2.1,0.7,5-1.4,6.3C257.1,177.3,256.3,177.6,255.4,177.6z M186.7,154
		c-1.8,0-3.6-1.1-4.3-2.9c-0.9-2.4,0.3-5,2.6-5.9c9-3.4,18.4-4.7,27.8-3.6c2.5,0.3,4.3,2.5,4,5c-0.3,2.5-2.6,4.3-5,4
		c-8-0.9-15.9,0.2-23.6,3.1C187.8,153.9,187.3,154,186.7,154z"/>
</g>
<g>
	<path class="st0" d="M324.3,334.3h-38.4c-6.5,0-11.7-5.2-11.7-11.7v-38.4c0-6.5,5.2-11.7,11.7-11.7h38.4c6.5,0,11.7,5.2,11.7,11.7
		v38.4C336,329,330.8,334.3,324.3,334.3z"/>
</g>
<g>
	<path class="st1" d="M322.1,290.4h-34c-2.5,0-4.6-2-4.6-4.6s2-4.6,4.6-4.6h34c2.5,0,4.6,2,4.6,4.6S324.6,290.4,322.1,290.4z"/>
</g>
<g>
	<path class="st1" d="M322.1,306.2h-34c-2.5,0-4.6-2-4.6-4.6s2-4.6,4.6-4.6h34c2.5,0,4.6,2,4.6,4.6S324.6,306.2,322.1,306.2z"/>
</g>
<g>
	<path class="st1" d="M322.1,322h-34c-2.5,0-4.6-2-4.6-4.6s2-4.6,4.6-4.6h34c2.5,0,4.6,2,4.6,4.6S324.6,322,322.1,322z"/>
</g>
<g>
	<path class="st0" d="M298.7,366c-0.2,0-0.3,0-0.5,0c-9.4-1-18.5-4.2-26.4-9.2c-2.1-1.3-2.8-4.2-1.4-6.3c1.3-2.1,4.2-2.8,6.3-1.4
		c6.8,4.2,14.6,7,22.6,7.8c2.5,0.3,4.3,2.5,4,5C302.9,364.2,301,366,298.7,366z M324.4,363c-1.9,0-3.6-1.2-4.3-3.1
		c-0.8-2.4,0.4-5,2.8-5.8c7.7-2.7,14.5-7,20.2-12.7c1.8-1.8,4.9-2,6.6-0.2c1.8,1.8,2,4.4,0.3,6.2c0,0-0.5,0.5-0.5,0.5
		c-6.7,6.7-14.7,11.7-23.6,14.9C325.5,363,324.9,363,324.4,363z M255.8,339.1c-1.5,0-3-0.7-3.8-2.1c-5.3-8.3-8.6-17.1-9.7-26.2
		c-0.3-2.5,1.5-4.8,4-5.1c2.5-0.4,4.8,1.5,5.1,4c1,7.8,3.8,15.3,8.3,22.4c1.4,2.1,0.8,4.9-1.4,6.3
		C257.6,338.8,256.7,339.1,255.8,339.1z M360.4,326.7c-0.5,0-1-0.1-1.5-0.2c-2.4-0.8-3.7-3.4-2.9-5.8c1.9-5.6,2.8-11.4,2.8-17.3
		c0-2.2-0.1-4.3-0.4-6.5c-0.3-2.5,1.5-4.8,4-5.1c2.4-0.3,4.8,1.5,5.1,4c0.3,2.5,0.5,5.1,0.5,7.6c0,6.9-1.1,13.7-3.3,20.2
		C364.1,325.5,362.3,326.7,360.4,326.7z M249.9,289c-0.5,0-1.1-0.1-1.6-0.3c-2.4-0.9-3.6-3.5-2.7-5.9c3.2-8.7,8.4-16.8,15.1-23.5
		c1.8-1.8,4.7-1.8,6.5,0c1.8,1.8,1.8,4.7,0,6.5c-5.8,5.8-10.2,12.8-13,20.2C253.5,287.9,251.7,289,249.9,289z M354.3,276.5
		c-1.5,0-3-0.7-3.8-2.1c-2.1-3.2-4.5-6.3-7.3-9.1c-3.1-2.9-6.4-5.5-9.9-7.7c-2.1-1.3-2.8-4.2-1.4-6.3c1.4-2.1,4.2-2.8,6.3-1.4
		c3.9,2.5,7.7,5.4,11.3,8.8c3.3,3.3,6.2,6.9,8.6,10.7c1.4,2.1,0.7,4.9-1.4,6.3C356,276.2,355.2,276.5,354.3,276.5z M285.6,252.9
		c-1.8,0-3.6-1.1-4.3-2.9c-0.9-2.4,0.3-5,2.6-5.9c6.9-2.6,14.1-4,21.3-4c0,0,0,0,0,0c2.1,0,4.3,0.1,6.5,0.4c2.5,0.3,4.3,2.5,4,5
		c-0.3,2.5-2.6,4.3-5,4c-1.8-0.2-3.6-0.3-5.4-0.3c0,0,0,0,0,0c-6.1,0-12.2,1.1-18.1,3.4C286.7,252.8,286.2,252.9,285.6,252.9z"/>
</g>
</svg>
