<svg xmlns="http://www.w3.org/2000/svg" xmlns:xlink="http://www.w3.org/1999/xlink" width="498" zoomAndPan="magnify" viewBox="0 0 373.5 373.500002" height="498" preserveAspectRatio="xMidYMid meet" version="1.0"><defs><clipPath id="bce810a875"><path d="M 79 66 L 266.609375 66 L 266.609375 307 L 79 307 Z M 79 66 " clip-rule="nonzero"/></clipPath></defs><path fill="#ffffff" d="M 0 0 L 373 0 L 373 373 L 0 373 Z M 0 0 " fill-opacity="1" fill-rule="nonzero"/><path fill="#326ce5" d="M 0 0 L 373 0 L 373 373 L 0 373 Z M 0 0 " fill-opacity="1" fill-rule="nonzero"/><g clip-path="url(#bce810a875)"><path fill="#fbfcfe" d="M 246.519531 124.335938 C 242.09375 124.335938 237.988281 125.867188 234.667969 128.394531 L 234.667969 107.214844 C 234.667969 96.3125 225.816406 87.460938 214.914062 87.460938 C 210.488281 87.460938 206.378906 88.988281 203.058594 91.519531 L 203.058594 86.09375 C 203.058594 75.238281 194.261719 66.390625 183.355469 66.390625 C 172.453125 66.390625 163.65625 75.238281 163.65625 86.09375 L 163.65625 86.355469 C 160.597656 83.984375 156.859375 82.457031 152.75 82.195312 C 141.609375 81.480469 131.941406 90.960938 131.941406 102 L 131.941406 212.523438 L 119.667969 194.875 C 112.925781 185.394531 100.542969 182.285156 90.796875 187.605469 C 80.316406 193.347656 76.257812 206.203125 81.578125 216.84375 C 92.589844 238.917969 105.074219 263.941406 122.933594 284.222656 C 135.207031 298.128906 153.277344 306.082031 172.558594 306.082031 L 204.375 306.082031 C 238.511719 306.082031 266.277344 278.320312 266.277344 244.183594 L 266.277344 144.09375 C 266.277344 133.242188 257.425781 124.335938 246.519531 124.335938 Z M 258.375 244.183594 C 258.375 273.949219 234.140625 298.183594 204.375 298.183594 L 172.558594 298.183594 C 155.542969 298.183594 139.632812 291.175781 128.886719 279.007812 C 111.710938 259.460938 99.964844 236.019531 88.636719 213.3125 C 85.214844 206.464844 87.847656 198.246094 94.589844 194.558594 C 100.703125 191.1875 108.921875 193.347656 113.238281 199.40625 C 113.238281 199.40625 132.539062 227.308594 132.625 227.433594 C 134.726562 230.46875 139.84375 228.886719 139.84375 225.167969 C 139.84375 225.167969 139.84375 102.152344 139.84375 102 C 139.84375 95.222656 145.632812 89.773438 152.382812 90.09375 C 158.542969 90.464844 163.601562 96.152344 163.601562 102.898438 C 163.601562 102.898438 163.550781 201.496094 163.550781 202.039062 C 163.546875 207.054688 171.503906 207.160156 171.503906 202.039062 L 171.558594 86.09375 C 171.558594 79.613281 176.824219 74.292969 183.355469 74.292969 C 189.890625 74.292969 195.15625 79.613281 195.15625 86.09375 C 195.15625 86.09375 195.15625 206.90625 195.15625 207.308594 C 195.15625 212.160156 203.058594 212.46875 203.058594 207.308594 L 203.058594 107.214844 C 203.058594 100.683594 208.378906 95.363281 214.914062 95.363281 C 221.496094 95.363281 226.765625 100.683594 226.765625 107.214844 C 226.765625 107.214844 226.765625 212.097656 226.765625 212.574219 C 226.765625 217.609375 234.667969 217.71875 234.667969 212.578125 L 234.667969 144.09375 C 234.667969 137.558594 239.988281 132.238281 246.519531 132.238281 C 253.105469 132.238281 258.375 137.558594 258.375 144.09375 Z M 258.375 244.183594 " fill-opacity="1" fill-rule="nonzero"/></g><path stroke-linecap="butt" transform="matrix(0, 0.748997, -0.748997, 0, 137.085655, 115.493119)" fill="none" stroke-linejoin="miter" d="M -0.00124409 2.002301 L 94.807802 2.002301 " stroke="#fbfcfe" stroke-width="4" stroke-opacity="1" stroke-miterlimit="4"/></svg>