<svg xmlns="http://www.w3.org/2000/svg" xmlns:xlink="http://www.w3.org/1999/xlink" width="500" zoomAndPan="magnify" viewBox="0 0 375 374.999991" height="500" preserveAspectRatio="xMidYMid meet" version="1.0"><rect x="-37.5" width="450" fill="#ffffff" y="-37.499999" height="449.999989" fill-opacity="1"/><rect x="-37.5" width="450" fill="#326ce5" y="-37.499999" height="449.999989" fill-opacity="1"/><path fill="#fbfcfe" d="M 247.851562 125 C 243.402344 125 239.269531 126.535156 235.933594 129.078125 L 235.933594 107.785156 C 235.933594 96.820312 227.035156 87.921875 216.070312 87.921875 C 211.621094 87.921875 207.492188 89.460938 204.152344 92 L 204.152344 86.546875 C 204.152344 75.636719 195.308594 66.738281 184.34375 66.738281 C 173.382812 66.738281 164.535156 75.636719 164.535156 86.546875 L 164.535156 86.8125 C 161.464844 84.429688 157.703125 82.890625 153.574219 82.628906 C 142.375 81.910156 132.652344 91.441406 132.652344 102.542969 L 132.652344 213.660156 L 120.308594 195.917969 C 113.53125 186.386719 101.082031 183.261719 91.285156 188.609375 C 80.746094 194.382812 76.667969 207.304688 82.015625 218.003906 C 93.085938 240.199219 105.640625 265.355469 123.59375 285.746094 C 135.933594 299.730469 154.101562 307.726562 173.488281 307.726562 L 205.476562 307.726562 C 239.800781 307.726562 267.710938 279.816406 267.710938 245.492188 L 267.710938 144.859375 C 267.710938 133.949219 258.8125 125 247.851562 125 Z M 259.765625 245.492188 C 259.765625 275.417969 235.402344 299.78125 205.476562 299.78125 L 173.488281 299.78125 C 156.378906 299.78125 140.382812 292.738281 129.578125 280.503906 C 112.3125 260.855469 100.5 237.285156 89.113281 214.457031 C 85.671875 207.570312 88.320312 199.308594 95.097656 195.601562 C 101.242188 192.210938 109.503906 194.382812 113.847656 200.472656 C 113.847656 200.472656 133.253906 228.527344 133.339844 228.652344 C 135.449219 231.703125 140.597656 230.113281 140.597656 226.375 C 140.597656 226.375 140.597656 102.695312 140.597656 102.542969 C 140.597656 95.722656 146.414062 90.25 153.203125 90.570312 C 159.398438 90.941406 164.484375 96.664062 164.484375 103.441406 C 164.484375 103.441406 164.429688 202.574219 164.429688 203.121094 C 164.425781 208.164062 172.429688 208.269531 172.429688 203.121094 L 172.480469 86.546875 C 172.480469 80.03125 177.777344 74.683594 184.34375 74.683594 C 190.914062 74.683594 196.207031 80.03125 196.207031 86.546875 C 196.207031 86.546875 196.207031 208.011719 196.207031 208.417969 C 196.207031 213.296875 204.152344 213.609375 204.152344 208.417969 L 204.152344 107.785156 C 204.152344 101.21875 209.503906 95.867188 216.070312 95.867188 C 222.691406 95.867188 227.988281 101.21875 227.988281 107.785156 C 227.988281 107.785156 227.988281 213.234375 227.988281 213.714844 C 227.988281 218.773438 235.933594 218.886719 235.933594 213.714844 L 235.933594 144.859375 C 235.933594 138.292969 241.28125 132.945312 247.851562 132.945312 C 254.46875 132.945312 259.765625 138.292969 259.765625 144.859375 Z M 259.765625 245.492188 " fill-opacity="1" fill-rule="nonzero"/><path stroke-linecap="butt" transform="matrix(0, 0.75, -0.75, 0, 137.81815, 116.108452)" fill="none" stroke-linejoin="miter" d="M 0.00123017 2.002325 L 95.188736 2.002325 " stroke="#fbfcfe" stroke-width="4" stroke-opacity="1" stroke-miterlimit="4"/></svg>