<?xml version="1.0" encoding="utf-8"?>
<!-- Generator: Adobe Illustrator 26.2.1, SVG Export Plug-In . SVG Version: 6.00 Build 0)  -->
<svg version="1.1" id="Layer_1" xmlns="http://www.w3.org/2000/svg" xmlns:xlink="http://www.w3.org/1999/xlink" x="0px" y="0px"
	 viewBox="0 0 512 512" style="enable-background:new 0 0 512 512;" xml:space="preserve">
<style type="text/css">
	.st0{fill:#326CE5;}
	.st1{fill:#FFFFFF;}
</style>
<g>
	<g>
		<rect x="0" class="st0" width="512" height="512"/>
	</g>
</g>
<g id="path3055_00000149340437392724808310000011967492754599580845_">
	<path class="st1" d="M255,117.5c-2.5,0.1-5,0.8-7.3,1.8l-99.3,47.4c-5.2,2.5-9,7.2-10.3,12.8l-24.5,106.6c-1.1,5-0.2,10.2,2.6,14.4
		c0.3,0.5,0.7,1,1.1,1.5l68.7,85.4c3.6,4.5,9.1,7.1,14.8,7.1l110.2,0c5.8,0,11.2-2.6,14.8-7.1l68.7-85.4c3.6-4.5,5-10.3,3.7-15.9
		l-24.5-106.6c-1.3-5.6-5.1-10.3-10.3-12.8l-99.3-47.4C261.4,118,258.2,117.3,255,117.5z"/>
	<path class="st1" d="M200.9,399.1c-7.2,0-13.9-3.2-18.4-8.8l-68.7-85.4c-0.5-0.6-0.9-1.2-1.3-1.9c-3.5-5.3-4.6-11.8-3.2-18
		l24.5-106.5c1.6-7,6.3-12.8,12.8-15.9l99.3-47.4c2.8-1.4,5.9-2.1,9-2.3l0,0c4-0.2,7.9,0.6,11.4,2.3l99.3,47.4
		c6.5,3.1,11.2,8.9,12.8,15.9L402.8,285c1.6,7,0,14.2-4.6,19.8l-68.7,85.5c-4.5,5.6-11.2,8.8-18.4,8.8c0,0,0,0,0,0L200.9,399.1
		C200.9,399.1,200.9,399.1,200.9,399.1z M255.3,122c-1.9,0.1-3.8,0.6-5.5,1.4l-99.3,47.4c-4,1.9-6.8,5.4-7.8,9.7l-24.5,106.5
		c-0.9,3.7-0.2,7.7,1.9,10.9c0.3,0.4,0.5,0.8,0.8,1.2l68.7,85.4c2.7,3.4,6.9,5.4,11.3,5.4c0,0,0,0,0,0l110.2,0h0
		c4.4,0,8.5-2,11.3-5.4l68.7-85.5c2.7-3.4,3.8-7.8,2.8-12l-24.5-106.6c-1-4.3-3.8-7.8-7.8-9.7l-99.3-47.4
		C260.1,122.4,257.6,121.9,255.3,122L255.3,122z"/>
</g>
<g>
	<g>
		<g>
			<g>
				<path class="st0" d="M256,200.8c-36.4,0-65.9,29.5-65.9,65.9c0,36.4,29.5,65.9,65.9,65.9c36.4,0,65.9-29.5,65.9-65.9
					C321.9,230.3,292.4,200.8,256,200.8z M256,324.9c-20,0-37.9-10.1-48.5-26h97C293.8,314.9,276,324.9,256,324.9z M203.2,291.2
					c-3.5-7.6-5.4-15.9-5.4-24.5c0-32.2,26-58.2,58.2-58.2c32.2,0,58.2,26,58.2,58.2c0,8.6-1.9,16.9-5.4,24.5H203.2z"/>
			</g>
		</g>
	</g>
	<g>
		<g>
			<g>
				<path class="st0" d="M289.7,233c-1.5-1.5-4-1.5-5.5,0L262,255.3c-1.8-0.9-3.8-1.5-5.9-1.5c-7.1,0-12.9,5.8-12.9,12.9
					s5.8,12.9,12.9,12.9s12.9-5.8,12.9-12.9c0-2.1-0.5-4.2-1.5-5.9l22.3-22.3C291.2,237,291.2,234.5,289.7,233z M256,271.8
					c-2.8,0-5.1-2.3-5.1-5.1s2.3-5.1,5.1-5.1c2.8,0,5.1,2.3,5.1,5.1S258.8,271.8,256,271.8z"/>
			</g>
		</g>
	</g>
	<g>
		<g>
			<g>
				<circle class="st0" cx="256" cy="222.9" r="5.1"/>
			</g>
		</g>
	</g>
	<g>
		<g>
			<g>
				<circle class="st0" cx="225.1" cy="235.7" r="5.1"/>
			</g>
		</g>
	</g>
	<g>
		<g>
			<g>
				<circle class="st0" cx="212.2" cy="266.7" r="5.1"/>
			</g>
		</g>
	</g>
	<g>
		<g>
			<g>
				<circle class="st0" cx="299.8" cy="266.7" r="5.1"/>
			</g>
		</g>
	</g>
</g>
</svg>
