<?xml version="1.0" encoding="utf-8"?>
<!-- Generator: Adobe Illustrator 26.2.1, SVG Export Plug-In . SVG Version: 6.00 Build 0)  -->
<svg version="1.1" id="Layer_1" xmlns="http://www.w3.org/2000/svg" xmlns:xlink="http://www.w3.org/1999/xlink" x="0px" y="0px"
	 viewBox="0 0 256 256" style="enable-background:new 0 0 256 256;" xml:space="preserve">
<style type="text/css">
	.st0{fill:#326CE5;}
	.st1{fill:#FFFFFF;}
</style>
<g>
	<path class="st0" d="M211.7,237.3H47.1c-14.1,0-25.6-11.5-25.6-25.6V47.1C21.5,33,33,21.5,47.1,21.5h164.6
		c14.1,0,25.6,11.5,25.6,25.6v164.6C237.3,225.8,225.8,237.3,211.7,237.3z"/>
</g>
<g>
	<g>
		<g>
			<path class="st1" d="M199.4,129.3c-0.5,8.2-3,15.3-7.8,21.3c-9.5,11.7-27.6,18.6-51.1,19.3c-0.1,0-4.3,0.4-11.3,0.4
				c-3.7,0-8.1-0.1-13.1-0.4l-3.2-0.2c-0.3,0.5-0.8,0.9-1.2,1.3c-1.5,1.3-3.3,1.9-5.2,1.9c-0.4,0-0.9,0-1.3-0.1L84,168.9
				c-2.1-0.3-3.4-1.2-4.3-2.2l-4.6-2.1c-2.4-1.1-9.6-5.3-13.1-16.3c-2.1,2-5.1,5.1-9.1,10.3c-8.7,11.3-1.8,21.2,7.3,24.6l22.4,8.4
				c18.9,7,39.9,6,58-3l7-3.5l9.3-6.3c2.8-1.9,6-3.2,9.4-4.1c22.9-5.9,38.6-17.9,38.6-31.8C204.8,138.1,202.8,133.5,199.4,129.3z"/>
		</g>
	</g>
	<g>
		<g>
			<path class="st1" d="M97.3,77.3c5.5-7.8,12.8-13.3,18.8-18.4c-19,4.5-38.7,15.1-47.2,38.9c-17.4,48.6,3.6,60.1,6.7,61.6
				c-0.5-1.5-0.4-3.1-0.4-4.2C76.5,114.1,87.9,90.6,97.3,77.3z"/>
		</g>
	</g>
	<g>
		<g>
			<path class="st1" d="M195,114c-3.9-20.7-16.2-40.1-33.9-49.1l-2.5,0.6c-0.4,0.1-44.5,11.7-42.7,96.4c0,0.8-0.1,1.6-0.3,2.3
				c14.6,0.9,24.2,0,24.2,0C171.6,163.3,201.9,150.5,195,114z"/>
		</g>
	</g>
	<g>
		<path class="st1" d="M110.9,162c-1.9-88.4,44.9-99.2,44.9-99.2c-5.9-6.5-12.4-8-15.6-8c-24.2,0-57.8,30.6-59.8,101.5
			c-0.1,3.9-0.3,6.5,3.6,7.1l21,3.8C108.1,167.7,110.9,165.2,110.9,162z"/>
	</g>
</g>
<g>
	<path class="st0" d="M226.2,256H201v-8.4h25.2V256z M175.9,256h-25.2v-8.4h25.2V256z M125.5,256h-25.2v-8.4h25.2V256z M75.1,256H50
		v-8.4h25.2V256z M24,255.4c-9.8-1.9-17.9-8.6-21.8-17.8l7.8-3.2c2.8,6.6,8.6,11.4,15.6,12.8L24,255.4z M242.6,251.1l-4.6-7
		c6-4,9.6-10.6,9.6-17.8l8.4,0C255.9,236.4,250.9,245.6,242.6,251.1z M8.4,211.1H0v-25.2h8.4V211.1z M256,201.2h-8.4V176h8.4V201.2z
		 M8.4,160.7H0v-25.2h8.4V160.7z M256,150.8h-8.4v-25.2h8.4V150.8z M8.4,110.3H0V85.2h8.4V110.3z M256,100.4h-8.4V75.3h8.4V100.4z
		 M8.4,60H0V34.8h8.4V60z M256,50.1h-8.4V29.8c0-1.4-0.1-2.7-0.4-4l8.2-1.6c0.4,1.8,0.5,3.7,0.5,5.7V50.1z M14.7,14.6l-5.9-6
		C14.4,3.1,21.8,0,29.8,0h5.1v8.4h-5.1C24.1,8.4,18.7,10.6,14.7,14.6z M234.5,10c-2.6-1.1-5.4-1.7-8.3-1.7h-15V0h15
		c4,0,7.8,0.8,11.5,2.3L234.5,10z M186,8.4h-25.2V0H186V8.4z M135.6,8.4h-25.2V0h25.2V8.4z M85.3,8.4H60.1V0h25.2V8.4z"/>
</g>
</svg>
