<?xml version="1.0" encoding="utf-8"?>
<!-- Generator: Adobe Illustrator 26.2.1, SVG Export Plug-In . SVG Version: 6.00 Build 0)  -->
<svg version="1.1" id="Layer_1" xmlns="http://www.w3.org/2000/svg" xmlns:xlink="http://www.w3.org/1999/xlink" x="0px" y="0px"
	 viewBox="0 0 256 256" style="enable-background:new 0 0 256 256;" xml:space="preserve">
<style type="text/css">
	.st0{fill:#326CE5;}
	.st1{fill:#FFFFFF;}
</style>
<g>
	<path class="st0" d="M211.7,237.3H47.1c-14.1,0-25.6-11.5-25.6-25.6V47.1C21.5,33,33,21.5,47.1,21.5h164.6
		c14.1,0,25.6,11.5,25.6,25.6v164.6C237.3,225.8,225.8,237.3,211.7,237.3z"/>
</g>
<g>
	<path class="st0" d="M226.2,256H201v-8.4h25.2V256z M175.9,256h-25.2v-8.4h25.2V256z M125.5,256h-25.2v-8.4h25.2V256z M75.1,256H50
		v-8.4h25.2V256z M24,255.4c-9.8-1.9-17.9-8.6-21.8-17.9l7.8-3.2c2.8,6.6,8.6,11.4,15.6,12.8L24,255.4z M242.6,251.1l-4.6-7
		c6-4,9.6-10.6,9.6-17.8l8.4,0C256,236.3,250.9,245.6,242.6,251.1z M8.4,211.1H0v-25.2h8.4V211.1z M256,201.2h-8.4V176h8.4V201.2z
		 M8.4,160.7H0v-25.2h8.4V160.7z M256,150.8h-8.4v-25.2h8.4V150.8z M8.4,110.3H0V85.2h8.4V110.3z M256,100.4h-8.4V75.3h8.4V100.4z
		 M8.4,60H0V34.8h8.4V60z M256,50.1h-8.4V29.8c0-1.4-0.1-2.7-0.4-4l8.2-1.6c0.4,1.8,0.5,3.7,0.5,5.6V50.1z M14.7,14.6l-5.9-6
		C14.4,3.1,21.8,0,29.8,0h5.1v8.4h-5.1C24.1,8.4,18.7,10.6,14.7,14.6z M234.5,10c-2.6-1.1-5.4-1.7-8.3-1.7h-15V0h15
		c4,0,7.8,0.8,11.5,2.3L234.5,10z M186,8.4h-25.2V0H186V8.4z M135.6,8.4h-25.2V0h25.2V8.4z M85.3,8.4H60.1V0h25.2V8.4z"/>
</g>
<g>
	<g>
		<g>
			<g>
				<path class="st1" d="M187.3,66.2c-12.9-12.9-33.7-12.9-46.6,0l-27.6,27.6c-13.3,13.3-12.1,34.5,0,46.6c2,2,4.3,3.7,6.6,5l5-5
					c3.3-3.3,2.1-7.2,2.1-9.9c-0.7-0.5-1.4-1.1-2.1-1.7c-6.2-6.2-6.5-16.8,0-23.3c1-1,27-27,27.6-27.6c6.4-6.4,16.9-6.4,23.3,0
					c6.4,6.4,6.4,16.9,0,23.3l-18.2,18.2c0.5,2.9,3.7,9.8,2.1,21.2c0.1-0.1,0.2-0.1,0.3-0.2l27.6-27.6
					C200.2,99.9,200.2,79,187.3,66.2z"/>
			</g>
		</g>
	</g>
	<g>
		<g>
			<g>
				<path class="st1" d="M142.3,111.2c-2-2-4.3-3.7-6.6-5l-5,5c-3.3,3.3-2.1,7.2-2.1,9.9c0.7,0.5,1.4,1.1,2.1,1.7
					c6.2,6.2,6.5,16.8,0,23.3c-1,1-29.1,29.1-29.7,29.7c-6.4,6.4-16.9,6.4-23.3,0s-6.4-16.9,0-23.3L98,132.2
					c-0.5-2.9-3.7-9.8-2.1-21.2c-0.1,0.1-0.2,0.1-0.3,0.2L66,140.9c-12.9,12.9-12.9,33.7,0,46.6c12.9,12.9,33.7,12.9,46.6,0
					l29.7-29.7C155.4,144.8,154.7,123.6,142.3,111.2z"/>
			</g>
		</g>
	</g>
</g>
</svg>
