<?xml version="1.0" encoding="utf-8"?>
<!-- Generator: Adobe Illustrator 26.2.1, SVG Export Plug-In . SVG Version: 6.00 Build 0)  -->
<svg version="1.1" id="Layer_1" xmlns="http://www.w3.org/2000/svg" xmlns:xlink="http://www.w3.org/1999/xlink" x="0px" y="0px"
	 viewBox="0 0 512 512" style="enable-background:new 0 0 512 512;" xml:space="preserve">
<style type="text/css">
	.st0{fill:#326CE5;}
	.st1{fill:#FFFFFF;}
	.st2{fill:none;stroke:#FFFFFF;stroke-linecap:round;stroke-miterlimit:10;}
</style>
<g>
	<g>
		<rect x="0" class="st0" width="512" height="512"/>
	</g>
	<g>
		<g>
			<path class="st1" d="M267.4,439.1c-2.1,0-4-1.4-4.5-3.5c-0.6-2.5,1-4.9,3.4-5.5c8.6-2,16.8-5.9,23.6-11.5c2-1.6,4.8-1.3,6.4,0.7
				c1.6,2,1.3,4.8-0.7,6.4c-8,6.4-17.4,11-27.3,13.2C268.1,439.1,267.7,439.1,267.4,439.1z M239.1,439c-0.3,0-0.6,0-1-0.1
				c-10.4-2.3-19.7-6.5-27.6-12.6c-2-1.5-2.4-4.4-0.8-6.4c1.6-2,4.4-2.4,6.4-0.8c6.8,5.3,14.8,9,23.9,10.9c2.5,0.5,4,3,3.5,5.4
				C243.1,437.5,241.2,439,239.1,439z M195.9,405c-1.7,0-3.4-1-4.1-2.6c-4.2-9.1-6.4-19.3-6.5-29.6c0-2.5,2-4.6,4.5-4.6c0,0,0,0,0,0
				c2.5,0,4.5,2,4.6,4.5c0.1,9,2,17.9,5.7,25.8c1.1,2.3,0.1,5-2.2,6.1C197.2,404.9,196.5,405,195.9,405z M310.5,404.6
				c-0.7,0-1.3-0.1-2-0.5c-2.3-1.1-3.2-3.8-2.1-6.1c3.9-8,5.8-16.6,5.8-25.6c0-2.5,2-4.9,4.6-4.9s4.6,1.7,4.6,4.2v0.7
				c0,10.4-2.3,20.3-6.7,29.6C313.8,403.7,312.2,404.6,310.5,404.6z M195.6,349.6c-0.6,0-1.3-0.1-1.9-0.4c-2.3-1-3.3-3.7-2.3-6
				c4.3-9.6,10.6-17.7,18.6-24.1c2-1.6,4.9-1.3,6.4,0.7c1.6,2,1.2,4.8-0.7,6.4c-6.9,5.5-12.2,12.4-16,20.7
				C199,348.6,197.3,349.6,195.6,349.6z M310.2,348.7c-1.7,0-3.3-0.9-4.1-2.5c-3.9-7.9-9.7-14.9-16.6-20.4c-2-1.6-2.3-4.4-0.8-6.4
				c1.6-2,4.4-2.3,6.4-0.8c8,6.3,14.6,14.4,19.2,23.5c1.1,2.3,0.2,5-2.1,6.1C311.6,348.6,310.9,348.7,310.2,348.7z M238.4,315.2
				c-2.1,0-4-1.4-4.5-3.6c-0.6-2.5,1-4.9,3.4-5.5c4.9-1.1,10.1-1.8,15.5-2c0,0,0,0,0,0c5.1,0,10,0.5,14.7,1.6c2.5,0.5,4,3,3.5,5.4
				c-0.5,2.5-3,4-5.4,3.5c-4.1-0.9-8.4-1.4-12.6-1.4c-4.7,0.2-9.3,0.8-13.7,1.8C239.1,315.1,238.7,315.2,238.4,315.2z"/>
		</g>
		<g>
			<g>
				<path class="st1" d="M278.1,405.6h-50c-6.5,0-11.7-5.2-11.7-11.7v-50c0-6.5,5.2-11.7,11.7-11.7h50c6.5,0,11.7,5.2,11.7,11.7v50
					C289.8,400.4,284.5,405.6,278.1,405.6z"/>
			</g>
			<g>
				<path class="st0" d="M273.3,350.5h-40.4c-2.5,0-4.6-2-4.6-4.6s2-4.6,4.6-4.6h40.4c2.5,0,4.6,2,4.6,4.6S275.8,350.5,273.3,350.5z
					"/>
			</g>
			<g>
				<path class="st0" d="M273.3,365.9h-40.4c-2.5,0-4.6-2-4.6-4.6s2-4.6,4.6-4.6h40.4c2.5,0,4.6,2,4.6,4.6S275.8,365.9,273.3,365.9z
					"/>
			</g>
			<g>
				<path class="st0" d="M273.3,381h-40.4c-2.5,0-4.6-2-4.6-4.6s2-4.6,4.6-4.6h40.4c2.5,0,4.6,2,4.6,4.6S275.8,381,273.3,381z"/>
			</g>
			<g>
				<path class="st0" d="M273.3,396.5h-40.4c-2.5,0-4.6-2-4.6-4.6s2-4.6,4.6-4.6h40.4c2.5,0,4.6,2,4.6,4.6S275.8,396.5,273.3,396.5z
					"/>
			</g>
		</g>
	</g>
	<g>
		<path class="st1" d="M456.4,115.4H77.3c-2.5,0-4.6-2-4.6-4.6c0-2.5,2-4.6,4.6-4.6h379.2c2.5,0,4.6,2,4.6,4.6
			C461,113.3,459,115.4,456.4,115.4z"/>
	</g>
	<g>
		<g>
			<rect x="199.1" y="92.8" class="st0" width="112.2" height="42.1"/>
			<path class="st1" d="M311.3,139.5H199.1c-2.5,0-4.6-2-4.6-4.6V92.8c0-2.5,2-4.6,4.6-4.6h112.2c2.5,0,4.6,2,4.6,4.6v42.1
				C315.8,137.5,313.8,139.5,311.3,139.5z M203.6,130.4h103v-33h-103V130.4z"/>
		</g>
		<g>
			<path class="st1" d="M230.4,281.9c-1,0-2-0.3-2.9-1l-23.8-19.5v-43.6l45.5-41.4v-41.8c0-2.5,2-4.6,4.6-4.6c2.5,0,4.6,2,4.6,4.6
				v45.9l-45.5,41.4V257l20.5,16.7c2,1.6,2.2,4.5,0.6,6.4C233,281.3,231.7,281.9,230.4,281.9z"/>
		</g>
		<g>
			<path class="st1" d="M276.3,281.9c-1.3,0-2.6-0.6-3.5-1.7c-1.6-1.9-1.3-4.8,0.6-6.4l21.4-17.6v-34.2l-44.2-40.2
				c-1.9-1.7-2-4.6-0.3-6.5c1.7-1.9,4.6-2,6.4-0.3l47.2,42.9v42.6l-24.8,20.3C278.4,281.5,277.3,281.9,276.3,281.9z"/>
		</g>
		<g>
			<path class="st2" d="M227.6,211.9"/>
		</g>
		<g>
			<path class="st1" d="M279.1,207.5H227c-2.5,0-4.6-2-4.6-4.6s2-4.6,4.6-4.6h52.1c2.5,0,4.6,2,4.6,4.6S281.7,207.5,279.1,207.5z"/>
		</g>
		<g>
			<path class="st1" d="M253.7,251.8c-2.5,0-4.6-2-4.6-4.6v-43.4c0-2.5,2-4.6,4.6-4.6c2.5,0,4.6,2,4.6,4.6v43.4
				C258.3,249.8,256.3,251.8,253.7,251.8z"/>
		</g>
	</g>
</g>
</svg>
