<?xml version="1.0" encoding="utf-8"?>
<!-- Generator: Adobe Illustrator 26.2.1, SVG Export Plug-In . SVG Version: 6.00 Build 0)  -->
<svg version="1.1" id="Layer_1" xmlns="http://www.w3.org/2000/svg" xmlns:xlink="http://www.w3.org/1999/xlink" x="0px" y="0px"
	 viewBox="0 0 512 512" style="enable-background:new 0 0 512 512;" xml:space="preserve">
<style type="text/css">
	.st0{fill:#326CE5;}
	.st1{fill:none;stroke:#FFFFFF;stroke-width:2;stroke-linecap:round;stroke-miterlimit:10;}
	.st2{fill:#FFFFFF;}
</style>
<g>
	<g>
		<g>
			<g>
				<rect x="0.6" y="0.8" class="st0" width="511.4" height="511.4"/>
			</g>
		</g>
	</g>
	<g>
		<g>
			<path class="st1" d="M131.7,254"/>
		</g>
	</g>
	<g>
		<g>
			<path class="st1" d="M380.9,254"/>
		</g>
	</g>
	<g>
		<g>
			<path class="st2" d="M256.3,221.1c-62.7,0-129.3-16.3-129.3-46.5s66.6-46.5,129.3-46.5s129.4,16.3,129.4,46.5
				S319,221.1,256.3,221.1z M256.3,137.6c-70.6,0-119.8,19.5-119.8,37s49.2,37,119.8,37c70.6,0,119.8-19.5,119.8-37
				S326.9,137.6,256.3,137.6z"/>
		</g>
	</g>
	<g>
		<g>
			<path class="st2" d="M380.9,174.6c0,23.1-55.8,41.8-124.6,41.8s-124.6-18.7-124.6-41.8v150c0,23.1,55.8,41.8,124.6,41.8
				s124.6-18.7,124.6-41.8V174.6z"/>
		</g>
		<g>
			<path class="st2" d="M256.3,371.1c-62.7,0-129.3-16.3-129.3-46.5v-150h9.5c0,17.5,49.2,37,119.8,37c70.6,0,119.8-19.5,119.8-37
				h9.5v150C385.7,354.8,319,371.1,256.3,371.1z M136.5,193.1v131.5c0,17.5,49.2,37,119.8,37c70.6,0,119.8-19.5,119.8-37V193.1
				c-20.6,18.4-71.4,28.1-119.8,28.1C207.9,221.1,157.1,211.4,136.5,193.1z"/>
		</g>
	</g>
	<g>
		<g>
			<path class="st0" d="M183,335.4c-0.4,0-0.9-0.1-1.3-0.2c-9.2-2.6-17.4-5.6-24.2-9c-2.4-1.2-3.3-4-2.2-6.4c1.2-2.4,4-3.3,6.4-2.2
				c6.3,3.1,13.9,5.9,22.5,8.3c2.5,0.7,4,3.3,3.3,5.9C187.1,334,185.1,335.4,183,335.4z"/>
		</g>
	</g>
	<g>
		<g>
			<path class="st0" d="M256.3,343.1c-15.9,0-31.4-1-46.1-2.9c-2.6-0.3-4.4-2.7-4.1-5.3c0.3-2.6,2.8-4.5,5.4-4.1
				c14.3,1.9,29.4,2.8,44.8,2.8c35.3,0,68.8-5.1,92-13.9c2.4-0.9,5.2,0.3,6.2,2.8c0.9,2.5-0.3,5.2-2.7,6.2
				C327.5,337.8,292.7,343.1,256.3,343.1z"/>
		</g>
	</g>
	<g>
		<g>
			<path class="st0" d="M183,246.6c-0.4,0-0.9-0.1-1.3-0.2c-9.3-2.6-17.4-5.6-24.2-9c-2.4-1.2-3.3-4-2.2-6.4c1.2-2.4,4-3.3,6.4-2.2
				c6.3,3.1,13.9,5.9,22.5,8.3c2.5,0.7,4,3.3,3.3,5.9C187.1,245.2,185.1,246.6,183,246.6z"/>
		</g>
	</g>
	<g>
		<g>
			<path class="st0" d="M256.3,254.4c-15.9,0-31.4-1-46.1-2.9c-2.6-0.3-4.4-2.7-4.1-5.3c0.3-2.6,2.8-4.4,5.4-4.1
				c14.3,1.9,29.3,2.8,44.8,2.8c35.3,0,68.8-5.1,92-13.9c2.4-0.9,5.2,0.3,6.2,2.8c0.9,2.5-0.3,5.2-2.7,6.2
				C327.5,249.1,292.7,254.4,256.3,254.4z"/>
		</g>
	</g>
	<g>
		<g>
			<path class="st0" d="M230.7,284.5c-0.1,0-0.2,0-0.3,0c-6.9-0.5-13.6-1.2-20.1-2c-2.6-0.3-4.4-2.7-4.1-5.3
				c0.3-2.6,2.8-4.4,5.4-4.1c6.3,0.8,12.8,1.5,19.5,2c2.6,0.2,4.6,2.5,4.4,5.1C235.3,282.6,233.2,284.5,230.7,284.5z"/>
		</g>
	</g>
	<g>
		<g>
			<path class="st0" d="M256.3,285.4c-2.6,0-4.8-2.1-4.8-4.8s2.1-4.8,4.8-4.8c35.3,0,68.8-5.1,92-13.9c2.4-0.9,5.2,0.3,6.2,2.8
				c0.9,2.5-0.3,5.2-2.7,6.2C327.5,280.1,292.7,285.4,256.3,285.4z"/>
		</g>
	</g>
	<g>
		<g>
			<path class="st0" d="M230.7,312.1c-0.1,0-0.2,0-0.3,0c-6.9-0.5-13.6-1.2-20.1-2c-2.6-0.3-4.4-2.7-4.1-5.3
				c0.3-2.6,2.8-4.5,5.4-4.1c6.3,0.8,12.8,1.5,19.5,2c2.6,0.2,4.6,2.5,4.4,5.1C235.3,310.1,233.2,312.1,230.7,312.1z"/>
		</g>
	</g>
	<g>
		<g>
			<path class="st0" d="M256.3,313c-2.6,0-4.8-2.1-4.8-4.8s2.1-4.8,4.8-4.8c35.3,0,68.8-5.1,92-13.9c2.4-0.9,5.2,0.3,6.2,2.8
				c0.9,2.5-0.3,5.2-2.7,6.2C327.5,307.7,292.7,313,256.3,313z"/>
		</g>
	</g>
	<g>
		<g>
			<g>
				<g>
					<path class="st2" d="M370.5,420.2c-29.3,0-53.2-23.9-53.2-53.2v-40.8c0-9.1,7.4-16.4,16.4-16.4h1.1v-9.8
						c0-23.9,19.5-43.4,43.4-43.4c23.9,0,43.4,19.5,43.4,43.4v9.8h1.1c9.1,0,16.4,7.4,16.4,16.4V367c0,29.3-23.9,53.2-53.2,53.2
						H370.5z M399.4,309.7v-9.8c0-11.7-9.5-21.2-21.2-21.2c-11.7,0-21.2,9.5-21.2,21.2v9.8H399.4z"/>
				</g>
			</g>
			<g>
				<g>
					<path class="st0" d="M378.2,261.3c21.3,0,38.7,17.3,38.7,38.7v14.5h5.8c6.4,0,11.7,5.2,11.7,11.7V367
						c0,26.8-21.7,48.4-48.4,48.4h-15.4c-26.8,0-48.4-21.7-48.4-48.4v-40.8c0-6.4,5.2-11.7,11.7-11.7h5.8v-14.5
						C339.6,278.6,356.9,261.3,378.2,261.3 M352.2,314.5h52v-14.5c0-14.3-11.7-26-26-26c-14.3,0-26,11.7-26,26V314.5 M378.2,251.8
						c-26.6,0-48.2,21.6-48.2,48.2v5.3c-9.9,1.8-17.5,10.5-17.5,20.9V367c0,32,26,58,58,58h15.4c32,0,58-26,58-58v-40.8
						c0-10.4-7.6-19.1-17.5-20.9v-5.3C426.4,273.4,404.8,251.8,378.2,251.8L378.2,251.8z M361.7,305v-5c0-9.1,7.4-16.5,16.5-16.5
						c9.1,0,16.5,7.4,16.5,16.5v5H361.7L361.7,305z"/>
				</g>
			</g>
		</g>
		<g>
			<g>
				<path class="st0" d="M389.4,356c0-6.2-5-11.2-11.2-11.2c-6.2,0-11.2,5-11.2,11.2c0,3.8,2,6.9,4.8,9v11.9c0,3.5,2.8,6.3,6.3,6.3
					s6.3-2.8,6.3-6.3V365C387.4,362.9,389.4,359.8,389.4,356z"/>
			</g>
		</g>
	</g>
</g>
</svg>
