<?xml version="1.0" encoding="utf-8"?>
<!-- Generator: Adobe Illustrator 26.2.1, SVG Export Plug-In . SVG Version: 6.00 Build 0)  -->
<svg version="1.1" id="Layer_1" xmlns="http://www.w3.org/2000/svg" xmlns:xlink="http://www.w3.org/1999/xlink" x="0px" y="0px"
	 viewBox="0 0 256 256" style="enable-background:new 0 0 256 256;" xml:space="preserve">
<style type="text/css">
	.st0{fill:#FFFFFF;}
	.st1{fill:#326CE5;}
</style>
<g>
	<g>
		<path class="st0" d="M150.9,154c-0.8,0-1.6-0.3-2.3-0.9c-2.7-2.7-9.1-9.6-9.1-14.3c0-1.8,1.4-3.2,3.2-3.2c0,0,0,0,0,0
			c1.8,0,3.2,1.5,3.2,3.2c0.1,1.4,3.5,6.1,7.2,9.7c1.2,1.2,1.2,3.3,0,4.5C152.5,153.7,151.7,154,150.9,154z"/>
	</g>
	<g>
		<circle class="st1" cx="128" cy="128" r="128"/>
	</g>
	<g>
		<path class="st0" d="M215.7,180.9h-19.2c-1.8,0-3.2-1.4-3.2-3.2s1.4-3.2,3.2-3.2h19.2c1.8,0,3.2,1.4,3.2,3.2
			S217.5,180.9,215.7,180.9z M177.3,180.9h-19.2c-1.8,0-3.2-1.4-3.2-3.2s1.4-3.2,3.2-3.2h19.2c1.8,0,3.2,1.4,3.2,3.2
			S179.1,180.9,177.3,180.9z M139,180.9h-19.2c-1.8,0-3.2-1.4-3.2-3.2s1.4-3.2,3.2-3.2H139c1.8,0,3.2,1.4,3.2,3.2
			S140.7,180.9,139,180.9z M100.6,180.9H81.4c-1.8,0-3.2-1.4-3.2-3.2s1.4-3.2,3.2-3.2h19.2c1.8,0,3.2,1.4,3.2,3.2
			S102.4,180.9,100.6,180.9z M62.3,180.9H47.8c-1.8,0-3.2-1.4-3.2-3.2V173c0-1.8,1.4-3.2,3.2-3.2s3.2,1.4,3.2,3.2v1.5h11.2
			c1.8,0,3.2,1.4,3.2,3.2S64,180.9,62.3,180.9z M215.7,173.9c-1.8,0-3.2-1.4-3.2-3.2v-19.2c0-1.8,1.4-3.2,3.2-3.2
			c1.8,0,3.2,1.4,3.2,3.2v19.2C218.9,172.5,217.5,173.9,215.7,173.9z M47.8,157c-1.8,0-3.2-1.4-3.2-3.2v-19.2c0-1.8,1.4-3.2,3.2-3.2
			s3.2,1.4,3.2,3.2v19.2C51,155.6,49.6,157,47.8,157z M215.7,135.6c-1.8,0-3.2-1.4-3.2-3.2v-19.2c0-1.8,1.4-3.2,3.2-3.2
			c1.8,0,3.2,1.4,3.2,3.2v19.2C218.9,134.1,217.5,135.6,215.7,135.6z M47.8,118.6c-1.8,0-3.2-1.4-3.2-3.2V96.3
			c0-1.8,1.4-3.2,3.2-3.2s3.2,1.4,3.2,3.2v19.2C51,117.2,49.6,118.6,47.8,118.6z M215.7,97.2c-1.8,0-3.2-1.4-3.2-3.2V74.8
			c0-1.8,1.4-3.2,3.2-3.2c1.8,0,3.2,1.4,3.2,3.2V94C218.9,95.8,217.5,97.2,215.7,97.2z M47.8,80.3c-1.8,0-3.2-1.4-3.2-3.2V64
			c0-1.8,1.4-3.2,3.2-3.2h6.1c1.8,0,3.2,1.4,3.2,3.2c0,1.8-1.4,3.2-3.2,3.2H51v9.9C51,78.8,49.6,80.3,47.8,80.3z M207.3,67.2h-19.2
			c-1.8,0-3.2-1.4-3.2-3.2c0-1.8,1.4-3.2,3.2-3.2h19.2c1.8,0,3.2,1.4,3.2,3.2C210.5,65.8,209.1,67.2,207.3,67.2z M169,67.2h-19.2
			c-1.8,0-3.2-1.4-3.2-3.2c0-1.8,1.4-3.2,3.2-3.2H169c1.8,0,3.2,1.4,3.2,3.2C172.2,65.8,170.8,67.2,169,67.2z M130.6,67.2h-19.2
			c-1.8,0-3.2-1.4-3.2-3.2c0-1.8,1.4-3.2,3.2-3.2h19.2c1.8,0,3.2,1.4,3.2,3.2C133.8,65.8,132.4,67.2,130.6,67.2z M92.3,67.2H73.1
			c-1.8,0-3.2-1.4-3.2-3.2c0-1.8,1.4-3.2,3.2-3.2h19.2c1.8,0,3.2,1.4,3.2,3.2C95.5,65.8,94,67.2,92.3,67.2z"/>
	</g>
	<g>
		<g>
			<path class="st1" d="M75.3,208.1l-7.4-7.4c-2.5-2.5-2.5-6.4,0-8.9l98.3-98.3c2.5-2.5,6.4-2.5,8.9,0l7.4,7.4
				c2.5,2.5,2.5,6.4,0,8.9l-98.3,98.3C81.8,210.6,77.8,210.6,75.3,208.1z"/>
			<path class="st0" d="M79.8,213.2c-2.4,0-4.9-0.9-6.7-2.8l-7.4-7.4c-3.7-3.7-3.7-9.7,0-13.4L164,91.3c3.7-3.7,9.7-3.7,13.4,0
				l7.4,7.4c1.8,1.8,2.8,4.2,2.8,6.7c0,2.5-1,4.9-2.8,6.7l-98.3,98.3C84.6,212.3,82.2,213.2,79.8,213.2z M170.7,94.9
				c-0.8,0-1.6,0.3-2.2,0.9l-98.3,98.3c-1.2,1.2-1.2,3.2,0,4.4l7.4,7.4l0,0c1.2,1.2,3.2,1.2,4.4,0l98.3-98.3
				c0.6-0.6,0.9-1.4,0.9-2.2c0-0.8-0.3-1.6-0.9-2.2l-7.4-7.4C172.3,95.2,171.5,94.9,170.7,94.9z"/>
		</g>
		<g>
			<line class="st1" x1="148.1" y1="111.7" x2="164.4" y2="128"/>
			<path class="st0" d="M164.4,131.2c-0.8,0-1.6-0.3-2.3-0.9L145.8,114c-1.2-1.2-1.2-3.3,0-4.5c1.2-1.2,3.3-1.2,4.5,0l16.3,16.3
				c1.2,1.2,1.2,3.3,0,4.5C166,130.9,165.2,131.2,164.4,131.2z"/>
		</g>
	</g>
	<g>
		<g>
			<path class="st0" d="M120.3,93.7H99.3c-1.8,0-3.2-1.4-3.2-3.2c0-1.8,1.4-3.2,3.2-3.2h21.1c1.8,0,3.2,1.4,3.2,3.2
				C123.5,92.2,122.1,93.7,120.3,93.7z"/>
		</g>
		<g>
			<path class="st0" d="M109.8,105.4c-1.8,0-3.2-1.4-3.2-3.2V78.1c0-1.8,1.4-3.2,3.2-3.2c1.8,0,3.2,1.4,3.2,3.2v24.1
				C113,104,111.6,105.4,109.8,105.4z"/>
		</g>
	</g>
	<g>
		<g>
			<path class="st0" d="M189.8,154.3h-21.1c-1.8,0-3.2-1.4-3.2-3.2c0-1.8,1.4-3.2,3.2-3.2h21.1c1.8,0,3.2,1.4,3.2,3.2
				C193,152.9,191.6,154.3,189.8,154.3z"/>
		</g>
		<g>
			<path class="st0" d="M179.3,166.1c-1.8,0-3.2-1.4-3.2-3.2v-24.1c0-1.8,1.4-3.2,3.2-3.2c1.8,0,3.2,1.4,3.2,3.2v24.1
				C182.5,164.6,181.1,166.1,179.3,166.1z"/>
		</g>
	</g>
	<g>
		<g>
			<path class="st0" d="M87.8,136.4H66.8c-1.8,0-3.2-1.4-3.2-3.2s1.4-3.2,3.2-3.2h21.1c1.8,0,3.2,1.4,3.2,3.2S89.6,136.4,87.8,136.4
				z"/>
		</g>
		<g>
			<path class="st0" d="M77.3,148.1c-1.8,0-3.2-1.4-3.2-3.2v-24.1c0-1.8,1.4-3.2,3.2-3.2c1.8,0,3.2,1.4,3.2,3.2v24.1
				C80.5,146.7,79.1,148.1,77.3,148.1z"/>
		</g>
	</g>
</g>
</svg>
