<?xml version="1.0" encoding="utf-8"?>
<!-- Generator: Adobe Illustrator 26.2.1, SVG Export Plug-In . SVG Version: 6.00 Build 0)  -->
<svg version="1.1" id="Layer_1" xmlns="http://www.w3.org/2000/svg" xmlns:xlink="http://www.w3.org/1999/xlink" x="0px" y="0px"
	 viewBox="0 0 256 256" style="enable-background:new 0 0 256 256;" xml:space="preserve">
<style type="text/css">
	.st0{fill:#326CE5;}
	.st1{fill:#FFFFFF;}
</style>
<g>
	<g>
		<g>
			<g>
				<path class="st0" d="M230.6,30.4L130.2,0.3c-1.4-0.4-2.9-0.4-4.3,0L25.4,30.4c-3.2,1-5.3,3.9-5.3,7.2v110.5
					c0,14.4,5.8,29.1,17.3,43.7c8.8,11.2,20.9,22.4,36,33.4c25.4,18.4,50.5,29.7,51.5,30.2c1,0.4,2,0.7,3.1,0.7c1,0,2.1-0.2,3.1-0.7
					c1.1-0.5,26.1-11.8,51.5-30.2c15.1-11,27.3-22.2,36-33.4c11.5-14.6,17.3-29.3,17.3-43.7V37.6C235.9,34.3,233.7,31.4,230.6,30.4z
					"/>
			</g>
		</g>
	</g>
	<g>
		<g>
			<g>
				<g>
					<path class="st1" d="M128,128c22.7,0,41.2-18.5,41.2-41.2S150.7,45.5,128,45.5S86.8,64.1,86.8,86.8S105.3,128,128,128z"/>
				</g>
				<g>
					<path class="st1" d="M198.8,155.4c-1.1-2.7-2.5-5.2-4.1-7.6c-8.3-12.2-21.1-20.3-35.5-22.3c-1.8-0.2-3.8,0.2-5.2,1.3
						c-7.6,5.6-16.6,8.5-25.9,8.5s-18.4-2.9-25.9-8.5c-1.4-1.1-3.4-1.6-5.2-1.3c-14.4,2-27.4,10.1-35.5,22.3c-1.6,2.3-3.1,5-4.1,7.6
						c-0.5,1.1-0.4,2.3,0.2,3.4c1.4,2.5,3.2,5,4.9,7.2c2.5,3.4,5.2,6.5,8.3,9.4c2.5,2.5,5.4,4.9,8.3,7.2
						c14.2,10.6,31.3,16.2,49,16.2s34.7-5.6,49-16.2c2.9-2.2,5.8-4.7,8.3-7.2c2.9-2.9,5.8-5.9,8.3-9.4c1.8-2.3,3.4-4.7,4.9-7.2
						C199.1,157.8,199.3,156.5,198.8,155.4z"/>
				</g>
			</g>
		</g>
	</g>
</g>
</svg>
