<?xml version="1.0" encoding="utf-8"?>
<!-- Generator: Adobe Illustrator 26.2.1, SVG Export Plug-In . SVG Version: 6.00 Build 0)  -->
<svg version="1.1" id="Layer_1" xmlns="http://www.w3.org/2000/svg" xmlns:xlink="http://www.w3.org/1999/xlink" x="0px" y="0px"
	 viewBox="0 0 512 512" style="enable-background:new 0 0 512 512;" xml:space="preserve">
<style type="text/css">
	.st0{fill:#326CE5;}
	.st1{fill:#FFFFFF;}
</style>
<g>
	<g>
		<g>
			<g>
				<rect x="0.3" class="st0" width="511.7" height="511.7"/>
			</g>
		</g>
	</g>
	<g>
		<g>
			<path class="st1" d="M311,337.2c-0.1,0-0.4,0-0.5,0c-9.9-0.4-19.2-2.2-27.7-5.5c-2.4-0.9-3.5-3.6-2.6-5.9
				c0.9-2.4,3.6-3.5,5.9-2.6c7.5,2.9,15.9,4.6,24.9,4.9c2.5,0.1,4.5,2.2,4.5,4.6C315.4,335.3,313.4,337.2,311,337.2z M337.4,331.9
				c-1.8,0-3.5-1.1-4.2-2.8c-1-2.3,0.1-5,2.5-6c7.9-3.3,14.9-8,20.9-14.1c1.8-1.8,4.7-1.8,6.5,0c1.8,1.8,1.8,4.7,0,6.5
				c-6.9,6.9-14.9,12.3-23.9,16C338.6,331.8,338,331.9,337.4,331.9z M261.8,317.4c-1.2,0-2.3-0.4-3.2-1.3
				c-6.8-6.8-12.2-14.9-15.8-24.1c-0.9-2.3,0.2-5,2.6-5.9c2.3-0.9,5,0.2,5.9,2.6c3.2,8,7.8,15.1,13.8,21c1.8,1.8,1.8,4.7,0,6.5
				C264.1,316.9,262.9,317.4,261.8,317.4z M374.9,294.4c-0.6,0-1.2-0.1-1.7-0.3c-2.3-1-3.4-3.6-2.5-6c3.2-7.8,4.9-16.2,4.9-24.7
				c0-2.5,2-4.9,4.6-4.9c2.5,0,4.6,1.7,4.6,4.2h-4.6l4.6,0.5c0,10-1.9,19.5-5.6,28.4C378.4,293.4,376.7,294.4,374.9,294.4z
				 M241.9,268.1c-2.5,0-4.6-1.9-4.6-4.4v-0.3c0-9.7,1.7-19.1,5.1-27.9c0.9-2.3,3.5-3.5,5.9-2.6c2.3,0.9,3.5,3.5,2.6,5.9
				c-3,7.8-4.5,16.1-4.5,24.6C246.4,265.9,244.4,268.1,241.9,268.1z M374.6,240.8c-1.8,0-3.5-1-4.2-2.8c-3.3-7.8-8.1-14.8-14.2-20.8
				c-1.8-1.8-1.8-4.7-0.1-6.5c1.8-1.8,4.7-1.8,6.5-0.1c7,6.8,12.4,14.8,16.2,23.8c1,2.3-0.1,5-2.4,6
				C375.8,240.7,375.2,240.8,374.6,240.8z M261.3,218.9c-1.2,0-2.3-0.4-3.2-1.3c-1.8-1.8-1.8-4.7-0.1-6.5
				c6.8-6.9,14.9-12.2,24.1-15.9c2.3-0.9,5,0.2,5.9,2.5c0.9,2.3-0.2,5-2.5,5.9c-8,3.2-15.1,7.9-21,13.8
				C263.6,218.5,262.5,218.9,261.3,218.9z M336.8,203.7c-0.6,0-1.2-0.1-1.7-0.3c-7.7-3.1-15.9-4.7-24.3-4.7c-2.5,0-4.8-2-4.8-4.4
				c-0.1-2.5,1.6-4.5,4.1-4.7c0,0,0.6,0,0.6,0h0c9.7,0,19.1,1.8,27.9,5.4c2.3,0.9,3.5,3.6,2.5,5.9
				C340.3,202.6,338.6,203.7,336.8,203.7z"/>
		</g>
	</g>
	<g>
		<g>
			<g>
				<path class="st1" d="M335.8,300h-50c-6.5,0-11.7-5.2-11.7-11.7v-50c0-6.5,5.2-11.7,11.7-11.7h50c6.5,0,11.7,5.2,11.7,11.7v50
					C347.5,294.8,342.2,300,335.8,300z"/>
			</g>
		</g>
		<g>
			<g>
				<path class="st0" d="M331,244.9h-40.4c-2.5,0-4.6-2-4.6-4.6s2-4.6,4.6-4.6H331c2.5,0,4.6,2,4.6,4.6S333.5,244.9,331,244.9z"/>
			</g>
		</g>
		<g>
			<g>
				<path class="st0" d="M331,260.4h-40.4c-2.5,0-4.6-2-4.6-4.6c0-2.5,2-4.6,4.6-4.6H331c2.5,0,4.6,2,4.6,4.6
					C335.5,258.4,333.5,260.4,331,260.4z"/>
			</g>
		</g>
		<g>
			<g>
				<path class="st0" d="M331,275.4h-40.4c-2.5,0-4.6-2-4.6-4.6s2-4.6,4.6-4.6H331c2.5,0,4.6,2,4.6,4.6S333.5,275.4,331,275.4z"/>
			</g>
		</g>
		<g>
			<g>
				<path class="st0" d="M331,290.9h-40.4c-2.5,0-4.6-2-4.6-4.6c0-2.5,2-4.6,4.6-4.6H331c2.5,0,4.6,2,4.6,4.6
					C335.5,288.9,333.5,290.9,331,290.9z"/>
			</g>
		</g>
	</g>
	<g>
		<g>
			<path class="st1" d="M119.6,409.8c-2.5,0-4.6-2-4.6-4.6v-299c0-2.5,2-4.6,4.6-4.6c2.5,0,4.6,2,4.6,4.6v299
				C124.2,407.8,122.1,409.8,119.6,409.8z"/>
		</g>
	</g>
	<g>
		<g>
			<path class="st1" d="M119.6,86.8c-2.5,0-4.6-2-4.6-4.6v-10c0-2.5,2-4.6,4.6-4.6c2.5,0,4.6,2,4.6,4.6v10
				C124.2,84.7,122.1,86.8,119.6,86.8z"/>
		</g>
	</g>
	<g>
		<g>
			<path class="st1" d="M119.6,439.5c-2.5,0-4.6-2-4.6-4.6v-10c0-2.5,2-4.6,4.6-4.6c2.5,0,4.6,2,4.6,4.6v10
				C124.2,437.4,122.1,439.5,119.6,439.5z"/>
		</g>
	</g>
	<g>
		<g>
			<circle class="st1" cx="119.9" cy="257.2" r="23"/>
		</g>
	</g>
	<g>
		<g>
			<g>
				<rect x="119.9" y="252.7" class="st1" width="80.6" height="9.1"/>
			</g>
		</g>
		<g>
			<g>
				<g>
					<polygon class="st1" points="196.5,270.9 220.2,257.2 196.5,243.6 					"/>
				</g>
			</g>
		</g>
	</g>
</g>
</svg>
