<?xml version="1.0" encoding="utf-8"?>
<!-- Generator: Adobe Illustrator 26.2.1, SVG Export Plug-In . SVG Version: 6.00 Build 0)  -->
<svg version="1.1" id="Layer_1" xmlns="http://www.w3.org/2000/svg" xmlns:xlink="http://www.w3.org/1999/xlink" x="0px" y="0px"
	 viewBox="0 0 256 256" style="enable-background:new 0 0 256 256;" xml:space="preserve">
<style type="text/css">
	.st0{fill:#326CE5;}
	.st1{fill:#FFFFFF;}
</style>
<g>
	<g>
		<g>
			<g>
				<g>
					<line class="st0" x1="97.6" y1="191.2" x2="95.1" y2="195.8"/>
				</g>
				<g>
					<path class="st1" d="M95.1,199c-0.5,0-1-0.1-1.5-0.4c-1.6-0.8-2.1-2.8-1.3-4.3l2.5-4.6c0.8-1.6,2.8-2.1,4.3-1.3
						c1.6,0.8,2.1,2.8,1.3,4.3l-2.5,4.6C97.3,198.4,96.2,199,95.1,199z"/>
				</g>
			</g>
		</g>
	</g>
	<g>
		<g>
			<circle class="st0" cx="128" cy="128" r="128"/>
		</g>
	</g>
	<g>
		<g>
			<g>
				<line class="st0" x1="131.6" y1="155.7" x2="113.4" y2="189.1"/>
			</g>
			<g>
				<path class="st1" d="M113.4,192.3c-0.5,0-1-0.1-1.5-0.4c-1.6-0.8-2.1-2.8-1.3-4.3l18.2-33.4c0.8-1.6,2.8-2.1,4.3-1.3
					c1.6,0.8,2.1,2.8,1.3,4.3l-18.2,33.4C115.6,191.7,114.5,192.3,113.4,192.3z"/>
			</g>
		</g>
		<g>
			<g>
				<g>
					<path class="st0" d="M136.7,158.5L136.7,158.5c-9.2-5-12.6-16.5-7.6-25.7l30.7-56.6c5-9.2,16.5-12.6,25.7-7.6l0,0
						c9.2,5,12.6,16.5,7.6,25.7l-30.7,56.6C157.4,160,145.9,163.4,136.7,158.5z"/>
				</g>
				<g>
					<path class="st1" d="M145.7,164c-3.6,0-7.2-0.9-10.5-2.7c-10.7-5.8-14.7-19.3-8.9-30L157,74.7c2.8-5.2,7.5-9,13.2-10.7
						c5.7-1.7,11.7-1,16.9,1.8c10.7,5.8,14.7,19.3,8.9,30l-30.7,56.6c-2.8,5.2-7.5,9-13.2,10.7C150,163.6,147.8,164,145.7,164z
						 M176.5,69.5c-1.5,0-3,0.2-4.5,0.7c-4,1.2-7.4,3.9-9.4,7.6l-30.7,56.6c-4.1,7.6-1.3,17.2,6.3,21.4l0,0c3.7,2,8,2.5,12,1.3
						c4-1.2,7.4-3.9,9.4-7.6l30.7-56.6c4.1-7.6,1.3-17.2-6.3-21.4C181.7,70.1,179.1,69.5,176.5,69.5z"/>
				</g>
			</g>
			<g>
				<g>
					<line class="st0" x1="108.2" y1="198.7" x2="105.6" y2="203.4"/>
				</g>
				<g>
					<path class="st1" d="M105.6,206.6c-0.5,0-1-0.1-1.5-0.4c-1.6-0.8-2.1-2.8-1.3-4.3l2.5-4.6c0.8-1.6,2.8-2.1,4.3-1.3
						c1.6,0.8,2.1,2.8,1.3,4.3l-2.5,4.6C107.9,206,106.8,206.6,105.6,206.6z"/>
				</g>
			</g>
			<g>
				<g>
					<line class="st0" x1="141.9" y1="161.3" x2="116" y2="209"/>
				</g>
				<g>
					<path class="st1" d="M116,212.2c-0.5,0-1-0.1-1.5-0.4c-1.6-0.8-2.1-2.8-1.3-4.3l25.9-47.7c0.8-1.6,2.8-2.1,4.3-1.3
						c1.6,0.8,2.1,2.8,1.3,4.3l-25.9,47.7C118.2,211.6,117.1,212.2,116,212.2z"/>
				</g>
			</g>
			<g>
				<g>
					<line class="st0" x1="154" y1="86.9" x2="187.3" y2="105"/>
				</g>
				<g>
					<path class="st1" d="M187.3,108.2c-0.5,0-1-0.1-1.5-0.4l-33.3-18.1c-1.6-0.8-2.1-2.8-1.3-4.3s2.8-2.1,4.3-1.3l33.3,18.1
						c1.6,0.8,2.1,2.8,1.3,4.3C189.6,107.6,188.5,108.2,187.3,108.2z"/>
				</g>
			</g>
			<g>
				<g>
					<line class="st0" x1="148.6" y1="96.8" x2="181.9" y2="114.9"/>
				</g>
				<g>
					<path class="st1" d="M181.9,118.1c-0.5,0-1-0.1-1.5-0.4l-33.3-18.1c-1.6-0.8-2.1-2.8-1.3-4.3c0.8-1.5,2.8-2.1,4.3-1.3
						l33.3,18.1c1.6,0.8,2.1,2.8,1.3,4.3C184.2,117.5,183.1,118.1,181.9,118.1z"/>
				</g>
			</g>
		</g>
	</g>
	<g>
		<g>
			<circle class="st1" cx="101.7" cy="98.3" r="46.9"/>
		</g>
		<g>
			<path class="st0" d="M101.7,148.5c-27.6,0-50.1-22.5-50.1-50.1c0-27.7,22.5-50.1,50.1-50.1s50.1,22.5,50.1,50.1
				C151.8,126,129.3,148.5,101.7,148.5z M101.7,54.6c-24.1,0-43.8,19.6-43.8,43.8c0,24.1,19.6,43.8,43.8,43.8s43.8-19.6,43.8-43.8
				C145.4,74.2,125.8,54.6,101.7,54.6z"/>
		</g>
	</g>
	<g>
		<g>
			<path class="st0" d="M102.3,129.3c-16.7,0-30.3-13.6-30.3-30.3c0-12.4,7.8-23.8,19.3-28.3c1.6-0.6,3.5,0.2,4.1,1.8
				c0.6,1.6-0.2,3.5-1.8,4.1C84.5,80.2,78.3,89.2,78.3,99c0,13.2,10.7,23.9,23.9,23.9c13.2,0,23.9-10.7,23.9-23.9
				c0-9.9-6.2-18.9-15.5-22.4c-1.7-0.6-2.5-2.5-1.9-4.1c0.6-1.7,2.5-2.5,4.1-1.9c11.7,4.4,19.6,15.8,19.6,28.4
				C132.6,115.7,119,129.3,102.3,129.3z"/>
		</g>
	</g>
	<g>
		<g>
			<path class="st0" d="M101.7,90.1c-1.8,0-3.2-1.4-3.2-3.2V66.2c0-1.8,1.4-3.2,3.2-3.2c1.8,0,3.2,1.4,3.2,3.2v20.7
				C104.9,88.7,103.5,90.1,101.7,90.1z"/>
		</g>
	</g>
</g>
</svg>
