<?xml version="1.0" encoding="utf-8"?>
<!-- Generator: Adobe Illustrator 26.2.1, SVG Export Plug-In . SVG Version: 6.00 Build 0)  -->
<svg version="1.1" id="Layer_1" xmlns="http://www.w3.org/2000/svg" xmlns:xlink="http://www.w3.org/1999/xlink" x="0px" y="0px"
	 viewBox="0 0 512 512" style="enable-background:new 0 0 512 512;" xml:space="preserve">
<style type="text/css">
	.st0{fill:#326CE5;}
	.st1{fill:#FFFFFF;}
</style>
<g>
	<g>
		<rect x="0" class="st0" width="512" height="512"/>
	</g>
</g>
<g>
	<path class="st1" d="M369.7,254.5c-14.2-17-33.6-26.7-53.6-28.9c-15.8-1.8-27.9-14-29.7-29.7c-2.3-20-11.9-39.3-28.9-53.6
		c-29.3-24.5-73.2-25.1-103-1.1c-38.7,31-41,87.7-6.9,121.7c11.8,11.8,26.4,19.3,41.7,22.3c19,3.8,33.8,18.6,37.6,37.6
		c3,15.3,10.5,29.9,22.3,41.7c34.1,34.1,90.7,31.7,121.7-6.9C394.7,327.7,394.2,283.9,369.7,254.5z"/>
</g>
<g>
	<g>
		<path class="st0" d="M202.9,209.3c-31.9,0-64.3-8.4-64.3-24.6c0-32.3,128.5-32.3,128.5,0C267.2,200.9,234.8,209.3,202.9,209.3z
			 M202.9,169.3c-33.1,0-55.1,9.3-55.1,15.4c0,6.2,22,15.4,55.1,15.4s55.1-9.3,55.1-15.4C258,178.6,236,169.3,202.9,169.3z"/>
	</g>
	<g>
		<path class="st0" d="M262.6,184.7c0,11.1-26.7,20-59.7,20s-59.7-9-59.7-20V214c0,11.1,26.7,20,59.7,20s59.7-9,59.7-20V184.7z"/>
		<path class="st0" d="M202.9,238.6c-31.9,0-64.3-8.4-64.3-24.6v-29.2h9.1c0,6.2,22,15.4,55.1,15.4s55.1-9.3,55.1-15.4h9.1V214
			C267.2,230.1,234.8,238.6,202.9,238.6z M147.8,198v16c0,6.2,22,15.4,55.1,15.4S258,220.1,258,214v-16
			C234.3,212.9,171.5,212.9,147.8,198z"/>
	</g>
</g>
<g>
	<g>
		<path class="st0" d="M307.4,322.5c-31.9,0-64.3-8.4-64.3-24.6c0-32.3,128.5-32.3,128.5,0C371.6,314,339.3,322.5,307.4,322.5z
			 M307.4,282.4c-33.1,0-55.1,9.3-55.1,15.4c0,6.2,22,15.4,55.1,15.4s55.1-9.3,55.1-15.4C362.5,291.7,340.5,282.4,307.4,282.4z"/>
	</g>
	<g>
		<path class="st0" d="M367.1,297.9c0,11.1-26.7,20-59.7,20s-59.7-9-59.7-20v29.2c0,11.1,26.7,20,59.7,20s59.7-9,59.7-20V297.9z"/>
		<path class="st0" d="M307.4,351.7c-31.9,0-64.3-8.4-64.3-24.6v-29.2h9.1c0,6.2,22,15.4,55.1,15.4s55.1-9.3,55.1-15.4h9.1v29.2
			C371.6,343.3,339.3,351.7,307.4,351.7z M252.2,311.1v16c0,6.2,22,15.4,55.1,15.4s55.1-9.3,55.1-15.4v-16
			C338.8,326.1,275.9,326.1,252.2,311.1z"/>
	</g>
</g>
</svg>
