<?xml version="1.0" encoding="utf-8"?>
<!-- Generator: Adobe Illustrator 26.2.1, SVG Export Plug-In . SVG Version: 6.00 Build 0)  -->
<svg version="1.1" id="Layer_1" xmlns="http://www.w3.org/2000/svg" xmlns:xlink="http://www.w3.org/1999/xlink" x="0px" y="0px"
	 viewBox="0 0 512 512" style="enable-background:new 0 0 512 512;" xml:space="preserve">
<style type="text/css">
	.st0{fill:#326CE5;}
	.st1{fill:#FFFFFF;}
</style>
<g>
	<g>
		<g>
			<g>
				<rect x="0.2" class="st0" width="512.3" height="512.3"/>
			</g>
		</g>
		<g>
			<path class="st1" d="M256.3,278c-62.8,0-129.6-16.3-129.6-46.6s66.8-46.6,129.6-46.6s129.6,16.3,129.6,46.6S319.2,278,256.3,278z
				 M256.3,194.3c-70.7,0-120,19.5-120,37.1s49.3,37.1,120,37.1s120-19.5,120-37.1S327.1,194.3,256.3,194.3z"/>
		</g>
		<g>
			<path class="st1" d="M381.2,231.4c0,23.1-55.9,41.8-124.8,41.8s-124.8-18.7-124.8-41.8v61.1c0,23.1,55.9,41.8,124.8,41.8
				s124.8-18.7,124.8-41.8V231.4z"/>
			<path class="st1" d="M256.3,339.2c-62.8,0-129.6-16.3-129.6-46.6v-61.1h9.6c0,17.5,49.3,37.1,120,37.1s120-19.5,120-37.1h9.6
				v61.1C385.9,322.8,319.2,339.2,256.3,339.2z M136.3,249.9v42.7c0,17.5,49.3,37.1,120,37.1s120-19.5,120-37.1v-42.7
				c-20.6,18.4-71.5,28.1-120,28.1S156.9,268.3,136.3,249.9z"/>
		</g>
	</g>
	<g>
		<path class="st1" d="M412.9,258.4L412.9,258.4c0.3,8.4,7.8,14.7,16.2,13.5h0c13.2-1.9,21.5,13.9,12.4,23.7l0,0
			c-5.7,6.2-4.9,15.9,1.9,21l0,0c10.7,8,5.3,25-8,25.5h0c-8.4,0.3-14.7,7.8-13.5,16.2v0c1.9,13.2-13.9,21.5-23.7,12.4l0,0
			c-6.2-5.7-15.9-4.9-21,1.9l0,0c-8,10.7-25,5.3-25.5-8l0,0c-0.3-8.4-7.8-14.7-16.2-13.5h0c-13.2,1.9-21.5-13.9-12.4-23.7l0,0
			c5.7-6.2,4.9-15.9-1.9-21l0,0c-10.7-8-5.3-25,8-25.5h0c8.4-0.3,14.7-7.8,13.5-16.2v0c-1.9-13.2,13.9-21.5,23.7-12.4l0,0
			c6.2,5.7,15.9,4.9,21-1.9l0,0C395.4,239.7,412.4,245.1,412.9,258.4z"/>
		<path class="st0" d="M365.7,383.1c-1.9,0-3.9-0.3-5.8-0.9c-7.8-2.4-13-9.3-13.3-17.4c-0.1-2.7-1.3-5.1-3.4-6.9
			c-2.1-1.7-4.7-2.5-7.4-2.1c-8,1.2-15.7-2.8-19.5-10c-3.8-7.2-2.6-15.7,2.9-21.7c1.8-2,2.7-4.6,2.5-7.3c-0.2-2.7-1.6-5.1-3.7-6.7
			c-6.5-4.9-9.1-13.1-6.7-20.9s9.3-13,17.4-13.3c2.7-0.1,5.1-1.3,6.9-3.4c1.7-2.1,2.5-4.7,2.1-7.4c-1.1-8.1,2.8-15.7,10-19.5
			c7.2-3.8,15.7-2.6,21.7,2.9c2,1.8,4.6,2.7,7.3,2.5c2.7-0.2,5.1-1.6,6.7-3.7c4.9-6.5,13.1-9.1,20.8-6.7c7.8,2.4,13,9.3,13.3,17.4v0
			c0.1,2.7,1.3,5.1,3.4,6.9c2.1,1.7,4.7,2.5,7.4,2.1c8-1.1,15.7,2.8,19.5,10c3.8,7.2,2.6,15.7-2.9,21.7c-1.8,2-2.7,4.6-2.5,7.3
			c0.2,2.7,1.6,5.1,3.7,6.7c6.5,4.9,9.1,13.1,6.7,20.8c-2.4,7.8-9.3,13-17.4,13.3c-2.7,0.1-5.1,1.3-6.9,3.4
			c-1.7,2.1-2.5,4.7-2.1,7.4c1.1,8.1-2.8,15.7-10,19.5c-7.2,3.8-15.7,2.6-21.7-2.9c-2-1.8-4.6-2.7-7.3-2.5c-2.7,0.2-5.1,1.6-6.7,3.7
			C377.1,380.5,371.6,383.1,365.7,383.1z M337.2,346.2c4.4,0,8.8,1.6,12.2,4.4c4.1,3.4,6.6,8.5,6.8,13.8c0.2,4.9,3.5,7.7,6.6,8.7
			c3.1,1,7.4,0.6,10.4-3.3c3.2-4.3,8.1-7,13.5-7.5c5.3-0.5,10.7,1.3,14.6,5c3.6,3.4,7.9,2.9,10.8,1.5c2.9-1.5,5.7-4.8,5-9.7
			c-0.7-5.3,0.8-10.7,4.3-14.8c3.4-4.1,8.5-6.6,13.8-6.8c4.9-0.2,7.7-3.5,8.6-6.6c1-3.1,0.6-7.4-3.3-10.4c-4.3-3.2-7-8.1-7.5-13.5
			c-0.5-5.3,1.4-10.7,5-14.6c3.3-3.6,2.9-7.9,1.4-10.8c-1.5-2.9-4.8-5.7-9.7-5c-5.3,0.8-10.7-0.8-14.8-4.2
			c-4.1-3.4-6.6-8.5-6.8-13.8l0,0c-0.2-4.9-3.5-7.7-6.6-8.7c-3.1-1-7.4-0.6-10.4,3.3c-3.2,4.3-8.2,7-13.5,7.5
			c-5.3,0.5-10.7-1.3-14.6-5c-3.6-3.3-7.9-2.9-10.8-1.5c-2.9,1.5-5.7,4.8-5,9.7c0.7,5.3-0.8,10.7-4.2,14.8
			c-3.4,4.1-8.5,6.6-13.8,6.8c-4.9,0.2-7.7,3.5-8.6,6.6c-1,3.1-0.6,7.4,3.3,10.4c4.3,3.2,7,8.1,7.5,13.5c0.5,5.3-1.4,10.7-5,14.6
			c-3.3,3.6-2.9,7.9-1.4,10.8c1.5,2.9,4.7,5.6,9.7,5C335.5,346.3,336.3,346.2,337.2,346.2z"/>
	</g>
	<g>
		<path class="st0" d="M400.1,330.2c0.3,0.4,0.4,0.7,0.4,1.1c0,0.7-0.4,1.5-1.1,2.4c-0.7,0.9-1.7,1.8-2.9,2.6
			c-2.1,1.5-4.6,2.7-7.3,3.6c-2.8,0.8-5.6,1.3-8.6,1.3c-4.1,0-7.8-0.8-11.2-2.3c-3.4-1.5-6.2-3.6-8.6-6.2c-2.3-2.6-4.1-5.7-5.3-9.2
			c-1.2-3.5-1.8-7.2-1.8-11.2c0-6.2,1.4-11.7,4.1-16.5c2.7-4.8,6.4-8.5,11-11.1c4.6-2.6,9.8-3.9,15.5-3.9c3,0,6,0.3,9,1
			c3,0.7,5.5,1.6,7.5,2.8c0.2,1.7,0.3,3.7,0.3,6.2c0,2.5-0.2,4.4-0.5,5.7c-0.3,1.3-0.9,2.2-1.8,2.8c-0.8,0.6-2.1,0.9-3.7,0.9V299
			c0-5-1.1-9-3.2-11.9c-2.1-2.9-5-4.4-8.6-4.4c-4.5,0-8,2.3-10.6,6.8c-2.6,4.5-3.9,10.7-3.9,18.6c0,8.7,1.5,15.3,4.7,19.8
			c3.1,4.5,7.7,6.8,13.8,6.8c2.5,0,4.9-0.4,7.1-1.2C396.7,332.8,398.6,331.6,400.1,330.2z"/>
	</g>
</g>
</svg>
