<svg xmlns="http://www.w3.org/2000/svg" xmlns:xlink="http://www.w3.org/1999/xlink" width="500" zoomAndPan="magnify" viewBox="0 0 375 374.999991" height="500" preserveAspectRatio="xMidYMid meet" version="1.0"><defs><clipPath id="9b021af340"><path d="M 13.34375 13.34375 L 360.117188 13.34375 L 360.117188 360.117188 L 13.34375 360.117188 Z M 13.34375 13.34375 " clip-rule="nonzero"/></clipPath></defs><rect x="-37.5" width="450" fill="#ffffff" y="-37.499999" height="449.999989" fill-opacity="1"/><rect x="-37.5" width="450" fill="#ffffff" y="-37.499999" height="449.999989" fill-opacity="1"/><rect x="-37.5" width="450" fill="#326ce5" y="-37.499999" height="449.999989" fill-opacity="1"/><g clip-path="url(#9b021af340)"><path fill="#326ce5" d="M 289.074219 361.636719 L 85.902344 361.636719 C 45.996094 361.636719 13.34375 328.984375 13.34375 289.074219 L 13.34375 85.902344 C 13.34375 45.996094 45.996094 13.34375 85.902344 13.34375 L 289.074219 13.34375 C 328.984375 13.34375 361.636719 45.996094 361.636719 85.902344 L 361.636719 289.074219 C 361.636719 328.984375 328.984375 361.636719 289.074219 361.636719 Z M 289.074219 361.636719 " fill-opacity="1" fill-rule="nonzero"/></g><path fill="#ffffff" d="M 188.722656 255.914062 C 175.734375 255.914062 163.109375 252.214844 152.152344 245.246094 C 142.574219 239.152344 134.664062 230.808594 129.222656 220.941406 L 102.738281 223.625 L 135.390625 280.222656 L 242.054688 280.222656 L 285.375 205.265625 L 253.664062 208.460938 C 244.738281 236.539062 218.546875 255.914062 188.722656 255.914062 Z M 188.722656 255.914062 " fill-opacity="1" fill-rule="nonzero"/><path fill="#ffffff" d="M 304.890625 176.824219 L 322.597656 157.957031 L 284.648438 162.457031 L 284.503906 162.457031 L 246.917969 166.953125 L 246.625 166.953125 L 127.480469 181.175781 L 80.316406 186.835938 L 80.171875 186.835938 L 65.296875 188.578125 L 67.835938 195.035156 C 68.5625 196.777344 68.273438 198.734375 67.109375 200.261719 L 53.035156 218.039062 L 93.523438 213.972656 L 93.742188 213.972656 C 93.8125 213.972656 93.886719 213.972656 93.886719 213.972656 L 131.691406 210.128906 L 131.980469 210.128906 L 249.164062 198.300781 L 294.371094 193.730469 L 310.769531 192.0625 L 304.601562 183.425781 C 303.007812 181.464844 303.222656 178.636719 304.890625 176.824219 Z M 304.890625 176.824219 " fill-opacity="1" fill-rule="nonzero"/><path fill="#ffffff" d="M 242.054688 209.546875 L 140.6875 219.777344 C 151.28125 235.742188 169.058594 245.394531 188.648438 245.394531 C 212.378906 245.394531 233.347656 231.027344 242.054688 209.546875 Z M 242.054688 209.546875 " fill-opacity="1" fill-rule="nonzero"/><path fill="#ffffff" d="M 188.722656 119.644531 C 214.117188 119.644531 237.339844 133.867188 249.09375 156.144531 L 275.359375 153.023438 L 242.054688 95.410156 L 135.390625 95.410156 L 89.316406 175.226562 L 122.691406 171.234375 C 130.09375 141.121094 157.304688 119.644531 188.722656 119.644531 Z M 188.722656 119.644531 " fill-opacity="1" fill-rule="nonzero"/><path fill="#ffffff" d="M 188.722656 130.167969 C 163.542969 130.167969 141.558594 146.492188 133.9375 169.929688 L 237.773438 157.523438 C 227.324219 140.6875 208.75 130.167969 188.722656 130.167969 Z M 188.722656 130.167969 " fill-opacity="1" fill-rule="nonzero"/></svg>