<svg xmlns="http://www.w3.org/2000/svg" xmlns:xlink="http://www.w3.org/1999/xlink" width="500" zoomAndPan="magnify" viewBox="0 0 375 374.999991" height="500" preserveAspectRatio="xMidYMid meet" version="1.0"><defs><g/><clipPath id="46433fc8f6"><path d="M 64.808594 62.628906 L 169 62.628906 L 169 165 L 64.808594 165 Z M 64.808594 62.628906 " clip-rule="nonzero"/></clipPath><clipPath id="3150bde75f"><path d="M 211 210 L 314.558594 210 L 314.558594 312.378906 L 211 312.378906 Z M 211 210 " clip-rule="nonzero"/></clipPath></defs><rect x="-37.5" width="450" fill="#ffffff" y="-37.499999" height="449.999989" fill-opacity="1"/><rect x="-37.5" width="450" fill="#ffffff" y="-37.499999" height="449.999989" fill-opacity="1"/><rect x="-37.5" width="450" fill="#326ce5" y="-37.499999" height="449.999989" fill-opacity="1"/><g clip-path="url(#46433fc8f6)"><path fill="#ffffff" d="M 126.265625 157.644531 L 72.613281 103.988281 L 72.613281 70.429688 L 106.171875 70.429688 L 156.898438 121.160156 L 168.019531 121.160156 L 110.460938 63.796875 C 109.683594 63.015625 108.707031 62.628906 107.730469 62.628906 L 68.710938 62.628906 C 66.5625 62.628906 64.808594 64.382812 64.808594 66.53125 L 64.808594 105.550781 C 64.808594 106.527344 65.199219 107.503906 65.976562 108.28125 L 121.972656 164.277344 Z M 126.265625 157.644531 " fill-opacity="1" fill-rule="nonzero"/></g><g clip-path="url(#3150bde75f)"><path fill="#ffffff" d="M 313.375 266.710938 L 257.378906 210.714844 L 253.085938 217.542969 L 306.742188 271.199219 L 306.742188 304.5625 L 273.183594 304.5625 L 222.453125 253.832031 L 211.332031 253.832031 L 268.695312 311.195312 C 269.476562 311.976562 270.453125 312.367188 271.425781 312.367188 L 310.449219 312.367188 C 312.59375 312.367188 314.351562 310.609375 314.351562 308.464844 L 314.351562 269.441406 C 314.546875 268.464844 314.15625 267.492188 313.375 266.710938 Z M 313.375 266.710938 " fill-opacity="1" fill-rule="nonzero"/></g><path fill="#ffffff" d="M 261.28125 185.351562 L 227.332031 130.71875 C 226.550781 129.550781 225.382812 128.964844 224.015625 128.964844 L 155.335938 128.964844 C 153.972656 128.964844 152.800781 129.746094 152.019531 130.71875 L 118.070312 185.351562 C 117.292969 186.519531 117.292969 188.277344 118.070312 189.449219 L 152.019531 244.078125 C 152.800781 245.25 153.972656 245.832031 155.335938 245.832031 L 223.820312 245.832031 C 225.1875 245.832031 226.355469 245.054688 227.136719 244.078125 L 261.085938 189.449219 C 262.0625 188.277344 262.0625 186.714844 261.28125 185.351562 Z M 261.28125 185.351562 " fill-opacity="1" fill-rule="nonzero"/><g fill="#326ce5" fill-opacity="1"><g transform="translate(147.573304, 214.861435)"><g><path d="M 35.0625 -45.140625 L 21.734375 -45.140625 L 21.734375 0 L 15.375 0 L 15.375 -45.140625 L 2.09375 -45.140625 L 2.09375 -50.640625 L 35.0625 -50.640625 Z M 35.0625 -45.140625 "/></g></g></g><g fill="#326ce5" fill-opacity="1"><g transform="translate(184.648234, 214.861435)"><g><path d="M 38.40625 -20.875 C 38.40625 -13.957031 36.929688 -8.628906 33.984375 -4.890625 C 31.035156 -1.160156 26.847656 0.703125 21.421875 0.703125 C 16.203125 0.703125 12.078125 -1.109375 9.046875 -4.734375 C 6.023438 -8.367188 4.457031 -13.503906 4.34375 -20.140625 L 4.34375 -29.671875 C 4.34375 -36.441406 5.835938 -41.742188 8.828125 -45.578125 C 11.828125 -49.421875 16.003906 -51.34375 21.359375 -51.34375 C 26.691406 -51.34375 30.847656 -49.503906 33.828125 -45.828125 C 36.804688 -42.148438 38.332031 -36.90625 38.40625 -30.09375 Z M 32.03125 -29.734375 C 32.03125 -35.097656 31.15625 -39.082031 29.40625 -41.6875 C 27.65625 -44.289062 24.972656 -45.59375 21.359375 -45.59375 C 17.859375 -45.59375 15.207031 -44.269531 13.40625 -41.625 C 11.613281 -38.988281 10.703125 -35.097656 10.671875 -29.953125 L 10.671875 -20.875 C 10.671875 -15.695312 11.566406 -11.75 13.359375 -9.03125 C 15.160156 -6.320312 17.847656 -4.96875 21.421875 -4.96875 C 24.992188 -4.96875 27.640625 -6.21875 29.359375 -8.71875 C 31.078125 -11.226562 31.96875 -15.070312 32.03125 -20.25 Z M 32.03125 -29.734375 "/></g></g></g></svg>