<?xml version="1.0" encoding="utf-8"?>
<!-- Generator: Adobe Illustrator 26.2.1, SVG Export Plug-In . SVG Version: 6.00 Build 0)  -->
<svg version="1.1" id="Layer_1" xmlns="http://www.w3.org/2000/svg" xmlns:xlink="http://www.w3.org/1999/xlink" x="0px" y="0px"
	 viewBox="0 0 256 256" style="enable-background:new 0 0 256 256;" xml:space="preserve">
<style type="text/css">
	.st0{fill:#326CE5;}
</style>
<g>
	<g>
		<g>
			<g>
				<path class="st0" d="M130.5,137.7c37.9,0,68.9-31,68.9-68.9S168.4,0,130.5,0S61.7,31,61.7,68.9S92.7,137.7,130.5,137.7z"/>
			</g>
			<g>
				<path class="st0" d="M248.7,183.5c-1.8-4.5-4.2-8.7-6.9-12.6c-13.8-20.4-35.2-34-59.2-37.3c-3-0.3-6.3,0.3-8.7,2.1
					c-12.6,9.3-27.7,14.1-43.3,14.1s-30.7-4.8-43.3-14.1c-2.4-1.8-5.7-2.7-8.7-2.1c-24.1,3.3-45.7,16.8-59.2,37.3
					c-2.7,3.9-5.1,8.4-6.9,12.6c-0.9,1.8-0.6,3.9,0.3,5.7c2.4,4.2,5.4,8.4,8.1,12c4.2,5.7,8.7,10.8,13.8,15.6c4.2,4.2,9,8.1,13.8,12
					c23.8,17.7,52.3,27.1,81.8,27.1s58-9.3,81.8-27.1c4.8-3.6,9.6-7.8,13.8-12c4.8-4.8,9.6-9.9,13.8-15.6c3-3.9,5.7-7.8,8.1-12
					C249.3,187.4,249.6,185.3,248.7,183.5z"/>
			</g>
		</g>
	</g>
</g>
</svg>
