<?xml version="1.0" encoding="utf-8"?>
<!-- Generator: Adobe Illustrator 26.2.1, SVG Export Plug-In . SVG Version: 6.00 Build 0)  -->
<svg version="1.1" id="Layer_1" xmlns="http://www.w3.org/2000/svg" xmlns:xlink="http://www.w3.org/1999/xlink" x="0px" y="0px"
	 viewBox="0 0 512 512" style="enable-background:new 0 0 512 512;" xml:space="preserve">
<style type="text/css">
	.st0{fill:#326CE5;}
	.st1{fill:#FFFFFF;}
</style>
<g>
	<g>
		<rect x="0" class="st0" width="512" height="512"/>
	</g>
</g>
<g>
	<g>
		
			<rect x="250" y="234.8" transform="matrix(0.7071 -0.7071 0.7071 0.7071 -87.1439 268.326)" class="st1" width="60.7" height="9.1"/>
	</g>
	<g>
		<g>
			<polygon class="st1" points="308.6,230.4 315.7,204 289.3,211.1 			"/>
		</g>
	</g>
</g>
<g>
	<g>
		<path class="st1" d="M253.9,378H150.2c-6,0-10.9-4.9-10.9-10.9V265.9c0-6,4.9-10.9,10.9-10.9h103.7c6,0,10.9,4.9,10.9,10.9v101.3
			C264.8,373.2,259.9,378,253.9,378z"/>
	</g>
	<g>
		<path class="st1" d="M253.9,382.6H150.2c-8.5,0-15.4-6.9-15.4-15.4V265.9c0-8.5,6.9-15.4,15.4-15.4h103.7
			c8.5,0,15.4,6.9,15.4,15.4v101.3C269.3,375.7,262.4,382.6,253.9,382.6z M150.2,259.6c-3.5,0-6.3,2.8-6.3,6.3v101.3
			c0,3.5,2.8,6.3,6.3,6.3h103.7c3.5,0,6.3-2.8,6.3-6.3V265.9c0-3.5-2.8-6.3-6.3-6.3H150.2z"/>
	</g>
</g>
<g>
	<g>
		<path class="st0" d="M201.9,368.6c-2.5,0-4.6-2-4.6-4.6c0-2.5,2-4.6,4.5-4.6c8,0,15.9-2.1,22.7-6.1c2.2-1.2,5-0.5,6.2,1.7
			c1.3,2.2,0.5,5-1.7,6.2C221,366.1,211.5,368.6,201.9,368.6C201.9,368.6,201.9,368.6,201.9,368.6z M176.8,362.2
			c-0.7,0-1.5-0.2-2.2-0.6c-8.4-4.6-15.4-11.6-20.1-20c-1.2-2.2-0.4-5,1.8-6.2c2.2-1.2,5-0.4,6.2,1.8c4,7.1,9.5,12.6,16.5,16.5
			c2.2,1.2,3,4,1.8,6.2C180,361.3,178.4,362.2,176.8,362.2z M245.2,343.5c-0.8,0-1.6-0.2-2.3-0.6c-2.2-1.3-2.9-4.1-1.7-6.2
			c4-6.9,6.1-14.7,6.1-22.7c0-2.5,2-4.9,4.6-4.9c2.5,0,4.6,1.7,4.6,4.3h-4.6l4.6,0.4c0,9.8-2.5,19.3-7.3,27.5
			C248.3,342.7,246.8,343.5,245.2,343.5z M152,318.6c-2.5,0-4.6-1.9-4.6-4.4v-0.3c0-9.6,2.3-18.9,6.7-27.1c1.2-2.2,4-3,6.2-1.8
			c2.2,1.2,3,4,1.8,6.2c-3.7,6.8-5.6,14.7-5.6,22.7C156.6,316.5,154.5,318.6,152,318.6z M244.9,293c-1.6,0-3.1-0.8-3.9-2.2
			c-4.1-6.9-9.9-12.6-16.8-16.5c-2.2-1.2-3-4-1.7-6.2c1.2-2.2,4-3,6.2-1.7c8.3,4.7,15.3,11.5,20.2,19.8c1.3,2.2,0.6,5-1.6,6.3
			C246.5,292.8,245.7,293,244.9,293z M176.3,275.1c-1.6,0-3.1-0.8-4-2.3c-1.2-2.2-0.5-5,1.7-6.2c7.9-4.5,17-6.9,27.1-7.3
			c2.3-0.2,4.6,1.9,4.8,4.4c0.1,2.5-1.9,4.6-4.4,4.8c-8.7,0.4-16.4,2.4-23,6.2C177.8,274.9,177,275.1,176.3,275.1z"/>
	</g>
	<g>
		<g>
			<path class="st0" d="M216.2,340.1h-28.9c-6.5,0-11.7-5.2-11.7-11.7v-28.9c0-6.5,5.2-11.7,11.7-11.7h28.9
				c6.5,0,11.7,5.2,11.7,11.7v28.9C227.9,334.9,222.7,340.1,216.2,340.1z"/>
		</g>
	</g>
	<g>
		<path class="st1" d="M216.9,309.7h-29.7c-2.5,0-4.6-2-4.6-4.6s2-4.6,4.6-4.6h29.7c2.5,0,4.6,2,4.6,4.6S219.4,309.7,216.9,309.7z"
			/>
	</g>
	<g>
		<path class="st1" d="M216.9,326.4h-29.7c-2.5,0-4.6-2-4.6-4.6s2-4.6,4.6-4.6h29.7c2.5,0,4.6,2,4.6,4.6S219.4,326.4,216.9,326.4z"
			/>
	</g>
</g>
<g>
	<path class="st1" d="M370.2,382.6h-30c-2.5,0-4.6-2-4.6-4.6s2-4.6,4.6-4.6h30v1.4c1,0.8,1.6,2,1.6,3.2c0,1.5-0.6,2.8-1.6,3.7V382.6
		z M312.9,382.6h-27.3c-2.5,0-4.6-2-4.6-4.6s2-4.6,4.6-4.6h27.3c2.5,0,4.6,2,4.6,4.6S315.4,382.6,312.9,382.6z M258.3,382.6H231
		c-2.5,0-4.6-2-4.6-4.6s2-4.6,4.6-4.6h27.3c2.5,0,4.6,2,4.6,4.6S260.8,382.6,258.3,382.6z M203.7,382.6h-27.3c-2.5,0-4.6-2-4.6-4.6
		s2-4.6,4.6-4.6h27.3c2.5,0,4.6,2,4.6,4.6S206.2,382.6,203.7,382.6z M149.1,382.6c-0.2,0-0.3,0-0.5,0c-7.9-0.8-13.9-7.4-13.9-15.3
		v-11.3c0-2.5,2-4.6,4.6-4.6c2.5,0,4.6,2,4.6,4.6v11.3c0,3.3,2.4,5.9,5.7,6.3c2.5,0.2,4.3,2.5,4.1,5
		C153.4,380.8,151.4,382.6,149.1,382.6z M378.4,361.4c-2.5,0-4.6-2-4.6-4.6v-27.3c0-2.5,2-4.6,4.6-4.6c2.5,0,4.6,2,4.6,4.6v27.3
		C382.9,359.3,380.9,361.4,378.4,361.4z M139.3,333.1c-2.5,0-4.6-2-4.6-4.6v-27.3c0-2.5,2-4.6,4.6-4.6c2.5,0,4.6,2,4.6,4.6v27.3
		C143.9,331.1,141.9,333.1,139.3,333.1z M378.4,306.8c-2.5,0-4.6-2-4.6-4.6v-27.3c0-2.5,2-4.6,4.6-4.6c2.5,0,4.6,2,4.6,4.6v27.3
		C382.9,304.7,380.9,306.8,378.4,306.8z M139.3,278.5c-2.5,0-4.6-2-4.6-4.6v-27.3c0-2.5,2-4.6,4.6-4.6c2.5,0,4.6,2,4.6,4.6V274
		C143.9,276.5,141.9,278.5,139.3,278.5z M378.4,252.2c-2.5,0-4.6-2-4.6-4.6v-27.3c0-2.5,2-4.6,4.6-4.6c2.5,0,4.6,2,4.6,4.6v27.3
		C382.9,250.1,380.9,252.2,378.4,252.2z M139.3,223.9c-2.5,0-4.6-2-4.6-4.6v-27.3c0-2.5,2-4.6,4.6-4.6c2.5,0,4.6,2,4.6,4.6v27.3
		C143.9,221.9,141.9,223.9,139.3,223.9z M378.4,197.6c-2.5,0-4.6-2-4.6-4.6v-27.3c0-2.5,2-4.6,4.6-4.6c2.5,0,4.6,2,4.6,4.6V193
		C382.9,195.5,380.9,197.6,378.4,197.6z M139.3,169.3c-2.5,0-4.6-2-4.6-4.6v-10.3c0-8.5,6.9-15.4,15.3-15.4c0,0,0,0,0,0
		c2.5,0,4.5,2,4.6,4.5c0,2.5-2,4.6-4.5,4.6c-3.5,0-6.3,2.8-6.3,6.3v10.3C143.9,167.3,141.9,169.3,139.3,169.3z M368.5,148.2
		c-0.1,0-0.3,0-0.4,0l-26.9,0c-2.5,0-4.6-2-4.6-4.6s2-4.6,4.6-4.6h26.3c0.5,0,1,0,1.4,0.1c2.5,0.2,4.4,2.5,4.1,5
		C372.9,146.4,370.9,148.2,368.5,148.2z M313.9,148.2h-27.3c-2.5,0-4.6-2-4.6-4.6s2-4.6,4.6-4.6h27.3c2.5,0,4.6,2,4.6,4.6
		S316.5,148.2,313.9,148.2z M259.3,148.2H232c-2.5,0-4.6-2-4.6-4.6s2-4.6,4.6-4.6h27.3c2.5,0,4.6,2,4.6,4.6S261.9,148.2,259.3,148.2
		z M204.7,148.2h-27.3c-2.5,0-4.6-2-4.6-4.6s2-4.6,4.6-4.6h27.3c2.5,0,4.6,2,4.6,4.6S207.3,148.2,204.7,148.2z"/>
</g>
</svg>
