<?xml version="1.0" encoding="utf-8"?>
<!-- Generator: Adobe Illustrator 26.2.1, SVG Export Plug-In . SVG Version: 6.00 Build 0)  -->
<svg version="1.1" id="Layer_1" xmlns="http://www.w3.org/2000/svg" xmlns:xlink="http://www.w3.org/1999/xlink" x="0px" y="0px"
	 viewBox="0 0 512 512" style="enable-background:new 0 0 512 512;" xml:space="preserve">
<style type="text/css">
	.st0{fill:#326CE5;}
	.st1{fill:#FFFFFF;}
</style>
<g>
	<g>
		<g>
			<g>
				<rect x="0" y="0" class="st0" width="512" height="512"/>
			</g>
		</g>
		<g>
			<path class="st1" d="M256,277.8c-62.8,0-129.5-16.3-129.5-46.6s66.7-46.6,129.5-46.6s129.5,16.3,129.5,46.6
				S318.8,277.8,256,277.8z M256,194.2c-70.7,0-120,19.5-120,37s49.3,37,120,37c70.7,0,120-19.5,120-37S326.7,194.2,256,194.2z"/>
		</g>
		<g>
			<path class="st1" d="M380.7,231.3c0,23.1-55.8,41.8-124.7,41.8s-124.7-18.7-124.7-41.8v61.1c0,23.1,55.8,41.8,124.7,41.8
				s124.7-18.7,124.7-41.8V231.3z"/>
			<path class="st1" d="M256,338.9c-62.8,0-129.5-16.3-129.5-46.6v-61.1h9.5c0,17.5,49.3,37,120,37c70.7,0,120-19.5,120-37h9.5v61.1
				C385.5,322.6,318.8,338.9,256,338.9z M136,249.7v42.6c0,17.5,49.3,37,120,37c70.7,0,120-19.5,120-37v-42.6
				c-20.6,18.4-71.5,28.1-120,28.1C207.5,277.8,156.7,268.1,136,249.7z"/>
		</g>
	</g>
	<g>
		<g>
			<g>
				<path class="st1" d="M310.9,365.2c-11,0-19.9-8.9-19.9-19.9v-74.6c0-9.6,6.8-17.6,15.8-19.5V250c0-3.6,2.9-6.5,6.5-6.5h17.8
					c2.9,0,5.4,1.9,6.2,4.6l7-10.8c2.6-4,7-6.4,11.8-6.4h30.3c4.8,0,9.2,2.4,11.8,6.4l8.7,13.5h24.7c11,0,19.9,8.9,19.9,19.9v74.6
					c0,11-8.9,19.9-19.9,19.9H310.9z"/>
			</g>
			<g>
				<path class="st0" d="M386.3,235.7c3.1,0,6.1,1.6,7.8,4.2l10.1,15.6h27.3c8.4,0,15.1,6.8,15.1,15.1v74.6
					c0,8.4-6.8,15.1-15.1,15.1H310.9c-8.4,0-15.1-6.8-15.1-15.1v-74.6c0-8.4,6.8-15.1,15.1-15.1h0.7V250c0-1,0.8-1.7,1.7-1.7h17.8
					c1,0,1.7,0.8,1.7,1.7v5.5h5.4l10.1-15.6c1.7-2.6,4.6-4.2,7.8-4.2H386.3 M386.3,226.1h-30.3c-6.4,0-12.3,3.2-15.8,8.6l-3.6,5.5
					c-1.7-1-3.6-1.5-5.6-1.5h-17.8c-5.4,0-9.9,3.8-11,8.8c-9.4,3.5-16.1,12.6-16.1,23.2v74.6c0,13.6,11.1,24.7,24.7,24.7h120.6
					c13.6,0,24.7-11.1,24.7-24.7v-74.6c0-13.6-11.1-24.7-24.7-24.7h-22.1l-7.3-11.3C398.6,229.3,392.7,226.1,386.3,226.1
					L386.3,226.1z"/>
			</g>
		</g>
		<g>
			<path class="st0" d="M371.2,338.3c-18.7,0-33.9-15.2-33.9-33.9c0-18.7,15.2-33.9,33.9-33.9c18.7,0,33.9,15.2,33.9,33.9
				C405.1,323,389.9,338.3,371.2,338.3z M371.2,280c-13.4,0-24.4,10.9-24.4,24.4s10.9,24.4,24.4,24.4c13.4,0,24.4-10.9,24.4-24.4
				S384.6,280,371.2,280z"/>
		</g>
		<g>
			<path class="st0" d="M432.6,275.6H423c-2.6,0-4.8-2.1-4.8-4.8s2.1-4.8,4.8-4.8h9.6c2.6,0,4.8,2.1,4.8,4.8
				S435.3,275.6,432.6,275.6z"/>
		</g>
	</g>
</g>
</svg>
