<?xml version="1.0" encoding="utf-8"?>
<!-- Generator: Adobe Illustrator 26.2.1, SVG Export Plug-In . SVG Version: 6.00 Build 0)  -->
<svg version="1.1" id="Layer_1" xmlns="http://www.w3.org/2000/svg" xmlns:xlink="http://www.w3.org/1999/xlink" x="0px" y="0px"
	 viewBox="0 0 512 512" style="enable-background:new 0 0 512 512;" xml:space="preserve">
<style type="text/css">
	.st0{fill:#326CE5;}
	.st1{fill:#FFFFFF;}
	.st2{fill:#526CB4;}
</style>
<g>
	<g>
		<rect x="0" class="st0" width="512" height="512"/>
	</g>
	<g>
		<path class="st1" d="M391.6,399.2H120.4c-13.7,0-24.9-11.2-24.9-24.9V257.7c0-13.7,11.2-24.9,24.9-24.9h271.1
			c13.7,0,24.9,11.2,24.9,24.9v116.6C416.4,388,405.3,399.2,391.6,399.2z M120.4,239.7c-9.9,0-18,8.1-18,18v116.6
			c0,9.9,8.1,18,18,18h271.1c9.9,0,18-8.1,18-18V257.7c0-9.9-8.1-18-18-18H120.4z"/>
	</g>
	<g>
		<line class="st2" x1="99" y1="317.1" x2="413" y2="317.1"/>
		<rect x="99" y="312.6" class="st1" width="314" height="9.1"/>
	</g>
	<g>
		<path class="st1" d="M379.6,282.8H295c-2.5,0-4.6-2-4.6-4.6s2-4.6,4.6-4.6h84.6c2.5,0,4.6,2,4.6,4.6S382.2,282.8,379.6,282.8z"/>
	</g>
	<g>
		<g>
			<path class="st0" d="M177.5,174.4l14.8-5.3c6.8-2.4,10-10.1,6.9-16.6l-6.7-14.2l16.1-16.1l14.2,6.7c6.5,3.1,14.2-0.1,16.6-6.9
				l5.3-14.8h22.8l5.3,14.8c2.4,6.8,10.1,10,16.6,6.9l14.2-6.7l16.1,16.1l-6.7,14.2c-3.1,6.5,0.1,14.2,6.9,16.6l14.8,5.3v22.8
				l-14.8,5.3c-6.8,2.4-10,10.1-6.9,16.6l6.7,14.2l-16.1,16.1l-14.2-6.7c-6.5-3.1-14.2,0.1-16.6,6.9l-5.3,14.8h-22.8l-5.3-14.8
				c-2.4-6.8-10.1-10-16.6-6.9l-14.2,6.7l-16.1-16.1l6.7-14.2c3.1-6.5-0.1-14.2-6.9-16.6l-14.8-5.3V174.4z"/>
			<path class="st1" d="M270.6,268.9h-29.3l-6.3-17.8c-0.7-2-2.2-3.6-4.2-4.4c-2-0.8-4.2-0.8-6.1,0.2l-17.1,8.1l-20.7-20.7l8.1-17.1
				c0.9-2,1-4.1,0.2-6.1c-0.8-2-2.4-3.5-4.5-4.2l-17.8-6.3v-29.3l17.8-6.3c2-0.7,3.6-2.2,4.5-4.2c0.8-2,0.8-4.2-0.2-6.1l-8.1-17.1
				l20.7-20.7l17.1,8.1c2,0.9,4.1,1,6.1,0.2c2-0.8,3.5-2.4,4.2-4.4l6.3-17.8h29.3l6.3,17.8c0.7,2,2.2,3.6,4.2,4.4
				c2,0.8,4.2,0.8,6.1-0.2l17.1-8.1l20.7,20.7l-8.1,17.1c-0.9,1.9-1,4.1-0.2,6.1c0.8,2,2.4,3.5,4.5,4.2l17.8,6.3v29.3l-17.8,6.3
				c-2,0.7-3.6,2.2-4.5,4.2c-0.8,2-0.8,4.2,0.2,6.1l8.1,17.1l-20.7,20.7l-17.1-8.1c-2-0.9-4.1-1-6.1-0.2c-2,0.8-3.5,2.4-4.2,4.4
				L270.6,268.9z M247.8,259.8h16.4l4.2-11.7c1.6-4.4,5-8,9.3-9.8c4.3-1.8,9.3-1.7,13.5,0.3l11.2,5.3l11.6-11.6l-5.3-11.2
				c-2-4.3-2.1-9.2-0.3-13.5c1.8-4.4,5.4-7.8,9.8-9.3l11.7-4.2v-16.4l-11.7-4.2c-4.4-1.6-8-5-9.8-9.3c-1.8-4.4-1.7-9.3,0.3-13.5
				l5.3-11.2l-11.6-11.6l-11.2,5.3c-4.2,2-9.2,2.1-13.5,0.3c-4.4-1.8-7.8-5.4-9.3-9.8l-4.2-11.7h-16.4l-4.2,11.7
				c-1.6,4.4-5,8-9.3,9.8c-4.3,1.8-9.3,1.7-13.5-0.3l-11.2-5.3l-11.6,11.6l5.3,11.2c2,4.3,2.1,9.2,0.3,13.5
				c-1.8,4.4-5.4,7.8-9.8,9.3l-11.7,4.2V194l11.7,4.2c4.4,1.6,8,5,9.8,9.3c1.8,4.4,1.7,9.3-0.3,13.6l-5.4,11.2l11.6,11.6l11.2-5.3
				c4.3-2,9.2-2.1,13.6-0.3c4.4,1.8,7.8,5.4,9.3,9.8L247.8,259.8z"/>
		</g>
		<g>
			<path class="st1" d="M256,216.2c-17.6,0-32-14.3-32-32s14.3-32,32-32c17.6,0,32,14.3,32,32S273.6,216.2,256,216.2z M256,161.4
				c-12.6,0-22.8,10.3-22.8,22.8c0,12.6,10.3,22.8,22.8,22.8c12.6,0,22.8-10.3,22.8-22.8C278.8,171.6,268.6,161.4,256,161.4z"/>
		</g>
	</g>
	<g>
		<path class="st1" d="M379.6,361.3H295c-2.5,0-4.6-2-4.6-4.6s2-4.6,4.6-4.6h84.6c2.5,0,4.6,2,4.6,4.6S382.2,361.3,379.6,361.3z"/>
	</g>
	<g>
		<circle class="st1" cx="150.5" cy="274.8" r="15.8"/>
	</g>
	<g>
		<circle class="st1" cx="148.1" cy="356.7" r="15.8"/>
	</g>
</g>
</svg>
